<svg xmlns="http://www.w3.org/2000/svg" viewBox="0 0 156.19 69.33"><defs><style>.cls-1{fill:#f7f3f0;}.cls-2,.cls-6,.cls-7{fill:none;stroke-miterlimit:10;}.cls-2{stroke:#3f4454;stroke-width:2.19px;}.cls-3{font-size:14px;fill:#fff;font-family:GaboDrive, Gabo Drive;}.cls-4{letter-spacing:-0.01em;}.cls-5{letter-spacing:0em;}.cls-6,.cls-7{stroke:#fd7190;}.cls-6{stroke-width:0.5px;}.cls-7{stroke-width:2px;}</style></defs><title>Fariview</title><g id="Layer_2" data-name="Layer 2"><g id="Layer_1-2" data-name="Layer 1"><g id="Fairview"><polygon class="cls-1" points="78.09 1.23 1.09 41.23 1.09 68.23 155.09 68.23 155.09 41.23 78.09 1.23"/><polygon class="cls-2" points="78.09 1.23 1.09 41.23 1.09 68.23 155.09 68.23 155.09 41.23 78.09 1.23"/><text class="cls-3" transform="translate(28.02 58.37) scale(1.16 1)">PUBLIC MARK<tspan class="cls-4" x="74.21" y="0">E</tspan><tspan class="cls-5" x="79.84" y="0">T</tspan></text><path class="cls-6" d="M28.69,47.3h3.36a8.75,8.75,0,0,1,2,.18,2.35,2.35,0,0,1,1,.53,2.16,2.16,0,0,1,.56.85,4.63,4.63,0,0,1,.19,1.54v1a3,3,0,0,1-.37,1.52,2.1,2.1,0,0,1-.91.76,4.19,4.19,0,0,1-1.68.27H32v4.46H28.69ZM32,52h.25a1.14,1.14,0,0,0,.71-.2,1,1,0,0,0,.25-.81V50.1c0-.38-.09-.62-.29-.73a1.83,1.83,0,0,0-.93-.17Z"/><path class="cls-6" d="M44.43,47.3v7.4a11.13,11.13,0,0,1-.1,1.77,2.33,2.33,0,0,1-.56,1,3.88,3.88,0,0,1-3,1.09,5.79,5.79,0,0,1-2-.33,3.09,3.09,0,0,1-1.32-.85,2.18,2.18,0,0,1-.52-1.11,22.57,22.57,0,0,1-.08-2.46V47.3h3.34v7.85a2.22,2.22,0,0,0,.06.92.46.46,0,0,0,.79,0,3.46,3.46,0,0,0,.1-1.05l0-7.72Z"/><path class="cls-6" d="M45.72,47.3h3.33a10,10,0,0,1,2.39.21,2.38,2.38,0,0,1,1.32.86,3.42,3.42,0,0,1,.5,2.08,2,2,0,0,1-.36,1.35,2.61,2.61,0,0,1-1.39.59,2.6,2.6,0,0,1,1.57.75,2.55,2.55,0,0,1,.41,1.6v1a3.58,3.58,0,0,1-.3,1.66,1.51,1.51,0,0,1-.94.74,11.4,11.4,0,0,1-2.67.2H45.72Zm3.34,4.35h.33c.48,0,.78-.07.86-.21a3.06,3.06,0,0,0,.13-1.2,1,1,0,0,0-.23-.72,1.07,1.07,0,0,0-.41-.27,3.23,3.23,0,0,0-.69-.06Zm0,4.82a2.34,2.34,0,0,0,1-.19c.21-.12.32-.4.32-.84v-1c0-.47-.1-.76-.29-.86a2.63,2.63,0,0,0-1-.17Z"/><path class="cls-6" d="M58,47.3V56h2v2.37H54.69V47.3Z"/><path class="cls-6" d="M64.21,47.29V58.37H60.87V47.29Z"/><path class="cls-6" d="M73.39,51.42H70.48c0-1.31-.17-2-.37-2.21a1,1,0,0,0-.67-.27.75.75,0,0,0-.67.44,5.06,5.06,0,0,0-.25,2.05v2.51a6.25,6.25,0,0,0,.25,2.42.75.75,0,0,0,.64.37,1,1,0,0,0,.69-.29,5.22,5.22,0,0,0,.37-2.5h2.92a9.67,9.67,0,0,1-.33,2.88,2.61,2.61,0,0,1-1.25,1.26,4.75,4.75,0,0,1-2.37.54A5.56,5.56,0,0,1,67,58.14a2.36,2.36,0,0,1-1.26-1.26,7.24,7.24,0,0,1-.31-2.44V51.2a12.31,12.31,0,0,1,.1-1.79,2.37,2.37,0,0,1,.56-1.16,4.2,4.2,0,0,1,3.24-1.19,5.33,5.33,0,0,1,2.44.49A2.43,2.43,0,0,1,73,48.73a4.83,4.83,0,0,1,.33,1.63Z"/><path class="cls-6" d="M87.72,47.3V58.37H84.8V51.59l-1.17,6.77H81.56l-1.23-6.77v6.77H77.41V47.3h4.12L82.61,52l1-4.74Z"/><path class="cls-6" d="M94.45,47.31l2.29,11.06H93.45l-.17-2h-1.5l-.2,2H88.29l2.13-11.06Zm-1.4,7.11c-.17-1.25-.34-2.8-.51-4.64-.34,2.11-.55,3.66-.63,4.64Z"/><path class="cls-6" d="M97.3,47.3h2.36a18,18,0,0,1,3.21.18,2.38,2.38,0,0,1,1.36.79,3.23,3.23,0,0,1,.53,2.05,2.72,2.72,0,0,1-.37,1.62,2.09,2.09,0,0,1-1.13.7c.66.14,1,.32,1.17.55a3,3,0,0,1,.25.63,8.66,8.66,0,0,1,.09,1.63v2.92h-2.92V54.69a1.79,1.79,0,0,0-.29-1,1.39,1.39,0,0,0-.9-.29v5H97.3Zm3.34,4.35a2.37,2.37,0,0,0,.88-.13c.21-.09.32-.38.32-.87V50a.71.71,0,0,0-.31-.69,1.93,1.93,0,0,0-.89-.16Z"/><path class="cls-6" d="M114,47.3l-1.91,5,2.09,6.07h-3.45l-1.36-4.09v4.09h-3.34V47.3h3.34v3.81l1.49-3.81Z"/><path class="cls-6" d="M114.77,47.3h5.89l0,2.22h-2.56v2.1h1.83v2.1h-1.83v2.43h2.61v2.21h-6Z"/><path class="cls-6" d="M128.13,47.29l0,2.24h-2.12v8.85h-3.34V49.52h-2.07V47.29Z"/><line class="cls-7" x1="28.19" y1="61.23" x2="127.19" y2="61.23"/></g></g></g></svg>