<svg id="layer1" xmlns="http://www.w3.org/2000/svg" xmlns:xlink="http://www.w3.org/1999/xlink" viewBox="0 0 100 100"><defs><style>.cls-1{fill:url(#linear-gradient);}.cls-2,.cls-3,.cls-4,.cls-5{fill:#fccbaa;}.cls-3{opacity:0.2;}.cls-4{opacity:0.3;}.cls-5{opacity:0.5;}</style><linearGradient id="linear-gradient" x1="50" y1="85.33" x2="50" y2="14.67" gradientUnits="userSpaceOnUse"><stop offset="0.05" stop-color="#fccbaa"/><stop offset="0.27" stop-color="#b79487"/><stop offset="0.51" stop-color="#766066"/><stop offset="0.71" stop-color="#463a4e"/><stop offset="0.87" stop-color="#282340"/><stop offset="0.95" stop-color="#1d1a3a"/></linearGradient></defs><title>icons</title><g id="Sunrise"><g id="Sunset2"><path class="cls-1" d="M20.51,66.47a1.53,1.53,0,0,0,1.17-.64,6.23,6.23,0,0,1,1.24-1.22c.48-.3,1-.57,1.45-.9s1.08-.94,1.65-1.36,1.38-.6,2-1a8.22,8.22,0,0,0,.9-.48,2.4,2.4,0,0,0,.53-.74c.16-.21.39-.74.69-.71-.07,0,.37-.46.32-.41.23-.25.76.16,1,.25a2.11,2.11,0,0,1,.78.28c.18.18.32.48.51.69a2.19,2.19,0,0,0,.69.69c.23.09.41,0,.62.07s.25.18.37.3c.28.28.53.57.94.41s.55-.92,1.08-.9c.3,0,.39.37.69.39a1.67,1.67,0,0,0,.64-.23,4.61,4.61,0,0,1,1.68-.3c.48,0,.87.09,1.2-.34s.51-.83.76-1.22c.11-.18.34-.57.55-.67s.34.09.57.14.46,0,.69.09c1.06.23,1.26-.69,1.59-1.52a2.35,2.35,0,0,1,1.24-1.54c.67-.25,1.38-.37,2.07-.64.28-.11.57-.14.85-.25a8,8,0,0,0,1-.67,1.89,1.89,0,0,1,.87-.3,1.88,1.88,0,0,0,.6-.32,7.61,7.61,0,0,1,1.26-.85c1-.32,3-.07,3.61.83.37.51.9.83,1.17,1.38a1.6,1.6,0,0,0,.57.67c.25.18.55.21.8.37s.6.64,1,.85c.64.32,1.4.11,1.88.71a3.37,3.37,0,0,0,1.54,1,1.72,1.72,0,0,0,.9.21c.34,0,.69.21,1,.14.62-.14.8-.92,1.59-.62.3.09.46.64.83.46a1.85,1.85,0,0,0,.21-.32,1.5,1.5,0,0,1,.53-.3c.44-.18.78-.37,1.06.16.18.34.3.67.51,1a5.69,5.69,0,0,0,.64.83,5.15,5.15,0,0,0,1.59.9c.23.11.46.16.67.28s.34.28.55.37c.46.23,1,.3,1.47.55a2.7,2.7,0,0,0,.55.21,4.46,4.46,0,0,1,1.1.64A18.16,18.16,0,0,0,79,64.22l1.42.62c.45.19.87.43,1.32.64a35.34,35.34,0,1,0-62.63,1.73l.47-.42A1.09,1.09,0,0,1,20.51,66.47Z"/><path class="cls-2" d="M19.59,67.69s0,0,.07-.07h.09a2.68,2.68,0,0,0,2-1,2.29,2.29,0,0,0,.23-.25,3.47,3.47,0,0,1,.78-.76l.67-.41c.25-.16.53-.3.78-.48a10.23,10.23,0,0,0,1-.85,7,7,0,0,1,.67-.55,3.63,3.63,0,0,1,.9-.46,8,8,0,0,0,1-.48l.25-.11a4.88,4.88,0,0,0,.78-.46,2.71,2.71,0,0,0,.64-.76,1.29,1.29,0,0,1,.11-.18,1.32,1.32,0,0,1,.09-.16.76.76,0,0,1,.14-.23l.07.07a5.43,5.43,0,0,1,.74.71c.16.28,0,.34-.09.53a1.62,1.62,0,0,0,0,.57,1,1,0,0,0,.14.46l.07.28.28.07c.21.14.37.6.57.64A3,3,0,0,0,30.23,65c-.11.28,0,.48-.16.74a1.86,1.86,0,0,1-.55.48,5.3,5.3,0,0,1-1.47.51c-.39.09-.44.25-.67.62a4.24,4.24,0,0,1-.69,1.1c-.25.21-.21.07-.46,0a1.45,1.45,0,0,0-.83.09c-.37.11-.62.3-1,.44a5.54,5.54,0,0,1-.85.16,2,2,0,0,0-.74.48,10.9,10.9,0,0,1-1.38.9l-.15.12a35.34,35.34,0,0,0,60.47-5.13c-.45-.21-.87-.46-1.32-.64L79,64.22a18.16,18.16,0,0,1-2.46-1.36,4.46,4.46,0,0,0-1.1-.64,2.7,2.7,0,0,1-.55-.21c-.48-.25-1-.32-1.47-.55-.21-.09-.34-.28-.55-.37s-.44-.16-.67-.28a5.15,5.15,0,0,1-1.59-.9A5.69,5.69,0,0,1,70,59.1c-.21-.32-.32-.64-.51-1-.28-.53-.62-.34-1.06-.16a1.5,1.5,0,0,0-.53.3,1.85,1.85,0,0,1-.21.32c-.37.18-.53-.37-.83-.46-.78-.3-1,.48-1.59.62-.3.07-.64-.14-1-.14a1.72,1.72,0,0,1-.9-.21,3.37,3.37,0,0,1-1.54-1c-.48-.6-1.24-.39-1.88-.71-.41-.21-.64-.6-1-.85s-.55-.18-.8-.37a1.6,1.6,0,0,1-.57-.67c-.28-.55-.8-.87-1.17-1.38-.64-.9-2.6-1.15-3.61-.83a7.61,7.61,0,0,0-1.26.85,1.88,1.88,0,0,1-.6.32,1.89,1.89,0,0,0-.87.3,8,8,0,0,1-1,.67c-.28.11-.57.14-.85.25-.69.28-1.4.39-2.07.64a2.35,2.35,0,0,0-1.24,1.54c-.32.83-.53,1.75-1.59,1.52-.23,0-.46,0-.69-.09s-.34-.23-.57-.14-.44.48-.55.67c-.25.39-.51.83-.76,1.22s-.71.34-1.2.34a4.61,4.61,0,0,0-1.68.3,1.67,1.67,0,0,1-.64.23c-.3,0-.39-.37-.69-.39-.53,0-.67.71-1.08.9s-.67-.14-.94-.41c-.11-.11-.21-.25-.37-.3s-.39,0-.62-.07a2.19,2.19,0,0,1-.69-.69c-.18-.21-.32-.51-.51-.69a2.11,2.11,0,0,0-.78-.28c-.28-.09-.8-.51-1-.25,0,0-.39.44-.32.41-.3,0-.53.51-.69.71a2.4,2.4,0,0,1-.53.74,8.22,8.22,0,0,1-.9.48c-.64.39-1.42.57-2,1s-1,1-1.65,1.36-1,.6-1.45.9a6.23,6.23,0,0,0-1.24,1.22,1.53,1.53,0,0,1-1.17.64,1.09,1.09,0,0,0-.9.32l-.47.42.33.58Zm37.9-1.77c.16-.21.39-.39.53-.6a2,2,0,0,0,.18-1.1,4.46,4.46,0,0,1,.16-2.07,1.63,1.63,0,0,0,.23-.32c.09-.25,0-.21,0-.39a3.71,3.71,0,0,1-.23-.83c0-.67,1.22-.51,1.72-.51s.37-.07.71-.3a1.83,1.83,0,0,1,1-.21,3.41,3.41,0,0,0,.71-.07,2.71,2.71,0,0,0,1,.16l.16,0a2,2,0,0,0,2.07-.44,1.83,1.83,0,0,0,.51.32s0,0,0,.07a15.35,15.35,0,0,0-1.65,2.16.79.79,0,0,0-.11.74,5.52,5.52,0,0,0,.25,1.1,4.13,4.13,0,0,0,.78,1.2,1.9,1.9,0,0,1,.74,1.24,18.45,18.45,0,0,0,.32,2.3c.14.44.44.8.55,1.26s.09.83.18,1.22a26.8,26.8,0,0,1,1.06,4.41c-.23-.32-.62-.48-.87-.8s-.55-.71-.85-1.08a2,2,0,0,0-.6-.55,3.34,3.34,0,0,1-.74-.41c-.39-.39-.55-.9-1.06-1.22-.74-.46-1.88,0-2.74-.18a2.46,2.46,0,0,0-1-.14c-.51.09-.55.62-1.13.51s-.64-.32-1.1-.32H56.66c-.44,0-.87.09-.71-.53,0-.14.14-.18.18-.32a2,2,0,0,0,0-.53c0-.71-.57-.92-1-1.43-.21-.25-.28-.46-.55-.64s-.9-.53-1-.83c.48-.07.39-.14.71-.39s.76,0,1.17.14a1.26,1.26,0,0,0,1.22-.3C57,66,57.12,65.65,57.49,65.92Zm-24.2-2a3.16,3.16,0,0,0,.34-1.22,1.61,1.61,0,0,0,1.47.07,1.79,1.79,0,0,0,.71-.55,1.47,1.47,0,0,0,.51.14,1.85,1.85,0,0,0,1-.25s.07,0,.09,0a3.32,3.32,0,0,1,1.29-.23h.21A2,2,0,0,0,40.87,61l.46-.74c.11-.18.23-.34.32-.51l0,0,.37,0a.64.64,0,0,1,.23,0,2.12,2.12,0,0,0,2.09-.64,4.07,4.07,0,0,0,.71-1.36,1,1,0,0,0,.09-.23c.21-.55.37-.8.57-.87l.85-.25A10.1,10.1,0,0,0,47.86,56l.28-.07a4.06,4.06,0,0,0,.57-.18,4.44,4.44,0,0,0,.94-.57l.28-.18s.07,0,.3-.09l.21,0a2.12,2.12,0,0,0,.83-.39l.11-.07c.21-.14.41-.3.6-.44a3.63,3.63,0,0,1,.41-.3,1.27,1.27,0,0,0,0,.41c0,.21.25.34.34.51.21.37.41.76.6,1.13s.37.76.6,1.15a4.81,4.81,0,0,0,1,.94c.32.3.46.64.78.94a10.44,10.44,0,0,0,.87.87,3.81,3.81,0,0,1-1.13-.37A12.29,12.29,0,0,1,54,58.7a2.25,2.25,0,0,0-.87-.34c-.37,0-.16-.09-.51.09s-.67.64-1,1c-.21.18-.46.23-.67.39s-.18.25-.32.34-.39.16-.6.28a5.1,5.1,0,0,0-1,.74c-.34.3-.39.76-.6,1.15a12.64,12.64,0,0,0-.78,1.59c-.07.16-.09.51-.25.62s-.46.07-.64.18a5,5,0,0,0-1.79,1.68,4.64,4.64,0,0,1-.6.74c-.16.21-.18.51-.37.67s-.37.18-.48.25-.44.23-.64.34-.6.46-.9.69-.57.3-.83.51-.23.34-.37.48a4.56,4.56,0,0,1-.78.51c-1,.62-2.48.34-3.65.34-.71,0-1.31.16-2,.16s-1.54,0-2.32,0c-.6,0-.6.46-.9.92a3.77,3.77,0,0,1-.92,1c-.23.16-.53.23-.76.41a1.88,1.88,0,0,1-.85.44l-.32,0a5.05,5.05,0,0,0-.85.14c-.44.07-.34-.09-.57-.46-.34.07-.62.6-.85.83a4.71,4.71,0,0,1-.83.71,1.1,1.1,0,0,1,.21-.74c.25-.6.55-1.17.8-1.77A4.2,4.2,0,0,1,26.9,71c.14-.11.3-.14.46-.28a4.34,4.34,0,0,0,.46-.62A7.49,7.49,0,0,1,29,68.91a4.64,4.64,0,0,0,1.13-1.45c.16-.3.16-.67.34-.92s.44-.25.6-.44.09-.25.18-.34a4.17,4.17,0,0,1,.74-.51A4.19,4.19,0,0,0,33.29,63.9Z"/><path class="cls-2" d="M31.11,66.11c-.16.18-.46.23-.6.44s-.18.62-.34.92A4.64,4.64,0,0,1,29,68.91a7.49,7.49,0,0,0-1.22,1.2,4.34,4.34,0,0,1-.46.62c-.16.14-.32.16-.46.28a4.2,4.2,0,0,0-.76,1.54c-.25.6-.55,1.17-.8,1.77a1.1,1.1,0,0,0-.21.74,4.71,4.71,0,0,0,.83-.71c.23-.23.51-.76.85-.83.23.37.14.53.57.46a5.05,5.05,0,0,1,.85-.14l.32,0a1.88,1.88,0,0,0,.85-.44c.23-.18.53-.25.76-.41a3.77,3.77,0,0,0,.92-1c.3-.46.3-.9.9-.92.78,0,1.54,0,2.32,0s1.29-.18,2-.16c1.17,0,2.62.28,3.65-.34a4.56,4.56,0,0,0,.78-.51c.14-.14.21-.37.37-.48s.57-.3.83-.51.57-.48.9-.69.44-.21.64-.34.39-.18.48-.25.21-.46.37-.67a4.64,4.64,0,0,0,.6-.74,5,5,0,0,1,1.79-1.68c.18-.11.51-.09.64-.18s.18-.46.25-.62a12.64,12.64,0,0,1,.78-1.59c.21-.39.25-.85.6-1.15a5.1,5.1,0,0,1,1-.74c.21-.11.41-.16.6-.28s.21-.25.32-.34.46-.21.67-.39c.37-.34.57-.74,1-1s.14-.11.51-.09a2.25,2.25,0,0,1,.87.34,12.29,12.29,0,0,0,1.54.55,3.81,3.81,0,0,0,1.13.37,10.44,10.44,0,0,1-.87-.87c-.32-.3-.46-.64-.78-.94a4.81,4.81,0,0,1-1-.94c-.23-.39-.39-.76-.6-1.15s-.39-.76-.6-1.13c-.09-.16-.3-.3-.34-.51a1.27,1.27,0,0,1,0-.41A3.63,3.63,0,0,0,52,54c-.18.14-.39.3-.6.44l-.11.07a2.12,2.12,0,0,1-.83.39l-.21,0c-.23,0-.25,0-.3.09l-.28.18a4.44,4.44,0,0,1-.94.57,4.06,4.06,0,0,1-.57.18l-.28.07a10.1,10.1,0,0,1-1.26.41l-.85.25c-.21.07-.37.32-.57.87a1,1,0,0,1-.09.23,4.07,4.07,0,0,1-.71,1.36,2.12,2.12,0,0,1-2.09.64.64.64,0,0,0-.23,0l-.37,0,0,0c-.09.16-.21.32-.32.51l-.46.74a2,2,0,0,1-1.93.83h-.21a3.32,3.32,0,0,0-1.29.23s0,0-.09,0a1.85,1.85,0,0,1-1,.25,1.47,1.47,0,0,1-.51-.14,1.79,1.79,0,0,1-.71.55,1.61,1.61,0,0,1-1.47-.07,3.16,3.16,0,0,1-.34,1.22A4.19,4.19,0,0,1,32,65.25a4.17,4.17,0,0,0-.74.51C31.2,65.85,31.17,66,31.11,66.11Z"/><path class="cls-2" d="M55.47,66.59c-.41-.11-.8-.44-1.17-.14s-.23.32-.71.39c.11.3.74.64,1,.83s.34.39.55.64c.41.51,1,.71,1,1.43a2,2,0,0,1,0,.53c0,.14-.16.18-.18.32-.16.62.28.53.71.53h1.52c.46,0,.67.25,1.1.32s.62-.41,1.13-.51a2.46,2.46,0,0,1,1,.14c.85.23,2-.28,2.74.18.51.32.67.83,1.06,1.22a3.34,3.34,0,0,0,.74.41,2,2,0,0,1,.6.55c.3.37.57.71.85,1.08s.64.48.87.8a26.8,26.8,0,0,0-1.06-4.41c-.09-.39-.09-.83-.18-1.22s-.41-.83-.55-1.26a18.45,18.45,0,0,1-.32-2.3,1.9,1.9,0,0,0-.74-1.24,4.13,4.13,0,0,1-.78-1.2,5.52,5.52,0,0,1-.25-1.1.79.79,0,0,1,.11-.74,15.35,15.35,0,0,1,1.65-2.16s0,0,0-.07a1.83,1.83,0,0,1-.51-.32,2,2,0,0,1-2.07.44l-.16,0a2.71,2.71,0,0,1-1-.16,3.41,3.41,0,0,1-.71.07,1.83,1.83,0,0,0-1,.21c-.34.23-.25.32-.71.3s-1.72-.16-1.72.51a3.71,3.71,0,0,0,.23.83c0,.18.09.14,0,.39a1.63,1.63,0,0,1-.23.32,4.46,4.46,0,0,0-.16,2.07,2,2,0,0,1-.18,1.1c-.14.21-.37.39-.53.6-.37-.28-.51.11-.8.37A1.26,1.26,0,0,1,55.47,66.59Z"/><path class="cls-2" d="M22.83,69.6a2,2,0,0,1,.74-.48,5.54,5.54,0,0,0,.85-.16c.37-.14.62-.32,1-.44a1.45,1.45,0,0,1,.83-.09c.25,0,.21.18.46,0a4.24,4.24,0,0,0,.69-1.1c.23-.37.28-.53.67-.62a5.3,5.3,0,0,0,1.47-.51,1.86,1.86,0,0,0,.55-.48c.18-.25,0-.46.16-.74a3,3,0,0,1,1.36-1.2c-.21,0-.37-.51-.57-.64L30.74,63l-.07-.28a1,1,0,0,1-.14-.46,1.62,1.62,0,0,1,0-.57c0-.18.25-.25.09-.53a5.43,5.43,0,0,0-.74-.71l-.07-.07a.76.76,0,0,0-.14.23,1.32,1.32,0,0,0-.09.16,1.29,1.29,0,0,0-.11.18,2.71,2.71,0,0,1-.64.76,4.88,4.88,0,0,1-.78.46l-.25.11a8,8,0,0,1-1,.48,3.63,3.63,0,0,0-.9.46,7,7,0,0,0-.67.55,10.23,10.23,0,0,1-1,.85c-.25.18-.53.32-.78.48l-.67.41a3.47,3.47,0,0,0-.78.76,2.29,2.29,0,0,1-.23.25,2.68,2.68,0,0,1-2,1h-.09s0,0-.07.07l-.12.1q.85,1.45,1.83,2.82l.15-.12A10.9,10.9,0,0,0,22.83,69.6Z"/></g><circle class="cls-3" cx="73.9" cy="45.81" r="8.12"/><circle class="cls-4" cx="73.9" cy="45.81" r="6.48"/><circle class="cls-5" cx="73.9" cy="45.81" r="4.85"/><circle class="cls-2" cx="73.9" cy="45.81" r="2.55"/></g></svg>