<svg id="layer1" xmlns="http://www.w3.org/2000/svg" viewBox="0 0 100 100"><defs><style>.cls-1{fill:none;}.cls-2{fill:#a8837e;}.cls-3{fill:#d64f00;}.cls-4{fill:#c19a93;}.cls-5{fill:#9fe2d5;}.cls-6{fill:#fccbaa;}.cls-7{fill:#775638;}.cls-8{fill:#f9e0cf;}</style></defs><title>icons</title><g id="WestPointGrey"><path class="cls-1" d="M52.69,34.06l0,0,.26-.3A3.45,3.45,0,0,0,52.69,34.06Z"/><path class="cls-2" d="M44.75,61.25l1.42-.52c-.49-.46-1-.93-1.48-1.38l-.77.37L40,61.53v.22l1.31.85C42.48,62.11,43.63,61.67,44.75,61.25Z"/><path class="cls-2" d="M44.55,51.89c-.68-.67-1.38-1.32-2.1-1.93l-.31.17c-.34,1.15-.64,2.32-.91,3.52q.82-.47,1.66-.91C43.43,52.44,44,52.16,44.55,51.89Z"/><path class="cls-2" d="M43.17,53.21c-.7.36-1.4.73-2.09,1.11l-.14.67c.84.6,1.68,1.19,2.51,1.8,1-.49,2.08-1,3.11-1.49q0-.64.08-1.3L45,52.32C44.37,52.61,43.77,52.91,43.17,53.21Z"/><path class="cls-2" d="M43.12,49.62c.77.59,1.51,1.22,2.23,1.88l1.57-.72c.1-1,.23-1.95.38-2.92-.7.24-1.39.51-2.07.8S43.82,49.27,43.12,49.62Z"/><path class="cls-2" d="M44.16,58.86q-.64-.56-1.3-1.09l-2.58,1.15-.11.75c0,.29-.07.71-.1,1.25,1.2-.61,2.39-1.22,3.6-1.82Z"/><path class="cls-3" d="M52.62,34.15l.11-.13,0,0Z"/><path class="cls-2" d="M50.56,36.8l.12-.83a21.12,21.12,0,0,0-5.2,5.92,46.19,46.19,0,0,0-3,7.24l.2.14c.82-.45,1.66-.85,2.51-1.22s1.5-.63,2.27-.92a32.1,32.1,0,0,1,3.34-10.26,3.36,3.36,0,0,0,.07-.52A3.57,3.57,0,0,0,50.56,36.8Z"/><path class="cls-2" d="M46.73,52.8q.05-.66.12-1.33l-1,.46Z"/><path class="cls-2" d="M42,63l2.19,1.38,2.35,1.47c-.1-1.56-.14-3.08-.15-4.52l-1.37.5C44,62.2,43,62.59,42,63Z"/><path class="cls-2" d="M40,62.65c0,.18,0,.36,0,.55l.48-.22Z"/><path class="cls-2" d="M40,63.86a89.94,89.94,0,0,0,.89,13.27c1.26-.08,2.57-.13,3.9-.13,1.16,0,2.3,0,3.4.1a60.7,60.7,0,0,1-1.59-10c-1.85-1.22-3.7-2.43-5.53-3.68Z"/><path class="cls-2" d="M40.72,56.14q-.19,1-.35,2.11l1.92-.91Z"/><path class="cls-3" d="M53,33.72l-.26.3.42-.44Z"/><path class="cls-2" d="M45.33,58.29l1.12-.54q0-.82.07-1.69-1.23.6-2.48,1.17Q44.7,57.75,45.33,58.29Z"/><path class="cls-2" d="M46.4,59.25v0c0-.23,0-.46,0-.69l-.54.26Z"/><path class="cls-4" d="M40.94,55q-.11.57-.22,1.15l1.57,1.2-1.92.91-.1.67,2.58-1.15q.67.52,1.3,1.09l-.49.24c-1.2.59-2.4,1.2-3.6,1.82,0,.19,0,.39,0,.61l3.88-1.82.77-.37c.5.45,1,.92,1.48,1.38l-1.42.52c-1.13.42-2.27.87-3.41,1.35L40,61.75q0,.42,0,.9l.47.33L40,63.2q0,.32,0,.66l1.07-.48c1.83,1.25,3.68,2.46,5.53,3.68q0-.61-.09-1.22l-2.35-1.47L42,63c1-.41,2-.8,3-1.17l1.37-.5.33-.12-.33-.31c0-.09,0-.17,0-.26,0-.48,0-.95,0-1.4l-.52-.47.54-.26q0-.38,0-.77l-1.12.54q-.63-.55-1.29-1.05,1.25-.57,2.48-1.17,0-.38,0-.76c-1,.5-2.07,1-3.11,1.49C42.62,56.18,41.78,55.59,40.94,55Z"/><path class="cls-4" d="M42.64,49.26l-.2-.14-.1.31-.32.19.21.17-.1.34.31-.17c.73.61,1.42,1.26,2.1,1.93-.56.27-1.11.55-1.66.84s-1.11.6-1.66.91l-.15.68c.69-.38,1.39-.75,2.09-1.11s1.21-.6,1.81-.89L46.64,54q0-.6.09-1.21l-.91-.87,1-.46c0-.23,0-.46.07-.69l-1.57.72c-.72-.66-1.46-1.29-2.23-1.88.7-.34,1.41-.66,2.11-1s1.37-.55,2.07-.8c0-.24.08-.49.12-.73-.77.29-1.53.6-2.27.92S43.46,48.81,42.64,49.26Z"/><path class="cls-5" d="M73.77,43.94c2.25-6,4.68-12.17-3-17.22-6.83-4.41-16.86.73-19.3,8h0C54.26,27.65,50,17.33,42,16.21c-9.13-1.2-11.31,5-13.53,11.07,2.57-2.56,4.68-4,7-4.49.47-1.62.92-3.22,1.47-4.74a20.14,20.14,0,0,1,.29,4.55,14.82,14.82,0,0,1,4.39.72h0a6.79,6.79,0,0,0,.83-3.2s.46-.08.5.15a8.16,8.16,0,0,1,0,3.63,19.86,19.86,0,0,1,3.44,2.49A16,16,0,0,0,48,23.6a14.55,14.55,0,0,1,.47,4.88c1.5,1.75,2.57,3.65,2.41,5.23-3.07-6.52-12-10.87-18.46-7C24.6,31.59,26.87,37.82,29,43.89c.37-3.61,1.09-6.06,2.57-7.9-.66-1.55-1.32-3.07-1.87-4.6a20.13,20.13,0,0,1,3.11,3.34,14.82,14.82,0,0,1,3.86-2.22h0a6.79,6.79,0,0,0-1.38-3s.3-.35.48-.2A8.16,8.16,0,0,1,38,32.1a19.86,19.86,0,0,1,4.23-.25,16,16,0,0,0-.52-3.17,14.55,14.55,0,0,1,3.45,3.48c2.7.48,5.07,1.52,5.54,3.35l-.06.45-.12.83a3.57,3.57,0,0,1,.27-.45,3.36,3.36,0,0,1-.07.52l0,.16.88-1.38V35.6c1.56-1,4-.26,6.33,1.12a14.55,14.55,0,0,1,4.89-.38,16,16,0,0,0-2.46,2.06,19.86,19.86,0,0,1,3,3A8.16,8.16,0,0,1,67,40.73c.23,0,.23.46.23.46a6.79,6.79,0,0,0-3,1.37h0a14.83,14.83,0,0,1,1.47,4.2,20.13,20.13,0,0,1,4.54-.5c-1.41.81-2.91,1.52-4.42,2.27-.08,2.36-1.14,4.69-3.21,7.67C68.13,53,73.9,49.74,71.13,41c-2.32-7.17-11.94-9.72-18.53-6.78l0,0,.07-.09a3.45,3.45,0,0,1,.3-.34l.15-.14a9.37,9.37,0,0,1,4.7-1.79,14.56,14.56,0,0,1,3.54-3.39,16,16,0,0,0-.6,3.16,19.86,19.86,0,0,1,4.23.36,8.16,8.16,0,0,1,2.38-2.75c.18-.15.47.21.47.21a6.79,6.79,0,0,0-1.46,3h0a14.82,14.82,0,0,1,3.8,2.32,20.13,20.13,0,0,1,3.2-3.26c-.58,1.52-1.29,3-2,4.55C72.84,37.85,73.5,40.32,73.77,43.94Z"/><path class="cls-6" d="M40.89,77.13c-9.41.62-16.57,3.41-16.88,6.81H65.57c-.32-3.45-7.73-6.29-17.38-6.84-1.11-.06-2.24-.1-3.4-.1C43.45,77,42.15,77,40.89,77.13Z"/><path class="cls-7" d="M58.11,71.9c.14,0,.45,0,.52.12.22.29-.29.86-.54,1.26a.7.7,0,0,1-.27.28,1.3,1.3,0,0,1-.54.09A4,4,0,0,1,56,73.56c.42-.35.85-.7,1.32-1C57.36,72.55,57.63,71.89,58.11,71.9Z"/><path class="cls-4" d="M57.86,72.52a3.81,3.81,0,0,1-.68.7c-.06,0,0,.12.1.07a3.93,3.93,0,0,0,.7-.72C58,72.52,57.9,72.47,57.86,72.52Z"/><path class="cls-7" d="M62.47,73.25a26.52,26.52,0,0,1-4.7,0c-.55-.06-10.77-.16-10.21-.16,1.68,0-1,0-1.11,0-3.92,0-4.32,2.33-4.37,3.56a6.93,6.93,0,0,0,.25,2.06,3.78,3.78,0,0,0,2.78,1.9c.14,0,.72,0,.86,0C47,80.59,58,80.53,59.1,80.47s2.59,0,3.62,0a0,0,0,0,0,0,0l.72-3.82h0a2.89,2.89,0,0,0-.28-1.55c-.09-.16-.21-.32-.29-.48a2.79,2.79,0,0,1-.16-1.27s0,0,0,0h-.08s-.05,0-.05,0h0s0,0,0,0Z"/><ellipse class="cls-8" cx="62.6" cy="76.86" rx="2.18" ry="3.64"/><ellipse class="cls-6" cx="62.64" cy="76.86" rx="1.99" ry="3.32"/><path class="cls-8" d="M64.35,75.73a2.51,2.51,0,0,0-1.63-1.92s0,.09,0,.1a2.45,2.45,0,0,1,1.57,1.87C64.32,75.84,64.37,75.79,64.35,75.73Z"/><path class="cls-8" d="M63.32,79.76A2.36,2.36,0,0,0,64,79a1.92,1.92,0,0,0,.24-.54c.06-.22.09-.45.13-.68a4.68,4.68,0,0,0,0-1.63c0-.06-.07,0-.06,0a4.17,4.17,0,0,1,0,1.39,3.86,3.86,0,0,1-.3,1.22,3.52,3.52,0,0,1-.28.42,2,2,0,0,1-.35.4,1.3,1.3,0,0,1-.83.26.9.9,0,0,1-.8-.56s-.07,0,0,.07a1,1,0,0,0,.67.57A1.31,1.31,0,0,0,63.32,79.76Z"/><path class="cls-8" d="M60.87,77a5.51,5.51,0,0,1,.47-2.13,1.6,1.6,0,0,1,1.08-1s0-.1,0-.1a1.65,1.65,0,0,0-1.12,1,5.67,5.67,0,0,0-.48,2.2C60.8,77.1,60.86,77.1,60.87,77Z"/><path class="cls-8" d="M61.79,79.07A3.17,3.17,0,0,1,61,77.16c0-.06-.06-.06-.06,0a3.3,3.3,0,0,0,.77,2S61.82,79.1,61.79,79.07Z"/><path class="cls-8" d="M61.57,75.07a1.05,1.05,0,0,1,1.77-.44s.06-.06,0-.09a1.15,1.15,0,0,0-1-.32,1.32,1.32,0,0,0-.82.77S61.54,75.13,61.57,75.07Z"/><path class="cls-8" d="M63.87,78.54A5.08,5.08,0,0,0,64.11,76a2.63,2.63,0,0,0-.47-1.19s-.07,0,0,.07a3.54,3.54,0,0,1,.5,2.26,3.27,3.27,0,0,1-.72,2,.91.91,0,0,1-.76.31s0,.09,0,.1C63.12,79.65,63.6,79.21,63.87,78.54Z"/><path class="cls-8" d="M61.19,76.41a2.47,2.47,0,0,1,.29-1.13s0-.12,0-.07a2.62,2.62,0,0,0-.3,1.2C61.13,76.47,61.19,76.47,61.19,76.41Z"/><path class="cls-8" d="M63.89,76.43a2.29,2.29,0,0,0-.43-1.26,1.48,1.48,0,0,0-.94-.57s0,.09,0,.1a1.43,1.43,0,0,1,.89.53,2.15,2.15,0,0,1,.42,1.2C63.84,76.49,63.9,76.49,63.89,76.43Z"/><path class="cls-8" d="M63.42,78.82a4.58,4.58,0,0,0,.48-1.93c0-.06-.06-.06-.06,0a4.5,4.5,0,0,1-.44,1.83.86.86,0,0,1-1.18.37s-.05.08,0,.1A.9.9,0,0,0,63.42,78.82Z"/><path class="cls-8" d="M61.93,78.88a3.08,3.08,0,0,1-.49-2.17,4.84,4.84,0,0,1,.27-1.19,1.37,1.37,0,0,1,.53-.76s0-.11,0-.1a2.18,2.18,0,0,0-.75,1.43,4.37,4.37,0,0,0,0,2.06,2.14,2.14,0,0,0,.41.82S62,78.92,61.93,78.88Z"/><path class="cls-8" d="M63.53,75.75a1,1,0,0,0-.83-.73,1,1,0,0,0-.92.61s0,.12,0,.07a1,1,0,0,1,.85-.58.91.91,0,0,1,.81.68C63.49,75.86,63.54,75.81,63.53,75.75Z"/><path class="cls-8" d="M63.3,78.54a4.89,4.89,0,0,0,.39-1.1,4.55,4.55,0,0,0,0-1.28c0-.06-.06,0-.06,0a4.36,4.36,0,0,1,0,1.23,4.74,4.74,0,0,1-.37,1.06S63.27,78.59,63.3,78.54Z"/><path class="cls-8" d="M61.62,77.4a5.23,5.23,0,0,1,.15-1.48c0-.06,0-.08-.06,0a5.33,5.33,0,0,0-.15,1.51C61.57,77.46,61.63,77.47,61.62,77.4Z"/><path class="cls-8" d="M61.86,76.4a1.34,1.34,0,0,1,.26-.75.75.75,0,0,1,.63-.15s0-.1,0-.1a.76.76,0,0,0-.68.18,1.51,1.51,0,0,0-.27.79C61.8,76.44,61.85,76.46,61.86,76.4Z"/><path class="cls-8" d="M63.38,77a2,2,0,0,0-.05-1c-.08-.24-.24-.54-.42-.54s0,.1,0,.1.31.3.38.52a1.89,1.89,0,0,1,0,.89C63.31,77,63.37,77,63.38,77Z"/><path class="cls-8" d="M62.58,78.93a.43.43,0,0,0,.32-.22,1.58,1.58,0,0,0,.23-.47,4.35,4.35,0,0,1,.11-.58c0-.05,0-.1-.05-.05a1.78,1.78,0,0,0-.09.46,1.27,1.27,0,0,1-.2.49c-.09.16-.19.26-.33.27a.62.62,0,0,1-.38-.07s-.05.07,0,.1A.65.65,0,0,0,62.58,78.93Z"/><path class="cls-8" d="M62.14,78.39a1.53,1.53,0,0,1-.28-.72,2.16,2.16,0,0,1,0-.89c0-.06,0-.11-.05-.05a2.32,2.32,0,0,0,0,1,1.63,1.63,0,0,0,.31.78S62.18,78.42,62.14,78.39Z"/><path class="cls-8" d="M62.78,78.3a2.23,2.23,0,0,0,.34-.91,3.39,3.39,0,0,0,0-1.13c-.07-.4-.26-.6-.51-.55,0,0,0,.11,0,.1.62-.13.53,1.3.34,1.89-.1.33-.28.72-.53.63s-.38-.55-.37-1c0-.06-.06-.06-.06,0a1.52,1.52,0,0,0,.23.92A.31.31,0,0,0,62.78,78.3Z"/><path class="cls-8" d="M62.21,76.67a.67.67,0,0,1,.19-.55.43.43,0,0,1,.42-.06s.05-.09,0-.1a.47.47,0,0,0-.49.09.81.81,0,0,0-.2.61C62.16,76.74,62.22,76.74,62.21,76.67Z"/><path class="cls-8" d="M62.75,78a2.69,2.69,0,0,0,.19-1.85c0-.06-.07,0-.05.05A2,2,0,0,1,63,77a2.74,2.74,0,0,1-.18.75c-.09.2-.27.36-.41.18a.93.93,0,0,1-.1-.43c0-.18,0-.35,0-.53s-.06-.06-.06,0,0,.42,0,.63a.86.86,0,0,0,.11.41C62.46,78.21,62.64,78.14,62.75,78Z"/><path class="cls-8" d="M62.68,77.59a1.57,1.57,0,0,0,.21-.84c0-.26,0-.64-.24-.58s-.23.47-.23.75c0,.06.06.06.06,0a1,1,0,0,1,.11-.62c.08-.08.18-.05.22.1a1.45,1.45,0,0,1,0,.3,1.91,1.91,0,0,1-.08.58.71.71,0,0,1-.12.24c-.13.14-.13-.21-.12-.32s-.05-.09-.06,0a.67.67,0,0,0,0,.42C62.55,77.68,62.62,77.66,62.68,77.59Z"/><path class="cls-8" d="M62.72,77.06a.69.69,0,0,0,0-.53s-.07,0-.05.05a.65.65,0,0,1,.06.26.31.31,0,0,1,0,.14c-.08.1-.07-.11-.06-.15s-.06-.06-.06,0a.38.38,0,0,0,0,.25S62.69,77.12,62.72,77.06Z"/><path class="cls-4" d="M60.65,73.9a14.84,14.84,0,0,1-2.93-.26c-.09,0-.12.08,0,.1a15,15,0,0,0,3,.26C60.74,74,60.74,73.9,60.65,73.9Z"/><path class="cls-4" d="M57.81,80A31,31,0,0,1,61,79.89c.09,0,.09-.1,0-.1a31,31,0,0,0-3.18.07C57.73,79.86,57.73,80,57.81,80Z"/><path class="cls-4" d="M60.19,78.46h-.94c-.09,0-.09.1,0,.1h.94C60.28,78.56,60.28,78.46,60.19,78.46Z"/><path class="cls-4" d="M60.09,77.85c.09,0,.09-.1,0-.1q-1.25,0-2.51,0c-.09,0-.09.1,0,.1Q58.84,77.8,60.09,77.85Z"/><path class="cls-4" d="M59.75,75.68l-1.29-.1c-.09,0-.09.09,0,.1l1.29.1C59.84,75.79,59.84,75.69,59.75,75.68Z"/><path class="cls-4" d="M61,79.27H59.63c-.09,0-.09.1,0,.1H61C61.06,79.37,61.06,79.27,61,79.27Z"/><path class="cls-4" d="M49.15,73.93H43.62c-.09,0-.09.1,0,.1h5.52C49.23,74,49.23,73.93,49.15,73.93Z"/><path class="cls-4" d="M57.3,74.65q-3.83-.14-7.68-.09l-2.19,0c-.09,0-.09.1,0,.1q3.84-.1,7.68,0l2.19.06C57.38,74.75,57.38,74.65,57.3,74.65Z"/><path class="cls-4" d="M49.38,76c-2.31-.25-4.62.09-6.94,0-.09,0-.09.1,0,.1,2.3,0,4.61-.29,6.9,0C49.43,76.06,49.46,76,49.38,76Z"/><path class="cls-4" d="M54.3,75.88a26.21,26.21,0,0,1-3.7.1c-.09,0-.09.1,0,.1a26.46,26.46,0,0,0,3.74-.1C54.43,76,54.39,75.87,54.3,75.88Z"/><path class="cls-4" d="M45.73,77l-3.38,0c-.09,0-.09.1,0,.1l3.38,0C45.82,77.12,45.82,77,45.73,77Z"/><path class="cls-4" d="M53.73,78.31a57.71,57.71,0,0,1-8,0c-.75,0-1.51,0-2.26,0-.09,0-.09.1,0,.1,2.7-.11,5.39.18,8.08.11.75,0,1.49-.07,2.23-.15C53.85,78.39,53.82,78.3,53.73,78.31Z"/><path class="cls-4" d="M58.64,79.17a56.31,56.31,0,0,1-7.11,0c-.09,0-.09.09,0,.1a56.31,56.31,0,0,0,7.11,0C58.73,79.26,58.73,79.16,58.64,79.17Z"/><path class="cls-4" d="M45.66,79.45q-1.23,0-2.45-.08c-.09,0-.09.09,0,.1q1.22.09,2.45.08C45.75,79.55,45.75,79.45,45.66,79.45Z"/><path class="cls-4" d="M56.2,79.91c-1.33.12-2.65-.12-4-.11s-2.62.18-3.93.25A14.82,14.82,0,0,1,46,80c-.09,0-.12.09,0,.1A21.57,21.57,0,0,0,49.93,80c.65-.05,1.31-.11,2-.13a19.88,19.88,0,0,1,2,.06,14.11,14.11,0,0,0,2.29,0C56.28,80,56.28,79.91,56.2,79.91Z"/><path class="cls-4" d="M59.74,76.7q-1.86,0-3.71.07c-1.23.06-2.46.2-3.69.27a13.64,13.64,0,0,1-2.14,0c-.09,0-.12.09,0,.1a20.1,20.1,0,0,0,3.7-.1c1.24-.11,2.49-.18,3.73-.21q1.07,0,2.15,0C59.83,76.8,59.83,76.7,59.74,76.7Z"/><path class="cls-4" d="M56.6,78a9.49,9.49,0,0,1-1.74,0c-.09,0-.12.09,0,.1a9.67,9.67,0,0,0,1.78,0C56.69,78.05,56.69,78,56.6,78Z"/><path class="cls-4" d="M55.13,73.7a6.63,6.63,0,0,1-1.58.07,6.55,6.55,0,0,0-1.48,0c-.09,0,0,.11,0,.1a7.12,7.12,0,0,1,1.58,0,6.38,6.38,0,0,0,1.49-.08C55.25,73.78,55.22,73.68,55.13,73.7Z"/><path class="cls-4" d="M46.32,74.84q-1.6-.07-3.21-.06c-.09,0-.09.1,0,.1q1.6,0,3.21.06C46.41,74.95,46.41,74.85,46.32,74.84Z"/><path class="cls-4" d="M45.66,75.45h-3.4c-.09,0-.09.1,0,.1h3.4C45.75,75.55,45.75,75.45,45.66,75.45Z"/><path class="cls-4" d="M60.87,74.48a10.71,10.71,0,0,1-3.6-.3c-.09,0-.12.08,0,.1a10.91,10.91,0,0,0,3.67.3C61,74.56,61,74.47,60.87,74.48Z"/></g></svg>