<svg xmlns="http://www.w3.org/2000/svg" viewBox="0 0 148.06 87"><defs><style>.cls-1,.cls-10,.cls-11,.cls-12,.cls-13,.cls-7,.cls-9{fill:none;}.cls-1,.cls-7{stroke:#e5e5e5;}.cls-1,.cls-10,.cls-12,.cls-13,.cls-7,.cls-9{stroke-miterlimit:10;}.cls-1,.cls-10,.cls-12,.cls-9{stroke-width:0.28px;}.cls-2{fill:#666;}.cls-3{fill:#efa0a6;}.cls-4{fill:#fd7190;}.cls-5{fill:#4d4d4d;}.cls-6{fill:#3f4454;}.cls-7{stroke-width:1.42px;}.cls-8{fill:#cbcbcb;}.cls-9{stroke:#fff;}.cls-10,.cls-11{stroke:#1b1464;}.cls-11{stroke-linecap:round;stroke-linejoin:round;stroke-width:0.85px;stroke-dasharray:0 1.99;}.cls-12{stroke:#000;}.cls-13{stroke:#4d4d4d;stroke-width:1.7px;}.cls-14{fill:#333;}</style></defs><title>ArbutusRidge</title><g id="Layer_2" data-name="Layer 2"><g id="Layer_1-2" data-name="Layer 1"><g id="Arbutus_Ridge" data-name="Arbutus Ridge"><line class="cls-1" x1="29.44" y1="30.58" x2="29.44" y2="82.96"/><line class="cls-1" x1="33.56" y1="30.88" x2="25.88" y2="82.77"/><line class="cls-1" x1="37.31" y1="31.72" x2="22.13" y2="81.93"/><line class="cls-1" x1="40.9" y1="33.1" x2="18.53" y2="80.55"/><line class="cls-1" x1="44.25" y1="34.99" x2="15.18" y2="78.65"/><line class="cls-1" x1="47.28" y1="37.35" x2="12.14" y2="76.29"/><line class="cls-1" x1="49.94" y1="40.13" x2="9.48" y2="73.51"/><line class="cls-1" x1="52.16" y1="43.27" x2="7.25" y2="70.36"/><line class="cls-1" x1="53.9" y1="46.7" x2="5.51" y2="66.93"/><line class="cls-1" x1="55.12" y1="50.34" x2="4.29" y2="63.28"/><line class="cls-1" x1="55.8" y1="54.13" x2="3.62" y2="59.49"/><line class="cls-1" x1="55.91" y1="57.97" x2="3.51" y2="55.64"/><line class="cls-1" x1="55.45" y1="61.79" x2="3.96" y2="51.81"/><line class="cls-1" x1="54.45" y1="65.5" x2="4.97" y2="48.1"/><line class="cls-1" x1="52.91" y1="69.03" x2="6.51" y2="44.57"/><line class="cls-1" x1="50.87" y1="72.29" x2="8.55" y2="41.3"/><line class="cls-1" x1="48.38" y1="75.21" x2="11.04" y2="38.37"/><line class="cls-1" x1="45.49" y1="77.75" x2="13.94" y2="35.84"/><line class="cls-1" x1="42.25" y1="79.83" x2="17.18" y2="33.75"/><line class="cls-1" x1="38.75" y1="81.41" x2="20.69" y2="32.17"/><line class="cls-1" x1="34.65" y1="82.55" x2="24.79" y2="31.03"/><line class="cls-1" x1="117.77" y1="30.58" x2="117.77" y2="82.96"/><line class="cls-1" x1="121.96" y1="30.88" x2="114.28" y2="82.77"/><line class="cls-1" x1="125.71" y1="31.72" x2="110.53" y2="81.93"/><line class="cls-1" x1="129.3" y1="33.1" x2="106.93" y2="80.55"/><line class="cls-1" x1="132.65" y1="34.99" x2="103.58" y2="78.65"/><line class="cls-1" x1="135.68" y1="37.35" x2="100.54" y2="76.29"/><line class="cls-1" x1="138.34" y1="40.13" x2="97.88" y2="73.51"/><line class="cls-1" x1="140.56" y1="43.27" x2="95.65" y2="70.36"/><line class="cls-1" x1="142.3" y1="46.7" x2="93.91" y2="66.93"/><line class="cls-1" x1="143.52" y1="50.34" x2="92.69" y2="63.28"/><line class="cls-1" x1="144.19" y1="54.13" x2="92.02" y2="59.49"/><line class="cls-1" x1="144.31" y1="57.97" x2="91.91" y2="55.64"/><line class="cls-1" x1="143.85" y1="61.79" x2="92.36" y2="51.81"/><line class="cls-1" x1="142.85" y1="65.5" x2="93.37" y2="48.1"/><line class="cls-1" x1="141.31" y1="69.03" x2="94.91" y2="44.57"/><line class="cls-1" x1="139.27" y1="72.29" x2="96.95" y2="41.3"/><line class="cls-1" x1="136.78" y1="75.21" x2="99.44" y2="38.37"/><line class="cls-1" x1="133.88" y1="77.75" x2="102.34" y2="35.84"/><line class="cls-1" x1="130.65" y1="79.83" x2="105.58" y2="33.75"/><line class="cls-1" x1="127.15" y1="81.41" x2="109.09" y2="32.17"/><line class="cls-1" x1="123.05" y1="82.55" x2="113.19" y2="31.03"/><path class="cls-2" d="M67.07,47.85S68.13,60.34,67,60.44s-1.27-.41-1.15-2.22.23-10.37.23-10.37Z"/><path class="cls-3" d="M70.49,47.29c0,.93-.75,1.42-1.67,1.42H64.51c-.92,0-1.68-.49-1.68-1.42h0c0-.93.75-1.42,1.68-1.42h4.31c.92,0,1.67.49,1.67,1.42Z"/><path class="cls-4" d="M67.8,47.23c0,.34,0,.62-.38.62H65.75c-.34,0-.78-.29-.78-.62V47c0-.34.45-.57.78-.57h1.67c.34,0,.38.23.38.57Z"/><path class="cls-5" d="M107.68,4s4.66.3,5.23.75.38,1.58-.3,1.44a17.58,17.58,0,0,0-4.22-.15c-.43.21-.3-.89.15-.94a23.2,23.2,0,0,1,2.66.3s1.48-.4-3.29-.85A1.47,1.47,0,0,0,107.68,4Z"/><path class="cls-6" d="M118.15,25.83a29.91,29.91,0,1,0,29.91,29.91A29.91,29.91,0,0,0,118.15,25.83Zm0,55.26a25.36,25.36,0,1,1,25.36-25.36A25.36,25.36,0,0,1,118.15,81.09Z"/><circle class="cls-7" cx="118.15" cy="55.74" r="26.75"/><path class="cls-3" d="M118.2,54.88c-.6-.1-5.67-6.33-7.13-8.89s-10.79-32.13-10.79-32.13l-.5-1.25-2.31.85.06,1.35c-.77.24.28.86.28.86v.85s-42.87.13-43.75,0-1-5.08-2.16-7.67-2.56-3.23-2.56-3.23L47.85,6c.38.19,5.38,8.44,3.59,10.53s.4,2.26.25,2.86S40.15,37.06,40.15,37.06,29.3,53.53,27.4,55.08s.35,2.71,1.26,3,1.41-1,1.41-1c.45-.3,14.51,2.21,14.86,2.21S66.1,62.91,67.4,61.76,86.63,41.53,89,38.77s12-13.15,12.3-13.3,3.51,7.33,6,15.81S117,55.64,117,55.64s.05-1.26.05.2,1.71,1.36,2.31.45S118.81,55,118.2,54.88ZM62.79,60.25S36.71,56.5,32.84,56s-1.25-3.56-1.25-3.56,18.34-27.83,20-30.32,1.81,0,1.81,0S63,56.94,63.72,59.06,62.79,60.25,62.79,60.25Zm3.56-1.19c-1,.31-11.42-40.12-11.42-40.12s40.62-.31,43,0,2,1.37,2.43,2.93S67.34,58.75,66.34,59.06Z"/><path class="cls-8" d="M63.55,60.15l.25.9-3.69,2.89s-1.69-3.06-.66-5.5Z"/><path class="cls-8" d="M67.85,60.43l-.36.87,3.3,3.32s2.06-2.82,1.34-5.38Z"/><path class="cls-5" d="M98.14,13.22s-3.63-7.16-2.47-7.14,14.53.34,15.11.6,0,1.49,0,1.49-12.46-1-12.46.06a27.68,27.68,0,0,0,1.14,4.5Z"/><path class="cls-6" d="M102.87,5s-2.11-2.25.59-2.64c0,0,3.9.26,4.51,1.31.85,1.46-.52,3-1,2.82S103.44,5.33,102.87,5Z"/><path class="cls-9" d="M103.52,1.91c.53.89,1.31,2,.49,3-.35.44-.88.49-1.31.77"/><circle class="cls-2" cx="65.74" cy="60.45" r="2.42"/><path class="cls-10" d="M26.95,66.07C29.42,67.67,62.2,70,71,65.8c3.38-1.6,6.43-14.16-11.19-12.59s-27.2-4-31.25-.81-.13,4.9,1,6.3S22.72,63.32,26.95,66.07Z"/><path class="cls-11" d="M26.95,66.07C29.42,67.67,62.2,70,71,65.8c3.38-1.6,6.43-14.16-11.19-12.59s-27.2-4-31.25-.81-.13,4.9,1,6.3S22.72,63.32,26.95,66.07Z"/><path class="cls-12" d="M26.95,66.07C29.42,67.67,62.2,70,71,65.8c3.38-1.6,6.43-14.16-11.19-12.59"/><path class="cls-3" d="M24.5,56s4.36-3.08,5.45-1.51-.16,1.62-.61,2.17.05,1.08.88,1.92a2.76,2.76,0,0,1,.16,3.68c-1,1.08-2.78,1.66-2.75,2.42s-2.31,2.32-2.93.9.72-4.08,3-5.47S24.14,57.84,24.5,56Z"/><path class="cls-5" d="M41.74,2.87l-1.13-.44a2.27,2.27,0,0,0,.21,1.11c.26.52.79,2.52,2.11,2.72a23.15,23.15,0,0,0,3.47-.09c.94,0,4.2-.19,5.19-.16s5.35-1.65,5.11-2.39l-1.06.13s-4.24,1.95-11.92,1.8C42.6,5.52,41.74,5.13,41.74,2.87Z"/><path class="cls-5" d="M46.83,5.44a1.82,1.82,0,0,0,.32,2c.83.83,1.63.65,1.94.23s1.2-2.41,1.2-2.41A9.45,9.45,0,0,1,46.83,5.44ZM48.9,7.3c-.21.29-.76.41-1.33-.16a1.25,1.25,0,0,1-.22-1.35,6.51,6.51,0,0,0,2.38-.15S49.1,7,48.9,7.3Z"/><path class="cls-6" d="M40.28.07s-2.11-.36-2.09.51,1,1.34,2.83,2,4.11,2.32,5.81,2.86,5.9-1.07,8.1-1.55,4.91-.71,4.91-1.25S59-.76,52.16,1.18,42.21.16,40.28.07Z"/><path class="cls-2" d="M74.53,59.64q0-.21,0-.42a1.63,1.63,0,0,1-1-3.09l-.21-.37a1.63,1.63,0,0,1-2.19-2.41l-.34-.25a1.63,1.63,0,0,1-3-1.31l-.41-.09a1.63,1.63,0,0,1-3.26,0l-.36.08a1.63,1.63,0,0,1-3,1.32l-.34.25a1.63,1.63,0,0,1-2.18,2.42l-.21.37a1.63,1.63,0,0,1-1,3.1q0,.21,0,.42a1.63,1.63,0,0,1,.34,3.24c0,.14.08.27.13.4a1.63,1.63,0,0,1,1.63,2.82l.28.31A1.63,1.63,0,0,1,62,68.35l.39.17a1.63,1.63,0,0,1,3.19.67H66a1.63,1.63,0,0,1,3.18-.68l.39-.17a1.63,1.63,0,0,1,2.63-1.92l.28-.31a1.63,1.63,0,0,1,1.62-2.82q.07-.2.13-.4a1.63,1.63,0,0,1,.33-3.24Zm-8.79,6.87a6.13,6.13,0,1,1,6.13-6.13A6.13,6.13,0,0,1,65.74,66.51Z"/><circle class="cls-13" cx="65.74" cy="60.45" r="7.52"/><path class="cls-2" d="M65.3,73.62s-1.06-12.34.09-12.44,1.27.33,1.15,2.15-.23,10.29-.23,10.29Z"/><path class="cls-3" d="M69.5,74.11a1.57,1.57,0,0,1-1.69,1.49H63.56a1.58,1.58,0,0,1-1.7-1.49V74a1.62,1.62,0,0,1,1.7-1.54h4.25A1.61,1.61,0,0,1,69.5,74Z"/><rect class="cls-4" x="64.4" y="73.62" width="2.83" height="1.42" rx="0.61" ry="0.61"/><circle class="cls-14" cx="65.74" cy="60.45" r="1.37"/><path class="cls-6" d="M29.91,27.18A29.91,29.91,0,1,0,59.82,57.09,29.91,29.91,0,0,0,29.91,27.18Zm0,55.26A25.36,25.36,0,1,1,55.26,57.09,25.36,25.36,0,0,1,29.91,82.45Z"/><circle class="cls-7" cx="29.91" cy="57.09" r="26.75"/></g></g></g></svg>