<svg id="layer1" xmlns="http://www.w3.org/2000/svg" viewBox="0 0 100 100"><defs><style>.cls-1{fill:#efa0a6;}.cls-2{fill:#f7f3f0;}</style></defs><title>icons</title><g id="Dunbar2"><rect class="cls-1" x="41.58" y="8.25" width="16.84" height="12.18"/><rect class="cls-1" x="41.58" y="21.87" width="16.84" height="12.18"/><rect class="cls-1" x="41.58" y="36.2" width="16.84" height="12.18"/><rect class="cls-1" x="41.58" y="50.9" width="16.84" height="12.18"/><rect class="cls-1" x="41.58" y="65.23" width="16.84" height="12.18"/><rect class="cls-1" x="41.58" y="79.57" width="16.84" height="12.18"/><path class="cls-2" d="M55.73,13.45a4.9,4.9,0,0,0-3.58-4.3H44.62v1.79h1.43V17H44.62v1.43h7.53A4.93,4.93,0,0,0,55.73,13.45Zm-3.23.72a3.84,3.84,0,0,1-.39,1.51A2.44,2.44,0,0,1,49.92,17h-1V10.94h1a2.42,2.42,0,0,1,2.17,1.29A3.83,3.83,0,0,1,52.51,14.16Z"/><path class="cls-2" d="M44.62,24.56V23.12h5.73v1.43H48.92v5.23a1,1,0,0,0,.5.87,2.59,2.59,0,0,0,1.29.35A2.68,2.68,0,0,0,52,30.64a1,1,0,0,0,.47-.85V24.56H51.08V23.12h4.66v1.79H54.3v5a2.49,2.49,0,0,1-.16.75c-.55,1.39-2.34,2.1-3.78,2.1s-3.21-.69-3.77-2.09a2.53,2.53,0,0,1-.17-.77V24.56Z"/><polygon class="cls-2" points="44.27 45.34 45.7 45.34 45.7 38.89 44.27 38.89 44.27 37.46 48.92 37.46 52.51 43.55 52.51 38.89 51.08 38.89 51.08 37.46 55.73 37.46 55.73 38.89 54.3 38.89 54.3 47.13 51.08 47.13 47.49 40.32 47.49 45.34 48.92 45.34 48.92 47.13 44.27 47.13 44.27 45.34"/><path class="cls-2" d="M54.66,58.6a4,4,0,0,0-1.79-2.15c.16-.13,1.36-.53,1.43-1.79a3.05,3.05,0,0,0-.56-1.92,1.38,1.38,0,0,0-1.14-.58H45v1.43h1.43V60H45v1.43H52.8a1.33,1.33,0,0,0,.83-.27A2.68,2.68,0,0,0,54.66,58.6Zm-5.38-5h1.79a1.16,1.16,0,0,1,0,2.15H49.28ZM51.43,60H49.28V57.17h2.15a1.79,1.79,0,0,1,0,2.87Z"/><path class="cls-2" d="M54.66,88v1.08h-.72V86.91a1.05,1.05,0,0,0-1.08-1.08c.72,0,1.36-1.15,1.43-2.15a2.42,2.42,0,0,0-.86-2,2.23,2.23,0,0,0-1.45-.5H44.27v1.43h1.79v6.45H44.27V90.5h6.09V89.06H48.92V86.2h2.15v2.51a2.25,2.25,0,0,0,.17.88,1.82,1.82,0,0,0,1.62,1.26c1.43,0,1.79,0,2.15-.72A6.31,6.31,0,0,0,55.38,88ZM51.43,84a1.79,1.79,0,0,1-.72,1.08H48.92V82.25h1.79A1.84,1.84,0,0,1,51.43,84Z"/><path class="cls-2" d="M54.66,74.73l-2.87-8.24H48.57L45.7,74.73H44.62V75.8h4.3V74.73H47.85l.36-1.79h2.87l.36,1.79H50.36V75.8h5V74.73Zm-6.09-2.87,1.08-3.23,1.08,3.23Z"/></g></svg>