<svg xmlns="http://www.w3.org/2000/svg" viewBox="0 0 149.97 195.77"><defs><style>.cls-1{fill:none;}.cls-2{fill:#c19a93;}.cls-3{fill:#d64f00;}.cls-4{fill:#a8837e;}.cls-5{fill:#9fe2d5;}.cls-6{fill:#fccbaa;}.cls-7{fill:#f7f3f0;}.cls-8{fill:#3f4454;}</style></defs><title>Kitsilano</title><g id="Layer_2" data-name="Layer 2"><g id="Layer_1-2" data-name="Layer 1"><g id="Kitsilano"><path class="cls-1" d="M82.74,51.91l.11-.11.76-.86A10,10,0,0,0,82.74,51.91Z"/><path class="cls-2" d="M59.85,130.32l4.1-1.51c-1.42-1.33-2.83-2.67-4.27-4l-2.23,1.06q-5.58,2.66-11.18,5.26,0,.31,0,.63Q48.13,133,50,134.22C53.29,132.82,56.6,131.54,59.85,130.32Z"/><path class="cls-2" d="M59.25,103.33c-2-1.93-4-3.81-6.06-5.57l-.89.48c-1,3.32-1.85,6.7-2.62,10.16q2.38-1.36,4.78-2.63C56,104.93,57.64,104.12,59.25,103.33Z"/><path class="cls-2" d="M55.28,107.15c-2,1-4,2.09-6,3.2q-.2,1-.4,1.94c2.42,1.72,4.85,3.43,7.25,5.18,3-1.41,6-2.83,9-4.28q.1-1.85.23-3.74c-1.57-1.61-3.16-3.24-4.78-4.87C58.76,105.42,57,106.27,55.28,107.15Z"/><path class="cls-2" d="M55.13,96.78c2.22,1.7,4.36,3.53,6.44,5.43q2.25-1.07,4.52-2.08c.3-2.79.67-5.61,1.11-8.43-2,.7-4,1.46-6,2.3S57.16,95.79,55.13,96.78Z"/><path class="cls-2" d="M58.14,123.45q-1.84-1.62-3.76-3.14l-7.45,3.31q-.16,1.08-.31,2.17c-.1.83-.2,2.05-.28,3.6,3.45-1.77,6.9-3.53,10.37-5.24Z"/><path class="cls-3" d="M82.54,52.18l.31-.38-.11.11Z"/><path class="cls-2" d="M76.61,59.8,77,57.4c-5.47,4.88-10.54,9-15,17.07a133.22,133.22,0,0,0-8.76,20.88l.56.41c2.36-1.3,4.79-2.46,7.24-3.51,2.13-.92,4.32-1.81,6.54-2.65,1.8-10.53,4.74-20.89,9.64-29.6a9.7,9.7,0,0,0,.2-1.5A10.3,10.3,0,0,0,76.61,59.8Z"/><path class="cls-2" d="M65.55,106q.15-1.9.34-3.83c-1,.44-2,.88-3,1.33Q64.24,104.69,65.55,106Z"/><path class="cls-2" d="M51.85,135.39l6.31,4,6.78,4.23c-.28-4.49-.42-8.88-.42-13l-4,1.43C57.62,133.08,54.72,134.2,51.85,135.39Z"/><path class="cls-2" d="M46.18,134.37c0,.51,0,1,0,1.59l1.38-.64Z"/><path class="cls-2" d="M46.14,137.87a259.4,259.4,0,0,0,2.56,38.27c3.64-.24,7.4-.36,11.25-.36,3.34,0,6.62.1,9.82.28a175.07,175.07,0,0,1-4.58-28.93c-5.33-3.52-10.68-7-15.95-10.63Q47.68,137.17,46.14,137.87Z"/><path class="cls-2" d="M48.23,115.6q-.54,3-1,6.08l5.55-2.63C51.25,117.91,49.73,116.76,48.23,115.6Z"/><path class="cls-3" d="M83.61,50.93l-.76.86q.6-.62,1.2-1.28Z"/><path class="cls-2" d="M61.51,121.81l3.23-1.55q.08-2.38.2-4.86-3.55,1.73-7.14,3.37Q59.7,120.23,61.51,121.81Z"/><path class="cls-2" d="M64.61,124.56s0-.07,0-.11c0-.65,0-1.32.06-2l-1.56.74Z"/><path class="cls-4" d="M48.85,112.29q-.33,1.64-.63,3.31c1.5,1.16,3,2.31,4.53,3.45l-5.55,2.63q-.15,1-.29,1.93l7.45-3.31q1.92,1.51,3.76,3.14l-1.42.7c-3.47,1.71-6.92,3.47-10.37,5.24,0,.55-.05,1.14-.08,1.76q5.6-2.6,11.18-5.26l2.23-1.06c1.44,1.31,2.85,2.64,4.27,4l-4.1,1.51c-3.25,1.22-6.56,2.5-9.82,3.9q-1.9-1.21-3.78-2.45,0,1.22-.07,2.59l1.36,1-1.38.64q0,.93,0,1.91,1.54-.71,3.1-1.38c5.27,3.61,10.62,7.11,15.95,10.63q-.14-1.77-.25-3.52l-6.78-4.23-6.31-4c2.86-1.19,5.77-2.31,8.71-3.39l4-1.43.95-.34-.94-.89c0-.25,0-.5,0-.74,0-1.38,0-2.73.08-4l-1.5-1.36,1.56-.74q0-1.09.07-2.21l-3.23,1.55q-1.82-1.57-3.71-3,3.59-1.64,7.14-3.37.05-1.09.11-2.2c-3,1.46-6,2.87-9,4.28C53.71,115.72,51.27,114,48.85,112.29Z"/><path class="cls-4" d="M53.76,95.76l-.56-.41-.28.88-.93.54.61.49-.29,1,.89-.48c2.09,1.76,4.1,3.65,6.06,5.57-1.61.79-3.21,1.59-4.8,2.43s-3.2,1.72-4.78,2.63q-.22,1-.42,2c2-1.11,4-2.17,6-3.2,1.73-.88,3.48-1.73,5.23-2.57,1.62,1.63,3.21,3.27,4.78,4.87q.12-1.74.26-3.5-1.31-1.26-2.63-2.5c1-.45,2-.89,3-1.33.06-.66.13-1.32.2-2q-2.28,1-4.52,2.08c-2.08-1.9-4.22-3.73-6.44-5.43,2-1,4.08-1.91,6.1-2.77s4-1.6,6-2.3c.11-.7.22-1.4.34-2.11-2.22.83-4.41,1.73-6.54,2.65C58.55,93.3,56.12,94.46,53.76,95.76Z"/><path class="cls-5" d="M143.56,80.4C150,63.06,157,45.3,134.84,30.74,115.13,18,86.21,32.85,79.18,53.95l-.07,0C87.26,33.43,75,3.64,52,.43,25.62-3,19.33,15,12.92,32.37c7.42-7.38,13.5-11.54,20.17-13,1.36-4.66,2.65-9.28,4.23-13.69a58.08,58.08,0,0,1,.85,13.14,42.74,42.74,0,0,1,12.67,2.07h0c1.57-3.31,2.59-6.55,2.39-9.24,0,0,1.31-.23,1.43.42.86,2.78.73,6.72,0,10.47a57.27,57.27,0,0,1,9.91,7.18,46.19,46.19,0,0,0,4.62-8,42,42,0,0,1,1.36,14.07c4.34,5,7.42,10.53,7,15.09C68.71,32.08,42.88,19.54,24.32,30.83c-22.59,14-16.06,31.91-10,49.42,1.08-10.41,3.15-17.48,7.43-22.79C19.82,53,17.9,48.6,16.33,44.18a58.07,58.07,0,0,1,9,9.64,42.75,42.75,0,0,1,11.12-6.41l0,0c-.87-3.56-2.13-6.71-4-8.67,0,0,.87-1,1.37-.57,2.42,1.61,4.82,4.75,6.64,8.1a57.28,57.28,0,0,1,12.21-.71,46.21,46.21,0,0,0-1.5-9.15,42,42,0,0,1,10,10c7.8,1.38,14.62,4.39,16,9.65L77,57.4l-.34,2.41a10.3,10.3,0,0,1,.77-1.3,9.7,9.7,0,0,1-.2,1.5c0,.15-.06.3-.1.46l2.54-4,0-.14c4.49-2.94,11.53-.76,18.26,3.23a42,42,0,0,1,14.09-1.11,46.15,46.15,0,0,0-7.11,6,57.28,57.28,0,0,1,8.79,8.51c3.57-1.35,7.43-2.16,10.32-1.8.67,0,.67,1.33.67,1.33-2.69.27-5.7,1.84-8.68,4l0,0a42.78,42.78,0,0,1,4.24,12.11,58.06,58.06,0,0,1,13.09-1.45c-4.07,2.32-8.39,4.39-12.74,6.54-.23,6.82-3.28,13.52-9.25,22.11,16-9.33,32.66-18.66,24.66-44-6.69-20.67-34.45-28-53.44-19.55l.05-.08.2-.27a10,10,0,0,1,.87-1l.44-.42c3-2.7,8.07-4.33,13.55-5.16a42,42,0,0,1,10.22-9.77,46.1,46.1,0,0,0-1.74,9.11,57.28,57.28,0,0,1,12.19,1c1.91-3.3,4.39-6.37,6.85-7.92.52-.42,1.36.61,1.36.61-1.91,1.91-3.25,5-4.22,8.56l0,0a42.76,42.76,0,0,1,10.95,6.7,58.05,58.05,0,0,1,9.22-9.4c-1.68,4.37-3.72,8.71-5.73,13.13C140.87,62.85,142.75,70,143.56,80.4Z"/><path class="cls-6" d="M48.7,176.14C21.56,177.91.9,186,0,195.77H119.9c-.92-10-22.29-18.14-50.13-19.72-3.19-.18-6.47-.28-9.82-.28C56.1,175.77,52.34,175.9,48.7,176.14Z"/><circle class="cls-7" cx="76.33" cy="170.81" r="18.1"/><path class="cls-8" d="M89.13,158a18.1,18.1,0,1,0,5.3,12.8A18,18,0,0,0,89.13,158Zm4.31,9.82a20.2,20.2,0,0,1-5.36,11.37,14.89,14.89,0,0,1-4.28,3.13,10.39,10.39,0,0,1-4.3-2.78A10.07,10.07,0,0,1,78.35,178a33.78,33.78,0,0,0,6-7,19,19,0,0,0,2.86-7.26,12.14,12.14,0,0,0-1.09-7.23A17.4,17.4,0,0,1,93.44,167.83ZM59,170.21a17.27,17.27,0,0,1,3.39-9.71,17.38,17.38,0,0,1,6.05-1,12.67,12.67,0,0,1,11,6.54,14.06,14.06,0,0,1-3.1,4.51,13.87,13.87,0,0,0-2.23-1.87,12.11,12.11,0,0,0-6.17-2.18C64.86,166.36,61.85,167.61,59,170.21Zm18-16.75a17.26,17.26,0,0,1,8.6,2.64c2.41,4.36,1.93,9.3-1.45,14.7a33.42,33.42,0,0,1-5.92,6.93,13.66,13.66,0,0,1-1.64-6.83,13.62,13.62,0,0,0,1.94-2.29,12.11,12.11,0,0,0,2.18-6.17C80.78,159.35,79.54,156.33,76.94,153.46Zm-.51,0a16.85,16.85,0,0,1,2.33,3.09A8.71,8.71,0,0,0,73,154.12a12.9,12.9,0,0,0-1.43,0,17.32,17.32,0,0,1,4.74-.66ZM69.3,167a13.39,13.39,0,0,1,6.85,3.87,13.61,13.61,0,0,0,.25,3,12.11,12.11,0,0,0,2.82,5.91c2.07,2.27,5.08,3.52,8.94,3.72a17.43,17.43,0,0,1-4.76,3.16c-4.63-.55-8.2-2.39-10.62-5.47a18.32,18.32,0,0,1-3.47-9.39A24.13,24.13,0,0,1,69.3,167Zm.7-12.38a13.18,13.18,0,0,1,3-.16A7.94,7.94,0,0,1,79.48,158a10.21,10.21,0,0,1,.8,4.38,10.47,10.47,0,0,1-.67,3.22,13.86,13.86,0,0,0-5.31-5,13.32,13.32,0,0,0-5.88-1.44,17.78,17.78,0,0,0-5.64.83A17.45,17.45,0,0,1,70,154.64ZM59,170.81s0-.06,0-.1a18.24,18.24,0,0,1,1.94-1.59,20.48,20.48,0,0,0,4.58,15.23A17.34,17.34,0,0,1,59,170.81Zm8,14.61a19.76,19.76,0,0,1-5.52-10.79,19.27,19.27,0,0,1-.12-5.77,11,11,0,0,1,6.61-2,9.88,9.88,0,0,1,1,.1,24.48,24.48,0,0,0,0,4.88,18.69,18.69,0,0,0,3.55,9.59A15.28,15.28,0,0,0,82.74,187a17.35,17.35,0,0,1-15.8-1.54Zm21.59-2.26a16.42,16.42,0,0,1-4.23-.66,15.74,15.74,0,0,0,4-3A20.25,20.25,0,0,0,93.61,169a17.49,17.49,0,0,1,.09,1.79A17.31,17.31,0,0,1,88.53,183.16Z"/></g></g></g></svg>