<svg xmlns="http://www.w3.org/2000/svg" viewBox="0 0 134.9 216.44"><defs><style>.cls-1{fill:#3f4454;}.cls-2{font-size:40.94px;fill:#e8e8e8;font-family:Poppins-Medium, Poppins;}</style></defs><title>Kensington</title><g id="Layer_2" data-name="Layer 2"><g id="Layer_1-2" data-name="Layer 1"><g id="Kensington-Cedar"><path class="cls-1" d="M122.27,44.71H107.82a14,14,0,0,1-14-14V12.63A12.63,12.63,0,0,0,81.18,0H53.72A12.63,12.63,0,0,0,41.09,12.63V30.7a14,14,0,0,1-14,14H12.63A12.63,12.63,0,0,0,0,57.34V84.8A12.63,12.63,0,0,0,12.63,97.43H27.08a14,14,0,0,1,14,14V190A12.63,12.63,0,0,0,53.72,202.6H81.18A12.63,12.63,0,0,0,93.81,190V111.44a14,14,0,0,1,14-14h14.45A12.63,12.63,0,0,0,134.9,84.8V57.34A12.63,12.63,0,0,0,122.27,44.71Z"/><text class="cls-2" transform="translate(53.43 46.66) scale(1.33 1.17)">E<tspan x="10.54" y="20.21"></tspan><tspan x="-3.42" y="40.43">A</tspan><tspan x="10.54" y="60.64"></tspan><tspan x="-1.29" y="80.86">S</tspan><tspan x="10.54" y="101.07"></tspan><tspan x="-0.49" y="121.29">T</tspan></text></g></g></g></svg>