<svg xmlns="http://www.w3.org/2000/svg" xmlns:xlink="http://www.w3.org/1999/xlink" viewBox="0 0 146.89 68.18"><defs><style>.cls-1{fill:#f9e0cf;}.cls-2{fill:#fccbaa;}.cls-3{fill:#f7f3f0;}.cls-4{fill:#e8e8e8;}.cls-5{fill:#e5ba9c;}.cls-6{fill:url(#linear-gradient);}</style><linearGradient id="linear-gradient" x1="33.92" y1="57.8" x2="34.58" y2="57.8" gradientUnits="userSpaceOnUse"><stop offset="0.5" stop-color="#f7f3f0"/><stop offset="0.56" stop-color="#e5ba9c"/></linearGradient></defs><title>Marpole2</title><g id="Layer_2" data-name="Layer 2"><g id="Layer_1-2" data-name="Layer 1"><g id="Marpole"><path class="cls-1" d="M7.87,0H34.25a0,0,0,0,1,0,0V59.61a0,0,0,0,1,0,0H0a0,0,0,0,1,0,0V7.87A7.87,7.87,0,0,1,7.87,0Z"/><path class="cls-1" d="M34.25,7.25V0h6.59S36.23.66,34.25,7.25Z"/><path class="cls-2" d="M42.91,0h95.83a7.5,7.5,0,0,1,7.5,7.5V59.61a0,0,0,0,1,0,0h-112a0,0,0,0,1,0,0v-51A8.65,8.65,0,0,1,42.91,0Z"/><rect class="cls-3" y="13.17" width="34.25" height="23.71"/><path class="cls-4" d="M43.47,29.64V33a3.87,3.87,0,0,1-3.86,3.88l-5.38,0V13.17h9.46a4.38,4.38,0,0,1,4.38,4.38v8.14Z"/><rect class="cls-3" x="5.93" y="4.61" width="23.05" height="4.61" rx="2.31" ry="2.31"/><rect class="cls-4" x="52.7" y="13.17" width="24.37" height="19.1" rx="4.13" ry="4.13"/><rect class="cls-4" x="83" y="13.17" width="24.37" height="19.1" rx="4.13" ry="4.13"/><rect class="cls-4" x="113.3" y="13.17" width="24.37" height="19.1" rx="4.13" ry="4.13"/><rect class="cls-5" x="34.58" y="55.99" width="112.31" height="3.62"/><path class="cls-5" d="M98.81,59.28v-1.7a8.84,8.84,0,0,1,8.84-8.84h20A9.38,9.38,0,0,1,137,58.12v1.16"/><circle class="cls-1" cx="127.13" cy="59.94" r="7.9"/><circle class="cls-2" cx="127.13" cy="59.94" r="4.61"/><circle class="cls-1" cx="108.69" cy="59.94" r="7.9"/><circle class="cls-2" cx="108.69" cy="59.94" r="4.61"/><path class="cls-5" d="M39.85,59.61v-1.7a8.84,8.84,0,0,1,8.84-8.84h20a9.38,9.38,0,0,1,9.38,9.38v1.16"/><circle class="cls-1" cx="68.18" cy="60.27" r="7.9"/><circle class="cls-2" cx="68.18" cy="60.27" r="4.61"/><circle class="cls-1" cx="49.73" cy="60.27" r="7.9"/><circle class="cls-2" cx="49.73" cy="60.27" r="4.61"/><path class="cls-1" d="M22.43,59.36a7.9,7.9,0,0,1-15.81-.14"/><path class="cls-2" d="M19.14,59.33a4.61,4.61,0,1,1-9.22-.08"/><rect class="cls-3" y="55.99" width="33.92" height="3.62"/><polyline class="cls-6" points="34.58 55.99 34.58 59.61 33.92 59.61 33.92 55.99"/></g></g></g></svg>