<svg xmlns="http://www.w3.org/2000/svg" viewBox="0 0 92.1 239"><defs><style>.cls-1,.cls-3,.cls-4,.cls-7{fill:#3f4454;}.cls-2{fill:#fff;}.cls-3,.cls-4{font-size:12.25px;}.cls-3,.cls-4,.cls-7{font-family:TimesNewRomanPSMT, Times New Roman;}.cls-4{letter-spacing:-0.02em;}.cls-5{letter-spacing:-0.02em;}.cls-6{fill:none;stroke:#3f4454;stroke-miterlimit:10;}.cls-7{font-size:11.5px;}</style></defs><title>mt.Pleasant</title><g id="Layer_2" data-name="Layer 2"><g id="Layer_1-2" data-name="Layer 1"><g id="Mt.Pleasant"><path class="cls-1" d="M46,0c5.79.31,8.55,2.22,10,4,2.21,2.71,1.65,5.46,4,11h0a11.52,11.52,0,0,0,10.6,7H73A35.7,35.7,0,0,0,91,45V56H86a65.79,65.79,0,0,1,6,31c-.3,5.27-.87,13.72-6,23a47.87,47.87,0,0,1-9.59,12.15,32.05,32.05,0,0,0-6.2,7.73L69,132H65l-1,3a8.15,8.15,0,0,1,0,7,7.43,7.43,0,0,1-3,3,34.22,34.22,0,0,0-3,9c-2.38,13,4.36,20.61,0,29l-4,7v49H38.1V190l-4-7c-4.36-8.39,2.38-16,0-29a34.22,34.22,0,0,0-3-9,7.43,7.43,0,0,1-3-3,8.15,8.15,0,0,1,0-7l-1-3h-4l-1.21-2.12a32.05,32.05,0,0,0-6.2-7.73A47.87,47.87,0,0,1,6.1,110C1,100.72.4,92.27.1,87a65.79,65.79,0,0,1,6-31h-5V45a35.81,35.81,0,0,0,11-9,35.86,35.86,0,0,0,7-14h2.4a11.52,11.52,0,0,0,10.6-7h0c2.35-5.54,1.79-8.29,4-11,1.45-1.78,4.21-3.69,10-4"/><circle class="cls-2" cx="46.1" cy="83" r="36"/><text class="cls-3" transform="translate(41.6 59.21) scale(0.53 1)">XII</text><text class="cls-3" transform="translate(30.31 64.65) rotate(-30) scale(0.53 1)">XI</text><text class="cls-3" transform="translate(24.25 74) rotate(-60) scale(0.53 1)">X</text><text class="cls-3" transform="translate(22.31 87.5) rotate(-90) scale(0.53 1)">IX</text><text class="cls-3" transform="translate(27.75 100.79) rotate(-120) scale(0.53 1)">VIII</text><text class="cls-3" transform="translate(38.1 105.85) rotate(-150) scale(0.53 1)">VII</text><text class="cls-3" transform="translate(49.6 107.79) rotate(180) scale(0.53 1)">VI</text><text class="cls-4" transform="translate(59.89 103.35) rotate(150) scale(0.53 1)">V</text><text class="cls-3" transform="translate(67.95 93) rotate(120) scale(0.53 1)">I<tspan class="cls-5" x="4.08" y="0">V</tspan></text><text class="cls-3" transform="translate(69.89 80.5) rotate(90) scale(0.53 1)">III</text><text class="cls-3" transform="translate(65.45 69.21) rotate(60) scale(0.53 1)">II</text><text class="cls-3" transform="translate(56.1 62.15) rotate(30) scale(0.53 1)">I</text><circle class="cls-1" cx="43.6" cy="83.5" r="2"/><path class="cls-1" d="M57,69.21,52.1,71.37a2.53,2.53,0,0,0-1.5,2.31v1.89l1.86.17A2.65,2.65,0,0,0,55.19,74Z"/><path class="cls-1" d="M59.17,103.56,56.93,97a4.26,4.26,0,0,0-2.54-2.63l-2.12-.7L52,95.81a4.41,4.41,0,0,0,1.83,3.87Z"/><line class="cls-6" x1="55.39" y1="98.25" x2="44.1" y2="83"/><line class="cls-6" x1="51.1" y1="75" x2="44.1" y2="83"/><path class="cls-1" d="M79.92,178H9.28a6.28,6.28,0,0,1-5.71-3.64,22.11,22.11,0,0,1,0-18.22,6.28,6.28,0,0,1,5.71-3.64H79.92a6.28,6.28,0,0,1,5.71,3.64,22.11,22.11,0,0,1,0,18.22A6.28,6.28,0,0,1,79.92,178Z"/><path class="cls-2" d="M76.18,174.5H13a6.15,6.15,0,0,1-5.54-3.36,13.29,13.29,0,0,1,0-11.78A6.15,6.15,0,0,1,13,156H76.19a6.15,6.15,0,0,1,5.54,3.36,13.28,13.28,0,0,1,.12,11.52A6.25,6.25,0,0,1,76.18,174.5Z"/><text class="cls-7" transform="translate(17.27 168.27)">Mt.Pleasant</text><path class="cls-2" d="M71.6,49.31a47.54,47.54,0,0,0-50.28,0c-3.21,2-7.48,2-9.83-.62h0c-2.34-2.58-1.12-7.47,3.13-10.12a60.2,60.2,0,0,1,63.68,0c4.24,2.65,5.47,7.54,3.13,10.12h0C79.07,51.29,74.81,51.29,71.6,49.31Z"/><path class="cls-1" d="M28.55,35.61l.07.14a1.09,1.09,0,0,0-.38.27.87.87,0,0,0-.17.41,3.94,3.94,0,0,0,0,.77q.16,2.47.55,4.87l-.16.09Q27,41,25.31,39.87q.32,1.94.77,3.83l-.14.1a46.67,46.67,0,0,0-4.43-2.51,5.87,5.87,0,0,0-.63-.29.64.64,0,0,0-.38,0,1.36,1.36,0,0,0-.44.27l-.1-.12q1.06-.9,2.17-1.72l.09.12-.11.08a.79.79,0,0,0-.29.35.29.29,0,0,0,0,.28,2.46,2.46,0,0,0,.59.39q1.52.83,3,1.76-.32-1.41-.57-2.86l-.44-.28L24,39.06a1.89,1.89,0,0,0-.41-.16.6.6,0,0,0-.22,0,1.09,1.09,0,0,0-.28.06,1.47,1.47,0,0,0-.28.17L22.76,39q1.18-.83,2.4-1.57l.08.13-.17.1a.75.75,0,0,0-.32.32.31.31,0,0,0,0,.3,2.29,2.29,0,0,0,.59.5q1.39.94,2.68,2-.23-1.65-.36-3.34a2.25,2.25,0,0,0-.13-.74.26.26,0,0,0-.15-.12.41.41,0,0,0-.23,0,1.88,1.88,0,0,0-.49.2l-.07-.14Q27.57,36.07,28.55,35.61Z"/><path class="cls-1" d="M30.83,34.95,31.65,37q.69-.27,1.38-.52a1.44,1.44,0,0,0,.68-.39.87.87,0,0,0,.07-.73l.18-.06.59,1.87-.17.05a1.84,1.84,0,0,0-.29-.46.57.57,0,0,0-.34-.13,1.63,1.63,0,0,0-.61.12q-.69.24-1.37.51L32.46,39a1.58,1.58,0,0,0,.2.41.27.27,0,0,0,.17.07.87.87,0,0,0,.34-.08l1-.36a3.4,3.4,0,0,0,.7-.3,1.2,1.2,0,0,0,.36-.39,3.51,3.51,0,0,0,.34-.91l.18-.05q-.07.75-.12,1.51a32.88,32.88,0,0,0-4.41,1.67l-.06-.14.2-.09a1,1,0,0,0,.34-.26.37.37,0,0,0,.1-.26,1.77,1.77,0,0,0-.17-.52L30.16,36q-.21-.49-.39-.55a.94.94,0,0,0-.65.11l-.23.11-.06-.14a38.49,38.49,0,0,1,5.17-2l.43,1.16-.19.06a1.65,1.65,0,0,0-.41-.51.8.8,0,0,0-.45-.12,2.74,2.74,0,0,0-.72.17Q31.74,34.59,30.83,34.95Z"/><path class="cls-1" d="M41.31,36.19h.16q-.19.79-.35,1.58a33,33,0,0,0-4.61.89l0-.15.22-.06a.65.65,0,0,0,.48-.36,1.24,1.24,0,0,0-.05-.62l-.85-3.54c-.08-.34-.18-.55-.3-.61a.86.86,0,0,0-.63,0l-.26.07,0-.15q1.56-.42,3.14-.7l0,.15a2.27,2.27,0,0,0-.76.23.6.6,0,0,0-.26.28,1.47,1.47,0,0,0,.05.64L38,37.28a1.07,1.07,0,0,0,.17.45.32.32,0,0,0,.19.09,3.57,3.57,0,0,0,.7-.09l.44-.08a3.92,3.92,0,0,0,1-.25,1.36,1.36,0,0,0,.47-.4A2.93,2.93,0,0,0,41.31,36.19Z"/><path class="cls-1" d="M47.7,31.86q0,1,0,1.92h-.15a2.26,2.26,0,0,0-.83-1.29,2.44,2.44,0,0,0-1.42-.41,2.58,2.58,0,0,0-1.26.3,1.91,1.91,0,0,0-.84.94A3.37,3.37,0,0,0,43,34.88a3.05,3.05,0,0,0,.35,1.31,2,2,0,0,0,.85.83,2.65,2.65,0,0,0,1.22.29,2.42,2.42,0,0,0,1.06-.21,3.77,3.77,0,0,0,1.07-.87l.14.09a3.4,3.4,0,0,1-1.15,1,3.46,3.46,0,0,1-3.84-.64A2.88,2.88,0,0,1,41.9,35a2.72,2.72,0,0,1,.32-1.58,2.85,2.85,0,0,1,1.21-1.17,3.83,3.83,0,0,1,1.81-.42,3.66,3.66,0,0,1,1.5.34,1,1,0,0,0,.31.11.4.4,0,0,0,.25-.07.62.62,0,0,0,.21-.3Z"/><path class="cls-1" d="M52.29,32.45a3.32,3.32,0,0,1,2.14,1.33,2.51,2.51,0,0,1,.4,2.26,2.93,2.93,0,0,1-1.44,1.82,3.24,3.24,0,0,1-2.27.37,3.2,3.2,0,0,1-2-1.14,2.93,2.93,0,0,1-.66-2.22,2.52,2.52,0,0,1,1.33-2.06A3.54,3.54,0,0,1,52.29,32.45Zm-.15.28a2,2,0,0,0-1.58.31,2.69,2.69,0,0,0-1,1.93,3.23,3.23,0,0,0,.37,2.2,1.72,1.72,0,0,0,1.19.77,2,2,0,0,0,1.53-.31,2.89,2.89,0,0,0,1-1.76,2.87,2.87,0,0,0-.16-2.26A2,2,0,0,0,52.13,32.73Z"/><path class="cls-1" d="M58,40.15a43,43,0,0,0-.68-5.33l-1.22,3.56A1.07,1.07,0,0,0,56,39a.72.72,0,0,0,.44.34l.2.08-.05.14q-1-.37-2-.67l0-.15.21.06a.66.66,0,0,0,.59,0,1.17,1.17,0,0,0,.28-.55l1.15-3.5a1.06,1.06,0,0,0,.07-.55.54.54,0,0,0-.19-.27,1.71,1.71,0,0,0-.58-.26l0-.15q1,.29,1.92.63a43.36,43.36,0,0,1,.66,5,41.63,41.63,0,0,1,4.09-2.94q.91.47,1.81,1l-.08.13-.22-.13a.83.83,0,0,0-.68-.14q-.17.06-.4.47l-1.78,3.23a1,1,0,0,0-.2.63.74.74,0,0,0,.38.42l.19.11-.08.13q-1.14-.67-2.33-1.24l.07-.14.2.1a.67.67,0,0,0,.6.06,1.15,1.15,0,0,0,.37-.49L62.42,37a41,41,0,0,0-4.33,3.2Z"/><path class="cls-1" d="M66.62,38.84l-1.25,1.84q.63.43,1.24.88a1.55,1.55,0,0,0,.72.37.85.85,0,0,0,.65-.34l.15.12-1.23,1.53-.14-.11a1.78,1.78,0,0,0,.22-.5.59.59,0,0,0-.1-.36,1.76,1.76,0,0,0-.46-.45q-.61-.45-1.23-.87l-1,1.54a1.54,1.54,0,0,0-.22.4A.28.28,0,0,0,64,43a.92.92,0,0,0,.27.24l.88.64a3.73,3.73,0,0,0,.67.43,1.28,1.28,0,0,0,.54.1,3.58,3.58,0,0,0,1-.2l.15.13-1.34.72a33.12,33.12,0,0,0-4-2.82l.08-.13.19.12a1,1,0,0,0,.41.14.37.37,0,0,0,.28-.06,1.74,1.74,0,0,0,.34-.43l2-3.08q.29-.45.24-.63a1,1,0,0,0-.46-.48L65,37.58l.08-.13a38.77,38.77,0,0,1,4.65,3.3l-.72,1-.16-.13A1.61,1.61,0,0,0,69,41a.84.84,0,0,0-.16-.45,3,3,0,0,0-.57-.52Q67.45,39.4,66.62,38.84Z"/></g></g></g></svg>