<svg xmlns="http://www.w3.org/2000/svg" viewBox="0 0 47 233"><defs><style>.cls-1{fill:#6e1c18;}.cls-2{fill:#f7f3f0;}</style></defs><title>Dunbar1</title><g id="Layer_2" data-name="Layer 2"><g id="Layer_1-2" data-name="Layer 1"><g id="Dunbar1"><rect class="cls-1" width="47" height="34"/><rect class="cls-1" y="38" width="47" height="34"/><rect class="cls-1" y="78" width="47" height="34"/><rect class="cls-1" y="119" width="47" height="34"/><rect class="cls-1" y="159" width="47" height="34"/><rect class="cls-1" y="199" width="47" height="34"/><path class="cls-2" d="M39.5,14.5a13.68,13.68,0,0,0-10-12H8.5v5h4v17h-4v4h21A13.74,13.74,0,0,0,39.5,14.5Zm-9,2a10.71,10.71,0,0,1-1.08,4.22,6.8,6.8,0,0,1-6.13,3.78H20.5V7.5h2.77a6.76,6.76,0,0,1,6,3.61A10.7,10.7,0,0,1,30.5,16.5Z"/><path class="cls-2" d="M8.5,45.5v-4h16v4h-4V60.11a2.79,2.79,0,0,0,1.41,2.43,7.23,7.23,0,0,0,3.59,1,7.47,7.47,0,0,0,3.69-1,2.73,2.73,0,0,0,1.31-2.37V45.5h-4v-4h13v5h-4v14a7,7,0,0,1-.46,2.1c-1.53,3.89-6.53,5.85-10.54,5.85s-9-1.94-10.52-5.83a7.06,7.06,0,0,1-.48-2.15v-15Z"/><polygon class="cls-2" points="7.5 103.5 11.5 103.5 11.5 85.5 7.5 85.5 7.5 81.5 20.5 81.5 30.5 98.5 30.5 85.5 26.5 85.5 26.5 81.5 39.5 81.5 39.5 85.5 35.5 85.5 35.5 108.5 26.5 108.5 16.5 89.5 16.5 103.5 20.5 103.5 20.5 108.5 7.5 108.5 7.5 103.5"/><path class="cls-2" d="M36.5,140.5c-.66-3.28-4.6-5.8-5-6,.44-.38,3.8-1.48,4-5a8.51,8.51,0,0,0-1.57-5.37,3.85,3.85,0,0,0-3.17-1.63H9.5v4h4v18h-4v4H31.32a3.73,3.73,0,0,0,2.32-.76A7.47,7.47,0,0,0,36.5,140.5Zm-15-14h5a3.25,3.25,0,0,1,0,6h-5Zm6,18h-6v-8h6a5,5,0,0,1,0,8Z"/><path class="cls-2" d="M36.5,222.5v3h-2v-6a2.94,2.94,0,0,0-3-3c2,0,3.8-3.22,4-6a6.75,6.75,0,0,0-2.4-5.6A6.23,6.23,0,0,0,29,203.5H7.5v4h5v18h-5v4h17v-4h-4v-8h6v7A6.28,6.28,0,0,0,27,227c.63,1.47,2,3.52,4.52,3.52,4,0,5,0,6-2s1-6,1-6Zm-9-11a5,5,0,0,1-2,3h-5v-8h5A5.15,5.15,0,0,1,27.5,211.5Z"/><path class="cls-2" d="M36.5,185.5l-8-23h-9l-8,23h-3v3h12v-3h-3l1-5h8l1,5h-3v3h14v-3Zm-17-8,3-9,3,9Z"/></g></g></g></svg>