<svg id="layer1" xmlns="http://www.w3.org/2000/svg" viewBox="0 0 100 100"><defs><style>.cls-1{fill:#43415b;}.cls-2{fill:#526388;}.cls-3{fill:#4d5363;}.cls-4{fill:#3f4454;}.cls-5{fill:#424c5e;}.cls-6{fill:#303747;}.cls-7{fill:#efa0a6;}.cls-8{fill:#fccbaa;}.cls-9{fill:#1d1a3a;}.cls-10{fill:#e8e8e8;}.cls-11{fill:#3f3d58;}.cls-12{fill:#1d1d1b;}.cls-13,.cls-14{fill:#fff;}.cls-14{opacity:0.19;}</style></defs><title>icons</title><g id="Riley_Park" data-name="Riley Park"><path class="cls-1" d="M42.74,19.2h-.55a.33.33,0,0,1-.29-.09c-.14-.12-.15-.22-.07-.39a3.23,3.23,0,0,0,.32-.67,4.41,4.41,0,0,0,.07-1.75c0-.07-.12,0-.11,0a4.15,4.15,0,0,1,0,1.31,2.07,2.07,0,0,1-.15.65,4,4,0,0,0-.26.45.45.45,0,0,0,.09.48.41.41,0,0,0,.26.08c.23,0,.47,0,.7,0A.06.06,0,0,0,42.74,19.2Z"/><path class="cls-2" d="M61.76,33.79a8.3,8.3,0,0,0-2.54-2.66,6,6,0,0,1-1.82-1.55,4.62,4.62,0,0,1-.63-2.27,26.77,26.77,0,0,0-.28-4.56,10.29,10.29,0,0,0-2.12-4.23l0,0a6.65,6.65,0,0,0-2-2.18,12.47,12.47,0,0,0-9.69-2.4c-2,.4-3.18,1.69-4.36,3.22a.11.11,0,0,0,0,.11l.38.78c-1.29,1.23-2.3,2.72-1.94,4.6.41,2.13,2.14,3.6,3.73,4.91.08.06.23,0,.18-.11a25.71,25.71,0,0,1-1-3.72,2.65,2.65,0,0,0,1.58.08,1.86,1.86,0,0,1-.72.66.11.11,0,0,0,0,.19,5.68,5.68,0,0,0,4.05.85,1.51,1.51,0,0,0-.24,1.1c.08.53.36,1,.39,1.55a1.29,1.29,0,0,1-.15.75c-.26.43-.76.38-1.2.43-1.93.24-2.89,2.13-3.36,3.81a17.62,17.62,0,0,0-.56,8.09c.6,3,1.57,6,2.16,9.07.35,1.83.67,3.66,1.06,5.47S43.85,59.24,44.2,61c.27,1.39-.14,2.81.11,4.2A22.08,22.08,0,0,0,46,69.93a42.47,42.47,0,0,1,1.38,5.23c1,3.52,2.75,6.72,4.07,10.11.11.29.21,1.15.69,1s.69-1.21.83-1.63q.13-.38.24-.76c2.28-1.6,3-4.53,2.87-7.19a35.3,35.3,0,0,0-.62-4.53q.69-2.21,1.53-4.36a18.48,18.48,0,0,0,1.39-4.74c.24-2.14.38-4.28.5-6.43a22.38,22.38,0,0,1,.33-3.7,18,18,0,0,1,1.4-3.38A26.12,26.12,0,0,0,63.19,42,13,13,0,0,0,61.76,33.79Z"/><path class="cls-3" d="M40.48,27.54c.08.06.23,0,.18-.11a25.71,25.71,0,0,1-1-3.72,2.65,2.65,0,0,0,1.58.08,1.86,1.86,0,0,1-.72.66.11.11,0,0,0,0,.19,5.68,5.68,0,0,0,4.05.85,1.51,1.51,0,0,0-.24,1.1c.08.53.36,1,.39,1.55a1.29,1.29,0,0,1-.15.75c-.26.43-.76.38-1.2.43-1.93.24-2.89,2.13-3.36,3.81a17.62,17.62,0,0,0-.56,8.09c.15.77.33,1.54.51,2.3a4.78,4.78,0,0,0,1.32-3.13.31.31,0,0,1,.16-.27A9.65,9.65,0,0,1,45,34.4c1.09-.91,2.38-1.52,3.5-2.41,2.44-1.94,4.91-4.76,5.51-7.91a7.73,7.73,0,0,0-3.58-7.76A11.62,11.62,0,0,0,45.57,15a11.41,11.41,0,0,1-2.9-.28.73.73,0,0,1-.56-.67,7.86,7.86,0,0,0-3.8,3.07.11.11,0,0,0,0,.11l.38.78c-1.29,1.23-2.3,2.72-1.94,4.6C37.16,24.76,38.88,26.23,40.48,27.54Z"/><path class="cls-4" d="M61.76,33.79a8.3,8.3,0,0,0-2.54-2.66c-.3-.2-.61-.4-.9-.61a7,7,0,0,0-1.38,1,9,9,0,0,0-2.21,3.13,21.13,21.13,0,0,1-4.13,6.26c-.3.31-1.31-3.42-1.68-4.91a16.36,16.36,0,0,0-1.21-3.12c-.6-1.24-1.69-3.47-3.25-3.82-.28.3-.72.27-1.1.31-1.93.24-2.89,2.13-3.36,3.81a17.62,17.62,0,0,0-.56,8.09c.6,3,1.57,6,2.16,9.07.35,1.83.67,3.66,1.06,5.47S43.85,59.24,44.2,61c.27,1.39-.14,2.81.11,4.2A22.08,22.08,0,0,0,46,69.93a42.47,42.47,0,0,1,1.38,5.23c1,3.52,2.75,6.72,4.07,10.11.11.29.21,1.15.69,1s.69-1.21.83-1.63q.13-.38.24-.76c2.28-1.6,3-4.53,2.87-7.19a35.3,35.3,0,0,0-.62-4.53q.69-2.21,1.53-4.36a18.48,18.48,0,0,0,1.39-4.74c.24-2.14.38-4.28.5-6.43a22.39,22.39,0,0,1,.33-3.7,18,18,0,0,1,1.4-3.38A26.12,26.12,0,0,0,63.19,42,13,13,0,0,0,61.76,33.79Z"/><path class="cls-3" d="M61.76,33.79a8.3,8.3,0,0,0-2.54-2.66c-.3-.2-.61-.4-.9-.61a7,7,0,0,0-1.38,1,9,9,0,0,0-2.21,3.13,21.13,21.13,0,0,1-4.13,6.26c-.3.31-1.31-3.42-1.68-4.91a16.36,16.36,0,0,0-1.21-3.12c-.6-1.24-1.69-3.47-3.25-3.82-.28.3-.72.27-1.1.31-1.93.24-2.89,2.13-3.36,3.81a17.62,17.62,0,0,0-.56,8.09c.6,3,1.57,6,2.16,9.07.35,1.83.67,3.66,1.06,5.47S43.85,59.24,44.2,61c.27,1.39-.14,2.81.11,4.2A22.08,22.08,0,0,0,46,69.93a42.47,42.47,0,0,1,1.38,5.23c.17.61.36,1.22.58,1.81.72-.41,1.43-.84,2.12-1.3a20.27,20.27,0,0,0,4.19-3.51c.67-.78,1.26-1.74,2-2.47q.34-1,.7-1.89a18.48,18.48,0,0,0,1.39-4.74c.24-2.14.38-4.28.5-6.43a22.39,22.39,0,0,1,.33-3.7,18,18,0,0,1,1.4-3.38A26.12,26.12,0,0,0,63.19,42,13,13,0,0,0,61.76,33.79Z"/><path class="cls-5" d="M61.76,33.79a8.3,8.3,0,0,0-2.54-2.66c-.3-.2-.61-.4-.9-.61a7,7,0,0,0-1.38,1,9,9,0,0,0-2.21,3.13,21.13,21.13,0,0,1-4.13,6.26c-.3.31-1.31-3.42-1.68-4.91a16.36,16.36,0,0,0-1.21-3.12c-.6-1.24-1.69-3.47-3.25-3.82-.28.3-.72.27-1.1.31-1.93.24-2.89,2.13-3.36,3.81a17.62,17.62,0,0,0-.56,8.09c.6,3,1.57,6,2.16,9.07.35,1.83.67,3.66,1.06,5.47S43.85,59.24,44.2,61c.27,1.39-.14,2.81.11,4.2a19.38,19.38,0,0,0,1.5,4.29l.41.6c.93,1.33,1.89,2.67,2.95,3.9a72.22,72.22,0,0,0,6.46,6.31,10.93,10.93,0,0,0,.43-3.65,35.3,35.3,0,0,0-.62-4.53q.69-2.21,1.53-4.36a18.48,18.48,0,0,0,1.39-4.74c.24-2.14.38-4.28.5-6.43a22.39,22.39,0,0,1,.33-3.7,18,18,0,0,1,1.4-3.38A26.12,26.12,0,0,0,63.19,42,13,13,0,0,0,61.76,33.79Z"/><path class="cls-6" d="M61.76,33.79a8.3,8.3,0,0,0-2.54-2.66c-.3-.2-.61-.4-.9-.61a7,7,0,0,0-1.38,1,9,9,0,0,0-2.21,3.13,21.13,21.13,0,0,1-4.13,6.26c-.3.31-1.31-3.42-1.68-4.91a16.36,16.36,0,0,0-1.21-3.12c-.6-1.24-1.69-3.47-3.25-3.82-.28.3-.72.27-1.1.31-1.93.24-2.89,2.13-3.36,3.81a17.62,17.62,0,0,0-.56,8.09c.6,3,1.57,6,2.16,9.07.35,1.83.67,3.66,1.06,5.47.31,1.43.88,2.78,1.28,4.17a22.69,22.69,0,0,0,1.7,2.52c.74,1,1.65,1.85,2.31,2.86a3.39,3.39,0,0,1,.6,1.67c0,.65-.29,1.25-.29,1.9,0,1.16,1.14,2.17,1.89,2.93.5.5,1.06,1.43,1.86,1.36s1.17-.92,1.64-1.45a19.43,19.43,0,0,1,2.16-2.09l.66-.52c.16-.45.33-.89.5-1.33a18.48,18.48,0,0,0,1.39-4.74c.24-2.14.38-4.28.5-6.43a22.39,22.39,0,0,1,.33-3.7,18,18,0,0,1,1.4-3.38A26.12,26.12,0,0,0,63.19,42,13,13,0,0,0,61.76,33.79Z"/><path class="cls-4" d="M43.45,53.11a26.4,26.4,0,0,0,1.75,4.53,14.86,14.86,0,0,0,2.45,4.07,7.58,7.58,0,0,0,1.11.93,1.15,1.15,0,0,0,1.81-1,12,12,0,0,1,.09-3.38,25.26,25.26,0,0,0,.61-2.84,7.59,7.59,0,0,0-.33-2.73,16.06,16.06,0,0,1-.69-2.54,8.18,8.18,0,0,1,.12-2.39,19.69,19.69,0,0,0,.77-4.62,13.54,13.54,0,0,0-.22-1.7c0-.15-.06-.45-.13-.72l-.17.18c-.3.31-1.31-3.42-1.68-4.91a16.36,16.36,0,0,0-1.21-3.12c-.6-1.24-1.69-3.47-3.25-3.82-.28.3-.72.27-1.1.31-1.93.24-2.89,2.13-3.36,3.81a17.62,17.62,0,0,0-.56,8.09c.23,1.18.52,2.35.82,3.51a42.19,42.19,0,0,1,2,3.79A41.29,41.29,0,0,1,43.45,53.11Z"/><path class="cls-3" d="M51,56.91l-.2-.28a12.44,12.44,0,0,0-2.12-2.21,7.61,7.61,0,0,1-2.48-3.68A8.61,8.61,0,0,0,44,47.26c-1.63-1.72-3.49-3.25-4.42-5.43.21,1,.45,2,.7,2.92a42.19,42.19,0,0,1,2,3.79,41.29,41.29,0,0,1,1.18,4.57,26.4,26.4,0,0,0,1.75,4.53,14.86,14.86,0,0,0,2.45,4.07,7.58,7.58,0,0,0,1.11.93,1.15,1.15,0,0,0,1.81-1,12,12,0,0,1,.09-3.38C50.74,57.79,50.86,57.35,51,56.91Z"/><path class="cls-7" d="M52.61,23.26c-.26-.27-.65-.73-.49-1.14a.71.71,0,0,1,.66-.39,2,2,0,0,0-.46-.49c-.18-.13-.39-.21-.57-.34a.84.84,0,0,1-.41-.87c0-.17.19-.23.26-.37s-.07-.24-.28-.32c-.46-.19-.94-.32-1.41-.49a5.29,5.29,0,0,1-2.67-1.75l0,0L47.14,17a3.78,3.78,0,0,0-2.94-.76,27.66,27.66,0,0,1-3.08.13,4.37,4.37,0,0,0-2.78.74l0,0a.11.11,0,0,0,0,.11l.38.78c-1.29,1.23-2.3,2.72-1.94,4.6.41,2.13,2.14,3.6,3.73,4.91.08.06.23,0,.18-.11a25.71,25.71,0,0,1-1-3.72,2.65,2.65,0,0,0,1.58.08,1.86,1.86,0,0,1-.72.66.11.11,0,0,0,0,.19,5.68,5.68,0,0,0,4.05.85,1.51,1.51,0,0,0-.24,1.1c.08.53.36,1,.39,1.55a1.49,1.49,0,0,1-.06.57,10.3,10.3,0,0,0,1.16-.34,24.53,24.53,0,0,0,4.6-2.45c.66-.42,1.3-.87,2-1.29.21-.13.68-.39.75-.66S52.8,23.46,52.61,23.26Z"/><path class="cls-8" d="M52.61,23.26c-.26-.27-.65-.73-.49-1.14a.71.71,0,0,1,.66-.39,2,2,0,0,0-.46-.49c-.18-.13-.39-.21-.57-.34a.84.84,0,0,1-.41-.87c0-.17.19-.23.26-.37s-.07-.24-.28-.32l-.48-.18A3.86,3.86,0,0,1,51,22.46c-.57,1.25-1.89,1.81-3,2.41a5.92,5.92,0,0,0-3.22,3.51.35.35,0,0,1,0,.09,1.23,1.23,0,0,1-.05.25,10.3,10.3,0,0,0,1.16-.34,24.53,24.53,0,0,0,4.6-2.45c.66-.42,1.3-.87,2-1.29.21-.13.68-.39.75-.66S52.8,23.46,52.61,23.26Z"/><path class="cls-9" d="M45.2,28.57a3.9,3.9,0,0,1,.29-1,7.23,7.23,0,0,1,2.18-2.24,3,3,0,0,0,1.28-3A5.4,5.4,0,0,0,48,20.61a5.28,5.28,0,0,0-.56-.88,6.42,6.42,0,0,1-.27,2.42,3.48,3.48,0,0,1-1.14,1.74.28.28,0,0,1-.39,0,.3.3,0,0,1-.19-.21,11,11,0,0,0-.83-2.23A5.07,5.07,0,0,0,43,19.6a19.68,19.68,0,0,0-2.1-1.46,7.08,7.08,0,0,0-2.44-.64l.25.53c-1.29,1.23-2.3,2.72-1.94,4.6.41,2.13,2.14,3.6,3.73,4.91.08.06.23,0,.18-.11a25.71,25.71,0,0,1-1-3.72,2.65,2.65,0,0,0,1.58.08,1.86,1.86,0,0,1-.72.66.11.11,0,0,0,0,.19,5.68,5.68,0,0,0,4.05.85,1.51,1.51,0,0,0-.24,1.1c.08.53.36,1,.39,1.55a1.49,1.49,0,0,1-.06.57Z"/><path class="cls-1" d="M39.67,26.44A7.89,7.89,0,0,1,38,23a2.93,2.93,0,0,1,1-2.91c.43-.32.92-.52,1.36-.83s.61-.8.13-1.33l0-.06a8.36,8.36,0,0,0-1.94-.43l.25.53c-1.29,1.23-2.3,2.72-1.94,4.6.41,2.13,2.14,3.6,3.73,4.91a.13.13,0,0,0,.15,0A13.63,13.63,0,0,1,39.67,26.44Z"/><path class="cls-10" d="M47.42,17a15.29,15.29,0,0,0-1.55-.65,5.25,5.25,0,0,0-2.61-.49c-.49.06-.95.24-1.43.34a3.32,3.32,0,0,1-1.34,0c-.36-.07-.7-.14-1-.19a.28.28,0,0,0-.25.09c-.3.34-.6.7-.88,1.07a.11.11,0,0,0,0,.11l.26.54a.28.28,0,0,0,.21.15c1.29.21,2,1.12,3,2,.48.47,1,.84,1.49,1.34l.05,0a6.65,6.65,0,0,1,2.39,2.87.28.28,0,0,0,.42.12,4.43,4.43,0,0,0,1.29-1.51,5,5,0,0,0,.47-1.35,2.08,2.08,0,0,0,.05-.47,2.6,2.6,0,0,0-.22-.72c-.25-.85.41-1.29.59-2S47.92,17.26,47.42,17Z"/><path class="cls-11" d="M45.13,16.37a.94.94,0,0,0,0,1.88A.94.94,0,0,0,45.13,16.37Z"/><path class="cls-12" d="M45.13,18a.72.72,0,0,1,0-1.43.64.64,0,0,1,.51.22.78.78,0,0,1,.17.5A.67.67,0,0,1,45.13,18Z"/><path class="cls-9" d="M40.12,17.44c-.12-.23-.43-.58-.57-.49s.07.11.1.13a.73.73,0,0,1,.23.33c0,.1,0,.26.11.33s.17-.06.18-.14A.32.32,0,0,0,40.12,17.44Z"/><path class="cls-9" d="M48,18.77a1.64,1.64,0,0,0-1.46-.68,2.11,2.11,0,0,0-.84.5,1.59,1.59,0,0,1-1.16.29,1.52,1.52,0,0,1-.57-.2,2.48,2.48,0,0,0-.4-.24.75.75,0,0,0-.3,0l-.11,0q-.21-.13-.11-.26a1.82,1.82,0,0,1,.13-.25,3.27,3.27,0,0,0,.24-2c0-.07-.12,0-.11,0a3.16,3.16,0,0,1,0,1.3,3.09,3.09,0,0,1-.23.64,1.82,1.82,0,0,0-.2.4c0,.18.08.27.24.25l.16,0a.56.56,0,0,1,.41.08,5,5,0,0,0,.44.26,1.72,1.72,0,0,0,1.72-.25,1.34,1.34,0,0,1,1.1-.42,1.76,1.76,0,0,1,1,.64C48,18.9,48.05,18.82,48,18.77Z"/><path class="cls-9" d="M47.58,19.47a1.28,1.28,0,0,0-1.48-.3,4.33,4.33,0,0,1-1.27.24,3.11,3.11,0,0,1-1.25-.29,3.71,3.71,0,0,0-.92-.4.93.93,0,0,1-.21,0c-.12-.06-.09-.13,0-.24s.19-.29.25-.44a2.53,2.53,0,0,0,.06-1.87c0-.07-.13,0-.11,0a2.41,2.41,0,0,1-.28,2.19c-.09.13-.22.27,0,.39a.6.6,0,0,0,.26.06,1.88,1.88,0,0,1,.64.22,3.43,3.43,0,0,0,2,.46c.69-.08,1.75-.72,2.28,0C47.52,19.58,47.62,19.53,47.58,19.47Z"/><path class="cls-9" d="M47.5,20.22c-.36,0-.56-.4-1-.37s-.8.44-1.29.34A7.53,7.53,0,0,1,44,19.57a7.59,7.59,0,0,0-1.39-.39h0a2.85,2.85,0,0,1-.52-.19c-.15-.08-.31-.14-.16-.41,0,0,.09-.08.12-.11a1.06,1.06,0,0,0,.19-.66,1.36,1.36,0,0,0-.84-1.34c-.07,0-.1.08,0,.11a1.18,1.18,0,0,1,.73.93,1.45,1.45,0,0,1,0,.64.7.7,0,0,1-.13.25c-.06.07-.14.11-.19.18-.31.42.62.67.87.73h0a6.31,6.31,0,0,1,1.47.45,4.16,4.16,0,0,0,1.17.57c.4.06.69-.18,1.05-.3a.75.75,0,0,1,.72.14.89.89,0,0,0,.42.18C47.57,20.34,47.57,20.23,47.5,20.22Z"/><path class="cls-3" d="M61.76,33.79a8.3,8.3,0,0,0-2.54-2.66c-.3-.2-.61-.4-.9-.61a7,7,0,0,0-1.38,1,9,9,0,0,0-2.21,3.13,26.45,26.45,0,0,1-4.13,6.26,8.08,8.08,0,0,1-.83,2.79,28.55,28.55,0,0,1-2,3.13c-.63.86-1.77,2.14-1.59,3.3s1.6,1,2.38.89c.6-.1.33.75.29,1.06a11.31,11.31,0,0,1-1.11,3.25c-.31.69-.72,1.61-.29,2.33a1.63,1.63,0,0,0,2.28.52c.27-.18.53.12.58.37a2.49,2.49,0,0,1-.16,1c-.19.7-.52,1.35-.73,2a1.76,1.76,0,0,0-.06,1.32,1.19,1.19,0,0,0,.94.46c.34,0,1.44,0,1.32.59-.25,1.29-.74,2.51-1,3.8A10.85,10.85,0,0,0,50.76,71c.84-1,1.77-2,2.67-3A14.85,14.85,0,0,0,56,64.36a28.24,28.24,0,0,0,1.27-5.1,15.43,15.43,0,0,1,1.64-4,13.1,13.1,0,0,1,.27-2.33,18,18,0,0,1,1.4-3.38A26.12,26.12,0,0,0,63.19,42,13,13,0,0,0,61.76,33.79Z"/><path class="cls-2" d="M59,52.67c-.81.67-2,1.44-2.36,2.46-.28.76-.35,1.58-.67,2.33-.22.52-.72,1.26-1.39,1.12-.21,0-.24-.2-.4-.29s-.25,0-.45.15-.38.44-.67.42-.63-.45-.71-.77a2.57,2.57,0,0,1,.08-1c0-.16.12-.43,0-.56s-.52.06-.68.17a1.75,1.75,0,0,1-1,.47c-1,0-.9-1.06-.66-1.73.41-1.15,1-2.25,1.4-3.39s1-2.67.64-3.91c-.14-.47-.45-.34-.85-.3a2.4,2.4,0,0,1-1.12-.1c-1.27-.47-1.31-1.66-1-2.79-.39.64-.8,1.26-1.24,1.87-.63.86-1.77,2.14-1.59,3.3s1.6,1,2.38.89c.6-.1.33.75.29,1.06a11.31,11.31,0,0,1-1.11,3.25c-.31.69-.72,1.61-.29,2.33a1.63,1.63,0,0,0,2.28.52c.27-.18.53.12.58.37a2.49,2.49,0,0,1-.16,1c-.19.7-.52,1.35-.73,2a1.76,1.76,0,0,0-.06,1.32,1.19,1.19,0,0,0,.94.46c.34,0,1.44,0,1.32.59-.25,1.29-.74,2.51-1,3.8A10.85,10.85,0,0,0,50.76,71c.84-1,1.77-2,2.67-3A14.85,14.85,0,0,0,56,64.36a28.24,28.24,0,0,0,1.27-5.1,15.43,15.43,0,0,1,1.64-4,13.1,13.1,0,0,1,.27-2.33c0-.21.11-.42.18-.62Z"/><path class="cls-3" d="M50.75,40.7l-.14.16-.06.29Z"/><path class="cls-9" d="M47.69,21.17a1.07,1.07,0,0,1-.39,0c-.17-.06-.19-.16-.29-.26a.61.61,0,0,0-.38-.18c-.45,0-.83.29-1.27.33a2,2,0,0,1-1.43-.68,2.65,2.65,0,0,0-1-.57c-.22-.06-.46-.08-.68-.14s-.37-.26-.55-.46a.58.58,0,0,0-.19-.15s-.13,0-.17,0-.14,0-.07-.22l.1-.12a.94.94,0,0,0,.09-.16c.35-.76-.26-1.48-.84-1.9-.06,0-.11.05-.06.1A1.8,1.8,0,0,1,41.45,18a1,1,0,0,1-.06.38,2,2,0,0,1-.25.37.27.27,0,0,0-.05.23c0,.11.1.09.19.12a.3.3,0,0,1,.29.09,1.52,1.52,0,0,1,.15.2,1,1,0,0,0,.19.21c.31.23.77.21,1.13.33.84.28,1.32,1.25,2.28,1.22.47,0,.91-.43,1.38-.32.24.06.29.29.5.39a1.07,1.07,0,0,0,.51.07A.06.06,0,0,0,47.69,21.17Z"/><path class="cls-9" d="M47.38,22.18c-.26.06-.47-.09-.71-.14a1.26,1.26,0,0,0-.47,0,3.63,3.63,0,0,1-.7.12,1,1,0,0,1-.71-.36,5.36,5.36,0,0,0-.89-.88c-.4-.26-.81-.5-1.22-.75-.06,0-.12.06-.06.1.46.28.95.54,1.38.86s.58.73,1,1A1.29,1.29,0,0,0,46,22.2a1.44,1.44,0,0,1,.84,0,.87.87,0,0,0,.52.06A.06.06,0,0,0,47.38,22.18Z"/><path class="cls-13" d="M45.61,17.08a.56.56,0,0,0-.37-.35.06.06,0,0,0,0,.11.45.45,0,0,1,.29.27C45.53,17.18,45.63,17.15,45.61,17.08Z"/><path class="cls-14" d="M45.45,17.57a.52.52,0,0,1-.38.16.06.06,0,0,0,0,.11.63.63,0,0,0,.46-.19C45.58,17.6,45.5,17.52,45.45,17.57Z"/></g></svg>