<svg id="layer1" xmlns="http://www.w3.org/2000/svg" viewBox="0 0 100 100"><defs><style>.cls-1{fill:#3f4454;}.cls-2{font-size:15.51px;fill:#e8e8e8;font-family:Poppins-Medium, Poppins;}</style></defs><title>icons</title><g id="Kensington-Cedar"><path class="cls-1" d="M70.77,25.94H65.29A5.31,5.31,0,0,1,60,20.63V13.78A4.78,4.78,0,0,0,55.2,9H44.8A4.78,4.78,0,0,0,40,13.78v6.84a5.31,5.31,0,0,1-5.31,5.31H29.23a4.78,4.78,0,0,0-4.78,4.78v10.4a4.78,4.78,0,0,0,4.78,4.78h5.47A5.31,5.31,0,0,1,40,51.22V81a4.78,4.78,0,0,0,4.78,4.78H55.2A4.78,4.78,0,0,0,60,81V51.22a5.31,5.31,0,0,1,5.31-5.31h5.47a4.78,4.78,0,0,0,4.78-4.78V30.72A4.78,4.78,0,0,0,70.77,25.94Z"/><text class="cls-2" transform="translate(44.69 26.68) scale(1.33 1.17)">E<tspan x="3.99" y="7.66"></tspan><tspan x="-1.29" y="15.32">A</tspan><tspan x="3.99" y="22.98"></tspan><tspan x="-0.49" y="30.63">S</tspan><tspan x="3.99" y="38.29"></tspan><tspan x="-0.19" y="45.95">T</tspan></text></g></svg>