<svg id="layer1" xmlns="http://www.w3.org/2000/svg" viewBox="0 0 100 100"><defs><style>.cls-1{fill:#3f4454;}.cls-2{font-size:3.36px;font-family:Poppins-Regular, Poppins;}.cls-2,.cls-3,.cls-5{fill:#f9e0cf;}.cls-3{font-size:6.76px;font-family:NotoSerif, Noto Serif;}.cls-4{letter-spacing:-0.02em;}</style></defs><title>icons</title><g id="Killarney"><rect class="cls-1" x="19.75" y="33.54" width="61.21" height="21.47"/><text class="cls-2" transform="translate(40.24 41.53)">Welcome to</text><text class="cls-3" transform="translate(31.2 48.21)">KILLARN<tspan class="cls-4" x="29.99" y="0">E</tspan><tspan x="34.07" y="0">Y</tspan></text><path class="cls-5" d="M17.22,25.52h0a2.31,2.31,0,0,1,2.31,2.31V74.48a0,0,0,0,1,0,0H14.91a0,0,0,0,1,0,0V27.82a2.31,2.31,0,0,1,2.31-2.31Z"/><path class="cls-5" d="M82.78,25.52h0a2.31,2.31,0,0,1,2.31,2.31V74.48a0,0,0,0,1,0,0H80.47a0,0,0,0,1,0,0V27.82a2.31,2.31,0,0,1,2.31-2.31Z"/></g></svg>