<svg id="layer1" xmlns="http://www.w3.org/2000/svg" viewBox="0 0 100 100"><defs><style>.cls-1,.cls-4{fill:#f7f3f0;}.cls-2{fill:#f9e0cf;}.cls-3{fill:#fccbaa;}.cls-4,.cls-5{stroke:#fccbaa;stroke-miterlimit:10;stroke-width:0.33px;}.cls-5{fill:none;stroke-linecap:round;}</style></defs><title>icons</title><g id="Downton_Vancouver" data-name="Downton Vancouver"><rect class="cls-1" x="47.64" y="50.75" width="4.05" height="38.41"/><rect class="cls-2" x="51.48" y="50.75" width="2.02" height="38.41"/><rect class="cls-2" x="45.83" y="50.75" width="2.02" height="38.41"/><polygon class="cls-1" points="32.96 40.06 66.37 40.06 61.35 50.58 37.98 50.58 32.96 40.06"/><polygon class="cls-2" points="69.59 42.48 30.41 42.48 28.79 38.62 71.21 38.62 69.59 42.48"/><polygon class="cls-3" points="66.32 47.16 33.01 47.16 31.63 44.41 67.7 44.41 66.32 47.16"/><polygon class="cls-2" points="64.94 51.83 34.4 51.83 33.13 49.08 66.2 49.08 64.94 51.83"/><polygon class="cls-3" points="40.44 36.06 59.56 36.06 60.35 38.81 39.65 38.81 40.44 36.06"/><polygon class="cls-2" points="59.56 36.13 40.44 36.13 39.65 33.38 60.35 33.38 59.56 36.13"/><rect class="cls-4" x="49.5" y="14.18" width="1" height="19.04"/><rect class="cls-3" x="47.83" y="26.03" width="4.34" height="1.36"/><rect class="cls-3" x="47.83" y="20.02" width="4.34" height="1.36"/><rect class="cls-3" x="47.83" y="14" width="4.34" height="1.36"/><line class="cls-5" x1="50" y1="14.18" x2="50" y2="10.84"/></g></svg>