<svg xmlns="http://www.w3.org/2000/svg" viewBox="0 0 190 133.72"><defs><style>.cls-1{fill:#f9e0cf;}.cls-2{font-size:7.7px;font-family:Poppins-Light, Poppins;}.cls-2,.cls-3{fill:#3f4454;}.cls-3{font-size:13.69px;font-family:Poppins-Regular, Poppins;}.cls-4{fill:none;stroke:#fccbaa;stroke-miterlimit:10;stroke-width:2.57px;}.cls-5{fill:#7a3f48;}.cls-6,.cls-8,.cls-9{font-size:8.41px;font-family:NotoSerif, Noto Serif;}.cls-10,.cls-6,.cls-8,.cls-9{fill:#fff;}.cls-7{letter-spacing:-0.02em;}.cls-8{letter-spacing:0em;}.cls-9{letter-spacing:0em;}.cls-11{fill:#fccbaa;}</style></defs><title>Kerrisdale</title><g id="Layer_2" data-name="Layer 2"><g id="Layer_1-2" data-name="Layer 1"><g id="Kerrisdale"><rect class="cls-1" x="26.96" y="65.43" width="135.65" height="44.12"/><path class="cls-1" d="M162.61,65.43H27V21.31A152.68,152.68,0,0,0,57.41,18c21.83-4.71,23-10.34,36-10.7,16.79-.46,21.08,8.81,47.06,12.7a127.53,127.53,0,0,0,22.15,1.34Z"/><text class="cls-2" transform="translate(67.42 28) scale(1.16 1)">Welcome To</text><text class="cls-3" transform="translate(45.77 43.41) scale(1.33 1)">KERRISDALE</text><line class="cls-4" x1="26.53" y1="65.05" x2="162.61" y2="65.05"/><rect class="cls-5" x="37.23" y="73.18" width="116.4" height="30.81"/><text class="cls-6" transform="translate(48.22 86.09) scale(1.04 1)">T</text><text class="cls-6" transform="translate(53.58 86.09) scale(0.73 0.7)"><tspan class="cls-7">W</tspan><tspan x="8.64" y="0">O</tspan></text><text class="cls-8" transform="translate(64.4 86.09) scale(1.04 1)"><tspan xml:space="preserve"> H</tspan></text><text class="cls-6" transform="translate(73.6 86.09) scale(0.73 0.7)">OURS</text><text class="cls-6" transform="translate(89.87 86.09) scale(1.04 1)"><tspan xml:space="preserve"> F</tspan></text><text class="cls-9" transform="translate(97.29 86.09) scale(0.73 0.7)">REE</text><text class="cls-6" transform="translate(108.93 86.09) scale(1.04 1)"><tspan xml:space="preserve"> P</tspan></text><text class="cls-6" transform="translate(116.47 86.09) scale(0.73 0.7)">ARKING</text><text class="cls-6" transform="translate(140.37 86.09) scale(1.04 1)"><tspan xml:space="preserve"> </tspan><tspan x="-92.96" y="10.1">A</tspan></text><text class="cls-6" transform="translate(49.96 96.18) scale(0.73 0.7)">T</text><text class="cls-6" transform="translate(53.71 96.18) scale(1.04 1)"><tspan xml:space="preserve"> T</tspan></text><text class="cls-6" transform="translate(61.33 96.18) scale(0.73 0.7)">HE</text><text class="cls-6" transform="translate(70 96.18) scale(1.04 1)"><tspan xml:space="preserve"> K</tspan></text><text class="cls-6" transform="translate(78.39 96.18) scale(0.73 0.7)">ERRIS<tspan class="cls-7" x="23.94" y="0">D</tspan><tspan x="29.89" y="0">ALE</tspan></text><text class="cls-6" transform="translate(112.06 96.18) scale(1.04 1)"><tspan xml:space="preserve"> P</tspan></text><text class="cls-9" transform="translate(119.61 96.18) scale(0.73 0.7)">ARKADE</text><text class="cls-6" transform="translate(144.79 96.18) scale(1.04 1)"> </text><circle class="cls-10" cx="176.31" cy="148.92"/><rect class="cls-11" x="161.76" y="0.2" width="28.24" height="133.51"/><rect class="cls-11" width="28.24" height="133.51"/></g></g></g></svg>