<svg xmlns="http://www.w3.org/2000/svg" xmlns:xlink="http://www.w3.org/1999/xlink" viewBox="0 0 112.55 112.55"><defs><style>.cls-1{fill:url(#linear-gradient);}.cls-2{fill:url(#linear-gradient-2);}.cls-3,.cls-4,.cls-5,.cls-6{fill:#fccbaa;}.cls-3{opacity:0.2;}.cls-4{opacity:0.3;}.cls-5{opacity:0.5;}</style><linearGradient id="linear-gradient" x1="56.27" y1="112.55" x2="56.27" gradientUnits="userSpaceOnUse"><stop offset="0" stop-color="#1d1a3a"/><stop offset="1" stop-color="#fccbaa"/></linearGradient><linearGradient id="linear-gradient-2" x1="56.27" y1="79.19" x2="56.27" gradientUnits="userSpaceOnUse"><stop offset="0.05" stop-color="#fccbaa"/><stop offset="0.27" stop-color="#b79487"/><stop offset="0.51" stop-color="#766066"/><stop offset="0.71" stop-color="#463a4e"/><stop offset="0.87" stop-color="#282340"/><stop offset="0.95" stop-color="#1d1a3a"/></linearGradient></defs><title>Sunrise2</title><g id="Layer_2" data-name="Layer 2"><g id="Layer_1-2" data-name="Layer 1"><g id="SInrise2"><circle class="cls-1" cx="56.27" cy="56.27" r="56.27"/><path class="cls-2" d="M4.79,75.3c1.08-.68,1.88-1.64,2.89-2.36s2.41-1,3.53-1.72a14.34,14.34,0,0,0,1.56-.84,4.19,4.19,0,0,0,.92-1.28c.28-.36.68-1.28,1.2-1.24-.12,0,.64-.8.56-.72.4-.44,1.32.28,1.8.44a3.67,3.67,0,0,1,1.36.48c.32.32.56.84.88,1.2a3.83,3.83,0,0,0,1.2,1.2c.4.16.72,0,1.08.12s.44.32.64.52c.48.48.92,1,1.64.72s1-1.6,1.88-1.56c.52,0,.68.64,1.2.68a2.91,2.91,0,0,0,1.12-.4A8,8,0,0,1,31.2,70c.84,0,1.52.16,2.08-.6s.88-1.44,1.32-2.12c.2-.32.6-1,1-1.16s.6.16,1,.24.8.08,1.2.16c1.84.4,2.2-1.2,2.77-2.65a4.1,4.1,0,0,1,2.16-2.69c1.16-.44,2.41-.64,3.61-1.12.48-.2,1-.24,1.48-.44a13.87,13.87,0,0,0,1.8-1.16,3.29,3.29,0,0,1,1.52-.52,3.27,3.27,0,0,0,1-.56,13.27,13.27,0,0,1,2.2-1.48c1.76-.56,5.17-.12,6.29,1.44.64.88,1.56,1.44,2,2.41a2.79,2.79,0,0,0,1,1.16c.44.32,1,.36,1.4.64.64.44,1,1.12,1.76,1.48,1.12.56,2.45.2,3.29,1.24A5.88,5.88,0,0,0,72.85,66a3,3,0,0,0,1.56.36c.6,0,1.2.36,1.72.24,1.08-.24,1.4-1.6,2.77-1.08.52.16.8,1.12,1.44.8a3.23,3.23,0,0,0,.36-.56,2.62,2.62,0,0,1,.92-.52c.76-.32,1.36-.64,1.84.28.32.6.52,1.16.88,1.72a9.92,9.92,0,0,0,1.12,1.44,9,9,0,0,0,2.77,1.56c.4.2.8.28,1.16.48s.6.48,1,.64c.8.4,1.72.52,2.57,1a4.7,4.7,0,0,0,1,.36,7.78,7.78,0,0,1,1.92,1.12,31.66,31.66,0,0,0,4.29,2.36c.8.36,1.68.72,2.49,1.08,1,.4,1.84,1,2.85,1.36a7.34,7.34,0,0,0,2.25.57A56.27,56.27,0,1,0,3.58,76.06C4,75.81,4.39,75.56,4.79,75.3Z"/><circle class="cls-3" cx="89.12" cy="45.59" r="12.93"/><circle class="cls-4" cx="89.12" cy="45.59" r="10.32"/><circle class="cls-5" cx="89.12" cy="45.59" r="7.72"/><circle class="cls-6" cx="89.12" cy="45.59" r="4.06"/></g></g></g></svg>