<svg xmlns="http://www.w3.org/2000/svg" xmlns:xlink="http://www.w3.org/1999/xlink" viewBox="0 0 112.55 112.55"><defs><style>.cls-1{fill:url(#linear-gradient);}.cls-2,.cls-3,.cls-4,.cls-5{fill:#fccbaa;}.cls-3{opacity:0.2;}.cls-4{opacity:0.3;}.cls-5{opacity:0.5;}</style><linearGradient id="linear-gradient" x1="56.27" y1="112.55" x2="56.27" gradientUnits="userSpaceOnUse"><stop offset="0.05" stop-color="#fccbaa"/><stop offset="0.27" stop-color="#b79487"/><stop offset="0.51" stop-color="#766066"/><stop offset="0.71" stop-color="#463a4e"/><stop offset="0.87" stop-color="#282340"/><stop offset="0.95" stop-color="#1d1a3a"/></linearGradient></defs><title>Sunrise1</title><g id="Layer_2" data-name="Layer 2"><g id="Layer_1-2" data-name="Layer 1"><g id="Sunrise"><g id="Sunset2"><path class="cls-1" d="M9.3,82.51a2.43,2.43,0,0,0,1.87-1,9.93,9.93,0,0,1,2-1.94c.77-.48,1.54-.92,2.31-1.43,1-.62,1.72-1.5,2.64-2.16s2.2-1,3.22-1.57a13.09,13.09,0,0,0,1.43-.77,3.82,3.82,0,0,0,.84-1.17c.26-.33.62-1.17,1.1-1.13-.11,0,.59-.73.51-.66.37-.4,1.21.26,1.65.4a3.35,3.35,0,0,1,1.24.44c.29.29.51.77.81,1.1a3.49,3.49,0,0,0,1.1,1.1c.37.15.66,0,1,.11s.4.29.59.48c.44.44.84.92,1.5.66s.88-1.46,1.72-1.43c.48,0,.62.59,1.1.62a2.66,2.66,0,0,0,1-.37,7.35,7.35,0,0,1,2.67-.48c.77,0,1.39.15,1.9-.55s.81-1.32,1.21-1.94c.18-.29.55-.92.88-1.06s.55.15.92.22.73.07,1.1.15c1.68.37,2-1.1,2.53-2.42a3.74,3.74,0,0,1,2-2.45c1.06-.4,2.2-.59,3.29-1,.44-.18.92-.22,1.35-.4a12.67,12.67,0,0,0,1.65-1.06,3,3,0,0,1,1.39-.48,3,3,0,0,0,1-.51,12.12,12.12,0,0,1,2-1.35c1.61-.51,4.72-.11,5.75,1.32.59.81,1.43,1.32,1.87,2.2A2.55,2.55,0,0,0,69.26,65c.4.29.88.33,1.28.59.59.4,1,1,1.61,1.35,1,.51,2.23.18,3,1.13a5.37,5.37,0,0,0,2.45,1.57A2.74,2.74,0,0,0,79,70c.55,0,1.1.33,1.57.22,1-.22,1.28-1.46,2.53-1,.48.15.73,1,1.32.73a3,3,0,0,0,.33-.51,2.39,2.39,0,0,1,.84-.48c.7-.29,1.24-.59,1.68.26.29.55.48,1.06.81,1.57a9.06,9.06,0,0,0,1,1.32,8.2,8.2,0,0,0,2.53,1.43c.37.18.73.26,1.06.44s.55.44.88.59c.73.37,1.57.48,2.34.88a4.29,4.29,0,0,0,.88.33,7.11,7.11,0,0,1,1.76,1,28.91,28.91,0,0,0,3.92,2.16c.73.33,1.54.66,2.27,1s1.38.69,2.1,1A56.28,56.28,0,1,0,7.13,83.7c.25-.23.49-.46.75-.67A1.74,1.74,0,0,1,9.3,82.51Z"/><path class="cls-2" d="M7.84,84.45c0-.07.07-.07.11-.11H8.1a4.27,4.27,0,0,0,3.22-1.65,3.65,3.65,0,0,0,.37-.4,5.53,5.53,0,0,1,1.24-1.21c.33-.22.7-.44,1.06-.66s.84-.48,1.24-.77a16.29,16.29,0,0,0,1.65-1.35,11.23,11.23,0,0,1,1.06-.88,5.78,5.78,0,0,1,1.43-.73A12.75,12.75,0,0,0,21,75.92a3.58,3.58,0,0,0,.4-.18A7.78,7.78,0,0,0,22.63,75a4.31,4.31,0,0,0,1-1.21,2,2,0,0,1,.18-.29,2.1,2.1,0,0,1,.15-.26,1.22,1.22,0,0,1,.22-.37l.11.11a8.65,8.65,0,0,1,1.17,1.13c.26.44-.07.55-.15.84a2.59,2.59,0,0,0-.07.92,1.56,1.56,0,0,0,.22.73l.11.44.44.11c.33.22.59,1,.92,1a4.79,4.79,0,0,0-2.16,1.9c-.18.44,0,.77-.26,1.17a3,3,0,0,1-.88.77,8.45,8.45,0,0,1-2.34.81c-.62.15-.7.4-1.06,1a6.75,6.75,0,0,1-1.1,1.76c-.4.33-.33.11-.73,0a2.31,2.31,0,0,0-1.32.15c-.59.18-1,.48-1.57.7a8.82,8.82,0,0,1-1.35.26,3.11,3.11,0,0,0-1.17.77,17.36,17.36,0,0,1-2.2,1.43l-.25.18a56.29,56.29,0,0,0,96.31-8.16c-.72-.33-1.39-.73-2.1-1s-1.54-.66-2.27-1a28.91,28.91,0,0,1-3.92-2.16,7.11,7.11,0,0,0-1.76-1,4.29,4.29,0,0,1-.88-.33c-.77-.4-1.61-.51-2.34-.88-.33-.15-.55-.44-.88-.59s-.7-.26-1.06-.44a8.2,8.2,0,0,1-2.53-1.43,9.06,9.06,0,0,1-1-1.32c-.33-.51-.51-1-.81-1.57-.44-.84-1-.55-1.68-.26a2.39,2.39,0,0,0-.84.48,3,3,0,0,1-.33.51c-.59.29-.84-.59-1.32-.73-1.24-.48-1.54.77-2.53,1-.48.11-1-.22-1.57-.22a2.74,2.74,0,0,1-1.43-.33,5.37,5.37,0,0,1-2.45-1.57c-.77-1-2-.62-3-1.13-.66-.33-1-1-1.61-1.35-.4-.26-.88-.29-1.28-.59a2.55,2.55,0,0,1-.92-1.06c-.44-.88-1.28-1.39-1.87-2.2-1-1.43-4.14-1.83-5.75-1.32a12.12,12.12,0,0,0-2,1.35,3,3,0,0,1-1,.51,3,3,0,0,0-1.39.48,12.67,12.67,0,0,1-1.65,1.06c-.44.18-.92.22-1.35.4-1.1.44-2.23.62-3.29,1a3.74,3.74,0,0,0-2,2.45c-.51,1.32-.84,2.78-2.53,2.42-.37-.07-.73-.07-1.1-.15s-.55-.37-.92-.22-.7.77-.88,1.06c-.4.62-.81,1.32-1.21,1.94s-1.13.55-1.9.55a7.35,7.35,0,0,0-2.67.48,2.66,2.66,0,0,1-1,.37c-.48,0-.62-.59-1.1-.62-.84,0-1.06,1.13-1.72,1.43s-1.06-.22-1.5-.66c-.18-.18-.33-.4-.59-.48s-.62,0-1-.11a3.49,3.49,0,0,1-1.1-1.1c-.29-.33-.51-.81-.81-1.1a3.35,3.35,0,0,0-1.24-.44c-.44-.15-1.28-.81-1.65-.4.07-.07-.62.7-.51.66-.48,0-.84.81-1.1,1.13a3.82,3.82,0,0,1-.84,1.17,13.09,13.09,0,0,1-1.43.77c-1,.62-2.27.92-3.22,1.57s-1.65,1.54-2.64,2.16c-.77.51-1.54,1-2.31,1.43a9.93,9.93,0,0,0-2,1.94,2.43,2.43,0,0,1-1.87,1A1.74,1.74,0,0,0,7.88,83c-.26.22-.5.44-.75.67l.52.92ZM68.2,81.63c.26-.33.62-.62.84-1a3.26,3.26,0,0,0,.29-1.76,7.1,7.1,0,0,1,.26-3.29,2.6,2.6,0,0,0,.37-.51c.15-.4,0-.33,0-.62a5.91,5.91,0,0,1-.37-1.32c0-1.06,1.94-.81,2.75-.81s.59-.11,1.13-.48A2.91,2.91,0,0,1,75,71.57a5.42,5.42,0,0,0,1.13-.11,4.32,4.32,0,0,0,1.54.26.93.93,0,0,1,.26.07,3.2,3.2,0,0,0,3.29-.7,2.92,2.92,0,0,0,.81.51s0,.07-.07.11a24.45,24.45,0,0,0-2.64,3.44,1.25,1.25,0,0,0-.18,1.17,8.8,8.8,0,0,0,.4,1.76A6.58,6.58,0,0,0,80.83,80,3,3,0,0,1,82,82a29.38,29.38,0,0,0,.51,3.66c.22.7.7,1.28.88,2s.15,1.32.29,1.94c.55,2.31,1.54,4.65,1.68,7-.37-.51-1-.77-1.39-1.28s-.88-1.13-1.35-1.72a3.1,3.1,0,0,0-1-.88,5.32,5.32,0,0,1-1.17-.66c-.62-.62-.88-1.43-1.68-1.94-1.17-.73-3,.07-4.36-.29a3.91,3.91,0,0,0-1.61-.22c-.81.15-.88,1-1.79.81-.7-.11-1-.51-1.76-.51H66.89c-.7,0-1.39.15-1.13-.84,0-.22.22-.29.29-.51a3.24,3.24,0,0,0,0-.84c0-1.13-.92-1.46-1.57-2.27-.33-.4-.44-.73-.88-1S62.17,83.57,62,83.1c.77-.11.62-.22,1.13-.62s1.21,0,1.87.22a2,2,0,0,0,1.94-.48C67.4,81.82,67.62,81.19,68.2,81.63ZM29.66,78.41a5,5,0,0,0,.55-1.94,2.57,2.57,0,0,0,2.34.11,2.85,2.85,0,0,0,1.13-.88,2.34,2.34,0,0,0,.81.22,3,3,0,0,0,1.65-.4c.07,0,.11-.07.15-.07a5.29,5.29,0,0,1,2-.37h.33a3.22,3.22,0,0,0,3.07-1.32c.26-.4.51-.81.73-1.17s.37-.55.51-.81l0,0c.22,0,.4,0,.59.07a1,1,0,0,1,.37,0,3.37,3.37,0,0,0,3.33-1,6.48,6.48,0,0,0,1.13-2.16,1.53,1.53,0,0,0,.15-.37c.33-.88.59-1.28.92-1.39s.88-.26,1.35-.4a16.09,16.09,0,0,0,2-.66l.44-.11a6.47,6.47,0,0,0,.92-.29,7.07,7.07,0,0,0,1.5-.92c.18-.11.33-.22.44-.29s.11-.07.48-.15c.11,0,.22,0,.33-.07a3.38,3.38,0,0,0,1.32-.62.8.8,0,0,0,.18-.11c.33-.22.66-.48,1-.7a5.79,5.79,0,0,1,.66-.48,2,2,0,0,0,.07.66c.07.33.4.55.55.81.33.59.66,1.21,1,1.79s.59,1.21,1,1.83a7.65,7.65,0,0,0,1.57,1.5c.51.48.73,1,1.24,1.5a16.62,16.62,0,0,0,1.39,1.39A6.07,6.07,0,0,1,65,71a19.57,19.57,0,0,1-2.45-.88,3.58,3.58,0,0,0-1.39-.55c-.59,0-.26-.15-.81.15-.73.4-1.06,1-1.65,1.57-.33.29-.73.37-1.06.62s-.29.4-.51.55-.62.26-1,.44a8.12,8.12,0,0,0-1.54,1.17c-.55.48-.62,1.21-1,1.83a20.13,20.13,0,0,0-1.24,2.53c-.11.26-.15.81-.4,1s-.73.11-1,.29a8,8,0,0,0-2.86,2.67,7.39,7.39,0,0,1-1,1.17c-.26.33-.29.81-.59,1.06s-.59.29-.77.4-.7.37-1,.55c-.51.33-1,.73-1.43,1.1s-.92.48-1.32.81-.37.55-.59.77a7.25,7.25,0,0,1-1.24.81c-1.65,1-4,.55-5.82.55-1.13,0-2.09.26-3.18.26s-2.45,0-3.7,0c-1,0-1,.73-1.43,1.46a6,6,0,0,1-1.46,1.57c-.37.26-.84.37-1.21.66a3,3,0,0,1-1.35.7c-.15,0-.33,0-.51,0a8,8,0,0,0-1.35.22c-.7.11-.55-.15-.92-.73-.55.11-1,1-1.35,1.32a7.5,7.5,0,0,1-1.32,1.13A1.74,1.74,0,0,1,17,95c.4-1,.88-1.87,1.28-2.82a6.69,6.69,0,0,1,1.21-2.45c.22-.18.48-.22.73-.44a6.92,6.92,0,0,0,.73-1,11.93,11.93,0,0,1,1.94-1.9,7.4,7.4,0,0,0,1.79-2.31c.26-.48.26-1.06.55-1.46s.7-.4,1-.7.15-.4.29-.55a6.63,6.63,0,0,1,1.17-.81A6.68,6.68,0,0,0,29.66,78.41Z"/><path class="cls-2" d="M26.18,81.92c-.26.29-.73.37-1,.7s-.29,1-.55,1.46a7.4,7.4,0,0,1-1.79,2.31,11.93,11.93,0,0,0-1.94,1.9,6.92,6.92,0,0,1-.73,1c-.26.22-.51.26-.73.44a6.69,6.69,0,0,0-1.21,2.45c-.4,1-.88,1.87-1.28,2.82a1.74,1.74,0,0,0-.33,1.17A7.5,7.5,0,0,0,18,95c.37-.37.81-1.21,1.35-1.32.37.59.22.84.92.73a8,8,0,0,1,1.35-.22c.18,0,.37,0,.51,0a3,3,0,0,0,1.35-.7c.37-.29.84-.4,1.21-.66a6,6,0,0,0,1.46-1.57c.48-.73.48-1.43,1.43-1.46,1.24,0,2.45,0,3.7,0s2-.29,3.18-.26c1.87,0,4.17.44,5.82-.55a7.25,7.25,0,0,0,1.24-.81c.22-.22.33-.59.59-.77s.92-.48,1.32-.81.92-.77,1.43-1.1c.33-.18.7-.33,1-.55s.62-.29.77-.4.33-.73.59-1.06a7.39,7.39,0,0,0,1-1.17A8,8,0,0,1,51,79.73c.29-.18.81-.15,1-.29s.29-.73.4-1a20.13,20.13,0,0,1,1.24-2.53c.33-.62.4-1.35,1-1.83a8.12,8.12,0,0,1,1.54-1.17c.33-.18.66-.26,1-.44s.33-.4.51-.55.73-.33,1.06-.62c.59-.55.92-1.17,1.65-1.57.55-.29.22-.18.81-.15a3.58,3.58,0,0,1,1.39.55A19.57,19.57,0,0,0,65,71a6.07,6.07,0,0,0,1.79.59,16.62,16.62,0,0,1-1.39-1.39c-.51-.48-.73-1-1.24-1.5a7.65,7.65,0,0,1-1.57-1.5c-.37-.62-.62-1.21-1-1.83s-.62-1.21-1-1.79c-.15-.26-.48-.48-.55-.81a2,2,0,0,1-.07-.66,5.79,5.79,0,0,0-.66.48c-.29.22-.62.48-1,.7a.8.8,0,0,1-.18.11A3.38,3.38,0,0,1,57,64c-.11,0-.22,0-.33.07-.37.07-.4.07-.48.15s-.26.18-.44.29a7.07,7.07,0,0,1-1.5.92,6.47,6.47,0,0,1-.92.29l-.44.11a16.09,16.09,0,0,1-2,.66c-.48.15-.92.26-1.35.4s-.59.51-.92,1.39a1.53,1.53,0,0,1-.15.37,6.48,6.48,0,0,1-1.13,2.16,3.37,3.37,0,0,1-3.33,1,1,1,0,0,0-.37,0c-.18,0-.37,0-.59-.07l0,0c-.15.26-.33.51-.51.81s-.48.77-.73,1.17a3.22,3.22,0,0,1-3.07,1.32h-.33a5.29,5.29,0,0,0-2,.37s-.07,0-.15.07a3,3,0,0,1-1.65.4,2.34,2.34,0,0,1-.81-.22,2.85,2.85,0,0,1-1.13.88,2.57,2.57,0,0,1-2.34-.11,5,5,0,0,1-.55,1.94,6.68,6.68,0,0,1-2,2.16,6.63,6.63,0,0,0-1.17.81C26.33,81.52,26.29,81.78,26.18,81.92Z"/><path class="cls-2" d="M65,82.69c-.66-.18-1.28-.7-1.87-.22s-.37.51-1.13.62c.18.48,1.17,1,1.61,1.32s.55.62.88,1c.66.81,1.57,1.13,1.57,2.27a3.24,3.24,0,0,1,0,.84c-.07.22-.26.29-.29.51-.26,1,.44.84,1.13.84H69.3c.73,0,1.06.4,1.76.51.92.18,1-.66,1.79-.81a3.91,3.91,0,0,1,1.61.22c1.35.37,3.18-.44,4.36.29.81.51,1.06,1.32,1.68,1.94a5.32,5.32,0,0,0,1.17.66,3.1,3.1,0,0,1,1,.88c.48.59.92,1.13,1.35,1.72s1,.77,1.39,1.28c-.15-2.38-1.13-4.72-1.68-7-.15-.62-.15-1.32-.29-1.94s-.66-1.32-.88-2A29.38,29.38,0,0,1,82,82a3,3,0,0,0-1.17-2,6.58,6.58,0,0,1-1.24-1.9,8.8,8.8,0,0,1-.4-1.76,1.25,1.25,0,0,1,.18-1.17A24.45,24.45,0,0,1,82,71.71s.07-.07.07-.11a2.92,2.92,0,0,1-.81-.51,3.2,3.2,0,0,1-3.29.7.93.93,0,0,0-.26-.07,4.32,4.32,0,0,1-1.54-.26,5.42,5.42,0,0,1-1.13.11,2.91,2.91,0,0,0-1.57.33c-.55.37-.4.51-1.13.48s-2.75-.26-2.75.81A5.91,5.91,0,0,0,70,74.49c0,.29.15.22,0,.62a2.6,2.6,0,0,1-.37.51,7.1,7.1,0,0,0-.26,3.29A3.26,3.26,0,0,1,69,80.68c-.22.33-.59.62-.84,1-.59-.44-.81.18-1.28.59A2,2,0,0,1,65,82.69Z"/><path class="cls-2" d="M13,87.49a3.11,3.11,0,0,1,1.17-.77,8.82,8.82,0,0,0,1.35-.26c.59-.22,1-.51,1.57-.7a2.31,2.31,0,0,1,1.32-.15c.4.07.33.29.73,0a6.75,6.75,0,0,0,1.1-1.76c.37-.59.44-.84,1.06-1A8.45,8.45,0,0,0,23.66,82a3,3,0,0,0,.88-.77c.29-.4.07-.73.26-1.17A4.79,4.79,0,0,1,27,78.19c-.33-.07-.59-.81-.92-1l-.44-.11-.11-.44a1.56,1.56,0,0,1-.22-.73,2.59,2.59,0,0,1,.07-.92c.07-.29.4-.4.15-.84A8.65,8.65,0,0,0,24.32,73l-.11-.11a1.22,1.22,0,0,0-.22.37,2.1,2.1,0,0,0-.15.26,2,2,0,0,0-.18.29,4.31,4.31,0,0,1-1,1.21,7.78,7.78,0,0,1-1.24.73,3.58,3.58,0,0,1-.4.18,12.75,12.75,0,0,1-1.61.77,5.78,5.78,0,0,0-1.43.73,11.23,11.23,0,0,0-1.06.88,16.29,16.29,0,0,1-1.65,1.35c-.4.29-.84.51-1.24.77s-.73.44-1.06.66a5.53,5.53,0,0,0-1.24,1.21,3.65,3.65,0,0,1-.37.4A4.27,4.27,0,0,1,8.1,84.34H8s-.07,0-.11.11l-.19.16Q9,86.93,10.56,89.1l.25-.18A17.36,17.36,0,0,0,13,87.49Z"/></g><circle class="cls-3" cx="94.33" cy="49.6" r="12.93"/><circle class="cls-4" cx="94.33" cy="49.6" r="10.32"/><circle class="cls-5" cx="94.33" cy="49.6" r="7.72"/><circle class="cls-2" cx="94.33" cy="49.6" r="4.06"/></g></g></g></svg>