<svg id="layer1" xmlns="http://www.w3.org/2000/svg" viewBox="0 0 100 100"><defs><style>.cls-1,.cls-3,.cls-4,.cls-5,.cls-8{fill:#3f4454;}.cls-2{fill:#fff;}.cls-3{font-size:4.34px;}.cls-3,.cls-4,.cls-5,.cls-8{font-family:TimesNewRomanPSMT, Times New Roman;}.cls-4,.cls-5{font-size:4.34px;}.cls-5,.cls-6{letter-spacing:-0.02em;}.cls-7{fill:none;stroke:#3f4454;stroke-miterlimit:10;stroke-width:0.35px;}.cls-8{font-size:4.08px;}</style></defs><title>icons</title><g id="Mt.Pleasant"><path class="cls-1" d="M50,7.66c2.05.11,3,.79,3.54,1.42.78,1,.58,1.94,1.42,3.9h0a4.08,4.08,0,0,0,3.76,2.48h.85a12.65,12.65,0,0,0,6.38,8.15v3.9H64.15a23.31,23.31,0,0,1,2.13,11,18,18,0,0,1-2.13,8.15,17,17,0,0,1-3.4,4.3,11.36,11.36,0,0,0-2.2,2.74l-.43.75H56.71l-.35,1.06a2.89,2.89,0,0,1,0,2.48A2.63,2.63,0,0,1,55.3,59a12.13,12.13,0,0,0-1.06,3.19c-.84,4.62,1.54,7.3,0,10.27L52.82,75V92.34H47.18V75L45.77,72.5c-1.54-3,.84-5.65,0-10.27A12.13,12.13,0,0,0,44.7,59,2.63,2.63,0,0,1,43.64,58a2.89,2.89,0,0,1,0-2.48l-.35-1.06H41.87l-.43-.75a11.36,11.36,0,0,0-2.2-2.74,17,17,0,0,1-3.4-4.3,18,18,0,0,1-2.13-8.15,23.31,23.31,0,0,1,2.13-11H34.07v-3.9a12.65,12.65,0,0,0,6.38-8.15h.85A4.08,4.08,0,0,0,45.06,13h0c.83-2,.63-2.94,1.42-3.9C47,8.45,48,7.77,50,7.66"/><circle class="cls-2" cx="50.02" cy="37.07" r="12.75"/><text class="cls-3" transform="translate(48.42 28.64) scale(0.53 1)">XII</text><text class="cls-4" transform="translate(44.44 30.58) rotate(-30) scale(0.53 1)">XI</text><text class="cls-4" transform="translate(42.29 33.87) rotate(-60) scale(0.53 1)">X</text><text class="cls-3" transform="translate(41.59 38.66) rotate(-90) scale(0.53 1)">IX</text><text class="cls-4" transform="translate(43.53 43.36) rotate(-120) scale(0.53 1)">VIII</text><text class="cls-4" transform="translate(47.17 45.15) rotate(-150) scale(0.53 1)">VII</text><text class="cls-3" transform="translate(51.26 45.85) rotate(180) scale(0.53 1)">VI</text><text class="cls-5" transform="translate(54.89 44.27) rotate(150) scale(0.53 1)">V</text><text class="cls-4" transform="translate(57.75 40.62) rotate(120) scale(0.53 1)">I<tspan class="cls-6" x="1.45" y="0">V</tspan></text><text class="cls-3" transform="translate(58.45 36.18) rotate(90) scale(0.53 1)">III</text><text class="cls-4" transform="translate(56.86 32.19) rotate(60) scale(0.53 1)">II</text><text class="cls-4" transform="translate(53.57 29.69) rotate(30) scale(0.53 1)">I</text><circle class="cls-1" cx="49.13" cy="37.25" r="0.71"/><path class="cls-1" d="M53.87,32.18l-1.72.77a.9.9,0,0,0-.53.82v.67l.66.06a.94.94,0,0,0,1-.61Z"/><path class="cls-1" d="M54.65,44.35,53.85,42a1.51,1.51,0,0,0-.9-.93l-.75-.25-.09.76A1.56,1.56,0,0,0,52.76,43Z"/><line class="cls-7" x1="53.31" y1="42.47" x2="49.31" y2="37.07"/><line class="cls-7" x1="51.79" y1="34.23" x2="49.31" y2="37.07"/><path class="cls-1" d="M62,70.73H37a2.23,2.23,0,0,1-2-1.29,7.84,7.84,0,0,1,0-6.46,2.23,2.23,0,0,1,2-1.29H62A2.23,2.23,0,0,1,64,63a7.84,7.84,0,0,1,0,6.46A2.23,2.23,0,0,1,62,70.73Z"/><path class="cls-2" d="M60.67,69.49H38.3a2.18,2.18,0,0,1-2-1.19,4.71,4.71,0,0,1,0-4.17,2.18,2.18,0,0,1,2-1.19H60.68a2.18,2.18,0,0,1,2,1.19,4.71,4.71,0,0,1,0,4.08A2.22,2.22,0,0,1,60.67,69.49Z"/><text class="cls-8" transform="translate(39.8 67.28)">Mt.Pleasant</text><path class="cls-2" d="M59.05,25.13a16.84,16.84,0,0,0-17.81,0,2.78,2.78,0,0,1-3.48-.22h0c-.83-.91-.4-2.65,1.11-3.59a21.33,21.33,0,0,1,22.56,0c1.5.94,1.94,2.67,1.11,3.59h0A2.78,2.78,0,0,1,59.05,25.13Z"/><path class="cls-1" d="M43.8,20.28l0,0a.38.38,0,0,0-.13.1.3.3,0,0,0-.06.15,1.42,1.42,0,0,0,0,.27q.06.87.19,1.73l-.06,0q-.54-.42-1.12-.81.11.69.27,1.36l0,0a16.53,16.53,0,0,0-1.57-.89l-.22-.1a.23.23,0,0,0-.13,0,.49.49,0,0,0-.16.1l0,0q.38-.32.77-.61l0,0,0,0a.28.28,0,0,0-.1.12.1.1,0,0,0,0,.1.84.84,0,0,0,.21.14q.54.3,1,.62-.11-.5-.2-1l-.15-.1-.12-.08-.15-.06H42l-.1,0-.1.06,0,0q.42-.29.85-.56l0,0-.06,0a.26.26,0,0,0-.11.11.11.11,0,0,0,0,.11.81.81,0,0,0,.21.18q.49.33,1,.7-.08-.59-.13-1.18a.78.78,0,0,0,0-.26.1.1,0,0,0-.05,0h-.08l-.18.07,0,0Z"/><path class="cls-1" d="M44.61,20l.29.73.49-.18a.5.5,0,0,0,.24-.14.31.31,0,0,0,0-.26l.06,0,.21.66-.06,0a.68.68,0,0,0-.1-.16.2.2,0,0,0-.12,0,.58.58,0,0,0-.22,0l-.48.18.24.61a.56.56,0,0,0,.07.15l.06,0,.12,0,.35-.13A1.23,1.23,0,0,0,46,21.4a.42.42,0,0,0,.13-.14,1.26,1.26,0,0,0,.12-.32l.06,0q0,.27,0,.53a11.65,11.65,0,0,0-1.56.59l0,0,.07,0a.34.34,0,0,0,.12-.09.13.13,0,0,0,0-.09.66.66,0,0,0-.06-.18l-.51-1.19c0-.12-.1-.18-.14-.2a.33.33,0,0,0-.23,0l-.08,0,0,0a13.64,13.64,0,0,1,1.83-.69l.15.41-.07,0a.57.57,0,0,0-.14-.18.29.29,0,0,0-.16,0,1,1,0,0,0-.25.06Z"/><path class="cls-1" d="M48.32,20.48h.05q-.07.28-.13.56a11.7,11.7,0,0,0-1.63.32v-.05l.08,0a.23.23,0,0,0,.17-.13.44.44,0,0,0,0-.22l-.3-1.25c0-.12-.06-.19-.1-.22a.31.31,0,0,0-.22,0l-.09,0v-.05q.55-.15,1.11-.25v.05a.79.79,0,0,0-.27.08.21.21,0,0,0-.09.1.53.53,0,0,0,0,.23l.26,1.23a.39.39,0,0,0,.06.16l.07,0,.25,0,.16,0a1.39,1.39,0,0,0,.34-.09.48.48,0,0,0,.17-.14A1.07,1.07,0,0,0,48.32,20.48Z"/><path class="cls-1" d="M50.58,19q0,.34,0,.68h-.05a.81.81,0,0,0-.29-.46.87.87,0,0,0-.5-.15.92.92,0,0,0-.45.11.68.68,0,0,0-.3.33,1.18,1.18,0,0,0-.08.55,1.07,1.07,0,0,0,.12.46.72.72,0,0,0,.3.29.93.93,0,0,0,.43.1.86.86,0,0,0,.37-.07,1.34,1.34,0,0,0,.38-.31l0,0a1.2,1.2,0,0,1-.41.37,1.22,1.22,0,0,1-1.36-.23,1,1,0,0,1-.28-.62,1,1,0,0,1,.11-.56,1,1,0,0,1,.43-.41,1.35,1.35,0,0,1,.64-.15,1.31,1.31,0,0,1,.53.12l.11,0a.14.14,0,0,0,.09,0,.22.22,0,0,0,.08-.11Z"/><path class="cls-1" d="M52.21,19.16a1.18,1.18,0,0,1,.76.47.89.89,0,0,1,.14.8,1,1,0,0,1-.51.65,1.15,1.15,0,0,1-.8.13,1.13,1.13,0,0,1-.7-.4,1,1,0,0,1-.23-.79.89.89,0,0,1,.47-.73A1.25,1.25,0,0,1,52.21,19.16Zm-.05.1a.69.69,0,0,0-.56.11,1,1,0,0,0-.34.69,1.14,1.14,0,0,0,.13.78.61.61,0,0,0,.42.27.69.69,0,0,0,.54-.11,1.29,1.29,0,0,0,.31-1.42A.72.72,0,0,0,52.15,19.26Z"/><path class="cls-1" d="M54.22,21.89A15.25,15.25,0,0,0,54,20l-.43,1.26a.39.39,0,0,0,0,.23.26.26,0,0,0,.16.12l.07,0,0,.05L53,21.45l0-.05.07,0a.24.24,0,0,0,.21,0,.42.42,0,0,0,.1-.19L53.82,20a.37.37,0,0,0,0-.19.19.19,0,0,0-.07-.1.61.61,0,0,0-.21-.09l0-.05.68.22a15.37,15.37,0,0,1,.23,1.77,14.73,14.73,0,0,1,1.45-1l.64.35,0,0-.08,0a.29.29,0,0,0-.24,0s-.09.07-.14.17l-.63,1.14a.37.37,0,0,0-.07.22.26.26,0,0,0,.14.15l.07,0,0,0q-.41-.24-.82-.44l0,0,.07,0a.24.24,0,0,0,.21,0,.42.42,0,0,0,.13-.17l.61-1.19a14.54,14.54,0,0,0-1.53,1.13Z"/><path class="cls-1" d="M57.29,21.42l-.44.65.44.31a.55.55,0,0,0,.26.13.3.3,0,0,0,.23-.12l.05,0-.43.54-.05,0a.64.64,0,0,0,.08-.18.22.22,0,0,0,0-.13.63.63,0,0,0-.16-.16l-.43-.31-.37.54a.54.54,0,0,0-.08.14.09.09,0,0,0,0,.06.33.33,0,0,0,.09.09l.31.23a1.33,1.33,0,0,0,.24.15.46.46,0,0,0,.19,0,1.3,1.3,0,0,0,.35-.07l.05,0-.48.25a11.73,11.73,0,0,0-1.41-1l0,0,.07,0a.36.36,0,0,0,.14.05.13.13,0,0,0,.1,0,.63.63,0,0,0,.12-.15l.7-1.09q.1-.16.08-.22a.34.34,0,0,0-.16-.17l-.08,0,0,0a13.75,13.75,0,0,1,1.65,1.17l-.26.36-.06,0a.58.58,0,0,0,.07-.22.3.3,0,0,0-.06-.16,1.06,1.06,0,0,0-.2-.18Z"/></g></svg>