<svg id="layer1" xmlns="http://www.w3.org/2000/svg" viewBox="0 0 100 100"><defs><style>.cls-1,.cls-10,.cls-11,.cls-12,.cls-13,.cls-7,.cls-9{fill:none;}.cls-1,.cls-7{stroke:#e5e5e5;}.cls-1,.cls-10,.cls-12,.cls-13,.cls-7,.cls-9{stroke-miterlimit:10;}.cls-1,.cls-10,.cls-12,.cls-9{stroke-width:0.15px;}.cls-2{fill:#666;}.cls-3{fill:#efa0a6;}.cls-4{fill:#fd7190;}.cls-5{fill:#4d4d4d;}.cls-6{fill:#3f4454;}.cls-7{stroke-width:0.75px;}.cls-8{fill:#cbcbcb;}.cls-9{stroke:#fff;}.cls-10,.cls-11{stroke:#1b1464;}.cls-11{stroke-linecap:round;stroke-linejoin:round;stroke-width:0.45px;stroke-dasharray:0 1.05;}.cls-12{stroke:#000;}.cls-13{stroke:#4d4d4d;stroke-width:0.9px;}.cls-14{fill:#333;}</style></defs><title>icons</title><g id="Arbutus_Ridge" data-name="Arbutus Ridge"><line class="cls-1" x1="26.5" y1="43.19" x2="26.5" y2="70.79"/><line class="cls-1" x1="28.67" y1="43.35" x2="24.63" y2="70.69"/><line class="cls-1" x1="30.65" y1="43.79" x2="22.65" y2="70.25"/><line class="cls-1" x1="32.54" y1="44.52" x2="20.75" y2="69.52"/><line class="cls-1" x1="34.31" y1="45.52" x2="18.99" y2="68.52"/><line class="cls-1" x1="35.91" y1="46.76" x2="17.38" y2="67.28"/><line class="cls-1" x1="37.31" y1="48.22" x2="15.98" y2="65.81"/><line class="cls-1" x1="38.48" y1="49.88" x2="14.81" y2="64.16"/><line class="cls-1" x1="39.39" y1="51.68" x2="13.89" y2="62.35"/><line class="cls-1" x1="40.04" y1="53.61" x2="13.25" y2="60.42"/><line class="cls-1" x1="40.39" y1="55.6" x2="12.89" y2="58.42"/><line class="cls-1" x1="40.45" y1="57.63" x2="12.83" y2="56.4"/><line class="cls-1" x1="40.21" y1="59.64" x2="13.07" y2="54.38"/><line class="cls-1" x1="39.68" y1="61.59" x2="13.6" y2="52.42"/><line class="cls-1" x1="38.87" y1="63.45" x2="14.42" y2="50.56"/><line class="cls-1" x1="37.8" y1="65.17" x2="15.49" y2="48.84"/><line class="cls-1" x1="36.48" y1="66.71" x2="16.81" y2="47.3"/><line class="cls-1" x1="34.96" y1="68.05" x2="18.33" y2="45.96"/><line class="cls-1" x1="33.25" y1="69.14" x2="20.04" y2="44.86"/><line class="cls-1" x1="31.41" y1="69.98" x2="21.89" y2="44.03"/><line class="cls-1" x1="29.25" y1="70.58" x2="24.05" y2="43.43"/><line class="cls-1" x1="73.05" y1="43.19" x2="73.05" y2="70.79"/><line class="cls-1" x1="75.26" y1="43.35" x2="71.21" y2="70.69"/><line class="cls-1" x1="77.23" y1="43.79" x2="69.23" y2="70.25"/><line class="cls-1" x1="79.13" y1="44.52" x2="67.34" y2="69.52"/><line class="cls-1" x1="80.89" y1="45.52" x2="65.57" y2="68.52"/><line class="cls-1" x1="82.49" y1="46.76" x2="63.97" y2="67.28"/><line class="cls-1" x1="83.89" y1="48.22" x2="62.57" y2="65.81"/><line class="cls-1" x1="85.06" y1="49.88" x2="61.39" y2="64.16"/><line class="cls-1" x1="85.98" y1="51.68" x2="60.48" y2="62.35"/><line class="cls-1" x1="86.62" y1="53.61" x2="59.83" y2="60.42"/><line class="cls-1" x1="86.98" y1="55.6" x2="59.48" y2="58.42"/><line class="cls-1" x1="87.03" y1="57.63" x2="59.42" y2="56.4"/><line class="cls-1" x1="86.8" y1="59.64" x2="59.66" y2="54.38"/><line class="cls-1" x1="86.27" y1="61.59" x2="60.19" y2="52.42"/><line class="cls-1" x1="85.45" y1="63.45" x2="61" y2="50.56"/><line class="cls-1" x1="84.38" y1="65.17" x2="62.08" y2="48.84"/><line class="cls-1" x1="83.07" y1="66.71" x2="63.39" y2="47.3"/><line class="cls-1" x1="81.54" y1="68.05" x2="64.92" y2="45.96"/><line class="cls-1" x1="79.84" y1="69.14" x2="66.63" y2="44.86"/><line class="cls-1" x1="77.99" y1="69.98" x2="68.48" y2="44.03"/><line class="cls-1" x1="75.83" y1="70.58" x2="70.64" y2="43.43"/><path class="cls-2" d="M46.33,52.29s.56,6.58,0,6.64-.67-.21-.61-1.17.12-5.46.12-5.46Z"/><path class="cls-3" d="M48.14,52c0,.49-.4.75-.88.75H45c-.49,0-.88-.26-.88-.75h0c0-.49.4-.75.88-.75h2.27c.49,0,.88.26.88.75Z"/><path class="cls-4" d="M46.72,52c0,.18,0,.33-.2.33h-.88c-.18,0-.41-.15-.41-.33v-.12c0-.18.23-.3.41-.3h.88c.18,0,.2.12.2.3Z"/><path class="cls-5" d="M67.73,29.2a13.37,13.37,0,0,1,2.76.4c.3.24.2.83-.16.76a9.26,9.26,0,0,0-2.22-.08c-.23.11-.16-.47.08-.5a12.23,12.23,0,0,1,1.4.16s.78-.21-1.73-.45A.77.77,0,0,0,67.73,29.2Z"/><path class="cls-6" d="M73.25,40.69A15.76,15.76,0,1,0,89,56.45,15.76,15.76,0,0,0,73.25,40.69Zm0,29.12A13.36,13.36,0,1,1,86.61,56.45,13.36,13.36,0,0,1,73.25,69.81Z"/><circle class="cls-7" cx="73.25" cy="56.45" r="14.09"/><path class="cls-3" d="M73.28,56a25.5,25.5,0,0,1-3.76-4.68c-.77-1.35-5.69-16.93-5.69-16.93l-.26-.66-1.22.45,0,.71c-.41.13.15.45.15.45v.45s-22.59.07-23.06,0-.54-2.68-1.14-4A3.1,3.1,0,0,0,37,30l-.79.2c.2.1,2.83,4.45,1.89,5.55s.21,1.19.13,1.51-6.08,9.31-6.08,9.31-5.71,8.68-6.72,9.5.19,1.43.66,1.56.74-.53.74-.53c.24-.16,7.64,1.16,7.83,1.16s11.16,1.93,11.85,1.32S56.64,49,57.88,47.51s6.32-6.93,6.48-7,1.85,3.86,3.15,8.33a17.18,17.18,0,0,0,5.13,7.57s0-.66,0,.11.9.71,1.22.24S73.6,56.05,73.28,56Zm-29.2,2.83s-13.74-2-15.78-2.24-.66-1.87-.66-1.87,9.67-14.66,10.52-16,1,0,1,0,5.1,18.35,5.46,19.47S44.07,58.82,44.07,58.82Zm1.87-.62c-.53.16-6-21.14-6-21.14s21.4-.16,22.65,0,1.05.72,1.28,1.55S46.47,58,45.95,58.2Z"/><path class="cls-8" d="M44.48,58.77l.13.48-1.94,1.52a3.86,3.86,0,0,1-.35-2.9Z"/><path class="cls-8" d="M46.74,58.92l-.19.46,1.74,1.75A3.86,3.86,0,0,0,49,58.3Z"/><path class="cls-5" d="M62.71,34s-1.91-3.77-1.3-3.76,7.66.18,8,.32,0,.78,0,.78-6.57-.51-6.57,0a14.59,14.59,0,0,0,.6,2.37Z"/><path class="cls-6" d="M65.2,29.74s-1.11-1.19.31-1.39c0,0,2.06.14,2.38.69.45.77-.27,1.57-.52,1.49S65.5,29.89,65.2,29.74Z"/><path class="cls-9" d="M65.54,28.08c.28.47.69,1,.26,1.58-.18.23-.47.26-.69.41"/><circle class="cls-2" cx="45.63" cy="58.93" r="1.27"/><path class="cls-10" d="M25.19,61.89c1.3.84,18.58,2.06,23.22-.14,1.78-.85,3.39-7.46-5.9-6.63S28.17,53,26,54.69,26,57.27,26.59,58,23,60.45,25.19,61.89Z"/><path class="cls-11" d="M25.19,61.89c1.3.84,18.58,2.06,23.22-.14,1.78-.85,3.39-7.46-5.9-6.63S28.17,53,26,54.69,26,57.27,26.59,58,23,60.45,25.19,61.89Z"/><path class="cls-12" d="M25.19,61.89c1.3.84,18.58,2.06,23.22-.14,1.78-.85,3.39-7.46-5.9-6.63"/><path class="cls-3" d="M23.9,56.58s2.3-1.62,2.87-.8-.08.85-.32,1.14,0,.57.47,1A1.45,1.45,0,0,1,27,59.87c-.55.57-1.46.88-1.45,1.28s-1.22,1.22-1.55.47.38-2.15,1.56-2.89S23.71,57.56,23.9,56.58Z"/><path class="cls-5" d="M33,28.59l-.59-.23a1.2,1.2,0,0,0,.11.58c.14.27.42,1.33,1.11,1.43a12.2,12.2,0,0,0,1.83,0c.5,0,2.22-.1,2.73-.09S41,29.37,40.87,29l-.56.07A15.57,15.57,0,0,1,34,30C33.44,30,33,29.78,33,28.59Z"/><path class="cls-5" d="M35.67,29.94a1,1,0,0,0,.17,1c.44.44.86.34,1,.12s.63-1.27.63-1.27A5,5,0,0,1,35.67,29.94Zm1.09,1c-.11.15-.4.22-.7-.08a.66.66,0,0,1-.11-.71A3.43,3.43,0,0,0,37.19,30S36.86,30.77,36.75,30.92Z"/><path class="cls-6" d="M32.21,27.11s-1.11-.19-1.1.27.52.71,1.49,1.05,2.17,1.22,3.06,1.51,3.11-.57,4.27-.82,2.59-.38,2.59-.66-.46-1.79-4-.77S33.23,27.16,32.21,27.11Z"/><path class="cls-2" d="M50.26,58.51q0-.11,0-.22a.86.86,0,0,1-.53-1.63l-.11-.19a.86.86,0,0,1-1.15-1.27l-.18-.13a.86.86,0,0,1-1.57-.69l-.22,0a.86.86,0,0,1-1.72,0l-.19,0a.86.86,0,0,1-1.57.7l-.18.13a.86.86,0,0,1-1.15,1.27l-.11.19A.86.86,0,0,1,41,58.3q0,.11,0,.22a.86.86,0,0,1,.18,1.71l.07.21a.86.86,0,0,1,.86,1.48l.15.17a.86.86,0,0,1,1.39,1l.2.09a.86.86,0,0,1,1.68.35h.22a.86.86,0,0,1,1.68-.36l.2-.09a.86.86,0,0,1,1.38-1l.15-.17A.86.86,0,0,1,50,60.43l.07-.21a.86.86,0,0,1,.17-1.71Zm-4.63,3.62a3.23,3.23,0,1,1,3.23-3.23A3.23,3.23,0,0,1,45.63,62.13Z"/><circle class="cls-13" cx="45.63" cy="58.93" r="3.96"/><path class="cls-2" d="M45.4,65.87s-.56-6.5,0-6.56.67.17.61,1.13-.12,5.42-.12,5.42Z"/><path class="cls-3" d="M47.61,66.13a.83.83,0,0,1-.89.78H44.48a.83.83,0,0,1-.9-.78v0a.86.86,0,0,1,.9-.81h2.24a.85.85,0,0,1,.89.81Z"/><rect class="cls-4" x="44.93" y="65.87" width="1.49" height="0.75" rx="0.32" ry="0.32"/><circle class="cls-14" cx="45.63" cy="58.93" r="0.72"/><path class="cls-6" d="M26.75,41.4A15.76,15.76,0,1,0,42.51,57.16,15.76,15.76,0,0,0,26.75,41.4Zm0,29.12A13.36,13.36,0,1,1,40.11,57.16,13.36,13.36,0,0,1,26.75,70.53Z"/><circle class="cls-7" cx="26.75" cy="57.16" r="14.09"/></g></svg>