<svg xmlns="http://www.w3.org/2000/svg" viewBox="0 0 705.62 428.18"><defs><style>.cls-1{fill:none;stroke:#fccbaa;stroke-linecap:round;stroke-linejoin:round;stroke-width:2px;}</style></defs><title>map</title><g id="Layer_2" data-name="Layer 2"><g id="Killarney"><path id="Killarney-2" data-name="Killarney" class="cls-1" d="M703.42,419.42l-3.75-1c-5.17-1.34-10.42-2.42-15.46-4.11-2.47-.83-4.84-.72-7.28-.92-1.43-.11-3.55,0-4.13-.81-2.17-3.12-5.9-3.23-8.67-5.1-1.86-1.25-4.5-1.48-6.12-2.91-2.36-2.09-5.32-1.73-7.86-2.85-.16-.07-.6.69-1,.93s-1.41.9-1.7.71c-2.55-1.7-5.13-1.48-7.79-.45a1.73,1.73,0,0,1-.75,0,45.44,45.44,0,0,0-5-.46c-3.17,0-6.33.45-9.5.43-5,0-10-.27-15-.49a9,9,0,0,1-2.25-.72l-.08-6.74a7.22,7.22,0,0,1,1.11-5.49c2.95-4.25,3.17-9.15,3.77-14,.31-2.55-.31-5.25,1.88-7.57a75.86,75.86,0,0,0,6.8-9c2.16-3.12,4.7-6.11,4.78-10.23q.36-18.25.76-36.5c.11-4.83.31-9.67.5-14.5,0-1.29.2-2.43,2-2.55,1.33-.09,1.76-1.14,1.77-2.45l.48-12.79c4.67-.15,9.33-.75,14-.93,5.74-.22,11.5-.16,17.25-.31a4.81,4.81,0,0,0,2.94-.78l3.56-3.69c2.5,2,4.93,4.1,7.52,6A14.91,14.91,0,0,0,687.43,283c4.87-.66,9.82-.78,14.74-1.06l1.12.48.13,1,.5,30.25c0,1.33,0,2.67,0,4,.08,9.33.23,18.67.23,28,0,10.5-.27,21-.19,31.5.06,8.5.62,17,.66,25.5,0,5.83-.45,11.67-.7,17.5"/></g><g id="UBC"><g id="UBC-2" data-name="UBC"><path class="cls-1" d="M182.42,173.18c3.25.06,7.5.14,10.75.25,2.25.08,4.51.22,6.75.33v28.66c-2.66,0-5.09.1-7.5,0-5.15-.26-9.87,1.28-14.51,3.26l6.77,7.25a75.25,75.25,0,0,0,7,5.44,12.92,12.92,0,0,0,4.46,1.29,16.36,16.36,0,0,0,3,0c.11,1.4.27,2.58.28,3.75q0,13.37,0,26.75c0,.75-.27,1.51-.21,2.25.13,1.55-.48,2.14-2,2h-3v8h5l-1.52,6.79c-7.56-3.05-15.21-5.91-22.7-9.12-2-.84-2.65-.38-3.84,1l-5.95,8.29-5.25-3.74q-11-6.53-22-13c-1.73-1-3.6-1.8-5.82-2.89l-3.93,8.47v1.15s-58-35-65-46-59-55-62-80,35-32,39-49,25-12,24-15,13-1,18,1,32.83,1,39.93,8.93c0,0-4.93,4.07-3.93,14.07s7.53,17.47,7.53,17.47c1.33,1.35,1.18,2.91,1.24,4.53,0,1.24,2,1.74,2.22,3h4l0,2.85c0,1,.07,2,0,2.93-.12,1.57.7,1.89,2,1.76,1.83-.18,3.66-.44,5.5-.48l1.35,0,4.15,1v4.5c0,.5,0,1,0,1.5-.33,10.33-.65,20.67-1,31-.06,1.55.48,2,2,2,8.17.1,16.33.28,24.5.48l10.68,1.37Z"/><path class="cls-1" d="M194.38,256.84"/><path class="cls-1" d="M198.92,270.67"/></g></g><g id="Dunbar"><path id="Dunbar-2" data-name="Dunbar" class="cls-1" d="M249.67,350.92c-1.28,1.36-2.65,2.45-4,1.95a50.16,50.16,0,0,1-13-7.44l-1.24-3.14c-2.67-1.62-5.44-3.11-8-4.92,0,0-3.29-2.45-3.79-4.2a11.44,11.44,0,0,1-2.25,0c-3-.61-6-1.45-9-1.94-2.72-.44-5.57-.24-8.22-.88,0,0-6.52-2.91-7.77-3.41-1.9,1.42-3.53-.27-5.23-.58-1.29-.24-1.68-1.33-.79-2.68,1.87-2.83,1.75-3.36-.47-5.74a6.13,6.13,0,0,1-1.7-2.25,14.56,14.56,0,0,0-5.55-8.5c-.47-.35-.8-.87-1.26-1.23-2.3-1.81-2.67-4.84-4.33-6.94a123.62,123.62,0,0,1-8.43-11.31c-1.33-2.15-3.6-3.08-5.7-4.32-3.14-1.85-6-4.12-9-6.18s-5-5.52-9-6l-12.75-12.9,3.93-8.47c2.22,1.1,4.08,1.88,5.82,2.89q11,6.44,22,13c1.74,1,3.42,2.16,5.13,3.24l6.07-7.79c1.19-1.42,1.88-1.88,3.84-1,7.49,3.21,15.14,6.07,22.7,9.12l1.52-3.79c.21-1.71-.68-2.26-2.25-2.27-1.42,0-2.49-.58-2.5-2.23,0-1.17.09-2.34,0-3.5-.21-2.11.67-3.14,2.77-3,1.55.12,2.15-.47,2-2-.06-.74.21-1.5.21-2.25q0-13.37,0-26.75c0-1.17-.17-2.35-.28-3.75a16.36,16.36,0,0,1-3,0,12.92,12.92,0,0,1-4.46-1.29,75.23,75.23,0,0,1-7-5.44s-6.51-4.24-8.51-6.86a9.59,9.59,0,0,0,1.74-.39c4.64-2,9.35-3.52,14.51-3.26,2.41.12,4.84,0,7.5,0V173.76c-2.24-.11-4.5-.26-6.75-.33-3.25-.11-6.5-.19-9.75-.25-1.22,0-1.21-.23-1.26-1.76s-.16-2-.24-3.5l71.52.45c.64,1.07,1.19,3.29,2,4.28,2.56,3.09,5.06,6.17,6.53,10a15.25,15.25,0,0,0,2.45,3.52c2.4,3.1,4.95,6.09,7.2,9.29,1.47,2.09,4.79,8.22,6,10.47l-7-3c1,2,4.28,6.24,5.24,8.26a7.11,7.11,0,0,1,1,2.74q.09,19.5,0,39c0,4.83-.18,9.67-.21,14.5a12.79,12.79,0,0,0,.48,2.5l-1.75.76c-.5,0-1,.24-1.5.23-6.33-.07-12.67-.18-19-.2a7.76,7.76,0,0,0-2.25.72l-.49,6.25c-.1,10.42-.14,20.83-.27,31.25-.11,8.92-.31,17.83-.49,26.75-.06,2.83,0,5.68-.31,8.49a42,42,0,0,1-1.44,6.76"/></g><g id="westPoint"><path id="westPoint-2" data-name="westPoint" class="cls-1" d="M121.38,79.51a2.29,2.29,0,0,1,1.29-.09c.92.24,1.86.44,2.75.76,4.63,1.66,9.13,3.62,14.25,3.57a17.42,17.42,0,0,1,9,2.12c2.19,1.26,4.74,1.87,7,3.09a18.4,18.4,0,0,0,14.27,1.72c2.57-.7,5.18-1.29,7.74-2a10.08,10.08,0,0,1,4.15-.27,5.21,5.21,0,0,1,2.38-1.57c.91-.12,1.92,1.29,3,1.55,2.57.63,4.68,3.34,7.83,1.54l4,4.58c-1,2.83-.63,4,2.2,5.91,2.35,1.59,4.8,3,7.24,4.51,1.9,1.14,5.16.27,7-.92,4.16-2.63,8.4-5.29,13.71-4.83h3v.76c-.5,22.33-.5,45.17-1,67.5l-17.5.5c-13.95-.29-13.93-.16-27.75-.51-4.75-.12-9.5-1.37-14.25-1.48-8.17-.2-16.33-.38-24.5-.48-1.54,0-2.08-.49-2-2,.37-10.33.69-20.67,1-31,0-.5,0-1,0-1.5v-4.5l-4.15-1-1.35,0c-1.84,0-3.67.3-5.5.48-1.32.13-2.14-.18-2-1.76.07-1,0-2,0-2.93l0-2.85h-4c-.2-1.23-2.17-1.73-2.22-3-.06-1.62.09-3.18-1.24-4.53,0,0-6.14-9.14-7-14-2-10.79,2.71-17.41,2.71-17.41"/></g><g id="ArbutusRidge"><path id="Arbutus-Ridge" class="cls-1" d="M320.42,271.17c.25-6.83.56-13.67.71-20.5a6.07,6.07,0,0,1,2.78-5.26c2.85-2,5.81-1.23,8.76-.46,2.69.7,5.44,1.39,8-.06,3.85-2.19,5.42-9.34,3.28-13.71C340,223.09,336,215,332.19,206.91c-2-4.3-4.64-8.46-4.51-13.49.05-2,.43-4,.46-6l-.23-16.76c-5.92-.13-11.83.68-17.75.5-.84,0-1.67-.19-2.5-.24-7-.42-14-1-21-1.22-6.58-.25-13.17-.19-19.75-.29-3.17,0-6.36,0-9.49-.33-1.56-.18-2.7-1-4,.28a25.36,25.36,0,0,0,2,3.28c2.56,3.09,5.06,6.17,6.53,10a15.25,15.25,0,0,0,2.45,3.52c2.4,3.1,4.95,6.09,7.2,9.29,1.47,2.09,4.79,8.22,6,10.47l-7-3c1,2,4.28,6.24,5.24,8.26a7.11,7.11,0,0,1,1,2.74q.09,19.5,0,39c0,4.83-.18,9.67-.21,14.5a12.79,12.79,0,0,0,.48,2.5l2.25.52c2,.07,4,.4,6,.46,5.08.14,10.17.16,15.25.28,5.75.13,11.5.35,17.25.47Z"/></g><g id="Kerrisdale"><path id="Kerrisdale-2" data-name="Kerrisdale" class="cls-1" d="M363.67,339.17a18.68,18.68,0,0,1-3.25.48c-5.67-.11-11.33-.3-17-.48a2.44,2.44,0,0,0-2.52,2.39c-.12,5.79-.32,11.57-.48,17.36,0,.58,0,1.17,0,1.75q-.12,12-.25,24c0,.58.21,1.29,0,1.73,0,0-3.69,6.76-4.31,10.84a1.06,1.06,0,0,1-1.71.68,28.57,28.57,0,0,1-3.61-3.32,4.48,4.48,0,0,1-.74-3.65c1-3.21.31-3-2.32-4.56a22.68,22.68,0,0,1-4.24-3.25c-1.39-1.36-2.46-3-3.8-4.45a75.34,75.34,0,0,0-6.27-6.22,51.94,51.94,0,0,0-8.25-6c-5.2-2.83-10.63-5.24-16-7.82-6-2.9-12.18-5-19-4.53a56,56,0,0,1-6-.22c-1.71-3.33-4.23,0-6.25-.74-.22-.08-.53.06-.74,0-1.18-.47-5.59-3.24-6.75-3.74l.94-5.26c.28-2.81.25-5.66.31-8.49.18-8.92.38-17.83.49-26.75.13-10.42.17-20.83.27-31.25,0-2.67.16-5.33.24-8l2.5,1c6.33,0,12.67.14,19,.2.5,0,1-.19,1.5-.23a35.35,35.35,0,0,1,4-.23c2,.07,4,.4,6,.46,5.08.14,10.17.16,15.25.28,5.75.13,11.5.35,17.25.47,1.66,0,3.34-.27,5-.21,5.09.19,10.17.55,15.25.71,7.58.23,26.83,1,27.5.77l-.47,28c-.15,5.75.07,11.5-.05,17.25-.13,6.09-.49,12.17-.71,18.25a15.56,15.56,0,0,0,.23,2.25Z"/></g><g id="Kits"><path id="Kits-2" data-name="Kits" class="cls-1" d="M366.67,94.92a41.5,41.5,0,0,0-5,1.53c-3.63,1.64-7.13,3.58-10.79,5.16a2.56,2.56,0,0,0-1.75,2.81q-.43,21.75-1,43.5c-.19,7.67-.49,15.33-.74,23l-2-.17c-5.78.53-11.65,0-17.48-.08s-11.83.68-17.75.5c-.84,0-1.67-.19-2.5-.24-7-.42-14-1-21-1.22-6.58-.25-13.17-.19-19.75-.29-3.17,0-6.36,0-9.49-.33l-7.51-.38-19.25-.79,1.5-67,2.75-.52c1.27,0,2.39,0,3.28,1.24a4.75,4.75,0,0,0,4.47,1.82,9.61,9.61,0,0,1,2.75.47c2.42.56,4.81,1.3,7.26,1.7s5.16.55,7.74.79c3.75.34,7.5.72,11.25,1a13.94,13.94,0,0,0,9.26-2.21,9.5,9.5,0,0,1,2-.77c3.79-1.48,7.48-3,10.29-6.21a6.32,6.32,0,0,1,5-1.84,24.8,24.8,0,0,0,5-.72c1.33-.28,2.55-.44,3.5.78.48.61.91,1.26,1.18,1.64,3.51-.88,4.91-.83,8.08.11,3.8,1.13,6.47.08,8.25-3.25.58-1.08,1.21-2.15,1.74-3.25,1.43-3,3.7-5.55,4-9,.18-2,1.65-2.54,3.26-2.71a24.91,24.91,0,0,1,3.25.2c1.09,0,2.16.18,2.8-1.22s2.12-1.27,3-2.52c0,0,4.9,5.44,7,.72a3.87,3.87,0,0,1,4.29-1.68c4.66.69,10,6.25,11.3,11.2.46,1.74,1.2,6.6,2,8.26"/></g><g id="Marpole"><path id="Marpole-2" data-name="Marpole" class="cls-1" d="M340.15,386.4c.25-.45,0-1.15,0-1.73q.12-12,.25-24c0-.58,0-1.17,0-1.75.16-5.75.36-11.5.48-17.25,0-1.74.78-2.56,2.54-2.5,5.72.18,11.45.37,17.17.48a19,19,0,0,0,3.28-.48c.42-.07.94-.36,1.25-.22,3,1.41,6.24.61,9.36.68,14.14.33,28.28.49,42.42.81,5.56.12,11.11.58,16.67.7,8.08.18,16.16.19,24.24.27,1.94,0,3.87,0,5.81,0l-1.52,60.75c-.76.08-1.51.19-2.27.25-2.19.18-4.37.4-6.57.48a12.59,12.59,0,0,1-3.78-.27,13.63,13.63,0,0,0-7.84.3,59,59,0,0,0-8.31,2.8c-4,1.92-7.73,4.35-11.67,6.39a22.44,22.44,0,0,1-4.52,1.29,5.36,5.36,0,0,0-1.25.27c-4.31,2.48-8.41,5.42-13,7.28-1.93.78-3.28,2.56-5.47,2.74a18.58,18.58,0,0,0-2.78.71c-.5.12-1.15,0-1.49.28a10.68,10.68,0,0,1-9.37,2.22c-3.37-.66-6.6-1.8-10.08-2.2-1.74-.2-3.46-1.91-5.57-2.35a71.93,71.93,0,0,1-7.08-2.19s.25-4.75-.25-5.25-.82-.86-1.27-1.25A88.67,88.67,0,0,0,345,403.44c-1.94-1.07-3.3-3.17-5.79-3.27C339.18,400.17,337.09,391.38,340.15,386.4Z"/></g><g id="Oakridge"><path id="Oakridge-2" data-name="Oakridge" class="cls-1" d="M464.17,341.42h-7.5c-8-.08-16-.09-24-.27-5.5-.12-11-.58-16.5-.7-14-.31-28-.48-42-.81-3.08-.07-6.26.72-9.27-.68l.24-20.78c.12-5.75-.09-11.5.05-17.25.23-9.17.64-18.33,1-27.5l98,4Z"/></g><g id="SouthCambie"><path id="SouthCambie-2" data-name="SouthCambie" class="cls-1" d="M434.17,276c.17-5.46.16-10.93.55-16.37a13.93,13.93,0,0,0-4.33-11.23c-1.35-1.38-2.44-2.88-2.43-4.77,0-3.58.29-7.17.46-10.75a5.12,5.12,0,0,1,2.75-2.75c2.34-.89,4.66-3.95,4.75-6.25.25-6.17.57-12.33.73-18.5.23-8.91.36-17.83.51-26.75v-7.25c-2.33,0-4.92-.44-7.25-.51-7.58-.22-15.17.47-22.75.29a41,41,0,0,0-5,.47V274.51l32,1.53"/></g><g id="Shaughnessy"><path id="Shaughnessy-2" data-name="Shaughnessy" class="cls-1" d="M320.42,271.17c.25-6.83.56-13.67.71-20.5a6.07,6.07,0,0,1,2.78-5.26c2.85-2,5.81-1.23,8.76-.46,2.69.7,5.44,1.39,8-.06,3.85-2.19,5.42-9.34,3.28-13.71C340,223.09,336,215,332.19,206.91c-2-4.3-4.64-8.46-4.51-13.49.05-2,.43-4,.46-6l-.23-16.76c5.83.12,11.71.61,17.48.08,3.13-.28,6,.66,9,.48s6,.13,9,.19c1.67,0,3.34.07,5,0a3,3,0,0,0,1.73-.74c4.86-4.55,10.18-4.08,15.49-1.17a15.27,15.27,0,0,0,8.53,2c2.58-.15,5.17,0,7.75,0v103Z"/></g><g id="Fairview"><path id="Fairview-2" data-name="Fairview" class="cls-1" d="M436.88,108.93l-5.45,4.77a21.75,21.75,0,0,0-4,3.53,7.4,7.4,0,0,0-1,3.2c-.25,1.24.55,2.9-1.28,3.47a5.49,5.49,0,0,1-5.5-2c-.13-.19-.38-.31-.49-.51-.8-1.45-1.85-1.25-3-.5a6.41,6.41,0,0,0-3.75.25c-.5.83-.82,2-1.55,2.41a4.75,4.75,0,0,1-2.94,0c-.56-.12-1-1.11-1.51-1.14-3.66-.19-7.33-.26-11-.28a15.37,15.37,0,0,0-2.75.47l-9.5-3c1.75,1.92,3.46,3.87,5.28,5.72.37.38,1.5.67,1.66.48.88-1.06,2.34-2.43,2.15-3.42a24,24,0,0,1-.15-5.53,6.17,6.17,0,0,0-1-3c-2.38-4.24-6-7.47-9.23-11a13.28,13.28,0,0,0-2.26-2.23c-3.3-2.19-5.72-1.09-6.52,2.72a11.18,11.18,0,0,0,.48,5.52,14.47,14.47,0,0,1,.05,3.55c-2.26-1.3-4-2.29-5.74-3.32a2,2,0,0,1-.74-.75,63.72,63.72,0,0,1-1-11.56c.07-1.4-.24-1.47-1.58-1.08a27.77,27.77,0,0,0-2.88.68c-3.63,1.64-7.13,3.58-10.79,5.16-1.45.62-1.73.41-1.75,1.81q-.43,21.75-1,43.5c-.19,7.67-.49,16.33-.74,24l7,.31c3-.18,6,.13,9,.19,1.67,0,3.35.07,5,0a2.77,2.77,0,0,0,1.72-.74c4.86-4.55,10.18-4.08,15.49-1.17a15.27,15.27,0,0,0,8.53,2c2.58-.15,5.17,0,7.75,0l35.27-.5c.19-4.84-.52-10-.28-14.5.23-7,.47-14,.48-21,0-6.08-.3-12.17-.46-18.25Z"/></g><g id="Sunset"><path id="Sunset-2" data-name="Sunset" class="cls-1" d="M548.15,282.67c0,5.17-.13,10.33-.23,15.5-.24,12.25-.51,24.5-.7,36.75,0,1.08.56,2.15.68,3.25a58.21,58.21,0,0,1,.49,6.5c0,10.33-.14,20.67-.22,31,0,2.75,0,5.5,0,8.25l-.76,3.75c-4.8,2-9.43,4.78-15,3.52-.22,0-.49.16-.73.23-3.35,1-6.68,2.15-10.08,3-2.53.6-5,.91-7.15,2.74a9,9,0,0,1-5.85,2.58,6.72,6.72,0,0,0-1.47.47c-2.7.68-5.38,1.47-8.11,2-4.54.84-9.16.23-13.77.81-3.65.46-7.45,1.18-11.28.55-2.47-.41-5.06-.08-7.6-.08-3.22,0-4-1-3.7-4.25q.49-6,.74-12c.23-5.41.34-10.83.51-16.25v-93.5l4.67-.41c5.31-.14,10.63.57,16,.63,10.07.1,19.13.5,29.2.75,8.83.23,18.68.13,27.51.32a61.43,61.43,0,0,1,7.12,1Z"/></g><g id="RileyPark"><path id="RileyPark-2" data-name="RileyPark" class="cls-1" d="M437.19,170.92c-.1,2.58,0,5.17,0,7.75-.15,8.92-.28,17.83-.51,26.75-.16,6.17-.49,12.33-.73,18.5-.09,2.3-2.41,5.36-4.75,6.25a5.12,5.12,0,0,0-2.75,2.75c-.17,3.58-.44,7.17-.46,10.75,0,1.89,1.08,3.4,2.43,4.77a13.93,13.93,0,0,1,4.33,11.23L434.17,276l74.75,2.38c.08-3.17.19-6.33.25-9.5.18-9.58.32-19.17.51-28.75.15-7.58.35-15.17.49-22.75q.4-21.25.75-42.5l-23.75-1.26q-18.5-.45-37-1c-4.25-.12-8.5-.33-12.75-.49"/></g><g id="Kensington"><path id="Kensington-2" data-name="Kensington" class="cls-1" d="M607.17,148.42v85s-4.44,4.93-5,10c-.5,4.5-1,36-1,36l-92-1,2-104,30.41.87a4.64,4.64,0,0,0,4.77-4.46l.83-22.41Z"/></g><g id="DownTown"><path id="DownTown-2" data-name="DownTown" class="cls-1" d="M455.67,26.92c-2.08,1.42-2.89,3.13-5,4.48-1.19.76-2.55,1.26-3.72,2.05a10.84,10.84,0,0,0-1.78,2c3.74,3.54,3.74,3.54,6.26,1.49,0,0,4.75-1.5,4.5,3.25.17.08.38.28.49.23,3.61-1.53,7-.47,10.26,1,1.64.74,3.18,0,4.75-.25l.8,2.49c.49,1.65,1.9,2,3.45,1.75,2.17-.37,4.34-.82,6.5-1.24l-1.75,56.5c-2.17-.08-4.34-.13-6.5-.26-1.5-.1-3.42.19-4.4-.61-1.53-1.23-.28-3,.4-4.51l.25-.62a33.44,33.44,0,0,0,1.17-4.51c.06-.43-.86-1.35-1.42-1.43-3.65-.53-7.32-.93-11-1.29-1.74-.17-2.7.18-2.39,2.5l-1.61,4.73c-3-1.5-5.49.2-7.66,1.63-1.37.9-2.14,2.73-4.08,3.15a9,9,0,0,0-3,1.24c-3.18,2.09-4.85,2-7.76-.53-1.93-1.7-4.2-1.21-6.23-.66-1.83.5-2.17,2.41-2.27,4.16,0,.58.07,1.18,0,1.75-.49,3.14-3.51,5.21-6,4a51.66,51.66,0,0,1-4.28-2.94,5.3,5.3,0,0,0-2.24-1,4.51,4.51,0,0,0-5,3.72c-.38,1.55-1.12,1.62-2.54,1.56-2.45-.11-3.74-2-5.46-3.12-1.13-.76-1.87-1.87-3.56-1.28l-2.22-1.17a4.75,4.75,0,0,0-2.71-3.57A9.15,9.15,0,0,1,386,98.23c-.93-1.78-2-2.92-3.87-3.31-2-1.5-3.17-7.58-3.17-7.58s-3.5,2.15-4.16-5.88a3.29,3.29,0,0,0-2.42-1.69c-2.12-.07-2.29-1.19-2.29-2.84,0-.83-.38-2.35-.72-2.39-1.84-.22-2.5-.92-2.59-2.86l-1.89-1.76c.61-2.55.38-4.59-2.46-5.84a5.33,5.33,0,0,1-2.24-2.93c-1.53-4.1-3.15-8.12-6-11.47a8.29,8.29,0,0,0,1-2.26c.41-4.24.7-8.5,1-12.75a4.07,4.07,0,0,0-1.49-3.77l-7-6.73c2.67-2.92,5.39-5.78,8-8.76a18.82,18.82,0,0,1,10.52-5.95c2.37-.52,4.6-1,6.27-3l2.71-1.95c.71-3,3.24-3.28,5.52-3.49a2.22,2.22,0,0,1,2.51,2.16,2.2,2.2,0,0,0,.5,1.47,65.71,65.71,0,0,0,7.77,5.95l3.2-3.67,7,5-1.75,5.5c1.5,1.08,3.08,2.08,4.48,3.27a4.35,4.35,0,0,0,5.51.46,15.65,15.65,0,0,0,2.5-2c1.05-1,1.6-1,2.84.17,2.2,2,4.71,4,7.46,4.95,3.81,1.26,8,1.45,11.95,2.18a6.37,6.37,0,0,1,1.76,1S448.17,22.42,455.67,26.92Z"/></g><g id="WestEnd"><path id="WestEnd-2" data-name="WestEnd" class="cls-1" d="M378.92,87.42a13.51,13.51,0,0,1,5.23-3.32,11.47,11.47,0,0,0,3.75-2.46C395.2,75,401.42,67.14,409.26,61l5.9-6.59,4.55-5.28-2-2.22-6.88-7.5-22.37-22a3.6,3.6,0,0,1-1.23-.52c-4-4.13-8-8.29-12-12.4l-2.71,1.95c-1.67,2-3.9,2.49-6.27,3a18.82,18.82,0,0,0-10.52,5.95c-2.59,3-5.32,5.85-8,8.76l7,6.73a4.07,4.07,0,0,1,1.49,3.77c-.34,4.25-.63,8.5-1,12.75a8.29,8.29,0,0,1-1,2.26c2.89,3.35,4.51,7.37,6,11.47a5.33,5.33,0,0,0,2.24,2.93c2.84,1.25,3.08,3.29,2.46,5.84l1.89,1.76c.09,1.94.75,2.64,2.59,2.86.34,0,.72,1.55.72,2.39,0,1.65.17,2.78,2.29,2.84a3.29,3.29,0,0,1,2.42,1.69c.66,8,4.16,5.88,4.16,5.88l.67.58"/></g><g id="Mt.Pleasant"><path id="Mt.Pleasant-2" data-name="Mt.Pleasant" class="cls-1" d="M547.16,137.42c-.15,11.25-.29,22.5-.52,33.75-.07,3.32-.66,3.81-4,3.74-9.83-.22-19.67-.51-29.5-.73-8.67-.2-17.33-.3-26-.51q-18.5-.45-37-1c-4.25-.12-8.5-.33-12.75-.49l-.25-63.75,2.49-.4c3.35.39,6.23-1.23,8.65-2.78a12.81,12.81,0,0,1,8.36-2c1,.08,2,.7,3,.68,3.5-.06,7-.43,10.5-.4,1.81,0,2.67-.53,2.75-2.31l1-.76c2.16.14,4.33.18,6.5.26l.67,4.24c-.17,2.78-1.27,5.48-1.61,8.26-.27,2.18-.42,4.4,1.9,6,3,2.12,5.57,4.82,8.6,6.86a11.57,11.57,0,0,0,5.45,1.53c5.57.41,11.2.22,16.73.92a68.59,68.59,0,0,1,12.5,3.19c6.36,2.07,12.76,3.69,19.52,3.47a19.21,19.21,0,0,1,2.5.23"/></g><g id="Strathcona"><path id="Strathcona-2" data-name="Strathcona" class="cls-1" d="M481.67,23.92c.5,0,1.3.61,1.74.77,2.77,1,5.52,2.11,8.26,3.24,4.34,1.79,8.66,3.64,13.09,5.51l1-6.29a10.87,10.87,0,0,1,2.38.3c3.44,1.37,6.87,2.76,10.25,4.25a3,3,0,0,1,1.8,3.23c-.21,2.91-.24,5.83-.28,8.75,0,3.64,0,3.64,3.93,4.28.19-1.68.33-3.36.59-5a2.3,2.3,0,0,1,.76-1.46c.44-.3,1.44-.49,1.66-.24a3.79,3.79,0,0,1,1,2.2c.06,2.08-.24,4.17-.14,6.25A3.2,3.2,0,0,0,529,52.06c.67.33,2.46,0,2.58-.42.77-2.55,3.35-4.58,2.14-7.73-.83-2.16,1.46-5.23,4-5.61,0,0,0,7.63,1,7.63s3-16,4-18c-.08,2.25-.23,4.5-.23,6.75,0,2.79,1,3.3,3.49,2l2.24-2.26.23,8.75c.11,7.25.13,14.5.12,21.75,0,1.83-.3,3.66-.34,5.5-.12,4.67-.18,9.33-.26,14-.17,9.92-.35,19.83-.49,29.75l-.76,21.25a19.21,19.21,0,0,0-2.5-.23c-6.75.22-13.15-1.39-19.52-3.47a68.59,68.59,0,0,0-12.5-3.19c-5.53-.7-11.16-.51-16.73-.92a11.57,11.57,0,0,1-5.45-1.53c-3-2-5.61-4.74-8.6-6.86-2.32-1.65-2.17-3.87-1.9-6,.34-2.78,1.43-5.49,1.61-8.26.21-3.33-.57-6.66-.45-10,.35-10.33.75-20.67,1-31,.08-3,0-6,0-9l.5-10.75-.5-6.25a12.68,12.68,0,0,0,9,4c0-3-3-6-7-8a5.54,5.54,0,0,1-2.5-4.5A31.34,31.34,0,0,1,481.67,23.92Z"/></g><g id="GrandviewWoodland"><path id="GrandviewWoodland-2" data-name="GrandviewWoodland" class="cls-1" d="M606.92,148.46c-3.83-.21-6.66-.24-10.5-.29-15.25-.18-34.5-.09-49.75-.26l2-119c1-.25.61-2.16,1.48-1.93,3.3.9,6.5,2.16,9.78,3.16,2.8.85,5.66,1.52,8.49,2.27l1-4c0-1.39.15-2.48,2-2.54,2.1-.06,1.74,1.32,1.75,2.54,0,3.59,0,7.17,0,10.71,0,0,4,2.29,4-3.71a64.08,64.08,0,0,1,6.48,1.31c1.18.37,2.11.26,2.72-.59s.73-2.07,1.34-2.94,1.86-1.23,2.14-2.05c1.09-3.27,3.89-4.81,6.33-6.71,1.31-1,3.34-1.43,3-3.76s.18-2.67,2.5-2.28a3.27,3.27,0,0,0,2-.25l4.27-1.72c.08,1-.76,2-.76,3-.07,13-.21,26-.23,39,0,30.17,0,59.33,0,89.5"/></g><g id="Victoria-FraserView"><path id="Victoria-FraserView-2" data-name="Victoria-FraserView" class="cls-1" d="M579.67,396.92a23.49,23.49,0,0,1-11.53-6,6,6,0,0,0-2.73-1.49c-3.81-.85-7.79-1.16-11.44-2.42-2.54-.88-4.43-.24-6.55.63l.75-43.25s-1-11-1-16,2-49.26,2-49.26c5.67,0,12.34-.1,18,0l25.5.23c8.08,0,16.17,0,24.25,0,.83,0,1.67.21,2.5.23,3.83.1,7.67.34,11.5.22l-.48,12.79c0,1.32-.44,2.37-1.77,2.45-1.78.12-1.94,1.26-2,2.55-.19,4.83-.39,9.67-.5,14.5q-.42,18.25-.76,36.5c-.08,4.12-2.62,7.11-4.78,10.23a75.86,75.86,0,0,1-6.8,9c-2.19,2.33-1.56,5-1.88,7.57-.6,4.87-.82,9.76-3.77,14a7.22,7.22,0,0,0-1.11,5.49,46.57,46.57,0,0,1,.08,7.07c-3.1-.21-5.93-.35-8.75-.59a81.83,81.83,0,0,1-10-1.07c-2.83-.6-5.52-1.92-8.27-2.92"/></g><g id="HastingdSunrise"><path id="HastingdSunrise-2" data-name="HastingdSunrise" class="cls-1" d="M673.67,20.92c-.18,2.14-.77,2.58-2.51,2a11.64,11.64,0,0,0-2.5-.5c-1.82-.17-3.61.33-5.14-1.66-.79-1-3.06-.85-4.59-1.4a2.93,2.93,0,0,1-1.71-1.48c-.76-2.43-1.76-3.32-4.31-3.5-.92-.07-1.83-.32-2.75-.48-1.5-.26-3-.88-4.27.74-1.12,1.45-2,.78-2.75-.48-.4-.65-1-1.7-1.48-1.68-2.65.12-3.33-2-4.5-3.59a2.53,2.53,0,0,0-3.76-.75,19.91,19.91,0,0,1-2,1.48c-1.78,1-2.66.72-3.21-1.24-.47-1.71-1.43-1.83-2.78-1.24-3.92,1.74-7.9,3.36-11.73,5.29l-6.52,3v133h75a45.83,45.83,0,0,1,21-15v-11.5l.49-113c-4,0-12.73,3.54-12.73,3.54a17.87,17.87,0,0,0-3,1.46c-2.75,1-7.5,7.75-7.5,7.75-2-2.65-3.85-2.93-6.75-1"/></g><g id="Renfrew"><path id="Renfrew-2" data-name="Renfrew" class="cls-1" d="M702.66,133.17c-9,1.75-21,15.75-21,15.75H607.94v17.76a6.13,6.13,0,0,0,0,1.49q-.12,30.12-.23,60.25c0,3-.25,5.68-2.48,8-3.51,3.7-3.42,8.53-3.52,13.22-.21,9.79-.35,19.58-.51,29.37l29.75.83c4.67-.15,9.33-.75,14-.93,5.74-.22,11.5-.16,17.25-.31a4.81,4.81,0,0,0,2.94-.78l3.56-3.69c2.5,2,4.93,4.1,7.52,6A14.91,14.91,0,0,0,687.43,283c4.87-.66,9.82-.78,14.74-1.06l1.12.48.37-3.66a37.41,37.41,0,0,0,0-3.84l.25-13.5c-.25-12.75-.63-25.5-.71-38.25-.06-8.92-.65-17.83-.56-26.75.08-8,0-16,0-24V133.17Z"/></g></g></svg>