<svg id="layer1" xmlns="http://www.w3.org/2000/svg" viewBox="0 0 100 100"><defs><style>.cls-1{fill:none;}.cls-2{fill:#c19a93;}.cls-3{fill:#d64f00;}.cls-4{fill:#a8837e;}.cls-5{fill:#9fe2d5;}.cls-6{fill:#fccbaa;}.cls-7{fill:#f7f3f0;}.cls-8{fill:#3f4454;}</style></defs><title>icons</title><g id="Kitsilano"><path class="cls-1" d="M52.77,33.6l0,0,.27-.31A3.55,3.55,0,0,0,52.77,33.6Z"/><path class="cls-2" d="M44.6,61.57,46.07,61c-.51-.48-1-1-1.52-1.42l-.8.38-4,1.88v.22L41.1,63C42.26,62.46,43.44,62,44.6,61.57Z"/><path class="cls-2" d="M44.39,51.94c-.7-.69-1.42-1.36-2.16-2l-.32.17c-.35,1.19-.66,2.39-.94,3.62q.85-.49,1.7-.94C43.24,52.51,43.81,52.23,44.39,51.94Z"/><path class="cls-2" d="M43,53.3c-.72.37-1.44.75-2.15,1.14l-.14.69c.86.61,1.73,1.22,2.58,1.85,1.07-.5,2.14-1,3.2-1.53q0-.66.08-1.33c-.56-.57-1.13-1.16-1.7-1.74C44.21,52.69,43.59,53,43,53.3Z"/><path class="cls-2" d="M42.92,49.61c.79.61,1.55,1.26,2.3,1.94l1.61-.74c.11-1,.24-2,.4-3-.72.25-1.43.52-2.13.82S43.64,49.25,42.92,49.61Z"/><path class="cls-2" d="M44,59.12q-.66-.58-1.34-1.12L40,59.18l-.11.77c0,.29-.07.73-.1,1.28,1.23-.63,2.46-1.26,3.7-1.87Z"/><path class="cls-3" d="M52.7,33.7l.11-.14,0,0Z"/><path class="cls-2" d="M50.58,36.42l.12-.86a21.73,21.73,0,0,0-5.35,6.09,47.51,47.51,0,0,0-3.12,7.45l.2.15c.84-.46,1.71-.88,2.58-1.25s1.54-.65,2.33-.94a33,33,0,0,1,3.44-10.56,3.46,3.46,0,0,0,.07-.54A3.67,3.67,0,0,0,50.58,36.42Z"/><path class="cls-2" d="M46.63,52.88q.06-.68.12-1.37L45.7,52Z"/><path class="cls-2" d="M41.75,63.37,44,64.79l2.42,1.51c-.1-1.6-.15-3.17-.15-4.65l-1.41.51C43.81,62.55,42.77,63,41.75,63.37Z"/><path class="cls-2" d="M39.73,63c0,.18,0,.37,0,.57l.49-.23Z"/><path class="cls-2" d="M39.71,64.26a92.51,92.51,0,0,0,.91,13.65c1.3-.08,2.64-.13,4-.13,1.19,0,2.36,0,3.5.1a62.44,62.44,0,0,1-1.63-10.32c-1.9-1.25-3.81-2.5-5.69-3.79Z"/><path class="cls-2" d="M40.46,56.32q-.19,1.06-.36,2.17l2-.94Z"/><path class="cls-3" d="M53.08,33.26l-.27.31.43-.46Z"/><path class="cls-2" d="M45.2,58.53,46.35,58q0-.85.07-1.73-1.27.62-2.55,1.2Q44.55,58,45.2,58.53Z"/><path class="cls-2" d="M46.3,59.51v0c0-.23,0-.47,0-.71l-.56.26Z"/><path class="cls-4" d="M40.68,55.14q-.12.58-.22,1.18l1.62,1.23-2,.94-.1.69L42.65,58q.68.54,1.34,1.12l-.51.25c-1.24.61-2.47,1.24-3.7,1.87,0,.2,0,.41,0,.63l4-1.88.8-.38c.51.47,1,.94,1.52,1.42l-1.46.54c-1.16.43-2.34.89-3.5,1.39l-1.35-.87q0,.43,0,.93l.48.34-.49.23q0,.33,0,.68l1.1-.49c1.88,1.29,3.79,2.54,5.69,3.79q0-.63-.09-1.26L44,64.79l-2.25-1.42c1-.42,2.06-.82,3.11-1.21l1.41-.51.34-.12-.34-.32c0-.09,0-.18,0-.26,0-.49,0-1,0-1.44L45.76,59l.56-.26q0-.39,0-.79l-1.15.55q-.65-.56-1.32-1.08,1.28-.58,2.55-1.2,0-.39,0-.78c-1.06.52-2.13,1-3.2,1.53C42.41,56.36,41.54,55.75,40.68,55.14Z"/><path class="cls-4" d="M42.43,49.24l-.2-.15-.1.32-.33.19.22.18-.1.35.32-.17c.75.63,1.46,1.3,2.16,2-.57.28-1.15.57-1.71.87s-1.14.61-1.7.94l-.15.7c.71-.4,1.43-.77,2.15-1.14s1.24-.62,1.87-.92c.58.58,1.15,1.16,1.7,1.74q0-.62.09-1.25L45.7,52l1.06-.48c0-.24,0-.47.07-.71l-1.61.74c-.74-.68-1.5-1.33-2.3-1.94.72-.35,1.45-.68,2.17-1s1.41-.57,2.13-.82c0-.25.08-.5.12-.75-.79.3-1.57.62-2.33.94S43.27,48.78,42.43,49.24Z"/><path class="cls-5" d="M74.45,43.77c2.31-6.19,4.81-12.52-3.11-17.71-7-4.54-17.34.75-19.85,8.28h0c2.91-7.33-1.45-18-9.69-19.1C32.4,14,30.15,20.44,27.87,26.64,30.51,24,32.68,22.52,35.06,22c.48-1.66.94-3.31,1.51-4.88a20.71,20.71,0,0,1,.3,4.69,15.24,15.24,0,0,1,4.52.74h0a7,7,0,0,0,.85-3.3s.47-.08.51.15a8.39,8.39,0,0,1,0,3.73,20.42,20.42,0,0,1,3.53,2.56A16.47,16.47,0,0,0,48,22.85a15,15,0,0,1,.49,5c1.55,1.8,2.65,3.76,2.48,5.38-3.16-6.71-12.37-11.19-19-7.16-8.06,5-5.73,11.38-3.58,17.62.39-3.71,1.12-6.23,2.65-8.13-.68-1.59-1.36-3.16-1.92-4.73a20.71,20.71,0,0,1,3.2,3.44,15.25,15.25,0,0,1,4-2.28h0a7,7,0,0,0-1.42-3.09s.31-.36.49-.2a8.39,8.39,0,0,1,2.37,2.89,20.43,20.43,0,0,1,4.36-.25,16.48,16.48,0,0,0-.54-3.26,15,15,0,0,1,3.55,3.58c2.78.49,5.21,1.56,5.7,3.44l-.07.47-.12.86a3.67,3.67,0,0,1,.27-.46,3.46,3.46,0,0,1-.07.54l0,.16.91-1.42v-.05c1.6-1,4.11-.27,6.51,1.15a15,15,0,0,1,5-.39,16.46,16.46,0,0,0-2.54,2.12,20.43,20.43,0,0,1,3.13,3,8.39,8.39,0,0,1,3.68-.64c.24,0,.24.48.24.48a7,7,0,0,0-3.1,1.41h0a15.26,15.26,0,0,1,1.51,4.32,20.71,20.71,0,0,1,4.67-.52c-1.45.83-3,1.57-4.54,2.33-.08,2.43-1.17,4.82-3.3,7.89,5.7-3.33,11.65-6.66,8.79-15.69-2.38-7.37-12.29-10-19.06-7l0,0,.07-.1a3.55,3.55,0,0,1,.31-.35l.16-.15a9.64,9.64,0,0,1,4.83-1.84,15,15,0,0,1,3.64-3.48A16.44,16.44,0,0,0,61.09,31a20.43,20.43,0,0,1,4.35.37,8.39,8.39,0,0,1,2.44-2.82c.18-.15.48.22.48.22a7,7,0,0,0-1.5,3.05h0a15.25,15.25,0,0,1,3.9,2.39,20.7,20.7,0,0,1,3.29-3.35c-.6,1.56-1.33,3.11-2,4.68C73.5,37.51,74.17,40,74.45,43.77Z"/><path class="cls-6" d="M40.63,77.91c-9.68.63-17,3.51-17.37,7H66c-.33-3.55-8-6.47-17.88-7-1.14-.06-2.31-.1-3.5-.1C43.27,77.78,41.93,77.82,40.63,77.91Z"/><circle class="cls-7" cx="50.48" cy="76.01" r="6.46"/><path class="cls-8" d="M55,71.44A6.46,6.46,0,1,0,56.94,76,6.41,6.41,0,0,0,55,71.44Zm1.54,3.5A7.2,7.2,0,0,1,54.67,79a5.31,5.31,0,0,1-1.53,1.12,3.71,3.71,0,0,1-1.53-1,3.59,3.59,0,0,1-.41-.54,12,12,0,0,0,2.15-2.51,6.79,6.79,0,0,0,1-2.59A4.33,4.33,0,0,0,54,70.91,6.2,6.2,0,0,1,56.58,74.94Zm-12.29.85a6.16,6.16,0,0,1,1.21-3.46A6.2,6.2,0,0,1,47.66,72a4.52,4.52,0,0,1,3.93,2.33,5,5,0,0,1-1.1,1.61,5,5,0,0,0-.79-.67,4.32,4.32,0,0,0-2.2-.78A4.45,4.45,0,0,0,44.29,75.79Zm6.41-6a6.15,6.15,0,0,1,3.07.94c.86,1.55.69,3.32-.52,5.24a11.92,11.92,0,0,1-2.11,2.47A4.87,4.87,0,0,1,50.55,76a4.86,4.86,0,0,0,.69-.82A4.32,4.32,0,0,0,52,73,4.45,4.45,0,0,0,50.7,69.82Zm-.18,0a6,6,0,0,1,.83,1.1,3.11,3.11,0,0,0-2-.86,4.6,4.6,0,0,0-.51,0,6.18,6.18,0,0,1,1.69-.23ZM48,74.66A4.77,4.77,0,0,1,50.42,76a4.85,4.85,0,0,0,.09,1.07,4.32,4.32,0,0,0,1,2.11,4.45,4.45,0,0,0,3.19,1.33A6.21,6.21,0,0,1,53,81.66a5.4,5.4,0,0,1-3.79-1.95A6.53,6.53,0,0,1,48,76.36,8.6,8.6,0,0,1,48,74.66Zm.25-4.42a4.7,4.7,0,0,1,1.07-.06,2.83,2.83,0,0,1,2.31,1.26A3.64,3.64,0,0,1,51.89,73a3.73,3.73,0,0,1-.24,1.15,4.94,4.94,0,0,0-1.9-1.8,4.75,4.75,0,0,0-2.1-.51,6.34,6.34,0,0,0-2,.3A6.22,6.22,0,0,1,48.22,70.24ZM44.29,76v0a6.51,6.51,0,0,1,.69-.57,7.3,7.3,0,0,0,1.63,5.43A6.19,6.19,0,0,1,44.29,76Zm2.85,5.21a7,7,0,0,1-2-3.85,6.87,6.87,0,0,1,0-2.06,3.92,3.92,0,0,1,2.36-.71l.36,0a8.73,8.73,0,0,0,0,1.74,6.67,6.67,0,0,0,1.27,3.42,5.45,5.45,0,0,0,3.65,2,6.19,6.19,0,0,1-5.63-.55Zm7.7-.81a5.85,5.85,0,0,1-1.51-.24,5.61,5.61,0,0,0,1.43-1.08,7.22,7.22,0,0,0,1.88-3.73,6.24,6.24,0,0,1,0,.64A6.17,6.17,0,0,1,54.83,80.41Z"/></g></svg>