<svg id="Layer_1" data-name="Layer 1" xmlns="http://www.w3.org/2000/svg" viewBox="0 0 151.56 138.82"><defs><style>.cls-1{fill:#c6ccdb;}.cls-2{fill:#687189;}.cls-3{fill:#3f4454;}.cls-4{fill:#fedebb;}.cls-5{fill:#f9e0cf;}.cls-6{fill:#d78469;}.cls-7{fill:#d5bfa3;}.cls-8{fill:#fd7190;}.cls-9{fill:#efa0a6;}.cls-10{fill:#fccbaa;}</style></defs><title>neighbourhood</title><polygon class="cls-1" points="151.56 80 151.56 92.29 73.98 138.82 0 95.87 0 83.58 42.42 58.15 76.5 36.44 151.56 80"/><polygon class="cls-2" points="73.98 126.53 73.98 138.82 0 95.87 0 83.58 73.98 126.53"/><polygon class="cls-3" points="151.56 80 151.56 92.29 73.98 138.82 73.98 126.53 151.56 80"/><path class="cls-4" d="M194.1,142.27,182.42,149v22.16l-33.33,19.23-42.71-24.67V133.16l-.19-.33-1.83,1a2.63,2.63,0,0,1-3.6-1l-5.28-9.48a3.33,3.33,0,0,1,1.15-4.45l31.45-19.65,31.19-18a2.46,2.46,0,0,1,3.37.92l32.34,57A2.29,2.29,0,0,1,194.1,142.27Z" transform="translate(-74.22 -80.59)"/><polygon class="cls-5" points="75.5 76.57 74.86 76.93 74.86 109.82 32.15 85.16 32.15 52.57 31.96 52.24 53.84 39.82 75.5 76.57"/><path class="cls-6" d="M195.1,139.4a2,2,0,0,1-.74,2.72L182.42,149l-19.65,11.34L128.06,99.27l31.31-18.07a2.32,2.32,0,0,1,3.18.86Z" transform="translate(-74.22 -80.59)"/><polygon class="cls-7" points="108.2 68.43 108.2 90.59 74.86 109.82 74.86 76.93 75.5 76.57 80.44 84.96 88.55 79.78 108.2 68.43"/><path class="cls-2" d="M133.07,181.17,122.39,175V159.07a1.41,1.41,0,0,1,2.11-1.22l7.86,4.54a1.41,1.41,0,0,1,.7,1.22Z" transform="translate(-74.22 -80.59)"/><path class="cls-8" d="M162.77,160.36l-7.17,4.58a1.08,1.08,0,0,1-1.52-.36l-4.37-7.42-21.66-36.75-21.88,12.42-3,1.71a1.29,1.29,0,0,1-1.76-.49l-6.89-12.37A1.29,1.29,0,0,1,95,120l33.1-20.68Z" transform="translate(-74.22 -80.59)"/><path class="cls-9" d="M195.31,139.79a1.55,1.55,0,0,1-.57,2.11L182.42,149l-19.65,11.34L128.06,99.27l32-18.48a1.49,1.49,0,0,1,2,.55Z" transform="translate(-74.22 -80.59)"/><path class="cls-10" d="M182.42,149v22.16l-33.33,19.23V157.52l.63-.36,4.29,7.29a1.23,1.23,0,0,0,1.72.41l7-4.5Z" transform="translate(-74.22 -80.59)"/></svg>