<svg xmlns="http://www.w3.org/2000/svg" xmlns:xlink="http://www.w3.org/1999/xlink" version="1.1" x="0px" y="0px" viewBox="0 0 100 125" enable-background="new 0 0 100 100" xml:space="preserve"><g><path fill="#000000" d="M50,5C25.187,5,5,25.187,5,50s20.187,45,45,45s45-20.187,45-45S74.813,5,50,5z M50,6.508   c23.982,0,43.492,19.51,43.492,43.491c0,5.213-0.924,10.214-2.613,14.85c-2.545,2.12-5.541,3.68-8.742,4.543   c-0.067-0.216-0.135-0.431-0.196-0.65v-7.924c0-0.002-0.001-0.003-0.001-0.004c0-0.01-0.003-0.019-0.005-0.028   c-0.001-0.008-0.003-0.013-0.005-0.02c-0.001-0.005-0.002-0.01-0.004-0.015c-0.003-0.012-0.004-0.026-0.009-0.037   c-0.007-0.016-0.019-0.028-0.028-0.042c-0.01-0.014-0.017-0.029-0.029-0.041c-0.007-0.007-0.017-0.011-0.024-0.017   c-0.003-0.002-0.002-0.007-0.006-0.009c-0.004-0.003-0.009-0.001-0.013-0.003c-0.014-0.009-0.027-0.021-0.043-0.027   c-0.002-0.001-0.002-0.002-0.004-0.003c-0.016-0.006-0.032-0.005-0.048-0.008c-0.016-0.003-0.03-0.009-0.047-0.009   c-0.002,0-0.003,0.001-0.005,0.001c-0.01,0-0.018,0.004-0.028,0.005c-0.008,0.001-0.014,0.003-0.022,0.005   c-0.002,0-0.004,0.001-0.007,0.002c-0.015,0.004-0.031,0.004-0.045,0.01c-0.012,0.005-0.021,0.015-0.032,0.022   c-0.017,0.011-0.036,0.021-0.05,0.035c-0.007,0.007-0.01,0.016-0.016,0.024c-0.002,0.003-0.007,0.003-0.009,0.006   c-3.086,4.269-7.576,7.355-12.659,8.725c-0.067-0.215-0.137-0.429-0.197-0.646v-7.924c0-0.002-0.001-0.003-0.001-0.004   c0-0.01-0.003-0.019-0.005-0.028c-0.001-0.008-0.003-0.013-0.005-0.02c-0.001-0.005-0.002-0.01-0.004-0.015   c-0.003-0.012-0.004-0.026-0.009-0.037c-0.007-0.016-0.019-0.028-0.028-0.042c-0.01-0.014-0.017-0.029-0.029-0.041   c-0.007-0.007-0.017-0.011-0.024-0.017c-0.003-0.002-0.002-0.007-0.006-0.009c-0.004-0.003-0.009-0.001-0.013-0.003   c-0.014-0.009-0.027-0.021-0.043-0.027c-0.002-0.001-0.002-0.002-0.004-0.003c-0.016-0.006-0.032-0.005-0.048-0.008   c-0.016-0.003-0.03-0.009-0.047-0.009c-0.002,0-0.003,0.001-0.005,0.001c-0.01,0-0.018,0.004-0.028,0.005   c-0.008,0.001-0.014,0.003-0.022,0.005c-0.002,0-0.004,0.001-0.007,0.002c-0.015,0.004-0.031,0.004-0.045,0.01   c-0.012,0.005-0.021,0.015-0.032,0.022c-0.017,0.011-0.036,0.021-0.05,0.035c-0.007,0.007-0.01,0.016-0.016,0.024   c-0.002,0.003-0.007,0.003-0.009,0.006c-0.308,0.426-0.641,0.831-0.977,1.234V21.03c0-0.146-0.118-0.264-0.264-0.264h-1.226v-2.88   c0-0.002-0.001-0.003-0.001-0.005c0-0.021-0.007-0.04-0.012-0.059c-0.004-0.014-0.004-0.028-0.009-0.041   c-0.006-0.014-0.017-0.025-0.026-0.038c-0.01-0.015-0.018-0.032-0.031-0.045c-0.008-0.008-0.019-0.012-0.028-0.019   c-0.019-0.014-0.037-0.029-0.059-0.037c-0.001,0-0.002-0.002-0.003-0.002c-3.615-1.384-7.561-1.896-11.412-1.485   c-0.013,0.001-0.024,0.008-0.037,0.012c-0.017,0.004-0.034,0.008-0.05,0.016c-0.015,0.008-0.028,0.018-0.041,0.028   c-0.014,0.01-0.027,0.02-0.039,0.032c-0.011,0.013-0.019,0.027-0.028,0.041c-0.009,0.015-0.018,0.028-0.024,0.044   c-0.006,0.017-0.008,0.034-0.01,0.052c-0.002,0.013-0.008,0.024-0.008,0.038v4.348h-1.051c-0.146,0-0.264,0.118-0.264,0.264v6.544   v35.742c-0.943,0.957-1.965,1.827-3.056,2.603c-1.24-0.883-2.397-1.89-3.438-3l-0.001-0.001c-0.018-0.019-0.041-0.033-0.063-0.046   V43.858c0-0.146-0.118-0.264-0.264-0.264H39.31v-1.742l5.222-2.042c0.001,0,0.002-0.002,0.003-0.002   c0.022-0.009,0.04-0.024,0.058-0.038c0.009-0.007,0.02-0.011,0.028-0.019c0.012-0.012,0.02-0.028,0.029-0.042   c0.009-0.014,0.021-0.026,0.028-0.041c0.004-0.01,0.004-0.022,0.007-0.032c0.006-0.022,0.013-0.045,0.014-0.069   c0-0.001,0.001-0.002,0.001-0.003v-0.939l1.374-1.253c0.001-0.001,0.001-0.003,0.002-0.004c0.047-0.044,0.075-0.104,0.08-0.171   c0-0.004,0.002-0.008,0.002-0.012c0-0.003,0.002-0.005,0.002-0.008v-0.94l1.374-1.253c0.001-0.001,0.001-0.003,0.002-0.004   c0.047-0.044,0.075-0.104,0.08-0.172c0-0.004,0.002-0.007,0.002-0.011c0-0.003,0.002-0.006,0.002-0.009v-1.056   c0-0.146-0.118-0.264-0.264-0.264h-5.419v-2.931c0-0.146-0.118-0.264-0.264-0.264H37.8v-4.509h0.342   c0.042,0,0.076-0.034,0.076-0.075s-0.034-0.075-0.076-0.075H37.8v-2.705h0.342c0.042,0,0.076-0.034,0.076-0.075   c0-0.042-0.034-0.075-0.076-0.075H37.8v-2.705h0.342c0.042,0,0.076-0.034,0.076-0.075s-0.034-0.075-0.076-0.075H37.8v-4.305   c0-0.146-0.118-0.264-0.264-0.264s-0.264,0.118-0.264,0.264v4.305H36.93c-0.042,0-0.075,0.034-0.075,0.075s0.034,0.075,0.075,0.075   h0.342v2.705H36.93c-0.042,0-0.075,0.034-0.075,0.075c0,0.042,0.034,0.075,0.075,0.075h0.342v2.705H36.93   c-0.042,0-0.075,0.034-0.075,0.075s0.034,0.075,0.075,0.075h0.342v4.509h-3.873c-0.146,0-0.264,0.118-0.264,0.264v2.931h-5.419   c-0.146,0-0.264,0.118-0.264,0.264v1.056c0,0.003,0.002,0.006,0.002,0.009c0,0.004,0.002,0.007,0.002,0.011   c0.005,0.068,0.034,0.128,0.08,0.172c0.001,0.001,0.001,0.003,0.002,0.004l1.374,1.253v0.94c0,0.003,0.002,0.005,0.002,0.008   c0,0.004,0.002,0.008,0.002,0.012c0.005,0.067,0.034,0.128,0.08,0.171c0.001,0.001,0.001,0.003,0.002,0.004l1.374,1.253v0.939   c0,0.001,0.001,0.002,0.001,0.003c0,0.024,0.007,0.046,0.014,0.069c0.003,0.011,0.003,0.022,0.007,0.032   c0.007,0.015,0.018,0.027,0.028,0.041c0.01,0.014,0.017,0.03,0.029,0.042c0.008,0.008,0.019,0.012,0.028,0.019   c0.018,0.014,0.036,0.029,0.058,0.038c0.001,0,0.002,0.002,0.003,0.002l5.222,2.042v1.742h-6.395c-0.146,0-0.264,0.118-0.264,0.264   v25.216c-3.709-1.195-7.07-3.309-9.738-6.155c0,0-0.001,0-0.001-0.001c-0.047-0.05-0.112-0.08-0.181-0.082   c-0.001,0-0.002-0.001-0.003-0.001c-0.034-0.001-0.069,0.005-0.103,0.018c-0.031,0.012-0.058,0.031-0.082,0.052   c-0.001,0.001-0.002,0-0.003,0.001c0,0,0,0.001-0.001,0.001c-0.05,0.048-0.08,0.113-0.083,0.183l0,0.001   c-0.001,0.035,0.004,0.07,0.018,0.104c0.833,2.143,0.914,4.517,0.247,6.714c-3.431-0.545-6.705-1.87-9.605-3.918   C7.602,61.038,6.508,55.646,6.508,50C6.508,26.019,26.019,6.508,50,6.508z M85.149,75.571c-0.235-0.338-0.464-0.681-0.679-1.03   c0.981-0.668,1.922-1.392,2.813-2.173C86.619,73.469,85.905,74.535,85.149,75.571z M83.982,77.096H81.94v-6.625   c0.515,1.443,1.168,2.824,1.957,4.134c0.002,0.003,0,0.007,0.002,0.009c0.002,0.003,0.006,0.004,0.008,0.007   c0.288,0.477,0.596,0.944,0.919,1.402C84.552,76.388,84.266,76.741,83.982,77.096z M81.138,80.32H18.862   c-0.844-0.866-1.659-1.761-2.429-2.695h67.134C82.797,78.558,81.982,79.453,81.138,80.32z M77.936,83.299H22.064   c-0.929-0.781-1.827-1.596-2.688-2.451h61.248C79.764,81.702,78.865,82.518,77.936,83.299z M67.368,89.862H32.632   c-3.586-1.568-6.92-3.605-9.926-6.035h54.588C74.288,86.257,70.954,88.294,67.368,89.862z M47.092,33.997v0.528H27.98v-0.528   H47.092z M41.409,30.802v1.96h-7.746v-1.96H41.409z M33.663,32.913h7.746v0.556h-7.746V32.913z M46.675,35.053l-0.881,0.803H29.279   l-0.881-0.803H46.675z M29.44,36.385h16.192v0.528H29.44V36.385z M45.215,37.441l-0.881,0.804H30.739l-0.881-0.804H45.215z    M30.901,39.3v-0.528h13.271V39.3H30.901z M43.035,39.829l-3.586,1.403l0.407-1.403H43.035z M35.216,39.829l0.407,1.403   l-3.586-1.403H35.216z M36.289,41.669c0-0.014-0.005-0.027-0.007-0.04c-0.002-0.01,0-0.02-0.003-0.03l-0.514-1.77h3.541   l-0.513,1.77c-0.003,0.01-0.001,0.02-0.003,0.03c-0.002,0.014-0.007,0.026-0.007,0.04c0,0.001-0.001,0.002-0.001,0.003v1.922H36.29   v-1.922C36.29,41.671,36.289,41.67,36.289,41.669z M45.441,44.122v1.93h-15.81v-1.93H45.441z M66.622,21.294v0.482H53.056v-0.482   H66.622z M54.371,16.662c3.634-0.354,7.343,0.133,10.761,1.412v2.692H54.371V16.662z M72.973,77.096   c-0.676-0.815-1.285-1.671-1.834-2.56c4.565-3.106,8.085-7.382,10.273-12.426v14.986H72.973z M59.638,77.096   c-0.676-0.815-1.285-1.671-1.834-2.56c4.565-3.106,8.085-7.382,10.273-12.426v14.986H59.638z M46.304,77.096   c-0.676-0.815-1.286-1.671-1.835-2.56c4.565-3.106,8.085-7.382,10.273-12.426v14.986H46.304z M26.491,77.096   c6.666-2.925,12.005-8.274,14.917-14.946v14.946H26.491z M33.376,46.204v1.285h-1.892v-1.285H33.376z M35.418,46.204v1.285h-1.891   v-1.285H35.418z M37.461,46.204v1.285h-1.891v-1.285H37.461z M39.503,46.204v1.285h-1.892v-1.285H39.503z M41.545,46.204v1.285   h-1.891v-1.285H41.545z M43.587,46.204v1.285h-1.891v-1.285H43.587z M45.441,46.204v1.285h-1.703v-1.285H45.441z M46.244,67.835   c-0.092,0.045-0.182,0.095-0.275,0.139v-3.613C46.259,65.493,46.348,66.672,46.244,67.835z M43.738,68.901v-1.154h1.703v0.474   C44.883,68.468,44.317,68.698,43.738,68.901z M40.533,61.851h-0.879v-1.285h1.891v0.026c-0.004,0.002-0.007,0.005-0.011,0.008   c-0.017,0.011-0.036,0.021-0.05,0.035c-0.007,0.007-0.01,0.016-0.016,0.024c-0.002,0.003-0.007,0.003-0.009,0.006   c-0.141,0.194-0.284,0.387-0.431,0.577C40.867,61.449,40.699,61.649,40.533,61.851z M39.242,63.287h-1.63v-1.285h1.892v1.021   C39.418,63.113,39.329,63.198,39.242,63.287z M34.786,64.874h0.632v0.513C35.204,65.222,34.995,65.048,34.786,64.874z    M34.603,64.723c-0.368-0.312-0.728-0.632-1.075-0.966v-0.319h1.891v1.285H34.603z M45.441,63.287h-1.703v-1.285h1.703V63.287z    M43.307,69.032h-1.283c-0.028-0.097-0.061-0.191-0.088-0.289v-0.997h1.651v1.2C43.495,68.978,43.4,69.002,43.307,69.032z    M32.699,62.919c0,0-0.001,0-0.002-0.001c-0.047-0.05-0.112-0.079-0.181-0.082c-0.001,0-0.002-0.001-0.003-0.001   c-0.034-0.001-0.069,0.005-0.103,0.018c-0.031,0.012-0.058,0.031-0.082,0.052c-0.001,0.001-0.002,0-0.003,0.001l-0.001,0.001   c-0.05,0.048-0.08,0.113-0.083,0.183l0,0.001c-0.001,0.035,0.004,0.07,0.018,0.104c0.012,0.03,0.018,0.062,0.029,0.092h-0.805   v-1.285h1.892v1.285h-0.314C32.942,63.164,32.817,63.045,32.699,62.919z M32.339,63.438c0.151,0.42,0.271,0.849,0.366,1.285h-1.22   v-1.285H32.339z M43.738,58.979v-1.285h1.703v1.285H43.738z M45.441,59.13v1.285h-1.703V59.13H45.441z M33.527,58.979v-1.285h1.891   v1.285H33.527z M35.418,59.13v1.285h-1.891V59.13H35.418z M39.503,54.821v1.285h-1.892v-1.285H39.503z M37.611,54.67v-1.285h1.892   v1.285H37.611z M39.654,54.821h1.891v1.285h-1.891V54.821z M39.654,54.67v-1.285h1.891v1.285H39.654z M39.654,53.234v-1.285h1.891   v1.285H39.654z M39.503,53.234h-1.892v-1.285h1.892V53.234z M37.461,53.234h-1.891v-1.285h1.891V53.234z M37.461,53.385v1.285   h-1.891v-1.285H37.461z M37.461,54.821v1.285h-1.891v-1.285H37.461z M37.461,56.257v1.285h-1.891v-1.285H37.461z M37.611,56.257   h1.892v1.285h-1.892V56.257z M39.654,56.257h1.891v1.285h-1.891V56.257z M41.696,56.257h1.891v1.285h-1.891V56.257z M41.696,56.106   v-1.285h1.891v1.285H41.696z M41.696,54.67v-1.285h1.891v1.285H41.696z M41.696,53.234v-1.285h1.891v1.285H41.696z M41.696,51.797   v-1.285h1.891v1.285H41.696z M41.545,51.797h-1.891v-1.285h1.891V51.797z M39.503,51.797h-1.892v-1.285h1.892V51.797z    M37.461,51.797h-1.891v-1.285h1.891V51.797z M35.418,51.797h-1.891v-1.285h1.891V51.797z M35.418,51.948v1.285h-1.891v-1.285   H35.418z M35.418,53.385v1.285h-1.891v-1.285H35.418z M35.418,54.821v1.285h-1.891v-1.285H35.418z M35.418,56.257v1.285h-1.891   v-1.285H35.418z M35.569,57.693h1.891v1.285h-1.891V57.693z M37.611,57.693h1.892v1.285h-1.892V57.693z M39.654,57.693h1.891v1.285   h-1.891V57.693z M41.696,57.693h1.891v1.285h-1.891V57.693z M43.738,57.542v-1.285h1.703v1.285H43.738z M43.738,56.106v-1.285   h1.703v1.285H43.738z M43.738,54.67v-1.285h1.703v1.285H43.738z M43.738,53.234v-1.285h1.703v1.285H43.738z M43.738,51.797v-1.285   h1.703v1.285H43.738z M43.738,50.361v-1.285h1.703v1.285H43.738z M43.587,50.361h-1.891v-1.285h1.891V50.361z M41.545,50.361   h-1.891v-1.285h1.891V50.361z M39.503,50.361h-1.892v-1.285h1.892V50.361z M37.461,50.361h-1.891v-1.285h1.891V50.361z    M35.418,50.361h-1.891v-1.285h1.891V50.361z M33.376,50.361h-1.892v-1.285h1.892V50.361z M33.376,50.512v1.285h-1.892v-1.285   H33.376z M33.376,51.948v1.285h-1.892v-1.285H33.376z M33.376,53.385v1.285h-1.892v-1.285H33.376z M33.376,54.821v1.285h-1.892   v-1.285H33.376z M33.376,56.257v1.285h-1.892v-1.285H33.376z M33.376,57.693v1.285h-1.892v-1.285H33.376z M33.376,59.13v1.285   h-1.892V59.13H33.376z M33.376,60.565v1.285h-1.892v-1.285H33.376z M33.527,62.002h1.891v1.285h-1.891V62.002z M33.527,61.851   v-1.285h1.891v1.285H33.527z M35.569,60.565h1.891v1.285h-1.891V60.565z M35.569,60.415V59.13h1.891v1.285H35.569z M37.611,59.13   h1.892v1.285h-1.892V59.13z M39.654,59.13h1.891v1.285h-1.891V59.13z M41.696,59.13h1.891v1.285h-1.891V59.13z M41.93,60.786   c-0.001-0.008-0.003-0.013-0.005-0.02c-0.001-0.005-0.002-0.01-0.003-0.015c-0.003-0.012-0.004-0.026-0.009-0.037   c-0.007-0.016-0.019-0.028-0.028-0.042c-0.01-0.014-0.017-0.029-0.029-0.041c-0.007-0.007-0.017-0.011-0.024-0.017   c-0.003-0.002-0.002-0.007-0.006-0.009c-0.004-0.003-0.009-0.001-0.013-0.003c-0.014-0.009-0.027-0.021-0.043-0.027   c-0.002-0.001-0.002-0.002-0.004-0.003c-0.014-0.005-0.028-0.004-0.042-0.007h1.863v1.285h-1.651v-1.032   c0-0.002-0.001-0.003-0.001-0.004C41.935,60.805,41.932,60.796,41.93,60.786z M45.441,66.159h-1.703v-1.285h1.703V66.159z    M43.587,66.159h-1.651v-1.285h1.651V66.159z M41.936,64.723v-1.285h1.651v1.285H41.936z M41.936,63.287v-1.285h1.651v1.285H41.936   z M41.936,67.596V66.31h1.651v1.285H41.936z M43.738,66.31h1.703v1.285h-1.703V66.31z M43.738,64.723v-1.285h1.703v1.285H43.738z    M43.738,61.851v-1.285h1.703v1.285H43.738z M45.441,48.925h-1.703V47.64h1.703V48.925z M43.587,48.925h-1.891V47.64h1.891V48.925z    M41.545,48.925h-1.891V47.64h1.891V48.925z M39.503,48.925h-1.892V47.64h1.892V48.925z M37.461,48.925h-1.891V47.64h1.891V48.925z    M35.418,48.925h-1.891V47.64h1.891V48.925z M33.376,48.925h-1.892V47.64h1.892V48.925z M31.334,48.925h-1.703V47.64h1.703V48.925z    M31.334,49.076v1.285h-1.703v-1.285H31.334z M31.334,50.512v1.285h-1.703v-1.285H31.334z M31.334,51.948v1.285h-1.703v-1.285   H31.334z M31.334,53.385v1.285h-1.703v-1.285H31.334z M31.334,54.821v1.285h-1.703v-1.285H31.334z M31.334,56.257v1.285h-1.703   v-1.285H31.334z M31.334,57.693v1.285h-1.703v-1.285H31.334z M31.334,59.13v1.285h-1.703V59.13H31.334z M31.334,60.565v1.285   h-1.703v-1.285H31.334z M31.334,62.002v1.285h-1.703v-1.285H31.334z M31.334,63.438v1.285h-1.703v-1.285H31.334z M31.334,64.874   v1.285h-1.703v-1.285H31.334z M31.334,66.31v1.285h-1.703V66.31H31.334z M31.485,66.31h1.438c0.026,0.429,0.026,0.857-0.002,1.285   h-1.436V66.31z M31.485,66.159v-1.285h1.25c0.086,0.425,0.145,0.853,0.177,1.285H31.485z M33.376,63.438v0.166   c-0.056-0.055-0.109-0.111-0.164-0.166H33.376z M35.569,63.438h1.891v1.285h-1.891V63.438z M35.569,63.287v-1.285h1.891v1.285   H35.569z M37.611,61.851v-1.285h1.892v1.285H37.611z M42.07,69.183h0.742c-0.226,0.069-0.45,0.145-0.679,0.207   C42.112,69.321,42.091,69.252,42.07,69.183z M31.334,47.489h-1.703v-1.285h1.703V47.489z M30.038,69.032h-0.407v-1.285h1.703v0.817   C30.908,68.733,30.476,68.888,30.038,69.032z M31.485,67.747h1.429c-0.003,0.039-0.002,0.079-0.005,0.118   c-0.467,0.227-0.941,0.44-1.424,0.636V67.747z M33.095,64.071c0.813,0.789,1.686,1.516,2.604,2.18   c-0.725,0.491-1.475,0.942-2.251,1.345C33.522,66.411,33.408,65.217,33.095,64.071z M36.162,65.937   c-0.2-0.142-0.397-0.289-0.592-0.438v-0.625h1.891v0.055C37.038,65.279,36.607,65.619,36.162,65.937z M37.708,64.723h-0.097v-1.285   h1.481C38.647,63.887,38.186,64.316,37.708,64.723z M39.654,62.002h0.756c-0.246,0.293-0.498,0.578-0.756,0.857V62.002z    M41.936,70.469c0.856,2.402,2.094,4.623,3.694,6.627h-3.694V70.469z M54.73,21.927v1.536h-0.856v-1.536H54.73z M55.737,21.927   v1.536h-0.856v-1.536H55.737z M56.743,21.927v1.536h-0.856v-1.536H56.743z M57.75,21.927v1.536h-0.856v-1.536H57.75z    M58.757,21.927v1.536h-0.856v-1.536H58.757z M59.764,21.927v1.536h-0.856v-1.536H59.764z M60.77,21.927v1.536h-0.856v-1.536H60.77   z M61.777,21.927v1.536h-0.856v-1.536H61.777z M62.784,21.927v1.536h-0.856v-1.536H62.784z M63.791,21.927v1.536h-0.856v-1.536   H63.791z M64.797,21.927v1.536h-0.856v-1.536H64.797z M65.804,21.927v1.536h-0.856v-1.536H65.804z M66.622,21.927v1.536h-0.667   v-1.536H66.622z M66.622,62.512c-0.216,0.242-0.441,0.475-0.667,0.707v-0.809h0.667V62.512z M63.444,65.443h-0.509v-1.347h0.856   v1.088C63.677,65.274,63.558,65.356,63.444,65.443z M56.728,69.005h-0.841V67.47h0.856v1.531   C56.738,69.003,56.733,69.004,56.728,69.005z M55.265,60.786c-0.001-0.008-0.003-0.013-0.005-0.02   c-0.001-0.005-0.002-0.01-0.003-0.015c-0.003-0.009-0.002-0.02-0.006-0.028h0.485v1.536h-0.466v-1.439   c0-0.002-0.001-0.003-0.001-0.004C55.27,60.805,55.266,60.796,55.265,60.786z M53.874,25.301h0.856v1.536h-0.856V25.301z    M53.723,26.836h-0.667v-1.536h0.667V26.836z M61.046,63.945h-0.125v-1.536h0.856v1.536H61.046z M59.367,62.919   c-0.047-0.05-0.113-0.08-0.181-0.082c-0.001,0-0.002,0-0.003,0c-0.034-0.001-0.069,0.005-0.103,0.018   c-0.031,0.012-0.058,0.031-0.082,0.052c-0.001,0.001-0.002,0-0.003,0.001c0,0,0,0.001,0,0.001   c-0.051,0.048-0.081,0.114-0.083,0.183l0,0.001c-0.001,0.035,0.004,0.07,0.018,0.104c0.095,0.245,0.165,0.498,0.241,0.75h-0.263   v-1.536h0.856v0.91c-0.132-0.134-0.267-0.263-0.395-0.4C59.368,62.919,59.368,62.919,59.367,62.919z M55.271,65.443v-1.347h0.466   v1.347H55.271z M55.737,65.972v1.347h-0.466v-1.347H55.737z M57.901,60.572v-1.536h0.856v1.536H57.901z M58.757,60.723v1.536   h-0.856v-1.536H58.757z M59.915,55.511v-1.536h0.856v1.536H59.915z M60.77,55.662v1.536h-0.856v-1.536H60.77z M60.921,50.451   v-1.536h0.856v1.536H60.921z M61.777,50.602v1.536h-0.856v-1.536H61.777z M59.915,46.889v-1.347h0.856v1.347H59.915z M60.77,47.417   v1.347h-0.856v-1.347H60.77z M59.915,45.391v-1.536h0.856v1.536H59.915z M59.915,43.704v-1.536h0.856v1.536H59.915z M59.915,42.017   v-1.536h0.856v1.536H59.915z M59.915,40.33v-1.536h0.856v1.536H59.915z M59.915,38.643v-1.536h0.856v1.536H59.915z M59.915,36.957   v-1.536h0.856v1.536H59.915z M60.921,35.421h0.856v1.536h-0.856V35.421z M61.928,35.421h0.856v1.536h-0.856V35.421z M61.928,35.27   v-1.536h0.856v1.536H61.928z M61.777,35.27h-0.856v-1.536h0.856V35.27z M60.77,35.27h-0.856v-1.536h0.856V35.27z M59.764,35.27   h-0.856v-1.536h0.856V35.27z M59.764,35.421v1.536h-0.856v-1.536H59.764z M59.764,37.108v1.536h-0.856v-1.536H59.764z    M59.764,38.794v1.536h-0.856v-1.536H59.764z M59.764,40.481v1.536h-0.856v-1.536H59.764z M59.764,42.168v1.536h-0.856v-1.536   H59.764z M59.764,43.855v1.536h-0.856v-1.536H59.764z M59.764,45.542v1.347h-0.856v-1.347H59.764z M59.764,47.417v1.347h-0.856   v-1.347H59.764z M59.764,48.915v1.536h-0.856v-1.536H59.764z M59.915,48.915h0.856v1.536h-0.856V48.915z M60.921,48.764v-1.347   h0.856v1.347H60.921z M60.921,46.889v-1.347h0.856v1.347H60.921z M60.921,45.391v-1.536h0.856v1.536H60.921z M60.921,43.704v-1.536   h0.856v1.536H60.921z M60.921,42.017v-1.536h0.856v1.536H60.921z M60.921,40.33v-1.536h0.856v1.536H60.921z M60.921,38.643v-1.536   h0.856v1.536H60.921z M61.928,37.108h0.856v1.536h-0.856V37.108z M62.935,37.108h0.856v1.536h-0.856V37.108z M62.935,36.957v-1.536   h0.856v1.536H62.935z M62.935,35.27v-1.536h0.856v1.536H62.935z M62.935,33.583v-1.536h0.856v1.536H62.935z M62.784,33.583h-0.856   v-1.536h0.856V33.583z M61.777,33.583h-0.856v-1.536h0.856V33.583z M60.77,33.583h-0.856v-1.536h0.856V33.583z M59.764,33.583   h-0.856v-1.536h0.856V33.583z M58.757,33.583h-0.856v-1.536h0.856V33.583z M58.757,33.734v1.536h-0.856v-1.536H58.757z    M58.757,35.421v1.536h-0.856v-1.536H58.757z M57.75,36.957h-0.856v-1.536h0.856V36.957z M56.743,36.957h-0.856v-1.536h0.856   V36.957z M56.743,37.108v1.536h-0.856v-1.536H56.743z M56.894,37.108h0.856v1.536h-0.856V37.108z M57.901,37.108h0.856v1.536   h-0.856V37.108z M58.757,38.794v1.536h-0.856v-1.536H58.757z M58.757,40.481v1.536h-0.856v-1.536H58.757z M58.757,42.168v1.536   h-0.856v-1.536H58.757z M58.757,43.855v1.536h-0.856v-1.536H58.757z M58.757,45.542v1.347h-0.856v-1.347H58.757z M58.757,47.417   v1.347h-0.856v-1.347H58.757z M58.757,48.915v1.536h-0.856v-1.536H58.757z M58.757,50.602v1.536h-0.856v-1.536H58.757z    M58.908,50.602h0.856v1.536h-0.856V50.602z M59.915,50.602h0.856v1.536h-0.856V50.602z M60.77,52.289v1.536h-0.856v-1.536H60.77z    M60.921,53.975h0.856v1.536h-0.856V53.975z M60.921,53.824v-1.536h0.856v1.536H60.921z M61.928,52.289h0.856v1.536h-0.856V52.289z    M61.928,52.138v-1.536h0.856v1.536H61.928z M61.928,50.451v-1.536h0.856v1.536H61.928z M61.928,48.764v-1.347h0.856v1.347H61.928z    M61.928,46.889v-1.347h0.856v1.347H61.928z M61.928,45.391v-1.536h0.856v1.536H61.928z M61.928,43.704v-1.536h0.856v1.536H61.928z    M61.928,42.017v-1.536h0.856v1.536H61.928z M61.928,40.33v-1.536h0.856v1.536H61.928z M62.935,38.794h0.856v1.536h-0.856V38.794z    M63.942,38.794h0.856v1.536h-0.856V38.794z M63.942,38.643v-1.536h0.856v1.536H63.942z M63.942,36.957v-1.536h0.856v1.536H63.942z    M63.942,35.27v-1.536h0.856v1.536H63.942z M63.942,33.583v-1.536h0.856v1.536H63.942z M63.942,31.896v-1.536h0.856v1.536H63.942z    M63.791,31.896h-0.856v-1.536h0.856V31.896z M62.784,31.896h-0.856v-1.536h0.856V31.896z M61.777,31.896h-0.856v-1.536h0.856   V31.896z M60.77,31.896h-0.856v-1.536h0.856V31.896z M59.764,31.896h-0.856v-1.536h0.856V31.896z M58.757,31.896h-0.856v-1.536   h0.856V31.896z M57.75,31.896h-0.856v-1.536h0.856V31.896z M57.75,32.047v1.536h-0.856v-1.536H57.75z M57.75,33.734v1.536h-0.856   v-1.536H57.75z M56.743,35.27h-0.856v-1.536h0.856V35.27z M55.737,35.27h-0.856v-1.536h0.856V35.27z M55.737,35.421v1.536h-0.856   v-1.536H55.737z M55.737,37.108v1.536h-0.856v-1.536H55.737z M55.737,38.794v1.536h-0.856v-1.536H55.737z M55.888,38.794h0.856   v1.536h-0.856V38.794z M56.894,38.794h0.856v1.536h-0.856V38.794z M57.75,40.481v1.536h-0.856v-1.536H57.75z M57.75,42.168v1.536   h-0.856v-1.536H57.75z M57.75,43.855v1.536h-0.856v-1.536H57.75z M57.75,45.542v1.347h-0.856v-1.347H57.75z M57.75,47.417v1.347   h-0.856v-1.347H57.75z M57.75,48.915v1.536h-0.856v-1.536H57.75z M57.75,50.602v1.536h-0.856v-1.536H57.75z M57.75,52.289v1.536   h-0.856v-1.536H57.75z M57.901,52.289h0.856v1.536h-0.856V52.289z M58.908,52.289h0.856v1.536h-0.856V52.289z M59.764,53.975v1.536   h-0.856v-1.536H59.764z M59.764,55.662v1.536h-0.856v-1.536H59.764z M59.764,57.349v1.536h-0.856v-1.536H59.764z M59.915,57.349   h0.856v1.536h-0.856V57.349z M60.921,57.349h0.856v1.536h-0.856V57.349z M60.921,57.198v-1.536h0.856v1.536H60.921z M61.928,55.662   h0.856v1.536h-0.856V55.662z M61.928,55.511v-1.536h0.856v1.536H61.928z M62.935,53.975h0.856v1.536h-0.856V53.975z M63.942,53.975   h0.856v1.536h-0.856V53.975z M63.942,53.824v-1.536h0.856v1.536H63.942z M63.791,53.824h-0.856v-1.536h0.856V53.824z    M62.935,52.138v-1.536h0.856v1.536H62.935z M62.935,50.451v-1.536h0.856v1.536H62.935z M62.935,48.764v-1.347h0.856v1.347H62.935z    M62.935,46.889v-1.347h0.856v1.347H62.935z M62.935,45.391v-1.536h0.856v1.536H62.935z M62.935,43.704v-1.536h0.856v1.536H62.935z    M62.935,42.017v-1.536h0.856v1.536H62.935z M63.942,40.481h0.856v1.536h-0.856V40.481z M64.948,40.481h0.856v1.536h-0.856V40.481z    M64.948,40.33v-1.536h0.856v1.536H64.948z M64.948,38.643v-1.536h0.856v1.536H64.948z M64.948,36.957v-1.536h0.856v1.536H64.948z    M64.948,35.27v-1.536h0.856v1.536H64.948z M64.948,33.583v-1.536h0.856v1.536H64.948z M64.948,31.896v-1.536h0.856v1.536H64.948z    M64.948,30.21v-1.536h0.856v1.536H64.948z M64.797,30.21h-0.856v-1.536h0.856V30.21z M63.791,30.21h-0.856v-1.536h0.856V30.21z    M62.784,30.21h-0.856v-1.536h0.856V30.21z M61.777,30.21h-0.856v-1.536h0.856V30.21z M60.77,30.21h-0.856v-1.536h0.856V30.21z    M59.764,30.21h-0.856v-1.536h0.856V30.21z M58.757,30.21h-0.856v-1.536h0.856V30.21z M57.75,30.21h-0.856v-1.536h0.856V30.21z    M56.743,30.21h-0.856v-1.536h0.856V30.21z M56.743,30.361v1.536h-0.856v-1.536H56.743z M56.743,32.047v1.536h-0.856v-1.536H56.743   z M55.737,33.583h-0.856v-1.536h0.856V33.583z M54.73,33.583h-0.856v-1.536h0.856V33.583z M54.73,33.734v1.536h-0.856v-1.536H54.73   z M54.73,35.421v1.536h-0.856v-1.536H54.73z M54.73,37.108v1.536h-0.856v-1.536H54.73z M54.73,38.794v1.536h-0.856v-1.536H54.73z    M54.73,40.481v1.536h-0.856v-1.536H54.73z M54.881,40.481h0.856v1.536h-0.856V40.481z M55.888,40.481h0.856v1.536h-0.856V40.481z    M56.743,42.168v1.536h-0.856v-1.536H56.743z M56.743,43.855v1.536h-0.856v-1.536H56.743z M56.743,45.542v1.347h-0.856v-1.347   H56.743z M56.743,47.417v1.347h-0.856v-1.347H56.743z M56.743,48.915v1.536h-0.856v-1.536H56.743z M56.743,50.602v1.536h-0.856   v-1.536H56.743z M56.743,52.289v1.536h-0.856v-1.536H56.743z M55.737,53.824h-0.856v-1.536h0.856V53.824z M54.73,53.824h-0.856   v-1.536h0.856V53.824z M54.73,53.975v1.536h-0.856v-1.536H54.73z M54.881,53.975h0.856v1.536h-0.856V53.975z M55.888,53.975h0.856   v1.536h-0.856V53.975z M56.894,53.975h0.856v1.536h-0.856V53.975z M57.901,53.975h0.856v1.536h-0.856V53.975z M58.757,55.662v1.536   h-0.856v-1.536H58.757z M58.757,57.349v1.536h-0.856v-1.536H58.757z M58.908,59.036h0.856v1.536h-0.856V59.036z M59.915,59.036   h0.856v1.536h-0.856V59.036z M60.921,59.036h0.856v1.536h-0.856V59.036z M61.928,59.036h0.856v1.536h-0.856V59.036z M61.928,58.885   v-1.536h0.856v1.536H61.928z M62.935,57.349h0.856v1.536h-0.856V57.349z M62.935,57.198v-1.536h0.856v1.536H62.935z M63.942,55.662   h0.856v1.536h-0.856V55.662z M64.948,55.662h0.856v1.536h-0.856V55.662z M64.948,55.511v-1.536h0.856v1.536H64.948z M64.948,53.824   v-1.536h0.856v1.536H64.948z M64.948,52.138v-1.536h0.856v1.536H64.948z M64.797,52.138h-0.856v-1.536h0.856V52.138z    M63.942,50.451v-1.536h0.856v1.536H63.942z M63.942,48.764v-1.347h0.856v1.347H63.942z M63.942,46.889v-1.347h0.856v1.347H63.942z    M63.942,45.391v-1.536h0.856v1.536H63.942z M63.942,43.704v-1.536h0.856v1.536H63.942z M64.948,42.168h0.856v1.536h-0.856V42.168z    M65.955,42.168h0.667v1.536h-0.667V42.168z M65.955,42.017v-1.536h0.667v1.536H65.955z M65.955,40.33v-1.536h0.667v1.536H65.955z    M65.955,38.643v-1.536h0.667v1.536H65.955z M65.955,36.957v-1.536h0.667v1.536H65.955z M65.955,35.27v-1.536h0.667v1.536H65.955z    M65.955,33.583v-1.536h0.667v1.536H65.955z M65.955,31.896v-1.536h0.667v1.536H65.955z M65.955,30.21v-1.536h0.667v1.536H65.955z    M65.955,28.523v-1.536h0.667v1.536H65.955z M65.804,28.523h-0.856v-1.536h0.856V28.523z M64.797,28.523h-0.856v-1.536h0.856   V28.523z M63.791,28.523h-0.856v-1.536h0.856V28.523z M62.784,28.523h-0.856v-1.536h0.856V28.523z M61.777,28.523h-0.856v-1.536   h0.856V28.523z M60.77,28.523h-0.856v-1.536h0.856V28.523z M59.764,28.523h-0.856v-1.536h0.856V28.523z M58.757,28.523h-0.856   v-1.536h0.856V28.523z M57.75,28.523h-0.856v-1.536h0.856V28.523z M56.743,28.523h-0.856v-1.536h0.856V28.523z M55.737,28.523   h-0.856v-1.536h0.856V28.523z M55.737,28.674v1.536h-0.856v-1.536H55.737z M55.737,30.361v1.536h-0.856v-1.536H55.737z    M54.73,31.896h-0.856v-1.536h0.856V31.896z M53.723,31.896h-0.667v-1.536h0.667V31.896z M53.723,32.047v1.536h-0.667v-1.536   H53.723z M53.723,33.734v1.536h-0.667v-1.536H53.723z M53.723,35.421v1.536h-0.667v-1.536H53.723z M53.723,37.108v1.536h-0.667   v-1.536H53.723z M53.723,38.794v1.536h-0.667v-1.536H53.723z M53.723,40.481v1.536h-0.667v-1.536H53.723z M53.723,42.168v1.536   h-0.667v-1.536H53.723z M53.874,42.168h0.856v1.536h-0.856V42.168z M54.881,42.168h0.856v1.536h-0.856V42.168z M55.737,43.855   v1.536h-0.856v-1.536H55.737z M55.737,45.542v1.347h-0.856v-1.347H55.737z M55.737,47.417v1.347h-0.856v-1.347H55.737z    M55.737,48.915v1.536h-0.856v-1.536H55.737z M55.737,50.602v1.536h-0.856v-1.536H55.737z M54.73,52.138h-0.856v-1.536h0.856   V52.138z M53.723,52.138h-0.667v-1.536h0.667V52.138z M53.723,52.289v1.536h-0.667v-1.536H53.723z M53.723,53.975v1.536h-0.667   v-1.536H53.723z M53.723,55.662v1.536h-0.667v-1.536H53.723z M53.874,55.662h0.856v1.536h-0.856V55.662z M54.881,55.662h0.856   v1.536h-0.856V55.662z M55.888,55.662h0.856v1.536h-0.856V55.662z M56.894,55.662h0.856v1.536h-0.856V55.662z M57.75,57.349v1.536   h-0.856v-1.536H57.75z M57.75,59.036v1.536h-0.856v-1.536H57.75z M57.75,60.723v1.536h-0.856v-1.536H57.75z M57.75,62.409v1.536   h-0.856v-1.536H57.75z M56.743,63.945h-0.856v-1.536h0.856V63.945z M55.737,63.945h-0.466v-1.536h0.466V63.945z M55.888,64.096   h0.856v1.347h-0.856V64.096z M56.894,64.096h0.856v1.347h-0.856V64.096z M57.901,64.096h0.856v1.347h-0.856V64.096z M57.901,63.945   v-1.536h0.856v1.536H57.901z M58.908,62.258v-1.536h0.856v1.536H58.908z M59.915,60.723h0.856v1.536h-0.856V60.723z M60.921,60.723   h0.856v1.536h-0.856V60.723z M61.928,62.409h0.856v1.536h-0.856V62.409z M61.928,62.258v-1.536h0.856v1.536H61.928z M62.935,60.723   h0.856v1.536h-0.856V60.723z M62.935,60.572v-1.536h0.856v1.536H62.935z M63.942,59.036h0.856v1.536h-0.856V59.036z M63.942,58.885   v-1.536h0.856v1.536H63.942z M64.948,57.349h0.856v1.536h-0.856V57.349z M65.955,57.349h0.667v1.536h-0.667V57.349z M65.955,57.198   v-1.536h0.667v1.536H65.955z M65.955,55.511v-1.536h0.667v1.536H65.955z M65.955,53.824v-1.536h0.667v1.536H65.955z M65.955,52.138   v-1.536h0.667v1.536H65.955z M65.955,50.451v-1.536h0.667v1.536H65.955z M65.804,50.451h-0.856v-1.536h0.856V50.451z    M64.948,48.764v-1.347h0.856v1.347H64.948z M64.948,46.889v-1.347h0.856v1.347H64.948z M64.948,45.391v-1.536h0.856v1.536H64.948z    M65.955,43.855h0.667v1.536h-0.667V43.855z M66.622,26.836h-0.667v-1.536h0.667V26.836z M65.804,26.836h-0.856v-1.536h0.856   V26.836z M64.797,26.836h-0.856v-1.536h0.856V26.836z M63.791,26.836h-0.856v-1.536h0.856V26.836z M62.784,26.836h-0.856v-1.536   h0.856V26.836z M61.777,26.836h-0.856v-1.536h0.856V26.836z M60.77,26.836h-0.856v-1.536h0.856V26.836z M59.764,26.836h-0.856   v-1.536h0.856V26.836z M58.757,26.836h-0.856v-1.536h0.856V26.836z M57.75,26.836h-0.856v-1.536h0.856V26.836z M56.743,26.836   h-0.856v-1.536h0.856V26.836z M55.737,26.836h-0.856v-1.536h0.856V26.836z M54.73,26.987v1.536h-0.856v-1.536H54.73z M54.73,28.674   v1.536h-0.856v-1.536H54.73z M53.723,30.21h-0.667v-1.536h0.667V30.21z M53.056,43.855h0.667v1.536h-0.667V43.855z M53.874,43.855   h0.856v1.536h-0.856V43.855z M54.73,45.542v1.347h-0.856v-1.347H54.73z M54.73,47.417v1.347h-0.856v-1.347H54.73z M54.73,48.915   v1.536h-0.856v-1.536H54.73z M53.723,50.451h-0.667v-1.536h0.667V50.451z M53.056,57.349h0.667v1.536h-0.667V57.349z    M53.874,57.349h0.856v1.536h-0.856V57.349z M54.881,57.349h0.856v1.536h-0.856V57.349z M55.888,57.349h0.856v1.536h-0.856V57.349z    M56.743,59.036v1.536h-0.856v-1.536H56.743z M56.743,60.723v1.536h-0.856v-1.536H56.743z M55.271,68.743V67.47h0.466v1.536h-0.386   C55.325,68.918,55.295,68.832,55.271,68.743z M55.888,67.319v-1.347h0.856v1.347H55.888z M56.894,65.972h0.856v1.347h-0.856V65.972   z M57.901,65.972h0.856v1.347h-0.856V65.972z M58.908,65.972h0.659c0.042,0.448,0.052,0.897,0.035,1.347h-0.694V65.972z    M58.908,65.443v-1.347h0.311c0.126,0.443,0.229,0.892,0.295,1.347H58.908z M59.915,62.409h0.856v1.536h-0.369   c-0.165-0.155-0.326-0.313-0.486-0.473V62.409z M60.77,64.096v0.186c-0.068-0.062-0.136-0.124-0.204-0.186H60.77z M60.921,64.096   h0.125h0.731v1.043c-0.291-0.233-0.577-0.472-0.856-0.719V64.096z M61.928,65.263v-1.167h0.856v1.347h-0.621   C62.084,65.383,62.006,65.324,61.928,65.263z M62.935,63.945v-1.536h0.856v1.536H62.935z M63.942,62.409h0.856v1.536h-0.856V62.409   z M63.942,62.258v-1.536h0.856v1.536H63.942z M64.948,60.723h0.856v1.536h-0.856V60.723z M64.948,60.572v-1.536h0.856v1.536H64.948   z M65.955,59.036h0.667v1.536h-0.667V59.036z M66.622,48.764h-0.667v-1.347h0.667V48.764z M65.955,46.889v-1.347h0.667v1.347   H65.955z M66.622,25.15h-0.667v-1.536h0.667V25.15z M65.804,25.15h-0.856v-1.536h0.856V25.15z M64.797,25.15h-0.856v-1.536h0.856   V25.15z M63.791,25.15h-0.856v-1.536h0.856V25.15z M62.784,25.15h-0.856v-1.536h0.856V25.15z M61.777,25.15h-0.856v-1.536h0.856   V25.15z M60.77,25.15h-0.856v-1.536h0.856V25.15z M59.764,25.15h-0.856v-1.536h0.856V25.15z M58.757,25.15h-0.856v-1.536h0.856   V25.15z M57.75,25.15h-0.856v-1.536h0.856V25.15z M56.743,25.15h-0.856v-1.536h0.856V25.15z M55.737,25.15h-0.856v-1.536h0.856   V25.15z M54.73,25.15h-0.856v-1.536h0.856V25.15z M53.723,25.15h-0.667v-1.536h0.667V25.15z M53.056,27.574v-0.587h0.667v1.536   h-0.667V27.574z M53.056,45.542h0.667v1.347h-0.667V45.542z M53.723,47.417v1.347h-0.667v-1.347H53.723z M53.056,59.036h0.667   v1.536h-0.667V59.036z M53.874,59.036h0.856v1.536h-0.856V59.036z M54.881,59.036h0.856v1.536h-0.64   c-0.014-0.005-0.029-0.005-0.043-0.007c-0.016-0.003-0.03-0.009-0.047-0.009c-0.002,0-0.003,0.001-0.005,0.001   c-0.01,0-0.018,0.004-0.028,0.005c-0.008,0.001-0.014,0.003-0.022,0.005c-0.002,0.001-0.005,0.001-0.007,0.002   c-0.007,0.002-0.014,0.002-0.02,0.004h-0.044V59.036z M55.397,69.156h0.34v0.151c-0.09,0.026-0.178,0.057-0.269,0.082   C55.444,69.312,55.42,69.234,55.397,69.156z M55.888,69.156h0.345c-0.115,0.035-0.23,0.072-0.345,0.105V69.156z M56.894,68.955   V67.47h0.856v1.164C57.466,68.744,57.183,68.856,56.894,68.955z M57.901,67.47h0.856v0.758c-0.281,0.124-0.57,0.232-0.856,0.345   V67.47z M58.908,67.47h0.688c-0.006,0.122-0.006,0.244-0.017,0.365c-0.224,0.11-0.443,0.23-0.671,0.332V67.47z M60.079,65.745   c0.002-0.013,0.008-0.024,0.008-0.038c0-0.029-0.008-0.055-0.016-0.081c-0.063-0.525-0.166-1.044-0.305-1.555   c0.666,0.646,1.372,1.252,2.11,1.816c0.018,0.019,0.039,0.032,0.061,0.045c0.139,0.106,0.28,0.209,0.421,0.311   c-0.718,0.485-1.47,0.916-2.239,1.317C60.155,66.955,60.145,66.348,60.079,65.745z M63.942,64.096h0.856v0.226   c-0.283,0.253-0.561,0.511-0.856,0.749V64.096z M64.948,64.096h0.103c-0.034,0.031-0.069,0.061-0.103,0.092V64.096z M65.221,63.945   h-0.273v-1.536h0.856v0.969C65.613,63.571,65.419,63.76,65.221,63.945z M65.955,62.258v-1.536h0.667v1.536H65.955z M53.723,23.463   h-0.667v-1.536h0.667V23.463z M53.056,60.723h0.667v1.293c-0.067,0.08-0.128,0.165-0.196,0.243h-0.471V60.723z M53.874,61.825   v-1.102h0.856v0.021C54.458,61.116,54.167,61.471,53.874,61.825z M55.271,70.469c0.856,2.402,2.094,4.623,3.694,6.627h-3.694   V70.469z M68.605,70.469c0.856,2.402,2.094,4.623,3.694,6.627h-3.694V70.469z M70.863,74.084c-0.774-1.323-1.412-2.72-1.904-4.185   c4.551-1.231,8.635-3.811,11.698-7.368C78.498,67.204,75.144,71.165,70.863,74.084z M57.529,74.084   c-0.774-1.323-1.412-2.72-1.904-4.185c2.625-0.71,5.094-1.869,7.302-3.406c0.017-0.008,0.03-0.021,0.045-0.032   c0.247-0.173,0.491-0.349,0.731-0.531c0.023-0.014,0.044-0.029,0.062-0.048c1.188-0.907,2.29-1.928,3.29-3.05   c0.015-0.012,0.026-0.027,0.038-0.042c0.076-0.086,0.155-0.171,0.23-0.258C65.163,67.204,61.81,71.165,57.529,74.084z    M53.056,62.409h0.328c-0.106,0.12-0.22,0.23-0.328,0.348V62.409z M52.951,63.654c0.018-0.014,0.034-0.03,0.047-0.048   c0.34-0.348,0.672-0.705,0.99-1.075c-2.16,4.672-5.514,8.633-9.794,11.552c-0.774-1.323-1.412-2.72-1.904-4.185   c1.204-0.326,2.376-0.743,3.504-1.251c0.009-0.003,0.018-0.007,0.027-0.012c1.322-0.597,2.584-1.317,3.771-2.144   c0.017-0.008,0.03-0.021,0.046-0.033C50.824,65.631,51.933,64.692,52.951,63.654z M46.784,67.561   c0.069-1.174-0.045-2.356-0.354-3.491c0.81,0.786,1.68,1.512,2.594,2.173C48.305,66.729,47.553,67.159,46.784,67.561z    M19.351,70.46c0.005,0,0.01,0.002,0.015,0.002l0.001,0c1.121,0.164,2.255,0.261,3.399,0.261c1.014,0,2.034-0.065,3.055-0.197   c5.817-0.749,11.036-3.572,14.828-7.989c-3.088,6.651-8.654,11.898-15.534,14.559h-9.098c-2.475-3.098-4.544-6.533-6.106-10.235   C12.789,68.755,15.999,69.967,19.351,70.46z M19.7,69.985c0.571-1.932,0.591-3.989,0.061-5.925   c2.501,2.428,5.515,4.272,8.817,5.395c-0.922,0.237-1.863,0.425-2.823,0.548C23.715,70.267,21.684,70.252,19.7,69.985z    M88.172,70.822c-1.22,1.205-2.552,2.294-3.97,3.262c-0.776-1.326-1.415-2.724-1.906-4.187c2.969-0.804,5.764-2.196,8.2-4.068   C89.822,67.547,89.051,69.217,88.172,70.822z M33.902,90.39h32.196C61.115,92.383,55.686,93.492,50,93.492   C44.314,93.492,38.885,92.383,33.902,90.39z"/></g><text x="0" y="115" fill="#000000" font-size="5px" font-weight="bold" font-family="'Helvetica Neue', Helvetica, Arial-Unicode, Arial, Sans-serif">Created by Vonn Weisenberger</text><text x="0" y="120" fill="#000000" font-size="5px" font-weight="bold" font-family="'Helvetica Neue', Helvetica, Arial-Unicode, Arial, Sans-serif">from the Noun Project</text></svg>