<svg id="layer1" xmlns="http://www.w3.org/2000/svg" viewBox="0 0 100 100"><defs><style>.cls-1{fill:#513419;}.cls-2{fill:#775638;}.cls-3,.cls-4{font-size:8.83px;font-weight:700;}.cls-3{fill:#c19a93;font-family:Poppins-Bold, Poppins;}.cls-4{fill:#f7f3f0;font-family:Poppins-SemiBold, Poppins;}</style></defs><title>icons</title><g id="Grandview"><path class="cls-1" d="M86.31,54a1.52,1.52,0,0,0-.21-1.19s-.55-.21-.41-.3a1.32,1.32,0,0,0,.43-.41c.63-.89-.19-1.49-1-1.83.32,0,.64.05.93,0a.2.2,0,0,0,.14-.06.19.19,0,0,0,.16-.2c0-.78.41-1.47.43-2.25a3.28,3.28,0,0,0-.44-1.72,7.05,7.05,0,0,1-1.18-2.7,4.76,4.76,0,0,1,.75-2.58A5.07,5.07,0,0,0,86.46,39a7.42,7.42,0,0,0-.06-1.25,1.43,1.43,0,0,0-.07-.59c-.2-.33-.53-.32-.89-.3a11.88,11.88,0,0,0-1.27.15c.35-.23.71-.43,1.07-.64s.94-.42,1.16-.89a.88.88,0,0,0-.18-1,.86.86,0,0,0-.73-.12c.32-.27.63-.53.49-1s-1.12-.71-1.52-.75a36.8,36.8,0,0,0-3.93,0c-1.49,0-3,0-4.46,0s-2.78-.06-4.18-.05c-.68,0-1.34.21-2,.25s-1.45,0-2.18,0c-2.75,0-5.49,0-8.24,0a.2.2,0,0,0-.13,0c-2,0-4.09,0-6.13.07s-3.95.48-5.94.6c-4.09.25-8.13.26-12.23.26h0c-1.11-.05-2.15-.3-3.28-.29H28.28A58.71,58.71,0,0,1,22,33.11,31.21,31.21,0,0,0,18.82,33a4.6,4.6,0,0,0-1.88.2c-1.59.71-1.25,2.47-1.21,3.88a3.22,3.22,0,0,0,1.1,2.45,1.11,1.11,0,0,0-.51.71c-.35,1.15.18,2.33-.17,3.48a6.86,6.86,0,0,0,.08,3.93,2,2,0,0,0,.58,1.11c.38.29.92.29,1.34.49-.23,0-.46,0-.69,0a2.22,2.22,0,0,0-.63.13.2.2,0,0,0-.3.06l0,.07a.2.2,0,0,0-.07.15,7.24,7.24,0,0,0-.5,2.32,8,8,0,0,0,.3,3.6c.11.3.26.68-.08.95a.69.69,0,0,0-.28.33,2.37,2.37,0,0,0,.08,1.07,2,2,0,0,0,1.18,1.26,3.65,3.65,0,0,1-.51.14.21.21,0,0,0-.09.35,3.8,3.8,0,0,0,1.59.84c-1,.24-1.92.36-2.4,1.5-.09.21-.42.76-.19,1a3,3,0,0,0,1.45.61c-.57.17-1.16.35-1.19,1.06a2.56,2.56,0,0,0,.62,2.22.22.22,0,0,0,.22.13.19.19,0,0,0,.13,0,17.61,17.61,0,0,1,2.41,0c.94,0,1.87,0,2.81,0a36.85,36.85,0,0,1,5.06.27c1.79.14,3.6.07,5.4.07s3.79.08,5.68.08a.19.19,0,0,0,.16-.08,15.22,15.22,0,0,0,2.46,0c1-.15,2-.57,3-.63,2.13-.12,4.29.05,6.43,0s4.38-.19,6.58-.19,4.29.1,6.44.12a.22.22,0,0,0,.21.08,20,20,0,0,1,2.94-.08c.93,0,1.86-.07,2.79-.11a27,27,0,0,1,5.76.18,40.31,40.31,0,0,0,5.32.73A14,14,0,0,0,85.28,67h0a.23.23,0,0,0,.27-.2c.08-.8.39-1.54.51-2.34a9.77,9.77,0,0,0-.17-2.21.22.22,0,0,0,0-.09.18.18,0,0,0-.13-.28l-1.41-.23a1.84,1.84,0,0,0,.82-.63,7.29,7.29,0,0,0,1-2.08C86.58,57.4,86.18,55.64,86.31,54Z"/><path class="cls-2" d="M85.87,58.08a4.61,4.61,0,0,1-.78,2.27,3.11,3.11,0,0,1-1.44,1.18h-.08a14.31,14.31,0,0,1-3.75,0c-1.5,0-3,0-4.5,0-3.15,0-6.29-.22-9.44-.22a.21.21,0,0,0,0,.42c3.15,0,6.29.22,9.44.22,1.58,0,3.15,0,4.73,0a15.14,15.14,0,0,0,3.49,0l.08,0c.63.06,1.24.18,1.87.28a10.17,10.17,0,0,1,.14,2.39c-.1.66-.35,1.28-.45,1.94h0a15.2,15.2,0,0,1-5.61.3c-1.89-.1-3.68-.63-5.54-.84a35.79,35.79,0,0,0-5.52,0c-1.55.07-3.14,0-4.68.11a.2.2,0,0,0-.11,0c-2.21,0-4.42-.11-6.64-.13s-4.39.12-6.58.19-4.31,0-6.46,0a9.31,9.31,0,0,0-2.59.49,12.76,12.76,0,0,1-3.42.18.19.19,0,0,0-.16.08c-1.81,0-3.62-.08-5.43-.08s-3.8.06-5.7-.1a36.59,36.59,0,0,0-5-.23c-.95.05-1.89,0-2.84,0a17.24,17.24,0,0,0-2.13,0c-.54-.37-.53-1.17-.51-1.76,0-.78,1-.78,1.53-1a.21.21,0,0,0,0-.36,6,6,0,0,0-1-.33c-.14,0-.85-.19-.79-.38s.15-.39.22-.58c.4-1.08,1.53-1.06,2.48-1.3a.2.2,0,0,0,.11,0c3.3-.09,6.59.27,9.88.28a.21.21,0,0,0,0-.42c-3.25,0-6.48-.36-9.73-.28l0,0c-.53-.32-1.21-.41-1.71-.76a2.54,2.54,0,0,0,.6-.26.21.21,0,0,0,0-.36c-.83-.41-1.35-.74-1.44-1.74,0-.36.3-.44.45-.7a1,1,0,0,0,0-.85,8.65,8.65,0,0,1,.07-5.86,8.8,8.8,0,0,0,1.93-.33h0a6.65,6.65,0,0,0,2.37.05c1.25-.14,2.49-.35,3.74-.51a39,39,0,0,1,8.11.12c2.6.2,5.21.08,7.82.17a21.61,21.61,0,0,0,6.86-.47.21.21,0,0,0-.11-.41,22.17,22.17,0,0,1-7,.45c-2.51-.08-5,0-7.53-.16a42.56,42.56,0,0,0-7.78-.16c-1.18.13-2.36.26-3.52.47a6.52,6.52,0,0,1-3,0h0c-.55-.42-1.35-.24-1.76-.91a5.84,5.84,0,0,1-.48-3.54c.07-.52.29-1,.38-1.51a6,6,0,0,0-.09-1.43c0-.52-.11-2,.77-1.72l.07,0a.16.16,0,0,0,.15,0c.53-.3,1.44,0,2,0,1.06.1,2.15,0,3.21,0,2,0,3.88.36,5.82-.08.26-.06.15-.47-.11-.41-2.17.5-4.42.05-6.62.06a22,22,0,0,1-2.84,0,3.23,3.23,0,0,0-1.52,0h0c-1.45-.47-1.38-2.28-1.48-3.5a2.36,2.36,0,0,1,.76-2.22,3,3,0,0,1,1.77-.31,40.61,40.61,0,0,1,4.64.3,42.3,42.3,0,0,0,5,.12h3.15a13,13,0,0,1,2,.08c.49.08,1,.18,1.46.21H35c4.11,0,8.17,0,12.27-.26,2-.14,4-.5,5.94-.6s3.81-.07,5.71-.07a.2.2,0,0,0,.13,0c2.47,0,4.95,0,7.42,0,1.25,0,2.49.06,3.73,0,.58,0,1.13-.2,1.71-.23s1.29,0,1.93,0c2.44,0,4.88.08,7.32.08a15.16,15.16,0,0,1,3.52.05c.44.11,1.23.33.68.87a5.48,5.48,0,0,0-.65.61.21.21,0,0,0,.18.32c.28,0,.55-.06.82-.09q.39.66-.12.88c-.18.11-.38.2-.56.3a10.15,10.15,0,0,0-1.69,1.08,5.7,5.7,0,0,0-1.5.51,13.94,13.94,0,0,1-2.91.53c-1.84.21-3.69.12-5.53.32a106.66,106.66,0,0,1-11.06.77.21.21,0,0,0,0,.42,107.06,107.06,0,0,0,11.06-.77c1.84-.2,3.69-.14,5.53-.32a21.69,21.69,0,0,0,2.16-.34A8.06,8.06,0,0,0,82.16,38c.32-.11.59-.29.91-.37a.22.22,0,0,0,.32,0l.05,0,1.8-.25c1-.13.8,1,.79,1.7,0,1.35-1.09,2.45-1.27,3.78a4.89,4.89,0,0,0,1.07,3.32,3.12,3.12,0,0,1,.52,2c0,.63-.35,1.19-.41,1.81a10.41,10.41,0,0,0-1.17,0l-.09,0a41.53,41.53,0,0,1-6.42-.17c-1-.15-1.9-.46-2.87-.56a27.7,27.7,0,0,0-3.07-.05.21.21,0,0,0,0,.42c.92,0,1.84,0,2.77,0,1.13.08,2.25.45,3.38.63a34.12,34.12,0,0,0,5.68.14.21.21,0,0,0,.14.13l.75.22c.62.2,1.15,1.07.43,1.51-.15.09-.44.26-.43.47s.07.4.28.45.52.09.55.2a2.49,2.49,0,0,1,0,.92C85.77,55.51,85.92,56.8,85.87,58.08Z"/><path class="cls-1" d="M29.54,61.26a37.11,37.11,0,0,0,5.51-.21,35.4,35.4,0,0,1,6.5-.09c4.2.18,8.43.18,12.63.18a.11.11,0,0,0,0-.21c-4.1,0-8.21,0-12.31-.17a40.26,40.26,0,0,0-6.22,0c-1,.11-1.92.28-2.89.33s-2.16,0-3.24,0a.11.11,0,0,0,0,.21Z"/><path class="cls-1" d="M24.24,64.2c.56.15.51,0,.93.24a1.43,1.43,0,0,0,.38.19,2.62,2.62,0,0,0,1,0,30.69,30.69,0,0,1,3.63-.2c1.21,0,2.35-.41,3.57-.34s2.32.26,3.47.39c.42,0,1.3.13,1.55-.36.13-.26,0-.42-.25-.54a1.21,1.21,0,0,0-1-.05c-.24.1-.13.35,0,.45s.22-.11.11-.18c-.27-.17.52-.1.54-.1.52.1.26.46-.13.58a5.31,5.31,0,0,1-1.94-.16,14.51,14.51,0,0,0-4.51-.06c-1.52.33-3.1.05-4.63.29a2.71,2.71,0,0,1-1.57,0c-.25-.11-.47-.29-.71-.42a.9.9,0,0,0-.9.1.11.11,0,0,0,0,.17.6.6,0,0,0,.37.2.11.11,0,0,0,.06-.2Z"/><path class="cls-1" d="M37.07,63.8q-.69-.66.05-.73a3.88,3.88,0,0,1,.76-.09,1.46,1.46,0,0,1,1.59,1.1c.09.23,0,1.05.34,1.16a8.36,8.36,0,0,0,2.49.05,34,34,0,0,0,3.45-.45,27.18,27.18,0,0,1,3.74-.33c1.23,0,2.45.08,3.68,0s2.29-.33,3.43-.48A30.08,30.08,0,0,1,60.48,64a.11.11,0,0,0,0-.21,27.93,27.93,0,0,0-4.22.11,26.8,26.8,0,0,1-4.63.45,36.16,36.16,0,0,0-4.37.08c-1.46.15-2.9.45-4.36.6a18.13,18.13,0,0,1-2.17.07l-.68,0c-.39,0-.3-.55-.33-.81a1.72,1.72,0,0,0-1.21-1.45,2.52,2.52,0,0,0-2,.31c-.44.44.12.89.56.88.14,0,.14-.21,0-.21Z"/><path class="cls-1" d="M54.25,62.74c-2.51,0-5,.29-7.52.41-1.15.05-2.31.09-3.46,0a8.62,8.62,0,0,1-2-.5,15,15,0,0,0-1.72-.35c-.13,0-.19.18-.06.2,1.17.19,2.28.64,3.44.82a19.31,19.31,0,0,0,3.46,0c2.62-.08,5.22-.41,7.85-.42a.11.11,0,0,0,0-.21Z"/><path class="cls-1" d="M30.39,62.57a24.31,24.31,0,0,1-4.91-.29A17.08,17.08,0,0,0,21.09,62c-.47,0-1.38.1-1.63.57s1,.48,1.13.51.19-.18.06-.2-.48,0-.72-.07q-.1-.38.22-.41a4.61,4.61,0,0,1,.48-.13,13.14,13.14,0,0,1,3.1-.08c1.07,0,2.11.38,3.17.5a30.94,30.94,0,0,0,3.49.06.11.11,0,0,0,0-.21Z"/><path class="cls-1" d="M17.95,65.81c2.79-.82,5.88,0,8.71.14A34.54,34.54,0,0,0,31,65.85a47.68,47.68,0,0,1,4.79.07.11.11,0,0,0,0-.21c-1.6,0-3.19-.2-4.79-.07a39.61,39.61,0,0,1-4.64.08c-2.77-.09-5.72-.93-8.46-.12a.11.11,0,0,0,.06.2Z"/><path class="cls-1" d="M71.38,65.08a16.44,16.44,0,0,1,3.25.08c.92.18,1.8.54,2.73.73a12.47,12.47,0,0,0,4.28.21c.36-.06,1.8-.47,1.22-1.14s-1.61,0-2.05.4a.1.1,0,0,0,0,.15c.33.28.62.07,1-.05a.11.11,0,0,0,0-.21,1.73,1.73,0,0,0-.43,0c-.12,0-.15.19,0,.21a.93.93,0,0,0,.88-.2.11.11,0,0,0,0-.18,1.39,1.39,0,0,0-1.15.06.11.11,0,0,0,0,.19l.16.05v-.2l-.44.05c-.14,0-.14.22,0,.21a1.88,1.88,0,0,0,.5-.06c.11,0,.09-.17,0-.2l-.16-.05,0,.19c.47-.28,1.36.13.26-.07l0,.21a1.73,1.73,0,0,1,.43,0l0-.21a6.66,6.66,0,0,0-.67.16,3.36,3.36,0,0,1,.67-.33,2.08,2.08,0,0,1,.6-.13q.57.46.1.67a1.89,1.89,0,0,1-.39.16A7.14,7.14,0,0,1,79.5,66a17.35,17.35,0,0,1-4.29-.86,12.14,12.14,0,0,0-3.83-.23.11.11,0,0,0,0,.21Z"/><path class="cls-1" d="M79.88,65.36a2.52,2.52,0,0,0,.74-.28,4.3,4.3,0,0,1,1.89-.49c.67,0,1.2.55,1.89.55a.11.11,0,0,0,0-.21c-.7,0-1.2-.52-1.89-.55-1,0-1.73.59-2.68.77-.13,0-.08.23.06.2Z"/><path class="cls-1" d="M70.65,58.57c1.26,0,2.52-.07,3.78,0s2.43.3,3.65.36,2.31-.18,3.48-.22a5.92,5.92,0,0,0,1.4-.17A6.61,6.61,0,0,1,84.63,58a.11.11,0,0,0,0-.21,2.21,2.21,0,0,0-.94.2,4.46,4.46,0,0,1-1.85.52c-1.16.06-2.3.26-3.46.24s-2.42-.27-3.64-.36-2.73,0-4.1,0a.11.11,0,0,0,0,.21Z"/><path class="cls-1" d="M73.6,55.95a9.52,9.52,0,0,0-3.18-.46c-1.15,0-2.24.42-3.4.41s-2.41-.07-3.62,0a18.45,18.45,0,0,1-1.91,0,3,3,0,0,1-.66-.12,1.7,1.7,0,0,1-.42-.19q.33-1.1.14-.33c-.13,0-.13.23,0,.21a.91.91,0,0,0,.64-.31.11.11,0,0,0,0-.15c-.26-.33-1.29-.4-1.22.22.09.9,1.52.89,2.16.91,1,0,1.91,0,2.86-.05s1.94.09,2.92,0,1.66-.34,2.52-.39a8.52,8.52,0,0,1,3.13.45c.13,0,.18-.16.06-.2Z"/><path class="cls-1" d="M61.94,55.37c.11-.93-.46-1.17-1.29-1.3-.65-.1-1.5-.36-2,.27s.11,1.29.63,1.58c.18.1,1.27.59.72,1a2.4,2.4,0,0,1-1.57.11,23.83,23.83,0,0,1-2.79-.48,17.33,17.33,0,0,1-2.12-1.05,5.61,5.61,0,0,0-1.66-.34c-1.77-.17-3.54-.37-5.31-.5s-3.42,0-5.12,0H35.83a.11.11,0,0,0,0,.21c3.17,0,6.34,0,9.5,0,1.6,0,3.16.3,4.75.43.7.06,1.4.07,2.1.14a6,6,0,0,1,2.46.9,11.23,11.23,0,0,0,3.79.93c.39.07,1.85.25,2-.4s-1-1-1.38-1.33a.76.76,0,0,1,.38-1.33,2.86,2.86,0,0,1,.81.07c.72.12,1.62.12,1.5,1.16,0,.13.19.13.21,0Z"/><path class="cls-1" d="M32.89,55.62c.66.57,1.89.34,2.71.4,1.5.12,3,.09,4.52.14,3.21.1,6.42.32,9.63.34a.11.11,0,0,0,0-.21c-2.78,0-5.55-.24-8.33-.3-1.41,0-2.82-.09-4.24-.1-.64,0-1.27-.05-1.91-.1s-1.75.11-2.25-.31c-.1-.09-.25.06-.15.15Z"/><path class="cls-1" d="M57.37,53.69c.45-.78,2.34-.75,3-.74,1,0,2.22-.27,3.13.18.4.2.46.71.83.9a2.19,2.19,0,0,0,1,.23c1.19.05,2.39,0,3.58.09a51.84,51.84,0,0,0,7.17-.07,19.84,19.84,0,0,0,3.24-.71c.58-.16,1.16-.3,1.75-.41a4.06,4.06,0,0,1,2.33.06c.11.08.22-.11.11-.18-.69-.46-2-.16-2.79,0-1.27.23-2.49.69-3.76.93a38.89,38.89,0,0,1-8.69.17c-.62,0-1.25-.06-1.87-.08-.82,0-1.77.21-2.32-.61a2,2,0,0,0-1.77-.74c-.44,0-.88.05-1.32.06a11.76,11.76,0,0,0-1.92,0c-.6.11-1.6.2-1.94.79a.11.11,0,0,0,.18.11Z"/><path class="cls-1" d="M61.66,58.64c-1.92,0-3.8.35-5.71.51A10.88,10.88,0,0,1,53,59c-.85-.16-1.73-.08-2.58-.24-.13,0-.19.18-.06.2.86.15,1.73.09,2.58.24a11.83,11.83,0,0,0,2.65.13c2-.11,4-.51,6-.53a.11.11,0,0,0,0-.21Z"/><path class="cls-1" d="M17.92,59c3.58,0,7.15-.22,10.73-.22a.11.11,0,0,0,0-.21c-3.58,0-7.15.22-10.73.22a.11.11,0,0,0,0,.21Z"/><path class="cls-1" d="M19.44,52.34a36.18,36.18,0,0,0,6.95-.41,17.4,17.4,0,0,1,6.9-.16c.13,0,.19-.17.06-.2a17.23,17.23,0,0,0-6.1,0,31.59,31.59,0,0,1-3.93.56c-1.29,0-2.58,0-3.87,0a.11.11,0,0,0,0,.21Z"/><path class="cls-1" d="M21.68,42.45q3,0,5.9.19c1.91.12,3.81.5,5.71.54.35,0,1.32.17,1.37-.36s-1.36-.5-1.67-.41a.11.11,0,0,0-.06.15.3.3,0,0,0,.23.16.11.11,0,0,0,.06-.2l-.06.06a2.52,2.52,0,0,1,.48,0h.19q.45-.08.45.4a2.88,2.88,0,0,1-.91,0c-1.19,0-2.35-.23-3.52-.36a73.44,73.44,0,0,0-8.17-.37.11.11,0,0,0,0,.21Z"/><path class="cls-1" d="M32.4,42.4c0-.63,1.74-.73,2.11-.76l.79-.06c.26,0,.87-.11.92.33a.79.79,0,0,0,.08.38,1.53,1.53,0,0,0,1.37.51c1.17,0,2.36-.16,3.52-.21,2.75-.11,5.5-.05,8.25,0a68.24,68.24,0,0,0,8.12-.11c.13,0,.13-.23,0-.21a72.9,72.9,0,0,1-8.78.1c-3.08,0-6.15-.06-9.22.11-.83,0-3,.61-3.15-.68-.07-.61-1.11-.39-1.47-.37-.6,0-2.82.05-2.76,1,0,.13.22.14.21,0Z"/><path class="cls-1" d="M21,47l-.34-.08s-1.07-.34-.52-.53a4.1,4.1,0,0,1,1.67,0,11.91,11.91,0,0,0,3.34-.16c2.5-.43,5.07.24,7.59.37s5,.11,7.56.11c1.14,0,2.29,0,3.43.07s2.48.41,3.75.43a.11.11,0,0,0,0-.21c-1.16,0-2.29-.27-3.44-.4a31.67,31.67,0,0,0-3.74-.1c-2.52,0-5,0-7.56-.11-1.29-.06-2.57-.17-3.85-.35A11.18,11.18,0,0,0,25.68,46a17.71,17.71,0,0,1-3.59.29,4.18,4.18,0,0,0-2.46.14.11.11,0,0,0,0,.14,1.87,1.87,0,0,0,1.34.67c.13,0,.19-.17.06-.2Z"/><path class="cls-1" d="M41.61,45.36a6.62,6.62,0,0,1,2.83-.26c1.18,0,2.36.06,3.53.13s2.27.29,3.42.36,2.39.06,3.59.06c2.26,0,4.56-.12,6.82,0,.49,0,.82-.08,1-.55s-.49-.39-.67-.37-.14.22,0,.21q.11.6-.32.5l-.37,0c-.38,0-.77,0-1.15,0h-3c-2,0-3.94,0-5.9-.06-.94,0-1.86-.2-2.79-.31s-1.91-.1-2.86-.14c-1.32-.06-3-.33-4.23.24-.12.06,0,.24.11.18Z"/><path class="cls-1" d="M61.57,44.84c.75-.61,1.3-.33,2,.05a5.84,5.84,0,0,0,1.15.44,10.17,10.17,0,0,0,3.19.11c2.48-.14,4.93-.55,7.42-.57a.11.11,0,0,0,0-.21c-2.81,0-5.58.52-8.39.61a6.82,6.82,0,0,1-3.74-.82,1.45,1.45,0,0,0-1.81.24c-.11.09,0,.23.15.15Z"/><path class="cls-1" d="M85.58,48.42a15.82,15.82,0,0,1-3.69-.56,8.46,8.46,0,0,0-3.29-.07c-2.68.46-5.52.12-8.23.24s-5.45.35-8.16.67A70.57,70.57,0,0,1,54,49a.11.11,0,0,0,0,.21,75.62,75.62,0,0,0,8.19-.34c2.72-.3,5.43-.53,8.16-.67,2.53-.12,5.17.2,7.68-.14a11,11,0,0,1,4.07,0,14.76,14.76,0,0,0,3.46.51.11.11,0,0,0,0-.21Z"/><path class="cls-1" d="M66.94,41.83c2.73,0,5.44-.38,8.17-.36,1.28,0,2.55,0,3.83.08a18.52,18.52,0,0,0,3.52-.68c.13,0,.08-.22-.06-.2a19.32,19.32,0,0,1-3.77.67c-1.29,0-2.58-.07-3.87-.08-2.62,0-5.22.34-7.83.36a.11.11,0,0,0,0,.21Z"/><path class="cls-1" d="M81.52,35.31a4.45,4.45,0,0,1-2,.76,10.1,10.1,0,0,1-2.79.5c-1.76,0-3.51-.2-5.28-.05-.91.08-1.82.3-2.73.4s-1.89.14-2.84.15l-1.56.05a3.82,3.82,0,0,1-.71,0q-.21,0-.11-.24a1.06,1.06,0,0,1,1.26-.11c.09.1.24,0,.15-.15-.51-.55-2.11.21-1.63.58s1.08.15,1.51.13c1.1-.07,2.21,0,3.31-.12,1.32-.1,2.61-.42,3.94-.5a38.52,38.52,0,0,1,3.85.08,10.34,10.34,0,0,0,3.41-.4,5.33,5.33,0,0,0,2.34-.9c.1-.1-.05-.24-.15-.15Z"/><path class="cls-1" d="M63.29,35.56a2.78,2.78,0,0,0-1.92.69,6,6,0,0,1-3.37.91,74.8,74.8,0,0,1-7.54-.24c-2.51-.09-5-.11-7.53-.12a19,19,0,0,0-3.4.21,23.18,23.18,0,0,1-4.15.12.11.11,0,0,0,0,.21c1.18,0,2.36.05,3.53,0S41.35,37,42.61,37c2.62,0,5.24.05,7.86.12,2.42.06,4.81.33,7.23.26a9.64,9.64,0,0,0,2.91-.44c1-.36,1.52-1.21,2.69-1.16.14,0,.14-.21,0-.21Z"/><path class="cls-1" d="M62.11,34.76c.7,0,1.4-.08,2.11-.08a7.23,7.23,0,0,1,2.3.55,15,15,0,0,0,4.41.33,40.71,40.71,0,0,0,10.14-.85.11.11,0,0,0-.06-.2,40.5,40.5,0,0,1-10.08.84,14.26,14.26,0,0,1-4.9-.51,10.36,10.36,0,0,0-3.92-.28.11.11,0,0,0,0,.21Z"/><path class="cls-1" d="M18,35.42c1.1-.62,2.5-.34,3.69-.26,1.48.11,3,.15,4.45.31a23,23,0,0,0,4.4,0c.75-.06,1.48-.11,2.23-.11a15,15,0,0,1,2-.12c.13,0,.13-.19,0-.21a13.13,13.13,0,0,0-2,.12c-.85,0-1.69.07-2.54.14a26.06,26.06,0,0,1-4.72-.05C24,35,22.5,35,21,34.89a5.29,5.29,0,0,0-3.06.34.11.11,0,0,0,.11.18Z"/><path class="cls-1" d="M22,38.58a33.54,33.54,0,0,1,4.78.21c1.46.21,2.84.68,4.32.77s3.15-.22,4.72-.2c1.75,0,3.46-.25,5.21-.27a.11.11,0,0,0,0-.21c-1.63,0-3.25.32-4.89.28s-3.15.17-4.73.2a30.83,30.83,0,0,1-4.88-.81A32,32,0,0,0,22,38.37a.11.11,0,0,0,0,.21Z"/><text class="cls-3" transform="translate(25.24 47.13)">GRANDVIEW<tspan x="0.71" y="10.6">WOODLAND</tspan></text><text class="cls-4" transform="translate(25.48 47.31)">GRANDVIEW<tspan x="0.5" y="10.6">WOODLAND</tspan></text></g></svg>