<svg id="layer1" xmlns="http://www.w3.org/2000/svg" viewBox="0 0 100 100"><defs><style>.cls-1{fill:#323844;}.cls-2{fill:#3a404f;}.cls-3{fill:#3f4454;}.cls-4{font-size:7.58px;fill:#fccbaa;font-family:Poppins-Regular, Poppins;}</style></defs><title>icons</title><g id="victoriaFraserview"><path class="cls-1" d="M34.63,55.09a1.22,1.22,0,0,1-.35,0c0-.13.08-.17.15-.29.2-.35.44-.71.64-1.06l1.61-2.64a13,13,0,0,1,1.11-1.71,7,7,0,0,1,1.5-1.09,4,4,0,0,0,1.23-1.14c.27-.37.55-.74.84-1.09a10.36,10.36,0,0,1,1.24-1.48c.82-.72,1.56-1.51,2.32-2.3a8.06,8.06,0,0,1,2.24-1.68c.87-.44,1.61-1.06,2.45-1.53.64-.35,1.19-.79,1.82-1.14a18.92,18.92,0,0,0,2-1,5.82,5.82,0,0,0,1.41-1.08,6.57,6.57,0,0,1,1-1c.54-.5.81-1.21,1.34-1.71.22-.2.39-.24.55-.49a2,2,0,0,0,.37-.66c.13,0,.24-.35.32-.4a.53.53,0,0,1,.37-.08c.18,0,.42-.05.55.08s.08.34.08.52a1.28,1.28,0,0,0,0,.5,4.59,4.59,0,0,0,.35.5,4.92,4.92,0,0,1,.22.71,9.31,9.31,0,0,0,.12,1c.13.4.37.45.64.74a1.72,1.72,0,0,1,.24.37c.18.37.4.37.71.61a7.92,7.92,0,0,1,.72.89,11.66,11.66,0,0,1,1,1.21,3.59,3.59,0,0,0,.61.82c.32.27.74.29,1.06.57a11.07,11.07,0,0,1,1.08.87c.27.29.5.55.76.86a1.92,1.92,0,0,0,.61.44,2.42,2.42,0,0,1,.91,1.38,3.6,3.6,0,0,0,.54.92c.24.29.49.55.72.84a9.39,9.39,0,0,0,.66.89c.4.39,1,.39,1.4.81s.66.59,1,.89a1.88,1.88,0,0,0,.79.55c.24.07.45,0,.69.08s.25.12.4.08.44-.17.66-.22c.42-.08,1.29.15,1.6-.12.08-.07.15-.34.2-.44A5.32,5.32,0,0,1,77.6,47a10.87,10.87,0,0,1,.79-1,1.69,1.69,0,0,1,.34-.27c.08-.07.27-.32.37-.32s.25.24.35.35a1.86,1.86,0,0,1,.37.5c.08.17.13.4.24.57a2.52,2.52,0,0,0,.45.49,2.84,2.84,0,0,0,.52.22c.29.15.42.64.61.92a6.25,6.25,0,0,0,.94,1.06,21,21,0,0,1,2,2.66c.3.39.74,1,1.23,1.21s.94.05,1.34.4.89.92,1.34,1.41c.22.24.49.4.71.62-.18,0-.25.08-.39.15a8.93,8.93,0,0,1-.92.39,26.28,26.28,0,0,1-3.33,1,12,12,0,0,0-2.17.5c-.66.25-1.24.67-1.88,1-.87.4-1.82.61-2.67,1a21.41,21.41,0,0,1-2.25,1.09,14.64,14.64,0,0,1-6.44.66c-2.07-.15-4.1.07-6.17,0-1.29-.05-2.57-.2-3.87-.22A13.91,13.91,0,0,1,56.54,61a21.8,21.8,0,0,0-2.34-.15c-.74-.08-1.45-.22-2.19-.24a13.66,13.66,0,0,0-1.85.12,7.18,7.18,0,0,1-2.47-.2c-.64-.17-1.23-.49-1.88-.64A11.66,11.66,0,0,0,43,59.68,3.6,3.6,0,0,1,41,59.31c-.54-.3-1-.66-1.58-.94s-1-.91-1.65-1.24c-.39-.2-.82-.35-1.23-.55-.13-.07-.37-.12-.49-.18s-.13-.17-.24-.22-.42-.2-.62-.34C34.9,55.51,34.63,55.48,34.63,55.09Z"/><path class="cls-1" d="M35.58,55.22l.29.15.3.15a1.38,1.38,0,0,1,.27.24l.12,0,.29.1c.15.07.32.15.5.22a7.44,7.44,0,0,1,.76.34,4.88,4.88,0,0,1,1,.71,4.13,4.13,0,0,0,.71.54l.86.5.72.44a2.9,2.9,0,0,0,1.61.3,11.28,11.28,0,0,1,3,.25,6.72,6.72,0,0,1,1.08.35c.29.1.55.22.82.29a6.15,6.15,0,0,0,2.27.18h.07c.35,0,.71-.07,1.06-.08a2.56,2.56,0,0,1,.27-.71,5.15,5.15,0,0,1,.35-.49c.3-.39.52-.84.86-1.19s.69-.71,1-1a1.6,1.6,0,0,1,.61-.45,18.17,18.17,0,0,0-2.52.34c-.47.1-1,.1-1.43.18a1.59,1.59,0,0,0-.39.08c.3-.29.44-.77.72-1.08s.47-.37.69-.57a9.19,9.19,0,0,1,1-.86A6.34,6.34,0,0,1,55.48,53a14.33,14.33,0,0,0,1.46-.13c.55-.1,1-.44,1.51-.59a9.74,9.74,0,0,0,2.12-1.09,10.89,10.89,0,0,1,4.13-1.46c.76-.05.74-.91,1.21-1.34a8.55,8.55,0,0,1,1.4-.89c.42-.25.77-.52,1.16-.81a1.24,1.24,0,0,1,.47-.24,4.19,4.19,0,0,0-1.21.15c-.39.12-.79,0-1.18.12-.1,0-.07.1-.2.1s-.2-.15-.27-.25c-.24-.37-.39-.86-.59-1.26a3.44,3.44,0,0,1-.4-1.14,2.07,2.07,0,0,0-.18-1.11c-.22-.34-.44-.42-.44-.86a5.9,5.9,0,0,0,.1-1.33,1.48,1.48,0,0,0-.34-.62c-.17-.2-.22-.18-.45-.24a4.32,4.32,0,0,1-.82-.44c-.55-.27-1.16,0-1.73-.15,0,0,0-.3,0-.34a4,4,0,0,1-.39-.37,1,1,0,0,0-.25-.2,1,1,0,0,0-.55-.29,6,6,0,0,1-.13-.82c0-.39.1-.72.12-1.09s-.15-.47-.35-.72-.24-.32-.37-.47-.49-.25-.59-.42,0-.62.1-.82A4,4,0,0,0,59,32.8a1.34,1.34,0,0,1-.07-.66v-.08h0a1.58,1.58,0,0,1-.17.24,1.6,1.6,0,0,1-.29.47l-.08.13a1.58,1.58,0,0,1-.5.5.52.52,0,0,0-.15.12,4.31,4.31,0,0,0-.57.74,5.18,5.18,0,0,1-.77,1l-.29.25a5.17,5.17,0,0,0-.67.69,3.78,3.78,0,0,1-1.09.91c-.15.1-.3.18-.44.29a5.39,5.39,0,0,1-1.31.67,8.59,8.59,0,0,0-.79.35c-.27.15-.54.34-.81.52s-.66.44-1,.64a12.33,12.33,0,0,0-1.06.67,10.78,10.78,0,0,1-1.43.87,7.45,7.45,0,0,0-2.07,1.56c-.1.12-.22.22-.32.34-.64.67-1.31,1.36-2,2a6,6,0,0,0-.84,1c-.1.13-.2.29-.32.42-.29.35-.55.72-.82,1.08a4.57,4.57,0,0,1-1.38,1.29l-.37.24a4.39,4.39,0,0,0-1,.76A8.87,8.87,0,0,0,37.48,51l-.24.4c-.49.82-1,1.68-1.61,2.64l-.2.32-.15.24V55l.07,0A1,1,0,0,0,35.58,55.22Z"/><path class="cls-1" d="M79.14,46.3l-.05-.05a.35.35,0,0,1-.1.07c-.07.05-.08.05-.12.1l-.07.08a10.75,10.75,0,0,0-.69.84,4.24,4.24,0,0,0-.4.71.28.28,0,0,1,0,.08,1.25,1.25,0,0,1-.3.52,1.87,1.87,0,0,1-1.45.29c-.15,0-.37,0-.45,0a.5.5,0,0,0-.18.07,1.79,1.79,0,0,1-.5.15.92.92,0,0,1-.54-.08l-.07,0A.89.89,0,0,0,74,49a2.11,2.11,0,0,1-.52-.07,2.2,2.2,0,0,1-.92-.59l.27.3a2.3,2.3,0,0,0,.39.42,3.58,3.58,0,0,0,.55.18c.42.17.64.57,1,.84a2.87,2.87,0,0,1,.69.86,5.88,5.88,0,0,0,.4.5c.34.47.72.89,1,1.36a4.45,4.45,0,0,1,.72,1.63c.2-.05.05-.32.08-.49a1.25,1.25,0,0,1,.22-.35,4.84,4.84,0,0,0,.4-.77c0-.08.05-.24.13-.29s.15,0,.22,0A3,3,0,0,0,79,52.4c.24-.18.45-.4.71-.57s.84-.37,1.23-.59.45-.35,0-.47c-.15,0-.29,0-.44-.05s-.08-.08-.13-.1a1.76,1.76,0,0,0-.42,0,2.07,2.07,0,0,0-.79.07c-.22.08-.32.2-.57.18.27-.18.44-.52.69-.74a2.79,2.79,0,0,1,.69-.5c.32-.15.4-.4,0-.61s-.27-.12-.37-.42a5,5,0,0,1-.13-.72c-.07-.4-.32-.74-.35-1.14a1.77,1.77,0,0,1,0-.44Z"/><path class="cls-2" d="M63.18,56.25a11.85,11.85,0,0,1-1.79,0c-.24,0-.5-.14-.75-.2a6.24,6.24,0,0,1-1.05-.23,2.19,2.19,0,0,0-.81-.18,2.05,2.05,0,0,1-1.1-.54A14.8,14.8,0,0,1,56,53.71a5.49,5.49,0,0,0-1.2-.93c-.41-.24-.68-.54-1.08-.75-.86-.44-1.68-.89-2.58-1.25a25.64,25.64,0,0,0-3-.69,5.72,5.72,0,0,1-2.4-1.77c-.42-.39-.92-.71-1.37-1.07A12.22,12.22,0,0,0,43,46.52c-.47-.29-.93-.51-1.41-.78a7.22,7.22,0,0,1-1.32-1c-.44-.38-.89-.72-1.32-1.08s-1.2-.75-1.52-1.32c-.21-.39-.51-.65-.74-1a11.07,11.07,0,0,0-.68-1.16,5.15,5.15,0,0,0-1-.92c-.3-.24-.59-.53-.9-.75a1.89,1.89,0,0,1-.65-.6,4.39,4.39,0,0,0-.26-.54,1.18,1.18,0,0,0-1.2-.54c-.36.12-.68.59-1,.75a4.81,4.81,0,0,0-.65.26c-.26.18-.29.42-.38.71a4.14,4.14,0,0,1-.83,1.59c-.21.23-.5.36-.71.59s-.41.44-.63.63a6.9,6.9,0,0,1-.87.6c-.2.12-.68.65-.89.71,0,0,0-.08,0-.12-.65-.06-.65-.81-1.17-.93a7.45,7.45,0,0,1-.84,1.7c-.81.87-1.64,1.74-2.48,2.6-.38.39-.89.45-1.32.74a3.88,3.88,0,0,0-1,1.55c-.24.47-.6.8-.83,1.26s-.6.66-.87,1.08a3.27,3.27,0,0,1-.92,1,2.14,2.14,0,0,0-.89,1.11c-.09.38,0,.56-.32.89a.87.87,0,0,1-.6.38,1.92,1.92,0,0,0-.51,0c-.14,0-.26.21-.39.29-.35.23-.71.14-1.13.15s-.42.18-.59.6a1.23,1.23,0,0,1-.68.72c-.39.11-.56,0-.89.33-.59.5-.86.2-1.49-.06A3.07,3.07,0,0,0,7.27,56a4.2,4.2,0,0,1-1.61.21.17.17,0,0,1,.09.17,2.62,2.62,0,0,0,.41,1.5c.3.44.89.57,1.05,1.08a5.12,5.12,0,0,0,.21.83c.14.29.36.41.57.63s.39.54.59.78c.33.41.69.8,1,1.2.44.56,1.08.11,1.64.12a9.41,9.41,0,0,1,3.62.3,2.35,2.35,0,0,0,2,.17,4.3,4.3,0,0,1,1.8-.62c.8,0,1.29.45,2.06.59a9.9,9.9,0,0,0,2.28-.29c1.19-.08,2.39,0,3.57,0h2a7.68,7.68,0,0,1,2.09.35,15.05,15.05,0,0,0,3.77.11c.38,0,.78,0,1.16,0s.72.15,1.08.17a11.61,11.61,0,0,0,2.87-.42,8.72,8.72,0,0,1,3.89,0,10.52,10.52,0,0,0,2.06-.08,4.79,4.79,0,0,0,1.91-.29c.2-.09.38-.23.59-.32a2.65,2.65,0,0,1,1.23-.14,6,6,0,0,0,1,0,2.34,2.34,0,0,1,.72-.12c.51,0,1,.26,1.52.32a5.82,5.82,0,0,0,.89,0c.18,0,.38,0,.56,0a7.3,7.3,0,0,1,.83.17c.51.08.93-.21,1.41-.18s.92.77,1.4.63.69-.77,1-1A9.92,9.92,0,0,0,60,60.62c.45-.48.74-1.05,1.16-1.55a8.68,8.68,0,0,0,1.16-1.31,3.68,3.68,0,0,1,.75-1C63.36,56.61,63,56.5,63.18,56.25Z"/><path class="cls-2" d="M35.41,60.32a6,6,0,0,0-1.52.6,6.49,6.49,0,0,0-.68.77,4.81,4.81,0,0,1-.92.65l-.18.11,1.19,0,1.07,0h0l.39,0,.45,0a2.89,2.89,0,0,1,.36,0,6.36,6.36,0,0,1,.63.09l.45.08a8.08,8.08,0,0,0,2.18-.3c.17,0,.33-.08.5-.11a9.31,9.31,0,0,1,4.22.06,2.26,2.26,0,0,0,.95,0,4.65,4.65,0,0,1,.95-.08A4,4,0,0,0,47,61.85l.21-.12a1.9,1.9,0,0,1,.39-.21A3.27,3.27,0,0,1,49,61.31h.33a3.39,3.39,0,0,0,.69,0l.18,0a2.28,2.28,0,0,1,.72-.09,4.12,4.12,0,0,1,1,.2,4.45,4.45,0,0,0,.57.14,4.17,4.17,0,0,0,.44,0l.35,0h.6a3.2,3.2,0,0,1,.66.11l.26.06a1.18,1.18,0,0,0,.47-.08,3,3,0,0,1,.87-.12,2,2,0,0,1,1.05.48,1.3,1.3,0,0,0,.15.11l.2-.24a2.62,2.62,0,0,1,.56-.6l.44-.3a6.5,6.5,0,0,0,1-.78,6.93,6.93,0,0,0,.54-.72,5.82,5.82,0,0,1,.6-.8c.15-.18.32-.33.47-.48a2.84,2.84,0,0,0,.6-.71A3.78,3.78,0,0,1,62,57a5.8,5.8,0,0,1-.72,0c-.2,0-.39-.09-.57-.14l-.23-.06a1.86,1.86,0,0,0-.33-.06,2.66,2.66,0,0,1-.84-.21,1.23,1.23,0,0,0-.53-.12h-.06a2.8,2.8,0,0,1-1.44-.66l0,0a14.42,14.42,0,0,1-1.76-1.49,4.92,4.92,0,0,0-1.05-.83c-.21-.14-.39-.27-.56-.39a2.29,2.29,0,0,0-.48-.33l-.59-.3c-.66-.33-1.28-.65-1.94-.92a8.09,8.09,0,0,0-1.73-.41c-.41-.08-.83-.15-1.25-.26a5,5,0,0,1-2.3-1.53l-.42-.42a8.86,8.86,0,0,0-.78-.62c-.18-.14-.36-.27-.54-.42a3.92,3.92,0,0,0-.62-.36,5,5,0,0,1-.62-.33c-.32-.2-.65-.38-1-.56l-.38-.2a6.09,6.09,0,0,1-1.22-.9l-.24-.21L39,44.6l-.48-.39a3.64,3.64,0,0,0-.44-.32,3.65,3.65,0,0,1-1.26-1.23,3.18,3.18,0,0,0-.3-.42,4.16,4.16,0,0,1-.44-.6c-.08-.12-.14-.24-.2-.36a6.51,6.51,0,0,0-.42-.72,4.56,4.56,0,0,0-.84-.77c-.14-.11-.27-.23-.41-.35a4.94,4.94,0,0,0-.47-.39L33.65,39a2.52,2.52,0,0,1-.75-.75,1.34,1.34,0,0,1-.15-.35l-.08-.17a.56.56,0,0,0-.35-.24,1.72,1.72,0,0,0-.29.24,3.14,3.14,0,0,1-.65.48s0,0-.08,0l.15.08a5.69,5.69,0,0,1,.63.27c.24.15.44.42.75.45.17.23.35.75.51,1s.72.92.66,1.26c-.39-.27-.72.33-.71.74.27.06.35,0,.54.21s.11.27.18.5.26.29.32.51,0,.26,0,.38.09.17.12.26c.18.51.29.72-.26.93a3.45,3.45,0,0,0-1.08,1c-.5.53-1,1.11-1.46,1.65a17.18,17.18,0,0,1-1.13,1.41,2.32,2.32,0,0,1-.95.54c-.39.11-.9,0-1.32,0a3.92,3.92,0,0,0-1.34.27c.18.2.5.23.72.33l1.35.68a5.85,5.85,0,0,0,2,.63c.6.08,1.53-.62,1.56.36a3,3,0,0,0,.08.9c.09.27.26.54.36.78-.23.33-1,.29-1.13.68.26.26.74,0,.71.56,0,.32-.38.59-.14.87a1.24,1.24,0,0,0,.32.14,2.26,2.26,0,0,0,.38.23c.29.12.62.2.93.3s.93.14,1.37.26.59.29.59.75a3.38,3.38,0,0,1-.12,1,5.34,5.34,0,0,0,0,1.47C35.84,60.11,35.81,60.17,35.41,60.32Z"/><path class="cls-2" d="M14.43,54.79a2,2,0,0,1-1.28.27h-.11l0,.14a1.92,1.92,0,0,1-1.17,1.16,2.59,2.59,0,0,1-.36.08c-.17,0-.17,0-.24.11a1.61,1.61,0,0,1-2,.18A2.13,2.13,0,0,0,9,56.59a2.74,2.74,0,0,0-1.44.17,5.46,5.46,0,0,1-.92.21,1.33,1.33,0,0,0,.23.53,2.17,2.17,0,0,0,.32.27,2,2,0,0,1,.83,1c0,.15.08.3.11.44a1,1,0,0,0,.08.29c0,.08.09.12.21.23l.23.21a7,7,0,0,1,.44.56,2.35,2.35,0,0,0,.21.29c.12.15.26.3.39.45s.42.5.63.75c.08,0,.24,0,.35-.06a3.32,3.32,0,0,1,.72-.11l.6,0c.2-.21.42-.39.63-.6a.76.76,0,0,1,.6-.3,3.17,3.17,0,0,0,.54,0c.06,0,.08-.11.15-.11.35,0,.68.2,1.07.11a1.84,1.84,0,0,1,.5-.12,2.42,2.42,0,0,0,.66,0c.78-.2,1-.87,1.19-1.56a3.13,3.13,0,0,0,.06-.53c0-.14.14-.21.17-.36a1,1,0,0,0-.23-.83c-.26-.38-.2-.48.15-.81.17-.15.35-.33.53-.47A12.1,12.1,0,0,1,19,55.57a3.86,3.86,0,0,0,.95-.83c.21-.23.56-.42.36-.81s-.59-.45-.81-.63-.81-.63-.81-.87.3-.44.41-.57a7,7,0,0,0,.48-.8,3.37,3.37,0,0,1,.87-.86c.35-.3.12-.81.2-1.22a12.73,12.73,0,0,1,.27-1.85v0l-.18.09a2.35,2.35,0,0,0-.54.87c-.06.14-.12.27-.18.39a6,6,0,0,1-.47.72,4.48,4.48,0,0,0-.35.53,3,3,0,0,1-.62.83,2.06,2.06,0,0,0-.3.35,3.72,3.72,0,0,1-1.11,1.16,1.69,1.69,0,0,0-.6.66,1,1,0,0,0,0,.21,1.68,1.68,0,0,1-.45,1,1.52,1.52,0,0,1-1.08.62,2.4,2.4,0,0,1-.33,0A.94.94,0,0,1,14.43,54.79Z"/><path class="cls-2" d="M24.06,54.49l0,.08S24.07,54.49,24.06,54.49Z"/><path class="cls-2" d="M20.84,62.22a2.84,2.84,0,0,0,1.08-.12,6.87,6.87,0,0,1,1-.18.73.73,0,0,0,.18,0,5.43,5.43,0,0,1,0-.86,5.74,5.74,0,0,1,.27-.77c.18-.56.14-1.25.56-1.65s.51-.18.53-.66a4.52,4.52,0,0,0,0-.9c-.08-.5-.26-1-.35-1.53a2.39,2.39,0,0,1-.11-1c-.06.12-.18.35-.15.35a7.39,7.39,0,0,1-1.65,3.89,9.14,9.14,0,0,1-.92,1.34,4.35,4.35,0,0,0-.44.29,4.13,4.13,0,0,0-.29.42,2.46,2.46,0,0,1-.69.41,4.45,4.45,0,0,0-.62.42,5.69,5.69,0,0,1,.86.3A3.83,3.83,0,0,0,20.84,62.22Z"/><path class="cls-3" d="M92.25,50.58a4.15,4.15,0,0,0-1.07-.89,2.68,2.68,0,0,0-1.47-.17,2.8,2.8,0,0,1-.73.08,1.49,1.49,0,0,1-.73-.39c-.47-.35-.9-.77-1.39-1.09s-.81-.64-1.22-1-.69,0-1,0-.5-.35-.69-.48a1.63,1.63,0,0,0-.5-.3,1.67,1.67,0,0,1-.89-.29,7.36,7.36,0,0,1-.72-.84,8.81,8.81,0,0,0-.66-.9,7.14,7.14,0,0,1-1.34-1.55c-.1-.2,0-.43-.1-.63a.87.87,0,0,0-.34-.41,5.1,5.1,0,0,0-.66-.54c-.14-.08-.34-.05-.48-.13s-.12-.13-.2-.18c-.29-.18-.66,0-.93-.25a1.36,1.36,0,0,1-.39-.64c-.16-.42-.26-.52-.73-.45-.14,0-.9.42-.93.25,0,0,0,.05,0,.08l-.16,0c0,.26-.21.38-.39.54s-.3.54-.52.77a14.27,14.27,0,0,1-1.15,1,2.05,2.05,0,0,1-.5.46c-.12.07-.25.08-.37.16a9.71,9.71,0,0,0-.81.64,4.15,4.15,0,0,1-.73.43c-.2.12-.42.13-.59.25s-.29.41-.43.59-.46.34-.64.59a4.77,4.77,0,0,0-.46.68c-.08.14-.18.38-.37.39s-.16-.08-.22-.09-.12.05-.22.07a1,1,0,0,0-.75.48c-.2.28-.33.66-.54.89s-.45,0-.63.22-.09.72-.08,1c-.17-.24-.54-.21-.67-.45,0-.08,0-.17,0-.25s-.08-.16-.09-.25.05-.28-.05-.39c-.24-.28-.76-.25-1-.48a2,2,0,0,0-.55-.29,6.66,6.66,0,0,0-.66-.39,2.25,2.25,0,0,0-.59-.21,1.87,1.87,0,0,1-.47-.08c-.3-.07-.51.09-.79.16a4.91,4.91,0,0,1-.76,0,3.89,3.89,0,0,0-1.27.5,1.62,1.62,0,0,0-.56.21c-.14.13-.25.34-.51.37s-.31-.41-.39-.54-.13-.31-.34-.39c-.39-.16-.86-.2-1.27-.34a12.09,12.09,0,0,0-1.47-.5,5.94,5.94,0,0,1-1.36-.24c-.3-.14-.46-.45-.75-.58a3,3,0,0,0-.76-.22,2.33,2.33,0,0,0-.85.08,1.52,1.52,0,0,1-1-.39,2.9,2.9,0,0,0-.84-.5c-.25,0-.2.07-.3.2a1.32,1.32,0,0,1-.51.29,7.56,7.56,0,0,0-1.22.71,4.2,4.2,0,0,0-1.49,1.74,6.79,6.79,0,0,1-1.43,1.57,6.34,6.34,0,0,1-1.31,1.21c-.38.25-.66.69-1,.9s-.76-.33-1.15-.25-.37.45-.76.37c-.08,0-.13-.09-.22-.09s-.13.07-.2.09-.46.05-.68.09-.45,0-.67,0a2.13,2.13,0,0,1-.56.1c-.16,0-.28-.09-.43-.1a.83.83,0,0,1-.6-.18,2.45,2.45,0,0,0-.68-.42,12.26,12.26,0,0,1-1.19-.31c-.08,0-.34-.16-.35-.22l.09,0c-.18,0-.6-.1-.75,0-.58.35-.76,1.19-1,1.78a8.09,8.09,0,0,0-.79,2.19,3.13,3.13,0,0,1-.45,1.6,9.2,9.2,0,0,0-.64.94,5.57,5.57,0,0,0-.48,1.65,2.09,2.09,0,0,0,.9,2.15,2.71,2.71,0,0,0,.86.34,2.26,2.26,0,0,1,1,.24c.75.51,1,1.48,1.76,2a2,2,0,0,0,1,.47c.22,0,.43,0,.66,0a6.23,6.23,0,0,0,1.21.18l1.62.07c1.22.08,2.45,0,3.67,0a9.56,9.56,0,0,1,1.06,0,10.06,10.06,0,0,1,2,.56,3.25,3.25,0,0,0,1.06.1c.52,0,1,.09,1.56.1a3.13,3.13,0,0,0,1.1-.12,10.47,10.47,0,0,1,1.81-.47,18.92,18.92,0,0,1,3.1-.09c.58,0,1.15.12,1.73.16.8.05,1.61,0,2.42,0,1.1,0,2.16.29,3.26.3,1.35,0,2.72-.17,4.07-.28.88-.07,1.76-.18,2.63-.25A17.65,17.65,0,0,0,72,62.64a20,20,0,0,1,4.24-1.18,4.75,4.75,0,0,1,2.46.71,16.21,16.21,0,0,0,1.52.73,5,5,0,0,0,2.75.12c.43-.08.88-.09,1.3-.21a4.5,4.5,0,0,1,1.07-.29,4.35,4.35,0,0,1,.83,0c.31.05.59.21.9.26a3.82,3.82,0,0,0,1.39-.17,3.94,3.94,0,0,1,2,.38,2.77,2.77,0,0,0,2.37-.51A4.09,4.09,0,0,0,94,61a2.67,2.67,0,0,0,.2-2.06c-.08-.28-.24-.55-.29-.84s0-.67-.12-1a18,18,0,0,1-.17-2.21,3.53,3.53,0,0,1,0-1,2.61,2.61,0,0,0,.05-1,1.32,1.32,0,0,0-.37-.64,5,5,0,0,1-.62-.86,4.07,4.07,0,0,0-.26-.54,2,2,0,0,0-.21-.26C92.19,50.59,92.4,50.6,92.25,50.58Z"/><path class="cls-3" d="M83.54,62.2c.21-.5-.51-.93-.76-1.24a1.22,1.22,0,0,1-.13-1.14.92.92,0,0,1,.24-.51,1.87,1.87,0,0,1,.85,0,2.55,2.55,0,0,0,1.07.16c-.09-.28-.6-.41-.81-.59a2.54,2.54,0,0,1-.69-1c-.12-.33-.6-1.06-.29-1.39-.13-.2-.31-.31-.35-.56s0-.48.3-.5.55.22.79.31a2.31,2.31,0,0,0,1,.26c.33,0,.54-.25.89-.14.17.05.56.41.73.35s.09-.12,0-.2-.21-.31-.3-.48a2.17,2.17,0,0,1-.43-1.09.81.81,0,0,0-.17-.48,1.84,1.84,0,0,1-.22-.73,11.3,11.3,0,0,1-.09-2c0-.43.1-.83.1-1.27a3.6,3.6,0,0,0,0-1.06,1.78,1.78,0,0,0-.51-.66c-.25-.18-.54-.25-.72-.54h0a2.11,2.11,0,0,1-.41-.33l-.13-.12-.1-.08L83.26,47l-.17,0a1.73,1.73,0,0,1-1-.41,3.84,3.84,0,0,1-.62-.69l-.17-.22a4.43,4.43,0,0,1-.33-.47,1.91,1.91,0,0,0-.29-.39c-.08-.08-.17-.16-.25-.25a5.83,5.83,0,0,1-1.19-1.44,1.46,1.46,0,0,1-.14-.63v-.09a.51.51,0,0,0-.12-.1,2.82,2.82,0,0,1-.29-.25,1.5,1.5,0,0,0-.25-.21H78.4a1.12,1.12,0,0,1-.47-.14.87.87,0,0,1-.22-.18h-.12a1.38,1.38,0,0,1-.85-.29,1.89,1.89,0,0,1-.59-.92h0l-.14.05-.38.14v0l-.21.05-.12.17a.8.8,0,0,0,0,.41c.05.08.21.13.28.22a2,2,0,0,1,.22.55,2.35,2.35,0,0,0,.26.72c.1.14.22.18.3.38a3.91,3.91,0,0,1,.2.67,7,7,0,0,1,.29,1.44,1,1,0,0,0,.26.8c.26.28.58.5.83.8a12.79,12.79,0,0,1,1,1.1c.18.29.34.63.54.9s.26.34,0,.33c-.13,0-.29-.13-.42-.18a3.76,3.76,0,0,1-.48-.2c-.35-.18-.72-.35-1.06-.56-.14-.09-.37-.17-.5-.28a2,2,0,0,1,.51.72c.13.29.33.52.48.8s.24.35.35.54.45.6.42.71a5.41,5.41,0,0,1-1.22,0,5.25,5.25,0,0,1-.64,0c-.29,0-.41-.29-.66-.35a1.86,1.86,0,0,0,.05.93c.1.39.52,1.06.41,1.48s-.41.48-.48.77,0,.37-.07.58-.14.34-.22.5a3.91,3.91,0,0,1-.83,1.18,3.3,3.3,0,0,1-.55.31c-.1.08-.17.17-.29.25-.75.46.28.93.39,1.45a2.3,2.3,0,0,1,0,.73,1.4,1.4,0,0,0-.08.42c0,.12,0,.34,0,.45s-.14.14-.2.21-.12.21-.17.3c-.24.37-.42.81-.68,1.17-.09.12-.31.25-.3.41s.09.18.2.26a10.62,10.62,0,0,1,2.91-.71,5.41,5.41,0,0,1,2.8.77,13.29,13.29,0,0,0,1.47.71,4.37,4.37,0,0,0,2.38.08l.51-.08h0S83.5,62.29,83.54,62.2Z"/><path class="cls-3" d="M46.73,45.68a3.68,3.68,0,0,0-1.26,1.47,4.18,4.18,0,0,1-1.06,1.27,5.1,5.1,0,0,0-.47.45l-.1.1a6.33,6.33,0,0,1-1.35,1.21,2.55,2.55,0,0,0-.37.33,2.69,2.69,0,0,1-.75.6A1.27,1.27,0,0,1,40.09,51L40,51a1.06,1.06,0,0,1-1,.33l-.08,0h0a2.32,2.32,0,0,1-.48.08l-.24,0a2.5,2.5,0,0,1-.52,0h-.2l-.12,0a1.45,1.45,0,0,1-.59.08,1.8,1.8,0,0,1-.35-.08l-.09,0h-.12a1.31,1.31,0,0,1-.83-.31,2.08,2.08,0,0,0-.51-.33,2.89,2.89,0,0,0-.42-.09,3.26,3.26,0,0,1-.85-.25h0a2.06,2.06,0,0,1-.33-.18h-.09a2.69,2.69,0,0,0-.5,1c0,.13-.09.26-.13.38s-.2.47-.3.69a4.27,4.27,0,0,0-.45,1.32v.09a3.66,3.66,0,0,1-.54,1.79c-.09.14-.18.26-.28.38a3.16,3.16,0,0,0-.33.48,4.67,4.67,0,0,0-.42,1.44,1.55,1.55,0,0,0,.48,1.45,24.6,24.6,0,0,1,2.95-1.17c.33-.09.63-.25.94-.37a4.55,4.55,0,0,0,.77-.45c.25-.13.47-.31.73-.45s.39-.14.58-.24a2.26,2.26,0,0,1,1-.46c.56-.07,1.14.05,1.69,0,.3,0,.58-.16.88-.2a3,3,0,0,0,.67-.12,1.57,1.57,0,0,0,.47-.29c.12-.14.1-.35.21-.5.39-.54,1.18-.41,1.76-.33a2.92,2.92,0,0,1,1.18.39,2.84,2.84,0,0,0,1.15.55c.42,0,.66-.3.88-.6a2.11,2.11,0,0,0,.22-.86,2.93,2.93,0,0,0,.09-.67c0-.46-.09-1.27.38-1.49a1,1,0,0,0,.55-.45c.17-.29.08-.52.14-.83.22,0,.43.18.67.09.24-.81-.3-1.68-.28-2.49a3.64,3.64,0,0,0-.2-1.24,5.45,5.45,0,0,1-.17-.77,2.59,2.59,0,0,0-.18-1,1.34,1.34,0,0,0-.24-.24c-.22.12-.43.25-.66.39C46.86,45.6,46.79,45.64,46.73,45.68Z"/><path class="cls-3" d="M65.71,62a.38.38,0,0,0,.25-.14c.18-.22.09-.66.09-.92,0-.77.1-1.53.09-2.31a1.25,1.25,0,0,0-.09-.63c-.12-.21-.2-.43-.33-.63s-.35-.66-.56-1c-.1-.16-.26-.29-.38-.45s-.12-.29-.29-.29A4,4,0,0,1,64,57.25c-.21.34-.1.76-.17,1.14a7.44,7.44,0,0,1-.37,1.7c-.12-.08-.24-.45-.31-.6a4.29,4.29,0,0,1-.22-.66,4.49,4.49,0,0,0-.21-.59,2.74,2.74,0,0,1-.39-.81,6,6,0,0,1,0-.84,1.84,1.84,0,0,1,0-.38c0-.07.08-.08.09-.14a1.19,1.19,0,0,0-.31-1c-.31-.34-.81-.51-1.06-.9a1.31,1.31,0,0,1,0-1c.05-.21.14-.41.18-.62a3,3,0,0,1,.14-.59,6.92,6.92,0,0,1,.43-.81c.08-.13.21-.25.2-.42a2.26,2.26,0,0,1-.85.47,4.32,4.32,0,0,0-1.53.9c-.16.17-.12.18-.26.05s-.17-.21-.25-.3-.16-.12-.16-.24.14-.18.09-.3a7.69,7.69,0,0,0-2.23,1.48,3.67,3.67,0,0,1-.8.45,2.27,2.27,0,0,1-.79.09c-.42,0-.81.1-1.23.1h.07c-.17.13-.33.26-.5.38a3.48,3.48,0,0,1-.68.38c-.29.12-.59.1-.88.2a3.21,3.21,0,0,0-1.27,1.1c-.37.41-.81.71-1.18,1.11a11.57,11.57,0,0,0-1.38,1.62c-.24.38-.48,1-.9,1.18-.26.12-.56.1-.84.2s-.64.48-1.09.55a3,3,0,0,1-1,0c-.43-.08-.86.25-1.23.46A4.13,4.13,0,0,0,42,61.5c-.33.39-.68.76-1,1.15h1.79a4.34,4.34,0,0,1,.58,0,7.37,7.37,0,0,1,1.7.43l.47.16a2.34,2.34,0,0,0,.71.08h.16c.3,0,.59,0,.88.05l.69.05a2.36,2.36,0,0,0,.89-.09l.35-.12a7.68,7.68,0,0,1,1.57-.38A18.15,18.15,0,0,1,54,62.76c.3,0,.59.05.88.08s.58.07.86.08c.6,0,1.24,0,1.86,0h.52a13.26,13.26,0,0,1,1.81.16,14.62,14.62,0,0,0,1.47.14c.9,0,1.86-.08,2.78-.16h.2c.22-.26.46-.51.69-.75A.94.94,0,0,1,65.71,62Z"/><path class="cls-3" d="M67.54,55.86c.25.22.34.14.67.21s.37.14.58.17l.55.09c.14,0,.25,0,.38.05s.3.34.46.47a5.39,5.39,0,0,1,.77.94c.24.34.43.73.68,1.06a1,1,0,0,0,.39.34,2.27,2.27,0,0,0-.1-.84,3.5,3.5,0,0,1-.17-.52,2.21,2.21,0,0,0-.34-.73c-.22-.34-.51-.68-.76-1s-.46-.42-.37-.86a3.45,3.45,0,0,0,.17-1.41c-.08-.38-.48-.52-.66-.85a1.21,1.21,0,0,0-.1-.35,2.08,2.08,0,0,0-.29-.3,4,4,0,0,1-.34-.33,2.49,2.49,0,0,1-.59-1.15c-.13-.5-.56-.68-1-.85a5.36,5.36,0,0,0-1.28-.29l.08,1.49L65,49.48l-.09,0a1.21,1.21,0,0,1-.67-.54.85.85,0,0,1-.1-.42s0,0,0-.07c0,.22-.1.35-.1.56a2,2,0,0,0,.62,1.15,1.81,1.81,0,0,1,.62.75,3.09,3.09,0,0,0,.5,1c.21.24.66.29.93.46a1,1,0,0,1,.5.77C67.09,54.09,66.76,55.14,67.54,55.86Z"/><path class="cls-3" d="M64,48.13l-.1,0h0c0,.05.08.12.12.18s0,0,0-.05A.18.18,0,0,0,64,48.13Z"/><text class="cls-4" transform="translate(7.37 64.19)">VICTORIA - FRASERVIEW</text></g></svg>