<svg xmlns="http://www.w3.org/2000/svg" viewBox="0 0 127 235"><defs><style>.cls-1,.cls-4{fill:#f7f3f0;}.cls-2{fill:#f9e0cf;}.cls-3{fill:#fccbaa;}.cls-4,.cls-5{stroke:#fccbaa;stroke-miterlimit:10;}.cls-5{fill:none;stroke-linecap:round;}</style></defs><title>Downtown</title><g id="Layer_2" data-name="Layer 2"><g id="Layer_1-2" data-name="Layer 1"><g id="Downton_Vancouver" data-name="Downton Vancouver"><rect class="cls-1" x="56.44" y="120" width="12.12" height="115"/><rect class="cls-2" x="67.94" y="120" width="6.06" height="115"/><rect class="cls-2" x="51" y="120" width="6.06" height="115"/><polygon class="cls-1" points="12.47 88 112.53 88 97.5 119.5 27.5 119.5 12.47 88"/><polygon class="cls-2" points="122.15 95.23 4.85 95.23 0 83.66 127 83.66 122.15 95.23"/><polygon class="cls-3" points="112.37 109.23 12.63 109.23 8.51 101 116.49 101 112.37 109.23"/><polygon class="cls-2" points="108.22 123.23 16.78 123.23 13 115 112 115 108.22 123.23"/><polygon class="cls-3" points="34.87 76 92.13 76 94.5 84.23 32.5 84.23 34.87 76"/><polygon class="cls-2" points="92.13 76.23 34.87 76.23 32.5 68 94.5 68 92.13 76.23"/><rect class="cls-4" x="62" y="10.5" width="3" height="57"/><rect class="cls-3" x="57" y="45.97" width="13" height="4.06"/><rect class="cls-3" x="57" y="27.97" width="13" height="4.06"/><rect class="cls-3" x="57" y="9.97" width="13" height="4.06"/><line class="cls-5" x1="63.5" y1="10.5" x2="63.5" y2="0.5"/></g></g></g></svg>