<svg id="Layer_1" data-name="Layer 1" xmlns="http://www.w3.org/2000/svg" viewBox="0 0 100 100"><defs><style>.cls-1{fill:#efa0a6;}.cls-2{fill:#d87788;}</style></defs><title>myMarker5</title><path class="cls-1" d="M49.9,37.5a8.66,8.66,0,0,0-8.65,8.65c0,1.92,1.13,4.83,3.55,9.18,1.65,3,3.3,5.47,3.37,5.57l1.19,1.8a.65.65,0,0,0,1.08,0l1.19-1.8c.07-.1,1.7-2.59,3.37-5.57,2.42-4.34,3.55-7.26,3.55-9.18A8.66,8.66,0,0,0,49.9,37.5Z"/><path class="cls-2" d="M49.9,41.3a4.8,4.8,0,1,0,4.8,4.8A4.8,4.8,0,0,0,49.9,41.3Z"/></svg>