<?xml version="1.0" encoding="utf-8"?>
<!-- Generator: Adobe Illustrator 21.1.0, SVG Export Plug-In . SVG Version: 6.00 Build 0)  -->
<svg version="1.1" id="Layer_1" xmlns="http://www.w3.org/2000/svg" xmlns:xlink="http://www.w3.org/1999/xlink" x="0px" y="0px"
	 viewBox="0 0 30 30" style="enable-background:new 0 0 30 30;" xml:space="preserve">
<style type="text/css">
	.st0{fill:#EFA0A6;}
	.st1{fill:#D87788;}
</style>
<title>myMarker5</title>
<g>
	<path class="st0" d="M15,1.9c-5,0-9,4-9,9c0,2,1.2,5,3.7,9.5c1.7,3.1,3.4,5.7,3.5,5.8l1.2,1.9c0.2,0.3,0.6,0.4,0.9,0.2
		c0.1,0,0.1-0.1,0.2-0.2l1.2-1.9c0.1-0.1,1.8-2.7,3.5-5.8c2.5-4.5,3.7-7.5,3.7-9.5C24,5.9,20,1.9,15,1.9z"/>
	<path class="st1" d="M15,5.9c-2.8,0-5,2.2-5,5s2.2,5,5,5s5-2.2,5-5l0,0C20,8.1,17.8,5.9,15,5.9z"/>
</g>
</svg>
