<svg id="layer1" xmlns="http://www.w3.org/2000/svg" xmlns:xlink="http://www.w3.org/1999/xlink" viewBox="0 0 100 100"><defs><style>.cls-1{fill:url(#linear-gradient);}.cls-2{fill:#f4b3bb;}.cls-3,.cls-4,.cls-5,.cls-6{fill:#fd7190;}.cls-3{opacity:0.2;}.cls-4{opacity:0.3;}.cls-5{opacity:0.5;}</style><linearGradient id="linear-gradient" x1="50" y1="84.25" x2="50" y2="15.75" gradientUnits="userSpaceOnUse"><stop offset="0.04" stop-color="#fd7190"/><stop offset="0.24" stop-color="#b75675"/><stop offset="0.45" stop-color="#763c5c"/><stop offset="0.63" stop-color="#462a4a"/><stop offset="0.77" stop-color="#281e3e"/><stop offset="0.85" stop-color="#1d1a3a"/></linearGradient></defs><title>icons</title><g id="Sunset2"><path class="cls-1" d="M21.41,66a1.48,1.48,0,0,0,1.14-.62,6,6,0,0,1,1.2-1.18c.47-.29.94-.56,1.4-.87s1-.91,1.6-1.31,1.34-.58,2-1a8,8,0,0,0,.87-.47,2.33,2.33,0,0,0,.51-.71c.16-.2.38-.71.67-.69-.07,0,.36-.45.31-.4.22-.25.74.16,1,.25a2,2,0,0,1,.76.27c.18.18.31.47.49.67a2.13,2.13,0,0,0,.67.67c.22.09.4,0,.6.07s.25.18.36.29c.27.27.51.56.91.4s.53-.89,1-.87c.29,0,.38.36.67.38a1.62,1.62,0,0,0,.62-.22,4.47,4.47,0,0,1,1.63-.29c.47,0,.85.09,1.16-.33s.49-.8.74-1.18c.11-.18.33-.56.53-.65s.33.09.56.13.45,0,.67.09c1,.22,1.23-.67,1.54-1.47a2.28,2.28,0,0,1,1.2-1.49c.65-.25,1.34-.36,2-.62.27-.11.56-.13.82-.25a7.71,7.71,0,0,0,1-.65,1.83,1.83,0,0,1,.85-.29,1.82,1.82,0,0,0,.58-.31,7.38,7.38,0,0,1,1.23-.82c1-.31,2.87-.07,3.5.8.36.49.87.8,1.14,1.34a1.55,1.55,0,0,0,.56.65c.25.18.53.2.78.36s.58.62,1,.82c.62.31,1.36.11,1.83.69a3.27,3.27,0,0,0,1.49,1,1.67,1.67,0,0,0,.87.2c.33,0,.67.2,1,.13.6-.13.78-.89,1.54-.6.29.09.45.62.8.45a1.79,1.79,0,0,0,.2-.31,1.46,1.46,0,0,1,.51-.29c.42-.18.76-.36,1,.16.18.33.29.65.49,1a5.51,5.51,0,0,0,.62.8,5,5,0,0,0,1.54.87c.22.11.45.16.65.27s.33.27.53.36c.45.22,1,.29,1.43.53a2.61,2.61,0,0,0,.53.2,4.33,4.33,0,0,1,1.07.62,17.6,17.6,0,0,0,2.38,1.31l1.38.6c.44.18.84.42,1.28.62a34.25,34.25,0,1,0-60.71,1.68l.46-.41A1.06,1.06,0,0,1,21.41,66Z"/><path class="cls-2" d="M20.52,67.15s0,0,.07-.07h.09a2.6,2.6,0,0,0,2-1,2.22,2.22,0,0,0,.22-.25,3.36,3.36,0,0,1,.76-.74l.65-.4c.25-.16.51-.29.76-.47a9.91,9.91,0,0,0,1-.82,6.83,6.83,0,0,1,.65-.53,3.52,3.52,0,0,1,.87-.45,7.76,7.76,0,0,0,1-.47l.25-.11a4.73,4.73,0,0,0,.76-.45,2.63,2.63,0,0,0,.62-.74,1.25,1.25,0,0,1,.11-.18,1.28,1.28,0,0,1,.09-.16.74.74,0,0,1,.13-.22l.07.07a5.26,5.26,0,0,1,.71.69c.16.27,0,.33-.09.51a1.57,1.57,0,0,0,0,.56,1,1,0,0,0,.13.45l.07.27.27.07c.2.13.36.58.56.62a2.92,2.92,0,0,0-1.31,1.16c-.11.27,0,.47-.16.71a1.8,1.8,0,0,1-.53.47,5.14,5.14,0,0,1-1.43.49c-.38.09-.42.25-.65.6a4.11,4.11,0,0,1-.67,1.07c-.25.2-.2.07-.45,0a1.41,1.41,0,0,0-.8.09c-.36.11-.6.29-1,.42a5.37,5.37,0,0,1-.82.16,1.89,1.89,0,0,0-.71.47,10.56,10.56,0,0,1-1.34.87l-.15.11a34.26,34.26,0,0,0,58.61-5c-.44-.2-.84-.44-1.28-.62l-1.38-.6a17.6,17.6,0,0,1-2.38-1.31,4.33,4.33,0,0,0-1.07-.62,2.61,2.61,0,0,1-.53-.2c-.47-.25-1-.31-1.43-.53-.2-.09-.33-.27-.53-.36s-.42-.16-.65-.27A5,5,0,0,1,70,59.62a5.51,5.51,0,0,1-.62-.8c-.2-.31-.31-.62-.49-1-.27-.51-.6-.33-1-.16a1.46,1.46,0,0,0-.51.29,1.79,1.79,0,0,1-.2.31c-.36.18-.51-.36-.8-.45-.76-.29-.94.47-1.54.6-.29.07-.62-.13-1-.13a1.67,1.67,0,0,1-.87-.2,3.27,3.27,0,0,1-1.49-1c-.47-.58-1.2-.38-1.83-.69-.4-.2-.62-.58-1-.82s-.53-.18-.78-.36a1.55,1.55,0,0,1-.56-.65c-.27-.53-.78-.85-1.14-1.34-.62-.87-2.52-1.11-3.5-.8a7.38,7.38,0,0,0-1.23.82,1.82,1.82,0,0,1-.58.31,1.83,1.83,0,0,0-.85.29,7.71,7.71,0,0,1-1,.65c-.27.11-.56.13-.82.25-.67.27-1.36.38-2,.62A2.28,2.28,0,0,0,45,56.94c-.31.8-.51,1.69-1.54,1.47-.22,0-.45,0-.67-.09s-.33-.22-.56-.13-.42.47-.53.65c-.25.38-.49.8-.74,1.18s-.69.33-1.16.33a4.47,4.47,0,0,0-1.63.29,1.62,1.62,0,0,1-.62.22c-.29,0-.38-.36-.67-.38-.51,0-.65.69-1,.87s-.65-.13-.91-.4c-.11-.11-.2-.25-.36-.29s-.38,0-.6-.07a2.13,2.13,0,0,1-.67-.67c-.18-.2-.31-.49-.49-.67a2,2,0,0,0-.76-.27c-.27-.09-.78-.49-1-.25,0,0-.38.42-.31.4-.29,0-.51.49-.67.69a2.33,2.33,0,0,1-.51.71,8,8,0,0,1-.87.47c-.62.38-1.38.56-2,1s-1,.94-1.6,1.31-.94.58-1.4.87a6,6,0,0,0-1.2,1.18,1.48,1.48,0,0,1-1.14.62,1.06,1.06,0,0,0-.87.31l-.46.41.32.56Zm36.74-1.72c.16-.2.38-.38.51-.58A2,2,0,0,0,58,63.78a4.32,4.32,0,0,1,.16-2,1.58,1.58,0,0,0,.22-.31c.09-.25,0-.2,0-.38a3.6,3.6,0,0,1-.22-.8c0-.65,1.18-.49,1.67-.49s.36-.07.69-.29a1.77,1.77,0,0,1,1-.2,3.3,3.3,0,0,0,.69-.07,2.63,2.63,0,0,0,.94.16l.16,0a1.95,1.95,0,0,0,2-.42,1.78,1.78,0,0,0,.49.31s0,0,0,.07a14.88,14.88,0,0,0-1.6,2.09.76.76,0,0,0-.11.71,5.35,5.35,0,0,0,.25,1.07,4,4,0,0,0,.76,1.16,1.84,1.84,0,0,1,.71,1.2A17.88,17.88,0,0,0,66,67.86c.13.42.42.78.53,1.23s.09.8.18,1.18a26,26,0,0,1,1,4.28c-.22-.31-.6-.47-.85-.78s-.53-.69-.82-1a1.89,1.89,0,0,0-.58-.53,3.24,3.24,0,0,1-.71-.4c-.38-.38-.53-.87-1-1.18-.71-.45-1.83,0-2.65-.18a2.38,2.38,0,0,0-1-.13c-.49.09-.53.6-1.09.49s-.62-.31-1.07-.31H56.46c-.42,0-.85.09-.69-.51,0-.13.13-.18.18-.31a2,2,0,0,0,0-.51c0-.69-.56-.89-1-1.38-.2-.25-.27-.45-.53-.62s-.87-.51-1-.8c.47-.07.38-.13.69-.38s.74,0,1.14.13a1.22,1.22,0,0,0,1.18-.29C56.77,65.54,56.9,65.17,57.26,65.43Zm-23.46-2a3.06,3.06,0,0,0,.33-1.18,1.56,1.56,0,0,0,1.43.07,1.73,1.73,0,0,0,.69-.53,1.42,1.42,0,0,0,.49.13,1.8,1.8,0,0,0,1-.25s.07,0,.09,0a3.22,3.22,0,0,1,1.25-.22h.2a2,2,0,0,0,1.87-.8l.45-.71c.11-.18.22-.33.31-.49l0,0,.36,0a.62.62,0,0,1,.22,0,2.05,2.05,0,0,0,2-.62,3.94,3.94,0,0,0,.69-1.31.93.93,0,0,0,.09-.22c.2-.53.36-.78.56-.85l.82-.25a9.79,9.79,0,0,0,1.23-.4l.27-.07a3.94,3.94,0,0,0,.56-.18,4.3,4.3,0,0,0,.91-.56l.27-.18s.07,0,.29-.09l.2,0a2.06,2.06,0,0,0,.8-.38l.11-.07c.2-.13.4-.29.58-.42a3.52,3.52,0,0,1,.4-.29,1.23,1.23,0,0,0,0,.4c0,.2.25.33.33.49.2.36.4.74.58,1.09s.36.74.58,1.11a4.66,4.66,0,0,0,1,.91c.31.29.45.62.76.91a10.12,10.12,0,0,0,.85.85A3.69,3.69,0,0,1,55.32,59a11.91,11.91,0,0,1-1.49-.53A2.18,2.18,0,0,0,53,58.1c-.36,0-.16-.09-.49.09s-.65.62-1,1c-.2.18-.45.22-.65.38s-.18.25-.31.33-.38.16-.58.27a4.94,4.94,0,0,0-.94.71c-.33.29-.38.74-.58,1.11a12.25,12.25,0,0,0-.76,1.54c-.07.16-.09.49-.25.6s-.45.07-.62.18a4.86,4.86,0,0,0-1.74,1.63,4.5,4.5,0,0,1-.58.71c-.16.2-.18.49-.36.65s-.36.18-.47.25-.42.22-.62.33-.58.45-.87.67-.56.29-.8.49-.22.33-.36.47a4.42,4.42,0,0,1-.76.49c-1,.6-2.41.33-3.54.33-.69,0-1.27.16-1.94.16s-1.49,0-2.25,0c-.58,0-.58.45-.87.89a3.65,3.65,0,0,1-.89,1c-.22.16-.51.22-.74.4a1.82,1.82,0,0,1-.82.42l-.31,0a4.9,4.9,0,0,0-.82.13c-.42.07-.33-.09-.56-.45-.33.07-.6.58-.82.8a4.56,4.56,0,0,1-.8.69,1.06,1.06,0,0,1,.2-.71c.25-.58.53-1.14.78-1.72a4.07,4.07,0,0,1,.74-1.49c.13-.11.29-.13.45-.27a4.21,4.21,0,0,0,.45-.6,7.26,7.26,0,0,1,1.18-1.16,4.5,4.5,0,0,0,1.09-1.4c.16-.29.16-.65.33-.89s.42-.25.58-.42.09-.25.18-.33a4,4,0,0,1,.71-.49A4.06,4.06,0,0,0,33.8,63.47Z"/><path class="cls-2" d="M31.69,65.61c-.16.18-.45.22-.58.42s-.18.6-.33.89a4.5,4.5,0,0,1-1.09,1.4,7.26,7.26,0,0,0-1.18,1.16,4.21,4.21,0,0,1-.45.6c-.16.13-.31.16-.45.27a4.07,4.07,0,0,0-.74,1.49c-.25.58-.53,1.14-.78,1.72a1.06,1.06,0,0,0-.2.71,4.56,4.56,0,0,0,.8-.69c.22-.22.49-.74.82-.8.22.36.13.51.56.45a4.9,4.9,0,0,1,.82-.13l.31,0A1.82,1.82,0,0,0,30,72.7c.22-.18.51-.25.74-.4a3.65,3.65,0,0,0,.89-1c.29-.45.29-.87.87-.89.76,0,1.49,0,2.25,0s1.25-.18,1.94-.16c1.14,0,2.54.27,3.54-.33a4.42,4.42,0,0,0,.76-.49c.13-.13.2-.36.36-.47s.56-.29.8-.49.56-.47.87-.67.42-.2.62-.33.38-.18.47-.25.2-.45.36-.65a4.5,4.5,0,0,0,.58-.71,4.86,4.86,0,0,1,1.74-1.63c.18-.11.49-.09.62-.18s.18-.45.25-.6A12.25,12.25,0,0,1,48.44,62c.2-.38.25-.82.58-1.11a4.94,4.94,0,0,1,.94-.71c.2-.11.4-.16.58-.27s.2-.25.31-.33.45-.2.65-.38c.36-.33.56-.71,1-1s.13-.11.49-.09a2.18,2.18,0,0,1,.85.33,11.91,11.91,0,0,0,1.49.53,3.69,3.69,0,0,0,1.09.36,10.12,10.12,0,0,1-.85-.85c-.31-.29-.45-.62-.76-.91a4.66,4.66,0,0,1-1-.91c-.22-.38-.38-.74-.58-1.11s-.38-.74-.58-1.09c-.09-.16-.29-.29-.33-.49a1.23,1.23,0,0,1,0-.4,3.52,3.52,0,0,0-.4.29c-.18.13-.38.29-.58.42l-.11.07a2.06,2.06,0,0,1-.8.38l-.2,0c-.22,0-.25,0-.29.09l-.27.18a4.3,4.3,0,0,1-.91.56,3.94,3.94,0,0,1-.56.18l-.27.07a9.79,9.79,0,0,1-1.23.4l-.82.25c-.2.07-.36.31-.56.85a.93.93,0,0,1-.09.22,3.94,3.94,0,0,1-.69,1.31,2.05,2.05,0,0,1-2,.62.62.62,0,0,0-.22,0l-.36,0,0,0c-.09.16-.2.31-.31.49l-.45.71a2,2,0,0,1-1.87.8h-.2a3.22,3.22,0,0,0-1.25.22s0,0-.09,0a1.8,1.8,0,0,1-1,.25,1.42,1.42,0,0,1-.49-.13,1.73,1.73,0,0,1-.69.53,1.56,1.56,0,0,1-1.43-.07,3.06,3.06,0,0,1-.33,1.18,4.06,4.06,0,0,1-1.23,1.31,4,4,0,0,0-.71.49C31.77,65.37,31.75,65.52,31.69,65.61Z"/><path class="cls-2" d="M55.3,66.08c-.4-.11-.78-.42-1.14-.13s-.22.31-.69.38c.11.29.71.62,1,.8s.33.38.53.62c.4.49,1,.69,1,1.38a2,2,0,0,1,0,.51c0,.13-.16.18-.18.31-.16.6.27.51.69.51h1.47c.45,0,.65.25,1.07.31s.6-.4,1.09-.49a2.38,2.38,0,0,1,1,.13c.82.22,1.94-.27,2.65.18.49.31.65.8,1,1.18a3.24,3.24,0,0,0,.71.4,1.89,1.89,0,0,1,.58.53c.29.36.56.69.82,1s.62.47.85.78a26,26,0,0,0-1-4.28c-.09-.38-.09-.8-.18-1.18s-.4-.8-.53-1.23a17.88,17.88,0,0,1-.31-2.23,1.84,1.84,0,0,0-.71-1.2,4,4,0,0,1-.76-1.16,5.35,5.35,0,0,1-.25-1.07.76.76,0,0,1,.11-.71,14.88,14.88,0,0,1,1.6-2.09s0,0,0-.07a1.78,1.78,0,0,1-.49-.31,1.95,1.95,0,0,1-2,.42l-.16,0a2.63,2.63,0,0,1-.94-.16,3.3,3.3,0,0,1-.69.07,1.77,1.77,0,0,0-1,.2c-.33.22-.25.31-.69.29s-1.67-.16-1.67.49a3.6,3.6,0,0,0,.22.8c0,.18.09.13,0,.38a1.58,1.58,0,0,1-.22.31,4.32,4.32,0,0,0-.16,2,2,2,0,0,1-.18,1.07c-.13.2-.36.38-.51.58-.36-.27-.49.11-.78.36A1.22,1.22,0,0,1,55.3,66.08Z"/><path class="cls-2" d="M23.66,69a1.89,1.89,0,0,1,.71-.47,5.37,5.37,0,0,0,.82-.16c.36-.13.6-.31,1-.42a1.41,1.41,0,0,1,.8-.09c.25,0,.2.18.45,0a4.11,4.11,0,0,0,.67-1.07c.22-.36.27-.51.65-.6a5.14,5.14,0,0,0,1.43-.49,1.8,1.8,0,0,0,.53-.47c.18-.25,0-.45.16-.71a2.92,2.92,0,0,1,1.31-1.16c-.2,0-.36-.49-.56-.62l-.27-.07-.07-.27a1,1,0,0,1-.13-.45,1.57,1.57,0,0,1,0-.56c0-.18.25-.25.09-.51a5.26,5.26,0,0,0-.71-.69l-.07-.07a.74.74,0,0,0-.13.22,1.28,1.28,0,0,0-.09.16,1.25,1.25,0,0,0-.11.18,2.63,2.63,0,0,1-.62.74,4.73,4.73,0,0,1-.76.45l-.25.11a7.76,7.76,0,0,1-1,.47,3.52,3.52,0,0,0-.87.45,6.83,6.83,0,0,0-.65.53,9.91,9.91,0,0,1-1,.82c-.25.18-.51.31-.76.47l-.65.4a3.36,3.36,0,0,0-.76.74,2.22,2.22,0,0,1-.22.25,2.6,2.6,0,0,1-2,1h-.09s0,0-.07.07l-.12.1q.82,1.41,1.77,2.73l.15-.11A10.56,10.56,0,0,0,23.66,69Z"/><circle class="cls-3" cx="32.21" cy="43.68" r="7.87"/><circle class="cls-4" cx="32.21" cy="43.68" r="6.28"/><circle class="cls-5" cx="32.21" cy="43.68" r="4.7"/><circle class="cls-6" cx="32.21" cy="43.68" r="2.47"/></g></svg>