<svg id="layer1" xmlns="http://www.w3.org/2000/svg" viewBox="0 0 100 100"><defs><style>.cls-1{fill:#f4beca;}.cls-2{fill:#f4cbd5;}.cls-3{fill:#f4c3d0;}.cls-4{fill:#f3b2ba;}.cls-5{fill:#e8aab4;}.cls-6{fill:#efa0a6;}.cls-7{fill:#f4b8c2;}</style></defs><title>icons</title><g id="Sunset"><path class="cls-1" d="M16.42,41.7H83.92a34.38,34.38,0,0,0-3.86-9.83H20.28A34.38,34.38,0,0,0,16.42,41.7Z"/><path class="cls-2" d="M20,66.1l.46-.41a1.07,1.07,0,0,1,.88-.31,1.5,1.5,0,0,0,1.15-.63,6.1,6.1,0,0,1,1.21-1.19c.47-.29.94-.56,1.42-.88s1.06-.92,1.62-1.33,1.35-.58,2-1a8.05,8.05,0,0,0,.88-.47,2.35,2.35,0,0,0,.52-.72c.16-.2.38-.72.67-.7-.07,0,.36-.45.31-.4.22-.25.74.16,1,.25a2.06,2.06,0,0,1,.76.27c.18.18.31.47.49.67a2.15,2.15,0,0,0,.67.67c.22.09.4,0,.61.07s.25.18.36.29c.27.27.52.56.92.4s.54-.9,1.06-.88c.29,0,.38.36.67.38a1.63,1.63,0,0,0,.63-.22,4.51,4.51,0,0,1,1.64-.29c.47,0,.85.09,1.17-.34s.49-.81.74-1.19c.11-.18.34-.56.54-.65s.34.09.56.13.45,0,.67.09c1,.22,1.24-.67,1.55-1.48a2.3,2.3,0,0,1,1.21-1.51c.65-.25,1.35-.36,2-.63.27-.11.56-.13.83-.25a7.79,7.79,0,0,0,1-.65,1.85,1.85,0,0,1,.85-.29,1.84,1.84,0,0,0,.58-.31,7.45,7.45,0,0,1,1.24-.83c1-.31,2.9-.07,3.53.81.36.49.88.81,1.15,1.35a1.57,1.57,0,0,0,.56.65c.25.18.54.2.79.36s.58.63,1,.83c.63.31,1.37.11,1.84.7a3.3,3.3,0,0,0,1.51,1,1.68,1.68,0,0,0,.88.2c.34,0,.67.2,1,.13.61-.13.79-.9,1.55-.61.29.09.45.63.81.45a1.81,1.81,0,0,0,.2-.31A1.47,1.47,0,0,1,68.2,57c.43-.18.76-.36,1,.16.18.34.29.65.49,1a5.57,5.57,0,0,0,.63.81,5,5,0,0,0,1.55.88c.22.11.45.16.65.27s.34.27.54.36c.45.22,1,.29,1.44.54a2.64,2.64,0,0,0,.54.2,4.37,4.37,0,0,1,1.08.63,17.77,17.77,0,0,0,2.41,1.33l1.39.61c.44.18.85.42,1.29.63a34.39,34.39,0,0,0,3.41-12.86h-69A34.38,34.38,0,0,0,20,66.1Z"/><path class="cls-3" d="M83.92,41.7H16.42a34.67,34.67,0,0,0-.83,7.54q0,1.15.07,2.29h69c0-.76.08-1.52.08-2.29A34.68,34.68,0,0,0,83.92,41.7Z"/><path class="cls-4" d="M20.28,31.87H80.06A34.75,34.75,0,0,0,71.5,22H28.84A34.75,34.75,0,0,0,20.28,31.87Z"/><path class="cls-5" d="M50.17,14.67A34.4,34.4,0,0,0,28.84,22H71.5A34.4,34.4,0,0,0,50.17,14.67Z"/><path class="cls-6" d="M32.48,64.44a11.61,11.61,0,0,0,6.28-1.84H26.2A11.61,11.61,0,0,0,32.48,64.44Z"/><path class="cls-7" d="M44.16,52.77a11.79,11.79,0,0,0-.07-1.23H20.87a11.79,11.79,0,0,0-.07,1.23,11.66,11.66,0,0,0,5.4,9.83H38.76A11.66,11.66,0,0,0,44.16,52.77Z"/><path class="cls-5" d="M20.87,51.54H44.09a11.68,11.68,0,0,0-23.22,0Z"/><path class="cls-4" d="M22.08,69.42a34.59,34.59,0,0,0,59.18-5c-.44-.21-.85-.45-1.29-.63l-1.39-.61a17.77,17.77,0,0,1-2.41-1.33,4.37,4.37,0,0,0-1.08-.63,2.64,2.64,0,0,1-.54-.2c-.47-.25-1-.31-1.44-.54-.2-.09-.34-.27-.54-.36s-.43-.16-.65-.27A5,5,0,0,1,70.36,59a5.57,5.57,0,0,1-.63-.81c-.2-.31-.31-.63-.49-1-.27-.52-.61-.34-1-.16a1.47,1.47,0,0,0-.52.29,1.81,1.81,0,0,1-.2.31c-.36.18-.52-.36-.81-.45-.76-.29-.94.47-1.55.61-.29.07-.63-.13-1-.13a1.68,1.68,0,0,1-.88-.2,3.3,3.3,0,0,1-1.51-1c-.47-.58-1.21-.38-1.84-.7-.4-.2-.63-.58-1-.83s-.54-.18-.79-.36a1.57,1.57,0,0,1-.56-.65c-.27-.54-.79-.85-1.15-1.35-.63-.88-2.54-1.12-3.53-.81a7.45,7.45,0,0,0-1.24.83,1.84,1.84,0,0,1-.58.31,1.85,1.85,0,0,0-.85.29,7.78,7.78,0,0,1-1,.65c-.27.11-.56.13-.83.25-.67.27-1.37.38-2,.63a2.3,2.3,0,0,0-1.21,1.51c-.31.81-.52,1.71-1.55,1.48-.22,0-.45,0-.67-.09s-.34-.22-.56-.13-.43.47-.54.65c-.25.38-.49.81-.74,1.19s-.7.34-1.17.34a4.51,4.51,0,0,0-1.64.29,1.63,1.63,0,0,1-.63.22c-.29,0-.38-.36-.67-.38-.52,0-.65.7-1.06.88s-.65-.13-.92-.4c-.11-.11-.2-.25-.36-.29s-.38,0-.61-.07a2.15,2.15,0,0,1-.67-.67c-.18-.2-.31-.49-.49-.67a2.06,2.06,0,0,0-.76-.27c-.27-.09-.79-.49-1-.25,0,0-.38.43-.31.4-.29,0-.52.49-.67.7a2.35,2.35,0,0,1-.52.72,8,8,0,0,1-.88.47c-.63.38-1.39.56-2,1s-1,.94-1.62,1.33-.94.58-1.42.88a6.1,6.1,0,0,0-1.21,1.19,1.5,1.5,0,0,1-1.15.63,1.07,1.07,0,0,0-.88.31L20,66.1l.32.56"/></g></svg>