<svg id="layer1" xmlns="http://www.w3.org/2000/svg" viewBox="0 0 100 100"><defs><style>.cls-1{fill:#e8e8e8;}.cls-2{fill:#3f4454;}.cls-3{fill:#f7f3f0;}.cls-4{fill:#cacaca;}.cls-5{fill:#d8d7d6;}.cls-6{fill:#b1b1b1;}</style></defs><title>icons</title><g id="Strathcona"><path class="cls-1" d="M5.66,44.52H43.29a1,1,0,0,1,1,1v8.37a1,1,0,0,1-1,1H5.66a1,1,0,0,1-1-1V45.51a1,1,0,0,1,1-1Z"/><path class="cls-1" d="M46.15,44.52h44.4a4.77,4.77,0,0,1,4.77,4.77v5.63a0,0,0,0,1,0,0H46.15a1,1,0,0,1-1-1V45.54A1,1,0,0,1,46.15,44.52Z"/><path class="cls-2" d="M89.13,45.88h.78a4.35,4.35,0,0,1,4.35,4.35v0a0,0,0,0,1,0,0H89.13a.7.7,0,0,1-.7-.7v-3A.7.7,0,0,1,89.13,45.88Z"/><rect class="cls-2" x="76.51" y="46.38" width="4.06" height="3.3" rx="0.96" ry="0.96"/><rect class="cls-2" x="71.56" y="46.38" width="4.06" height="3.3" rx="0.96" ry="0.96"/><rect class="cls-2" x="66.62" y="46.38" width="4.06" height="3.3" rx="0.96" ry="0.96"/><rect class="cls-2" x="61.67" y="46.38" width="4.06" height="3.3" rx="0.96" ry="0.96"/><rect class="cls-2" x="56.72" y="46.38" width="4.06" height="3.3" rx="0.96" ry="0.96"/><rect class="cls-2" x="52.03" y="46.38" width="4.06" height="3.3" rx="0.96" ry="0.96"/><rect class="cls-2" x="35.24" y="46.38" width="4.06" height="3.3" rx="0.96" ry="0.96"/><rect class="cls-2" x="30.3" y="46.38" width="4.06" height="3.3" rx="0.96" ry="0.96"/><rect class="cls-2" x="25.35" y="46.38" width="4.06" height="3.3" rx="0.96" ry="0.96"/><rect class="cls-2" x="20.4" y="46.38" width="4.06" height="3.3" rx="0.96" ry="0.96"/><rect class="cls-2" x="15.46" y="46.38" width="4.06" height="3.3" rx="0.96" ry="0.96"/><rect class="cls-2" x="10.76" y="46.38" width="4.06" height="3.3" rx="0.96" ry="0.96"/><rect class="cls-2" x="6.03" y="46.38" width="4.06" height="3.3" rx="0.96" ry="0.96"/><path class="cls-3" d="M85.24,47h0a1.8,1.8,0,0,1,1.8,1.8v6.11a0,0,0,0,1,0,0H83.44a0,0,0,0,1,0,0V48.82A1.8,1.8,0,0,1,85.24,47Z"/><path class="cls-2" d="M45.14,50.53h34.5a.85.85,0,0,1,.85.85v0a.85.85,0,0,1-.85.85H45.14a0,0,0,0,1,0,0V50.53a0,0,0,0,1,0,0Z"/><rect class="cls-2" x="4.68" y="50.53" width="39.66" height="1.69" transform="translate(49.01 102.75) rotate(180)"/><path class="cls-3" d="M45.14,53.61H95.32a0,0,0,0,1,0,0v1.31a0,0,0,0,1,0,0H46.12a1,1,0,0,1-1-1v-.33A0,0,0,0,1,45.14,53.61Z"/><path class="cls-3" d="M4.68,53.61H44.33a0,0,0,0,1,0,0v.44a.87.87,0,0,1-.87.87H5.55a.87.87,0,0,1-.87-.87v-.44a0,0,0,0,1,0,0Z"/><rect class="cls-4" x="89.16" y="55.02" width="4.03" height="0.85"/><circle class="cls-5" cx="89.8" cy="55.5" r="0.81"/><circle class="cls-5" cx="92.6" cy="55.5" r="0.81"/><path class="cls-6" d="M89.12,54.5h4.21a.85.85,0,0,1,.85.85v0a0,0,0,0,1,0,0H88.26a0,0,0,0,1,0,0v0A.85.85,0,0,1,89.12,54.5Z"/><rect class="cls-4" x="72.72" y="55.02" width="4.03" height="0.85"/><circle class="cls-5" cx="73.35" cy="55.5" r="0.81"/><circle class="cls-5" cx="76.15" cy="55.5" r="0.81"/><path class="cls-6" d="M72.67,54.5h4.21a.85.85,0,0,1,.85.85v0a0,0,0,0,1,0,0H71.82a0,0,0,0,1,0,0v0A.85.85,0,0,1,72.67,54.5Z"/><rect class="cls-4" x="52.04" y="55.02" width="4.03" height="0.85"/><circle class="cls-5" cx="52.68" cy="55.5" r="0.81"/><circle class="cls-5" cx="55.48" cy="55.5" r="0.81"/><path class="cls-6" d="M52,54.5h4.21a.85.85,0,0,1,.85.85v0a0,0,0,0,1,0,0H51.14a0,0,0,0,1,0,0v0A.85.85,0,0,1,52,54.5Z"/><rect class="cls-4" x="33.61" y="55.02" width="4.03" height="0.85"/><circle class="cls-5" cx="34.24" cy="55.5" r="0.81"/><circle class="cls-5" cx="37.04" cy="55.5" r="0.81"/><path class="cls-6" d="M33.56,54.5h4.21a.85.85,0,0,1,.85.85v0a0,0,0,0,1,0,0H32.71a0,0,0,0,1,0,0v0A.85.85,0,0,1,33.56,54.5Z"/><rect class="cls-4" x="12.51" y="55.02" width="4.03" height="0.85"/><circle class="cls-5" cx="13.15" cy="55.5" r="0.81"/><circle class="cls-5" cx="15.95" cy="55.5" r="0.81"/><path class="cls-6" d="M12.46,54.5h4.21a.85.85,0,0,1,.85.85v0a0,0,0,0,1,0,0H11.61a0,0,0,0,1,0,0v0a.85.85,0,0,1,.85-.85Z"/></g></svg>