<svg xmlns="http://www.w3.org/2000/svg" viewBox="0 0 149.97 195.77"><defs><style>.cls-1{fill:none;}.cls-2{fill:#a8837e;}.cls-3{fill:#d64f00;}.cls-4{fill:#c19a93;}.cls-5{fill:#9fe2d5;}.cls-6{fill:#fccbaa;}.cls-7{fill:#775638;}.cls-8{fill:#f9e0cf;}</style></defs><title>WestPoint</title><g id="Layer_2" data-name="Layer 2"><g id="Layer_1-2" data-name="Layer 1"><g id="WestPointGrey"><path class="cls-1" d="M82.74,51.91l.11-.11.76-.86A10,10,0,0,0,82.74,51.91Z"/><path class="cls-2" d="M59.85,130.32l4.1-1.51c-1.42-1.33-2.83-2.67-4.27-4l-2.23,1.06q-5.58,2.66-11.18,5.26,0,.31,0,.63Q48.13,133,50,134.22C53.29,132.82,56.6,131.54,59.85,130.32Z"/><path class="cls-2" d="M59.25,103.33c-2-1.93-4-3.81-6.06-5.57l-.89.48c-1,3.32-1.85,6.7-2.62,10.16q2.38-1.36,4.78-2.63C56,104.93,57.64,104.12,59.25,103.33Z"/><path class="cls-2" d="M55.28,107.15c-2,1-4,2.09-6,3.2q-.2,1-.4,1.94c2.42,1.72,4.85,3.43,7.25,5.18,3-1.41,6-2.83,9-4.28q.1-1.85.23-3.74c-1.57-1.61-3.16-3.24-4.78-4.87C58.76,105.42,57,106.27,55.28,107.15Z"/><path class="cls-2" d="M55.13,96.78c2.22,1.7,4.36,3.53,6.44,5.43q2.25-1.07,4.52-2.08c.3-2.79.67-5.61,1.11-8.43-2,.7-4,1.46-6,2.3S57.16,95.79,55.13,96.78Z"/><path class="cls-2" d="M58.14,123.45q-1.84-1.62-3.76-3.14l-7.45,3.31q-.16,1.08-.31,2.17c-.1.83-.2,2.05-.28,3.6,3.45-1.77,6.9-3.53,10.37-5.24Z"/><path class="cls-3" d="M82.54,52.18l.31-.38-.11.11Z"/><path class="cls-2" d="M76.61,59.8,77,57.4c-5.47,4.88-10.54,9-15,17.07a133.22,133.22,0,0,0-8.76,20.88l.56.41c2.36-1.3,4.79-2.46,7.24-3.51,2.13-.92,4.32-1.81,6.54-2.65,1.8-10.53,4.74-20.89,9.64-29.6a9.7,9.7,0,0,0,.2-1.5A10.3,10.3,0,0,0,76.61,59.8Z"/><path class="cls-2" d="M65.55,106q.15-1.9.34-3.83c-1,.44-2,.88-3,1.33Q64.24,104.69,65.55,106Z"/><path class="cls-2" d="M51.85,135.39l6.31,4,6.78,4.23c-.28-4.49-.42-8.88-.42-13l-4,1.43C57.62,133.08,54.72,134.2,51.85,135.39Z"/><path class="cls-2" d="M46.18,134.37c0,.51,0,1,0,1.59l1.38-.64Z"/><path class="cls-2" d="M46.14,137.87a259.4,259.4,0,0,0,2.56,38.27c3.64-.24,7.4-.36,11.25-.36,3.34,0,6.62.1,9.82.28a175.07,175.07,0,0,1-4.58-28.93c-5.33-3.52-10.68-7-15.95-10.63Q47.68,137.17,46.14,137.87Z"/><path class="cls-2" d="M48.23,115.6q-.54,3-1,6.08l5.55-2.63C51.25,117.91,49.73,116.76,48.23,115.6Z"/><path class="cls-3" d="M83.61,50.93l-.76.86q.6-.62,1.2-1.28Z"/><path class="cls-2" d="M61.51,121.81l3.23-1.55q.08-2.38.2-4.86-3.55,1.73-7.14,3.37Q59.7,120.23,61.51,121.81Z"/><path class="cls-2" d="M64.61,124.56s0-.07,0-.11c0-.65,0-1.32.06-2l-1.56.74Z"/><path class="cls-4" d="M48.85,112.29q-.33,1.64-.63,3.31c1.5,1.16,3,2.31,4.53,3.45l-5.55,2.63q-.15,1-.29,1.93l7.45-3.31q1.92,1.51,3.76,3.14l-1.42.7c-3.47,1.71-6.92,3.47-10.37,5.24,0,.55-.05,1.14-.08,1.76q5.6-2.6,11.18-5.26l2.23-1.06c1.44,1.31,2.85,2.64,4.27,4l-4.1,1.51c-3.25,1.22-6.56,2.5-9.82,3.9q-1.9-1.21-3.78-2.45,0,1.22-.07,2.59l1.36,1-1.38.64q0,.93,0,1.91,1.54-.71,3.1-1.38c5.27,3.61,10.62,7.11,15.95,10.63q-.14-1.77-.25-3.52l-6.78-4.23-6.31-4c2.86-1.19,5.77-2.31,8.71-3.39l4-1.43.95-.34-.94-.89c0-.25,0-.5,0-.74,0-1.38,0-2.73.08-4l-1.5-1.36,1.56-.74q0-1.09.07-2.21l-3.23,1.55q-1.82-1.57-3.71-3,3.59-1.64,7.14-3.37.05-1.09.11-2.2c-3,1.46-6,2.87-9,4.28C53.71,115.72,51.27,114,48.85,112.29Z"/><path class="cls-4" d="M53.76,95.76l-.56-.41-.28.88-.93.54.61.49-.29,1,.89-.48c2.09,1.76,4.1,3.65,6.06,5.57-1.61.79-3.21,1.59-4.8,2.43s-3.2,1.72-4.78,2.63q-.22,1-.42,2c2-1.11,4-2.17,6-3.2,1.73-.88,3.48-1.73,5.23-2.57,1.62,1.63,3.21,3.27,4.78,4.87q.12-1.74.26-3.5-1.31-1.26-2.63-2.5c1-.45,2-.89,3-1.33.06-.66.13-1.32.2-2q-2.28,1-4.52,2.08c-2.08-1.9-4.22-3.73-6.44-5.43,2-1,4.08-1.91,6.1-2.77s4-1.6,6-2.3c.11-.7.22-1.4.34-2.11-2.22.83-4.41,1.73-6.54,2.65C58.55,93.3,56.12,94.46,53.76,95.76Z"/><path class="cls-5" d="M143.56,80.4C150,63.06,157,45.3,134.84,30.74,115.13,18,86.21,32.85,79.18,53.95l-.07,0C87.26,33.43,75,3.64,52,.43,25.62-3,19.33,15,12.92,32.37c7.42-7.38,13.5-11.54,20.17-13,1.36-4.66,2.65-9.28,4.23-13.69a58.08,58.08,0,0,1,.85,13.14,42.74,42.74,0,0,1,12.67,2.07h0c1.57-3.31,2.59-6.55,2.39-9.24,0,0,1.31-.23,1.43.42.86,2.78.73,6.72,0,10.47a57.27,57.27,0,0,1,9.91,7.18,46.19,46.19,0,0,0,4.62-8,42,42,0,0,1,1.36,14.07c4.34,5,7.42,10.53,7,15.09C68.71,32.08,42.88,19.54,24.32,30.83c-22.59,14-16.06,31.91-10,49.42,1.08-10.41,3.15-17.48,7.43-22.79C19.82,53,17.9,48.6,16.33,44.18a58.07,58.07,0,0,1,9,9.64,42.75,42.75,0,0,1,11.12-6.41l0,0c-.87-3.56-2.13-6.71-4-8.67,0,0,.87-1,1.37-.57,2.42,1.61,4.82,4.75,6.64,8.1a57.28,57.28,0,0,1,12.21-.71,46.21,46.21,0,0,0-1.5-9.15,42,42,0,0,1,10,10c7.8,1.38,14.62,4.39,16,9.65L77,57.4l-.34,2.41a10.3,10.3,0,0,1,.77-1.3,9.7,9.7,0,0,1-.2,1.5c0,.15-.06.3-.1.46l2.54-4,0-.14c4.49-2.94,11.53-.76,18.26,3.23a42,42,0,0,1,14.09-1.11,46.15,46.15,0,0,0-7.11,6,57.28,57.28,0,0,1,8.79,8.51c3.57-1.35,7.43-2.16,10.32-1.8.67,0,.67,1.33.67,1.33-2.69.27-5.7,1.84-8.68,4l0,0a42.78,42.78,0,0,1,4.24,12.11,58.06,58.06,0,0,1,13.09-1.45c-4.07,2.32-8.39,4.39-12.74,6.54-.23,6.82-3.28,13.52-9.25,22.11,16-9.33,32.66-18.66,24.66-44-6.69-20.67-34.45-28-53.44-19.55l.05-.08.2-.27a10,10,0,0,1,.87-1l.44-.42c3-2.7,8.07-4.33,13.55-5.16a42,42,0,0,1,10.22-9.77,46.1,46.1,0,0,0-1.74,9.11,57.28,57.28,0,0,1,12.19,1c1.91-3.3,4.39-6.37,6.85-7.92.52-.42,1.36.61,1.36.61-1.91,1.91-3.25,5-4.22,8.56l0,0a42.76,42.76,0,0,1,10.95,6.7,58.05,58.05,0,0,1,9.22-9.4c-1.68,4.37-3.72,8.71-5.73,13.13C140.87,62.85,142.75,70,143.56,80.4Z"/><path class="cls-6" d="M48.7,176.14C21.56,177.91.9,186,0,195.77H119.9c-.92-10-22.29-18.14-50.13-19.72-3.19-.18-6.47-.28-9.82-.28C56.1,175.77,52.34,175.9,48.7,176.14Z"/><path class="cls-7" d="M98.37,161c.39,0,1.3.11,1.49.36.64.83-.84,2.48-1.55,3.64a2,2,0,0,1-.79.82,3.75,3.75,0,0,1-1.55.26,11.43,11.43,0,0,1-3.56-.27c1.22-1,2.44-2,3.8-2.92C96.21,162.93,97,161,98.37,161Z"/><path class="cls-4" d="M97.65,162.85a11,11,0,0,1-2,2c-.17.14.11.34.28.2A11.34,11.34,0,0,0,98,163C98.11,162.83,97.77,162.68,97.65,162.85Z"/><path class="cls-7" d="M110.95,164.94a76.48,76.48,0,0,1-13.55,0c-1.59-.16-31.05-.47-29.45-.47,4.84,0-2.83.06-3.21.06-11.32,0-12.46,6.72-12.61,10.26a20,20,0,0,0,.72,5.93c.5,1.54,4.45,5.49,8,5.49.4,0,2.08.08,2.48.06,3.05-.17,34.84-.35,37.89-.52s7.46.12,10.45-.06a.12.12,0,0,0,.12-.08l2.08-11h0a8.33,8.33,0,0,0-.8-4.47c-.26-.47-.6-.91-.83-1.39a8.05,8.05,0,0,1-.46-3.66s0-.08-.11-.09l-.23,0c-.08,0-.16,0-.16.09h0c0,.06-.11.07-.14,0A1.26,1.26,0,0,0,110.95,164.94Z"/><ellipse class="cls-8" cx="111.32" cy="175.36" rx="6.29" ry="10.49"/><ellipse class="cls-6" cx="111.43" cy="175.36" rx="5.74" ry="9.57"/><path class="cls-8" d="M116.38,172.11c-.88-3-2.69-5.15-4.69-5.54-.11,0-.11.27,0,.29,1.94.38,3.69,2.47,4.54,5.4C116.28,172.42,116.43,172.28,116.38,172.11Z"/><path class="cls-8" d="M113.41,183.71a6.79,6.79,0,0,0,2-2.27,5.53,5.53,0,0,0,.69-1.57c.16-.62.26-1.3.37-2a13.49,13.49,0,0,0,.11-4.69c0-.17-.2-.1-.17.08a12,12,0,0,1,0,4,11.15,11.15,0,0,1-.86,3.52,10.14,10.14,0,0,1-.81,1.21,5.85,5.85,0,0,1-1,1.14,3.74,3.74,0,0,1-2.39.75,2.6,2.6,0,0,1-2.3-1.62c-.07-.14-.19.06-.12.2a2.84,2.84,0,0,0,1.93,1.64A3.78,3.78,0,0,0,113.41,183.71Z"/><path class="cls-8" d="M106.32,175.88a15.89,15.89,0,0,1,1.35-6.13c.77-1.57,1.88-2.68,3.11-2.84.11,0,.11-.3,0-.29-1.27.17-2.43,1.3-3.23,2.92a16.35,16.35,0,0,0-1.4,6.33C106.14,176.06,106.32,176.06,106.32,175.88Z"/><path class="cls-8" d="M109,181.73a9.14,9.14,0,0,1-2.14-5.51c0-.18-.19-.18-.17,0A9.52,9.52,0,0,0,108.9,182C109,182.07,109.09,181.82,109,181.73Z"/><path class="cls-8" d="M108.35,170.21c1.24-2.63,3.45-2.69,5.11-1.26.1.08.19-.16.09-.25a3.33,3.33,0,0,0-3-.93,3.81,3.81,0,0,0-2.36,2.23C108.16,170.15,108.28,170.35,108.35,170.21Z"/><path class="cls-8" d="M115,180.19a14.64,14.64,0,0,0,.7-7.36,7.58,7.58,0,0,0-1.34-3.42c-.09-.11-.21.09-.12.2,1.2,1.57,1.58,4.07,1.44,6.52s-.83,4.63-2.07,5.89a2.62,2.62,0,0,1-2.2.91c-.11,0-.11.27,0,.29C112.83,183.4,114.21,182.13,115,180.19Z"/><path class="cls-8" d="M107.27,174.05a7.13,7.13,0,0,1,.83-3.27c.08-.13,0-.34-.12-.2a7.57,7.57,0,0,0-.88,3.47C107.09,174.23,107.26,174.23,107.27,174.05Z"/><path class="cls-8" d="M115.06,174.11a6.61,6.61,0,0,0-1.24-3.64,4.28,4.28,0,0,0-2.71-1.64c-.11,0-.11.27,0,.29a4.12,4.12,0,0,1,2.57,1.53,6.19,6.19,0,0,1,1.21,3.46C114.9,174.29,115.07,174.29,115.06,174.11Z"/><path class="cls-8" d="M113.71,181a13.22,13.22,0,0,0,1.38-5.57c0-.18-.16-.18-.17,0a13,13,0,0,1-1.28,5.28,2.48,2.48,0,0,1-3.42,1.06c-.11,0-.15.23,0,.28A2.6,2.6,0,0,0,113.71,181Z"/><path class="cls-8" d="M109.39,181.18c-1.2-1.39-1.64-3.94-1.42-6.26a14,14,0,0,1,.77-3.44,4,4,0,0,1,1.53-2.2c.11-.05.06-.33,0-.28-1.1.57-1.77,2.41-2.15,4.12a12.59,12.59,0,0,0,0,5.95,6.16,6.16,0,0,0,1.18,2.36C109.39,181.53,109.48,181.28,109.39,181.18Z"/><path class="cls-8" d="M114,172.16a2.82,2.82,0,0,0-2.4-2.1,3,3,0,0,0-2.64,1.76c-.08.13,0,.33.12.2a2.9,2.9,0,0,1,2.45-1.68,2.62,2.62,0,0,1,2.33,2C113.9,172.47,114,172.33,114,172.16Z"/><path class="cls-8" d="M113.34,180.21a14.11,14.11,0,0,0,1.12-3.18,13.14,13.14,0,0,0,0-3.69c0-.18-.18-.1-.17.08a12.58,12.58,0,0,1,0,3.54,13.67,13.67,0,0,1-1.07,3C113.15,180.15,113.27,180.35,113.34,180.21Z"/><path class="cls-8" d="M108.51,176.92a15.08,15.08,0,0,1,.43-4.28c0-.17-.12-.24-.17-.08a15.38,15.38,0,0,0-.44,4.35C108.35,177.1,108.52,177.1,108.51,176.92Z"/><path class="cls-8" d="M109.2,174a3.88,3.88,0,0,1,.76-2.17,2.16,2.16,0,0,1,1.82-.43c.11,0,.11-.27,0-.29a2.21,2.21,0,0,0-2,.53A4.35,4.35,0,0,0,109,174C109,174.14,109.18,174.21,109.2,174Z"/><path class="cls-8" d="M113.57,175.66a5.88,5.88,0,0,0-.15-2.88c-.23-.7-.69-1.55-1.21-1.55-.11,0-.11.29,0,.29.48,0,.9.86,1.09,1.5a5.44,5.44,0,0,1,.1,2.56C113.37,175.76,113.54,175.84,113.57,175.66Z"/><path class="cls-8" d="M111.26,181.33a1.25,1.25,0,0,0,.92-.63,4.55,4.55,0,0,0,.68-1.35,12.54,12.54,0,0,1,.31-1.67c.07-.15-.08-.29-.15-.14a5.13,5.13,0,0,0-.25,1.32,3.65,3.65,0,0,1-.56,1.41c-.27.45-.56.74-.94.77a1.79,1.79,0,0,1-1.1-.2c-.1-.06-.15.21,0,.28A1.88,1.88,0,0,0,111.26,181.33Z"/><path class="cls-8" d="M110,179.77a4.41,4.41,0,0,1-.82-2.08,6.23,6.23,0,0,1,0-2.56c0-.17-.1-.31-.15-.14a6.68,6.68,0,0,0,0,2.78,4.71,4.71,0,0,0,.9,2.25C110,180.11,110.11,179.87,110,179.77Z"/><path class="cls-8" d="M111.86,179.5a6.44,6.44,0,0,0,1-2.62,9.79,9.79,0,0,0,.06-3.25c-.19-1.16-.76-1.72-1.47-1.58-.11,0-.11.31,0,.29,1.8-.36,1.53,3.74,1,5.46-.3,1-.81,2.08-1.54,1.83s-1.08-1.6-1.08-2.78c0-.18-.17-.18-.17,0a4.38,4.38,0,0,0,.67,2.64A.9.9,0,0,0,111.86,179.5Z"/><path class="cls-8" d="M110.21,174.82a1.93,1.93,0,0,1,.54-1.57,1.24,1.24,0,0,1,1.22-.18c.11,0,.15-.25,0-.28a1.34,1.34,0,0,0-1.41.26,2.33,2.33,0,0,0-.56,1.77C110,175,110.22,175,110.21,174.82Z"/><path class="cls-8" d="M111.76,178.58a7.76,7.76,0,0,0,.56-5.34c-.05-.16-.2,0-.15.14a5.77,5.77,0,0,1,.18,2.46,7.91,7.91,0,0,1-.52,2.16c-.25.58-.78,1-1.17.53a2.67,2.67,0,0,1-.28-1.24c0-.51-.07-1-.09-1.53,0-.18-.18-.18-.17,0,0,.61.05,1.21.11,1.81a2.48,2.48,0,0,0,.31,1.17C110.91,179.24,111.44,179.05,111.76,178.58Z"/><path class="cls-8" d="M111.56,177.45a4.52,4.52,0,0,0,.6-2.41c0-.76-.08-1.85-.69-1.69s-.68,1.37-.65,2.18c0,.18.18.18.17,0a2.78,2.78,0,0,1,.33-1.77c.22-.24.53-.15.62.3a4.17,4.17,0,0,1,.06.88,5.51,5.51,0,0,1-.23,1.66,2,2,0,0,1-.34.69c-.37.41-.39-.59-.36-.93,0-.18-.15-.26-.17-.08a1.94,1.94,0,0,0,.14,1.22C111.19,177.73,111.4,177.67,111.56,177.45Z"/><path class="cls-8" d="M111.67,175.95a2,2,0,0,0-.09-1.53c-.07-.14-.22,0-.15.14a1.87,1.87,0,0,1,.18.76.9.9,0,0,1-.05.39c-.22.3-.19-.31-.19-.42s-.16-.18-.17,0a1.09,1.09,0,0,0,.13.73C111.45,176.15,111.58,176.11,111.67,175.95Z"/><path class="cls-4" d="M105.71,166.81a42.81,42.81,0,0,1-8.46-.74c-.25-.05-.34.22-.1.28a43.38,43.38,0,0,0,8.57.75C106,167.1,106,166.81,105.71,166.81Z"/><path class="cls-4" d="M97.52,184.28a89.32,89.32,0,0,1,9.16-.19c.26,0,.26-.28,0-.29a89.32,89.32,0,0,0-9.16.19C97.27,184,97.27,184.3,97.52,184.28Z"/><path class="cls-4" d="M104.37,180h-2.72c-.26,0-.26.29,0,.29h2.72C104.62,180.26,104.62,180,104.37,180Z"/><path class="cls-4" d="M104.1,178.21c.26,0,.26-.28,0-.29q-3.62-.13-7.23,0c-.25,0-.26.3,0,.29Q100.48,178.08,104.1,178.21Z"/><path class="cls-4" d="M103.1,172l-3.71-.29c-.25,0-.25.27,0,.29l3.71.29C103.36,172.26,103.35,172,103.1,172Z"/><path class="cls-4" d="M106.62,182.31h-3.85c-.26,0-.26.29,0,.29h3.85C106.88,182.6,106.88,182.31,106.62,182.31Z"/><path class="cls-4" d="M72.52,166.91H56.6c-.26,0-.26.29,0,.29H72.52C72.78,167.2,72.78,166.91,72.52,166.91Z"/><path class="cls-4" d="M96,169q-11.06-.4-22.14-.26-3.16,0-6.33.12c-.26,0-.26.29,0,.29q11.07-.29,22.14,0,3.16.07,6.32.19C96.28,169.28,96.28,169,96,169Z"/><path class="cls-4" d="M73.19,172.73c-6.65-.72-13.34.25-20,.12-.26,0-.26.28,0,.29,6.64.14,13.29-.85,19.9-.13C73.33,173,73.44,172.76,73.19,172.73Z"/><path class="cls-4" d="M87.4,172.51a75.6,75.6,0,0,1-10.68.27c-.26,0-.25.28,0,.29a76.31,76.31,0,0,0,10.79-.28C87.76,172.77,87.65,172.49,87.4,172.51Z"/><path class="cls-4" d="M62.68,175.81l-9.75-.08c-.26,0-.26.28,0,.29l9.75.08C62.94,176.1,62.94,175.82,62.68,175.81Z"/><path class="cls-4" d="M85.74,179.53c-7.65.92-15.41.21-23.11.05-2.17,0-4.35,0-6.52.05-.25,0-.26.3,0,.29,7.78-.33,15.54.52,23.32.33,2.15-.05,4.3-.19,6.42-.45C86.1,179.78,86,179.5,85.74,179.53Z"/><path class="cls-4" d="M99.92,182a162.43,162.43,0,0,1-20.51,0c-.26,0-.25.27,0,.29a162.43,162.43,0,0,0,20.51,0C100.17,182.29,100.17,182,99.92,182Z"/><path class="cls-4" d="M62.48,182.82q-3.54,0-7.06-.23c-.25,0-.25.27,0,.29q3.52.26,7.06.23C62.74,183.11,62.74,182.82,62.48,182.82Z"/><path class="cls-4" d="M92.85,184.16c-3.82.35-7.64-.35-11.47-.31s-7.55.53-11.33.73a42.74,42.74,0,0,1-6.52-.08c-.25,0-.36.25-.11.28a62.2,62.2,0,0,0,11.34-.26c1.88-.16,3.77-.31,5.67-.37a57.35,57.35,0,0,1,5.81.18,40.69,40.69,0,0,0,6.6.12C93.1,184.43,93.11,184.14,92.85,184.16Z"/><path class="cls-4" d="M103.09,174.9q-5.36-.06-10.71.21c-3.56.18-7.09.58-10.64.79a39.35,39.35,0,0,1-6.18,0c-.25,0-.36.25-.11.28a58,58,0,0,0,10.67-.3c3.58-.31,7.17-.53,10.77-.61q3.09-.08,6.19,0C103.34,175.19,103.34,174.9,103.09,174.9Z"/><path class="cls-4" d="M94,178.53a27.37,27.37,0,0,1-5,0c-.25,0-.36.25-.11.28a27.89,27.89,0,0,0,5.13,0C94.28,178.79,94.29,178.51,94,178.53Z"/><path class="cls-4" d="M89.78,166.23a19.13,19.13,0,0,1-4.56.19,18.9,18.9,0,0,0-4.27.09c-.25,0-.14.32.11.28a20.54,20.54,0,0,1,4.55-.06,18.4,18.4,0,0,0,4.29-.22C90.14,166.46,90,166.19,89.78,166.23Z"/><path class="cls-4" d="M64.37,169.54q-4.62-.2-9.25-.17c-.26,0-.26.29,0,.29q4.63,0,9.25.17C64.62,169.84,64.62,169.55,64.37,169.54Z"/><path class="cls-4" d="M62.46,171.28H52.64c-.26,0-.26.29,0,.29h9.82C62.72,171.57,62.72,171.28,62.46,171.28Z"/><path class="cls-4" d="M106.33,168.49A30.89,30.89,0,0,1,96,167.63c-.25-.05-.35.22-.11.28a31.46,31.46,0,0,0,10.58.86C106.69,168.73,106.58,168.46,106.33,168.49Z"/></g></g></g></svg>