<svg xmlns="http://www.w3.org/2000/svg" viewBox="0 0 59.37 161.71"><defs><style>.cls-1{fill:#43415b;}.cls-2{fill:#526388;}.cls-3{fill:#4d5363;}.cls-4{fill:#3f4454;}.cls-5{fill:#424c5e;}.cls-6{fill:#303747;}.cls-7{fill:#efa0a6;}.cls-8{fill:#fccbaa;}.cls-9{fill:#1d1a3a;}.cls-10{fill:#e8e8e8;}.cls-11{fill:#3f3d58;}.cls-12{fill:#1d1d1b;}.cls-13,.cls-14{fill:#fff;}.cls-14{opacity:0.19;}</style></defs><title>RileyPark</title><g id="Layer_2" data-name="Layer 2"><g id="Layer_1-2" data-name="Layer 1"><g id="Riley_Park" data-name="Riley Park"><path class="cls-1" d="M13.51,12.22H12.29a.75.75,0,0,1-.65-.21c-.32-.26-.33-.48-.15-.86a7.2,7.2,0,0,0,.72-1.48,9.83,9.83,0,0,0,.15-3.9c0-.16-.27-.09-.24.07a9.24,9.24,0,0,1,0,2.91,4.61,4.61,0,0,1-.33,1.46,8.82,8.82,0,0,0-.58,1,1,1,0,0,0,.2,1.08.91.91,0,0,0,.57.17c.51,0,1,0,1.55,0A.12.12,0,0,0,13.51,12.22Z"/><path class="cls-2" d="M55.9,44.74a18.49,18.49,0,0,0-5.66-5.93,13.25,13.25,0,0,1-4.05-3.46,10.29,10.29,0,0,1-1.41-5.06c-.21-3.42.16-6.78-.62-10.15a22.93,22.93,0,0,0-4.73-9.43.23.23,0,0,0-.09-.07,14.82,14.82,0,0,0-4.38-4.85C29,1.27,20.78-1,13.36.46,9,1.34,6.28,4.22,3.65,7.63a.25.25,0,0,0,0,.25l.84,1.75C1.62,12.36-.64,15.68.16,19.86c.91,4.76,4.76,8,8.3,10.95.17.14.5,0,.41-.24a57.27,57.27,0,0,1-2.29-8.29,5.89,5.89,0,0,0,3.52.17,4.15,4.15,0,0,1-1.6,1.48.25.25,0,0,0,0,.42,12.65,12.65,0,0,0,9,1.89A3.36,3.36,0,0,0,17,28.71c.17,1.18.79,2.26.87,3.46a2.88,2.88,0,0,1-.33,1.68c-.59.95-1.7.84-2.66,1-4.3.53-6.44,4.75-7.48,8.49-1.62,5.86-2.43,12-1.24,18,1.34,6.79,3.5,13.4,4.8,20.2.78,4.07,1.48,8.14,2.36,12.19s2.65,7.72,3.44,11.72c.61,3.1-.3,6.25.24,9.36.65,3.74,2.28,7,3.72,10.45,1.57,3.78,2,7.7,3.08,11.65,2.16,7.84,6.13,15,9.06,22.52.25.64.46,2.56,1.53,2.25s1.54-2.7,1.86-3.64q.28-.84.53-1.69c5.07-3.57,6.66-10.09,6.4-16a78.66,78.66,0,0,0-1.38-10.1q1.53-4.91,3.4-9.71a41.16,41.16,0,0,0,3.09-10.57c.52-4.76.84-9.54,1.12-14.32a49.86,49.86,0,0,1,.75-8.24,40,40,0,0,1,3.12-7.54c2.48-5.37,5-10.82,5.79-16.74C59.87,56.91,59.14,50.19,55.9,44.74Z"/><path class="cls-3" d="M8.47,30.81c.17.14.5,0,.41-.24a57.27,57.27,0,0,1-2.29-8.29,5.89,5.89,0,0,0,3.52.17,4.15,4.15,0,0,1-1.6,1.48.25.25,0,0,0,0,.42,12.65,12.65,0,0,0,9,1.89A3.36,3.36,0,0,0,17,28.71c.17,1.18.79,2.26.87,3.46a2.88,2.88,0,0,1-.33,1.68c-.59.95-1.7.84-2.66,1-4.3.53-6.44,4.75-7.48,8.49-1.62,5.86-2.43,12-1.24,18,.34,1.72.73,3.42,1.15,5.12a10.65,10.65,0,0,0,2.95-7,.69.69,0,0,1,.35-.61c.65-5,4.12-9.58,7.93-12.78,2.42-2,5.31-3.39,7.79-5.36,5.44-4.31,10.93-10.62,12.28-17.62a17.23,17.23,0,0,0-8-17.29A25.88,25.88,0,0,0,19.81,2.9c-2.06-.17-4.5.09-6.46-.63A1.63,1.63,0,0,1,12.11.78C8.45,1.92,6,4.56,3.65,7.63a.25.25,0,0,0,0,.25l.84,1.75C1.62,12.36-.64,15.68.16,19.86,1.07,24.62,4.92,27.89,8.47,30.81Z"/><path class="cls-4" d="M55.9,44.74a18.49,18.49,0,0,0-5.66-5.93c-.67-.45-1.35-.88-2-1.37a15.55,15.55,0,0,0-3.08,2.15,20,20,0,0,0-4.91,7A47.08,47.08,0,0,1,31,60.51c-.66.69-2.93-7.63-3.75-10.95a36.45,36.45,0,0,0-2.7-6.94c-1.33-2.77-3.76-7.72-7.24-8.51-.62.66-1.6.59-2.46.7-4.3.53-6.44,4.75-7.48,8.49-1.62,5.86-2.43,12-1.24,18,1.34,6.79,3.5,13.4,4.8,20.2.78,4.07,1.48,8.14,2.36,12.19s2.65,7.72,3.44,11.72c.61,3.1-.3,6.25.24,9.36.65,3.74,2.28,7,3.72,10.45,1.57,3.78,2,7.7,3.08,11.65,2.16,7.84,6.13,15,9.06,22.52.25.64.46,2.56,1.53,2.25s1.54-2.7,1.86-3.64q.28-.84.53-1.69c5.07-3.57,6.66-10.09,6.4-16a78.66,78.66,0,0,0-1.38-10.1q1.53-4.91,3.4-9.71a41.16,41.16,0,0,0,3.09-10.57c.52-4.76.84-9.54,1.12-14.32a49.87,49.87,0,0,1,.75-8.24,40,40,0,0,1,3.12-7.54c2.48-5.37,5-10.82,5.79-16.74C59.87,56.91,59.14,50.19,55.9,44.74Z"/><path class="cls-3" d="M55.9,44.74a18.49,18.49,0,0,0-5.66-5.93c-.67-.45-1.35-.88-2-1.37a15.55,15.55,0,0,0-3.08,2.15,20,20,0,0,0-4.91,7A47.08,47.08,0,0,1,31,60.51c-.66.69-2.93-7.63-3.75-10.95a36.45,36.45,0,0,0-2.7-6.94c-1.33-2.77-3.76-7.72-7.24-8.51-.62.66-1.6.59-2.46.7-4.3.53-6.44,4.75-7.48,8.49-1.62,5.86-2.43,12-1.24,18,1.34,6.79,3.5,13.4,4.8,20.2.78,4.07,1.48,8.14,2.36,12.19s2.65,7.72,3.44,11.72c.61,3.1-.3,6.25.24,9.36.65,3.74,2.28,7,3.72,10.45,1.57,3.78,2,7.7,3.08,11.65.38,1.37.81,2.71,1.28,4,1.61-.91,3.19-1.87,4.73-2.9a45.16,45.16,0,0,0,9.33-7.82c1.48-1.74,2.8-3.87,4.5-5.51q.75-2.12,1.57-4.21a41.16,41.16,0,0,0,3.09-10.57c.52-4.76.84-9.54,1.12-14.32a49.87,49.87,0,0,1,.75-8.24,40,40,0,0,1,3.12-7.54c2.48-5.37,5-10.82,5.79-16.74C59.87,56.91,59.14,50.19,55.9,44.74Z"/><path class="cls-5" d="M55.9,44.74a18.49,18.49,0,0,0-5.66-5.93c-.67-.45-1.35-.88-2-1.37a15.55,15.55,0,0,0-3.08,2.15,20,20,0,0,0-4.91,7A47.08,47.08,0,0,1,31,60.51c-.66.69-2.93-7.63-3.75-10.95a36.45,36.45,0,0,0-2.7-6.94c-1.33-2.77-3.76-7.72-7.24-8.51-.62.66-1.6.59-2.46.7-4.3.53-6.44,4.75-7.48,8.49-1.62,5.86-2.43,12-1.24,18,1.34,6.79,3.5,13.4,4.8,20.2.78,4.07,1.48,8.14,2.36,12.19s2.65,7.72,3.44,11.72c.61,3.1-.3,6.25.24,9.36a43.19,43.19,0,0,0,3.35,9.56l.91,1.33c2.07,3,4.21,5.94,6.57,8.69a160.9,160.9,0,0,0,14.4,14.06,24.35,24.35,0,0,0,1-8.14,78.66,78.66,0,0,0-1.38-10.1q1.53-4.91,3.4-9.71a41.16,41.16,0,0,0,3.09-10.57c.52-4.76.84-9.54,1.12-14.32a49.87,49.87,0,0,1,.75-8.24,40,40,0,0,1,3.12-7.54c2.48-5.37,5-10.82,5.79-16.74C59.87,56.91,59.14,50.19,55.9,44.74Z"/><path class="cls-6" d="M55.9,44.74a18.49,18.49,0,0,0-5.66-5.93c-.67-.45-1.35-.88-2-1.37a15.55,15.55,0,0,0-3.08,2.15,20,20,0,0,0-4.91,7A47.08,47.08,0,0,1,31,60.51c-.66.69-2.93-7.63-3.75-10.95a36.45,36.45,0,0,0-2.7-6.94c-1.33-2.77-3.76-7.72-7.24-8.51-.62.66-1.6.59-2.46.7-4.3.53-6.44,4.75-7.48,8.49-1.62,5.86-2.43,12-1.24,18,1.34,6.79,3.5,13.4,4.8,20.2.78,4.07,1.48,8.14,2.36,12.19.69,3.18,2,6.18,2.85,9.3A50.56,50.56,0,0,0,20,108.64c1.64,2.16,3.67,4.12,5.15,6.38a7.56,7.56,0,0,1,1.34,3.73c.06,1.44-.65,2.79-.65,4.22,0,2.59,2.53,4.83,4.22,6.52,1.12,1.12,2.36,3.18,4.15,3s2.61-2.06,3.65-3.23a43.29,43.29,0,0,1,4.82-4.66c.48-.4,1-.79,1.46-1.17.36-1,.73-2,1.12-3a41.16,41.16,0,0,0,3.09-10.57c.52-4.76.84-9.54,1.12-14.32a49.87,49.87,0,0,1,.75-8.24,40,40,0,0,1,3.12-7.54c2.48-5.37,5-10.82,5.79-16.74C59.87,56.91,59.14,50.19,55.9,44.74Z"/><path class="cls-4" d="M15.1,87.78A58.82,58.82,0,0,0,19,97.87c1.45,3.11,3,6.58,5.45,9.07A16.88,16.88,0,0,0,26.91,109a2.55,2.55,0,0,0,4-2.29,26.73,26.73,0,0,1,.19-7.53,56.27,56.27,0,0,0,1.37-6.33,16.9,16.9,0,0,0-.73-6.07,35.77,35.77,0,0,1-1.55-5.66,18.23,18.23,0,0,1,.26-5.33c.6-3.39,1.95-6.82,1.73-10.3a30.17,30.17,0,0,0-.49-3.8c-.06-.33-.14-1-.3-1.59l-.37.39c-.66.69-2.93-7.63-3.75-10.95a36.45,36.45,0,0,0-2.7-6.94c-1.33-2.77-3.76-7.72-7.24-8.51-.62.66-1.6.59-2.46.7-4.3.53-6.44,4.75-7.48,8.49-1.62,5.86-2.43,12-1.24,18C6.68,64,7.33,66.56,8,69.16c1.43,2.84,3.33,5.45,4.47,8.44C13.72,80.89,14.23,84.39,15.1,87.78Z"/><path class="cls-3" d="M31.85,96.25l-.44-.63a27.72,27.72,0,0,0-4.72-4.93,17,17,0,0,1-5.53-8.19,19.17,19.17,0,0,0-4.86-7.75c-3.63-3.83-7.78-7.23-9.85-12.1C6.9,64.83,7.44,67,8,69.16c1.43,2.84,3.33,5.45,4.47,8.44,1.26,3.29,1.76,6.79,2.63,10.18A58.82,58.82,0,0,0,19,97.87c1.45,3.11,3,6.58,5.45,9.07A16.88,16.88,0,0,0,26.91,109a2.55,2.55,0,0,0,4-2.29,26.73,26.73,0,0,1,.19-7.53C31.32,98.21,31.6,97.23,31.85,96.25Z"/><path class="cls-7" d="M35.49,21.28c-.59-.6-1.45-1.63-1.1-2.54a1.59,1.59,0,0,1,1.46-.86,4.46,4.46,0,0,0-1-1.09c-.4-.29-.87-.47-1.27-.77a1.87,1.87,0,0,1-.91-1.94c.1-.39.43-.5.59-.81s-.15-.53-.63-.72c-1-.41-2.1-.72-3.13-1.09-2.3-.83-4.5-1.87-6-3.9l-.06-.09-.15-.13c-1.87-1.66-4.13-1.85-6.55-1.7a61.63,61.63,0,0,1-6.87.28,9.73,9.73,0,0,0-6.2,1.66l0,0a.25.25,0,0,0,0,.25l.84,1.75C1.62,12.36-.64,15.68.16,19.86c.91,4.76,4.76,8,8.3,10.95.17.14.5,0,.41-.24a57.27,57.27,0,0,1-2.29-8.29,5.89,5.89,0,0,0,3.52.17,4.15,4.15,0,0,1-1.6,1.48.25.25,0,0,0,0,.42,12.65,12.65,0,0,0,9,1.89A3.36,3.36,0,0,0,17,28.71c.17,1.18.79,2.26.87,3.46a3.33,3.33,0,0,1-.14,1.27,23,23,0,0,0,2.59-.77,54.66,54.66,0,0,0,10.24-5.45c1.47-.93,2.9-1.94,4.36-2.88.46-.3,1.51-.88,1.68-1.46S35.92,21.72,35.49,21.28Z"/><path class="cls-8" d="M35.49,21.28c-.59-.6-1.45-1.63-1.1-2.54a1.59,1.59,0,0,1,1.46-.86,4.46,4.46,0,0,0-1-1.09c-.4-.29-.87-.47-1.27-.77a1.87,1.87,0,0,1-.91-1.94c.1-.39.43-.5.59-.81s-.15-.53-.63-.72-.71-.27-1.07-.39a8.6,8.6,0,0,1,.37,7.32c-1.28,2.8-4.22,4-6.78,5.36C21.93,26.53,18.92,29,18,32.68a.77.77,0,0,1-.09.21,2.73,2.73,0,0,1-.12.56,23,23,0,0,0,2.59-.77,54.66,54.66,0,0,0,10.24-5.45c1.47-.93,2.9-1.94,4.36-2.88.46-.3,1.51-.88,1.68-1.46S35.92,21.72,35.49,21.28Z"/><path class="cls-9" d="M19,33.11a8.69,8.69,0,0,1,.65-2.3c1-2.17,3.11-3.47,4.85-5,2-1.73,3.51-3.9,2.86-6.68a12,12,0,0,0-2-3.77,11.77,11.77,0,0,0-1.25-2,14.3,14.3,0,0,1-.6,5.4,7.76,7.76,0,0,1-2.54,3.87.62.62,0,0,1-.86-.09.68.68,0,0,1-.42-.47,24.4,24.4,0,0,0-1.86-5,11.3,11.3,0,0,0-3.75-4A43.84,43.84,0,0,0,9.36,9.88,15.78,15.78,0,0,0,3.92,8.45l.56,1.18C1.62,12.36-.64,15.68.16,19.86c.91,4.76,4.76,8,8.3,10.95.17.14.5,0,.41-.24a57.27,57.27,0,0,1-2.29-8.29,5.89,5.89,0,0,0,3.52.17,4.15,4.15,0,0,1-1.6,1.48.25.25,0,0,0,0,.42,12.65,12.65,0,0,0,9,1.89A3.36,3.36,0,0,0,17,28.71c.17,1.18.79,2.26.87,3.46a3.33,3.33,0,0,1-.14,1.27Q18.37,33.29,19,33.11Z"/><path class="cls-1" d="M6.66,28.36a17.58,17.58,0,0,1-3.81-7.56A6.53,6.53,0,0,1,5,14.33c1-.71,2.06-1.16,3-1.85,1.27-.9,1.37-1.78.29-3L8.26,9.4a18.62,18.62,0,0,0-4.33-1l.56,1.18C1.62,12.36-.64,15.68.16,19.86c.91,4.76,4.76,8,8.3,10.95a.29.29,0,0,0,.34,0A30.37,30.37,0,0,1,6.66,28.36Z"/><path class="cls-10" d="M23.93,7.31a34.07,34.07,0,0,0-3.45-1.45,11.7,11.7,0,0,0-5.81-1.1c-1.1.13-2.11.53-3.19.75a7.39,7.39,0,0,1-3,0c-.8-.15-1.56-.32-2.31-.43a.63.63,0,0,0-.56.2c-.68.75-1.33,1.55-2,2.38a.25.25,0,0,0,0,.25l.57,1.2a.62.62,0,0,0,.46.34c2.86.47,4.5,2.5,6.6,4.56,1.07,1.05,2.34,1.86,3.33,3l.12.1a14.82,14.82,0,0,1,5.32,6.39.63.63,0,0,0,.94.27,9.87,9.87,0,0,0,2.87-3.36,11.24,11.24,0,0,0,1.05-3,4.63,4.63,0,0,0,.12-1,5.79,5.79,0,0,0-.49-1.6c-.56-1.88.92-2.88,1.31-4.56C26.18,8.76,25,7.9,23.93,7.31Z"/><path class="cls-11" d="M18.83,5.92c-2.69,0-2.69,4.18,0,4.18S21.53,5.92,18.83,5.92Z"/><path class="cls-12" d="M18.83,9.61A1.48,1.48,0,0,1,17.3,8a1.49,1.49,0,0,1,1.53-1.6A1.43,1.43,0,0,1,20,6.89,1.73,1.73,0,0,1,20.36,8,1.49,1.49,0,0,1,18.83,9.61Z"/><path class="cls-9" d="M7.67,8.32C7.4,7.8,6.71,7,6.4,7.23s.16.25.22.3a1.63,1.63,0,0,1,.51.73c.07.21,0,.58.24.73s.38-.13.4-.31A.72.72,0,0,0,7.67,8.32Z"/><path class="cls-9" d="M25.24,11.27A3.66,3.66,0,0,0,22,9.77a4.7,4.7,0,0,0-1.87,1.11,3.54,3.54,0,0,1-2.58.64,3.4,3.4,0,0,1-1.26-.43,5.53,5.53,0,0,0-.9-.53,1.67,1.67,0,0,0-.68,0l-.24.06q-.47-.29-.24-.58a4,4,0,0,1,.29-.55A7.29,7.29,0,0,0,15.05,5c0-.16-.27-.09-.24.07A7,7,0,0,1,14.76,8a6.88,6.88,0,0,1-.5,1.42,4,4,0,0,0-.45.88c-.08.39.18.6.54.56a3.28,3.28,0,0,0,.35-.09,1.24,1.24,0,0,1,.91.18,11,11,0,0,0,1,.57A3.83,3.83,0,0,0,20.41,11,3,3,0,0,1,22.86,10a3.93,3.93,0,0,1,2.21,1.43C25.17,11.57,25.34,11.39,25.24,11.27Z"/><path class="cls-9" d="M24.29,12.84c-.76-1.09-2.16-1-3.3-.68a9.66,9.66,0,0,1-2.82.54A6.92,6.92,0,0,1,15.39,12a8.27,8.27,0,0,0-2.05-.88,2.07,2.07,0,0,1-.46,0c-.26-.13-.19-.29-.09-.53s.41-.64.57-1a5.64,5.64,0,0,0,.14-4.17c-.05-.15-.29-.08-.24.07a5.37,5.37,0,0,1-.63,4.88c-.2.29-.49.61-.09.87a1.34,1.34,0,0,0,.58.13,4.18,4.18,0,0,1,1.43.5,7.64,7.64,0,0,0,4.46,1c1.53-.17,3.9-1.61,5.07.06C24.17,13.09,24.38,13,24.29,12.84Z"/><path class="cls-9" d="M24.12,14.52c-.8-.08-1.25-.89-2.12-.81-1,.09-1.78,1-2.88.75a16.78,16.78,0,0,1-2.76-1.4,16.9,16.9,0,0,0-3.09-.87.12.12,0,0,0-.09,0A6.34,6.34,0,0,1,12,11.77c-.33-.17-.7-.31-.37-.9,0-.08.2-.18.26-.25a2.36,2.36,0,0,0,.43-1.46,3,3,0,0,0-1.87-3c-.15-.06-.21.18-.07.24a2.63,2.63,0,0,1,1.63,2.06A3.23,3.23,0,0,1,12,9.9a1.56,1.56,0,0,1-.28.55c-.12.15-.31.24-.42.4-.68.94,1.38,1.48,1.95,1.63a.11.11,0,0,0,.1,0,14.07,14.07,0,0,1,3.27,1,9.27,9.27,0,0,0,2.61,1.27c.88.12,1.55-.41,2.34-.68a1.66,1.66,0,0,1,1.6.32,2,2,0,0,0,.94.39C24.28,14.78,24.28,14.53,24.12,14.52Z"/><path class="cls-3" d="M55.9,44.74a18.49,18.49,0,0,0-5.66-5.93c-.67-.45-1.35-.88-2-1.37a15.55,15.55,0,0,0-3.08,2.15,20,20,0,0,0-4.91,7A58.93,58.93,0,0,1,31,60.51c-.57,2.66-.55,3.84-1.86,6.21a63.6,63.6,0,0,1-4.4,7c-1.41,1.92-3.95,4.77-3.54,7.36.36,2.31,3.56,2.29,5.3,2,1.33-.23.73,1.67.64,2.37a25.2,25.2,0,0,1-2.47,7.25c-.69,1.53-1.61,3.59-.64,5.19A3.63,3.63,0,0,0,29.16,99c.6-.4,1.19.27,1.28.83a5.56,5.56,0,0,1-.35,2.14c-.43,1.56-1.17,3-1.63,4.55-.26.87-.63,2.09-.13,2.94a2.65,2.65,0,0,0,2.1,1c.75.09,3.2-.05,2.94,1.32-.55,2.87-1.65,5.6-2.18,8.47a24.17,24.17,0,0,0,.2,7.44c1.86-2.34,3.95-4.48,5.95-6.71a33.07,33.07,0,0,0,5.76-8.17c1.62-3.54,1.91-7.61,2.83-11.37a34.38,34.38,0,0,1,3.65-8.92,29.2,29.2,0,0,1,.6-5.19,40,40,0,0,1,3.12-7.54c2.48-5.37,5-10.82,5.79-16.74C59.87,56.91,59.14,50.19,55.9,44.74Z"/><path class="cls-2" d="M49.64,86.79c-1.81,1.49-4.43,3.2-5.27,5.48-.62,1.7-.79,3.52-1.49,5.2-.49,1.17-1.59,2.8-3.11,2.49-.47-.1-.52-.46-.89-.65s-.57,0-1,.33-.84,1-1.5.93-1.41-1-1.57-1.72a5.73,5.73,0,0,1,.17-2.3c.07-.36.27-1,0-1.25s-1.17.14-1.5.37a3.89,3.89,0,0,1-2.3,1c-2.17-.1-2-2.37-1.48-3.85.91-2.57,2.12-5,3.11-7.54s2.26-6,1.43-8.7c-.32-1-1-.76-1.9-.66a5.34,5.34,0,0,1-2.49-.21c-2.83-1-2.91-3.69-2.27-6.21-.87,1.42-1.78,2.81-2.77,4.16-1.41,1.92-3.95,4.77-3.54,7.36.36,2.31,3.56,2.29,5.3,2,1.33-.23.73,1.67.64,2.37a25.2,25.2,0,0,1-2.47,7.25c-.69,1.53-1.61,3.59-.64,5.19A3.63,3.63,0,0,0,29.16,99c.6-.4,1.19.27,1.28.83a5.56,5.56,0,0,1-.35,2.14c-.43,1.56-1.17,3-1.63,4.55-.26.87-.63,2.09-.13,2.94a2.65,2.65,0,0,0,2.1,1c.75.09,3.2-.05,2.94,1.32-.55,2.87-1.65,5.6-2.18,8.47a24.17,24.17,0,0,0,.2,7.44c1.86-2.34,3.95-4.48,5.95-6.71a33.07,33.07,0,0,0,5.76-8.17c1.62-3.54,1.91-7.61,2.83-11.37a34.38,34.38,0,0,1,3.65-8.92,29.2,29.2,0,0,1,.6-5.19c.11-.47.24-.93.39-1.38C50.26,86.27,50,86.53,49.64,86.79Z"/><path class="cls-3" d="M31.36,60.14l-.32.37-.14.65Z"/><path class="cls-9" d="M24.55,16.63a2.39,2.39,0,0,1-.87-.08c-.38-.14-.42-.35-.66-.58a1.36,1.36,0,0,0-.85-.4c-1-.11-1.84.66-2.82.73-1.32.1-2.25-.73-3.19-1.51a5.9,5.9,0,0,0-2.24-1.28c-.5-.14-1-.17-1.52-.32s-.82-.57-1.23-1a1.29,1.29,0,0,0-.41-.34c-.1,0-.3,0-.38-.08q-.38.12-.15-.48a2.53,2.53,0,0,0,.23-.27,2.1,2.1,0,0,0,.21-.36c.78-1.7-.59-3.29-1.87-4.23-.13-.09-.25.12-.12.21a4,4,0,0,1,2,2.94,2.27,2.27,0,0,1-.13.85,4.56,4.56,0,0,1-.55.81.6.6,0,0,0-.12.52c.09.24.22.21.42.27a.66.66,0,0,1,.64.21,3.39,3.39,0,0,1,.34.44,2.34,2.34,0,0,0,.42.46c.69.52,1.72.46,2.51.73,1.87.63,2.94,2.79,5.09,2.71,1,0,2-1,3.07-.71.53.13.66.64,1.1.87a2.39,2.39,0,0,0,1.13.16A.12.12,0,0,0,24.55,16.63Z"/><path class="cls-9" d="M23.85,18.87c-.58.14-1-.2-1.59-.31a2.81,2.81,0,0,0-1.05,0,8.08,8.08,0,0,1-1.55.27,2.25,2.25,0,0,1-1.57-.79,11.94,11.94,0,0,0-2-2c-.89-.58-1.81-1.11-2.71-1.66-.14-.08-.26.13-.12.21,1,.62,2.11,1.2,3.07,1.91s1.3,1.62,2.17,2.18a2.88,2.88,0,0,0,2.36.16,3.2,3.2,0,0,1,1.88.07,1.93,1.93,0,0,0,1.16.14A.12.12,0,0,0,23.85,18.87Z"/><path class="cls-13" d="M19.9,7.52a1.25,1.25,0,0,0-.82-.78A.12.12,0,0,0,19,7a1,1,0,0,1,.65.6C19.72,7.73,20,7.67,19.9,7.52Z"/><path class="cls-14" d="M19.55,8.61a1.15,1.15,0,0,1-.84.36.12.12,0,0,0,0,.25,1.4,1.4,0,0,0,1-.43C19.84,8.67,19.66,8.49,19.55,8.61Z"/></g></g></g></svg>