<?xml version="1.0" encoding="utf-8"?>
<!-- Generator: Adobe Illustrator 21.1.0, SVG Export Plug-In . SVG Version: 6.00 Build 0)  -->
<svg version="1.1" id="layer1" xmlns="http://www.w3.org/2000/svg" xmlns:xlink="http://www.w3.org/1999/xlink" x="0px" y="0px"
	 viewBox="0 0 100 100" style="enable-background:new 0 0 100 100;" xml:space="preserve">
<style type="text/css">
	.st0{fill:#FFFFFF;}
	.st1{fill:#4C3B27;}
	.st2{fill:#F9E0CF;}
	.st3{fill:#F7F3F0;}
	.st4{fill:#303747;}
	.st5{fill:#717D97;}
	.st6{fill:#FFE9DC;}
	.st7{fill:#E0CBBD;}
	.st8{fill:#CFB9AA;}
	.st9{fill:#C19A93;}
	.st10{fill:#B58F8A;}
	.st11{fill:#A37D7B;}
	.st12{fill:#232C3F;}
	.st13{fill:#567099;}
	.st14{fill:#FCCBAA;stroke:#FCCBAA;stroke-width:0.36;stroke-linecap:round;stroke-linejoin:round;}
</style>
<title>icons</title>
<g id="Hobbit">
	<path class="st0" d="M10.2,54c17.1,0.5,39,1.1,40.2,1.1C51,42.1,62.2,32.2,74.5,32s19.6,23.8,19.6,23.8v19.1H10L10.2,54z"/>
	<rect x="51.2" y="53.2" class="st1" width="41.8" height="1.7"/>
	<polygon class="st1" points="59.5,40.1 68.7,53.9 65.4,53.9 57.8,41.5 	"/>
	<polygon class="st1" points="87.7,40.2 78.6,54 81.8,54 89.4,41.7 	"/>
	<rect x="66.3" y="33.3" class="st1" width="2.3" height="20.7"/>
	<rect x="79.4" y="33.3" class="st1" width="2.3" height="20.7"/>
	<rect x="69.3" y="37.8" class="st2" width="9.5" height="8.2"/>
	<g id="_Group_">
		<rect id="_Path_" x="69.7" y="38.3" class="st3" width="4.1" height="7.3"/>
		<g id="_Group_2">
			<rect id="_Path_2" x="70" y="38.7" class="st4" width="3.4" height="3.1"/>
			<rect id="_Path_3" x="70" y="42.1" class="st4" width="3.4" height="3.1"/>
		</g>
		<g id="_Group_3">
			<polygon id="_Path_4" class="st5" points="71,39 70.4,39 70.4,39.7 			"/>
			<path id="_Path_5" class="st5" d="M73.1,41.1v-0.9L72,41.4h0.9L73.1,41.1z"/>
			<polygon id="_Path_6" class="st5" points="72.9,39 71.9,39 70.4,40.7 70.4,41.4 70.7,41.4 			"/>
			<path id="_Path_7" class="st5" d="M71.8,42.5h-0.9l-0.5,0.5V44L71.8,42.5z"/>
			<polygon id="_Path_8" class="st5" points="73.1,43.3 73.1,42.9 71.2,44.8 71.6,44.8 			"/>
			<polygon id="_Path_9" class="st5" points="72.5,44.8 73.1,44.8 73.1,44.2 			"/>
		</g>
	</g>
	<g id="_Group_4">
		<rect id="_Path_10" x="74.4" y="38.3" class="st3" width="4.1" height="7.3"/>
		<g id="_Group_5">
			<rect id="_Path_11" x="74.8" y="38.7" class="st4" width="3.4" height="3.1"/>
			<rect id="_Path_12" x="74.8" y="42.1" class="st4" width="3.4" height="3.1"/>
		</g>
		<g id="_Group_6">
			<polygon id="_Path_13" class="st5" points="75.7,39 75.1,39 75.1,39.7 			"/>
			<path id="_Path_14" class="st5" d="M77.8,41.1v-0.9l-1.1,1.2h0.9L77.8,41.1z"/>
			<polygon id="_Path_15" class="st5" points="77.7,39 76.6,39 75.1,40.7 75.1,41.4 75.5,41.4 			"/>
			<path id="_Path_16" class="st5" d="M76.5,42.5h-0.9l-0.5,0.5V44L76.5,42.5z"/>
			<polygon id="_Path_17" class="st5" points="77.8,43.3 77.8,42.9 76,44.8 76.4,44.8 			"/>
			<polygon id="_Path_18" class="st5" points="77.2,44.8 77.8,44.8 77.8,44.2 			"/>
		</g>
	</g>
	<rect x="63.9" y="56.9" class="st6" width="5.6" height="8.6"/>
	<rect x="69.5" y="56.9" class="st2" width="7.3" height="8.6"/>
	<rect x="76.9" y="56.9" class="st7" width="5.6" height="8.6"/>
	<g id="_Group_7">
		<rect id="_Path_19" x="65.1" y="58.5" class="st6" width="3.3" height="5.4"/>
		<g id="_Group_8">
			<rect id="_Path_20" x="65.4" y="58.8" class="st4" width="2.7" height="2.3"/>
			<rect id="_Path_21" x="65.4" y="61.3" class="st4" width="2.7" height="2.3"/>
		</g>
		<g id="_Group_9">
			<polygon id="_Path_22" class="st5" points="66.1,59.1 65.7,59.1 65.7,59.5 			"/>
			<path id="_Path_23" class="st5" d="M67.8,60.6v-0.7l-0.9,0.9h0.7L67.8,60.6z"/>
			<polygon id="_Path_24" class="st5" points="67.7,59.1 66.8,59.1 65.7,60.2 65.7,60.8 65.9,60.8 			"/>
			<path id="_Path_25" class="st5" d="M66.8,61.6h-0.7L65.7,62v0.7L66.8,61.6z"/>
			<polygon id="_Path_26" class="st5" points="67.8,62.2 67.8,61.9 66.3,63.3 66.6,63.3 			"/>
			<polygon id="_Path_27" class="st5" points="67.3,63.3 67.8,63.3 67.8,62.9 			"/>
		</g>
	</g>
	<g id="_Group_10">
		<rect id="_Path_28" x="78" y="58.5" class="st8" width="3.3" height="5.4"/>
		<rect id="_Path_29" x="78.3" y="58.8" class="st4" width="2.7" height="2.3"/>
		<rect id="_Path_30" x="78.3" y="61.3" class="st4" width="2.7" height="2.3"/>
		<g id="_Group_11">
			<polygon id="_Path_31" class="st5" points="79.1,59.1 78.6,59.1 78.6,59.5 			"/>
			<path id="_Path_32" class="st5" d="M80.7,60.6v-0.7l-0.9,0.9h0.7L80.7,60.6z"/>
			<polygon id="_Path_33" class="st5" points="80.6,59.1 79.8,59.1 78.6,60.2 78.6,60.8 78.9,60.8 			"/>
			<path id="_Path_34" class="st5" d="M79.7,61.6H79L78.6,62v0.7L79.7,61.6z"/>
			<polygon id="_Path_35" class="st5" points="80.7,62.2 80.7,61.9 79.3,63.3 79.6,63.3 			"/>
			<polygon id="_Path_36" class="st5" points="80.3,63.3 80.7,63.3 80.7,62.9 			"/>
		</g>
	</g>
	<g id="_Group_12">
		<rect id="_Path_37" x="71.6" y="58.5" class="st8" width="3.3" height="5.4"/>
		<rect id="_Path_38" x="71.8" y="58.8" class="st4" width="2.7" height="2.3"/>
		<rect id="_Path_39" x="71.8" y="61.3" class="st4" width="2.7" height="2.3"/>
		<g id="_Group_13">
			<polygon id="_Path_40" class="st5" points="72.6,59.1 72.1,59.1 72.1,59.5 			"/>
			<path id="_Path_41" class="st5" d="M74.3,60.6v-0.7l-0.9,0.9h0.7L74.3,60.6z"/>
			<polygon id="_Path_42" class="st5" points="74.1,59.1 73.3,59.1 72.1,60.2 72.1,60.8 72.4,60.8 			"/>
			<path id="_Path_43" class="st5" d="M73.2,61.6h-0.7L72.1,62v0.7L73.2,61.6z"/>
			<polygon id="_Path_44" class="st5" points="74.3,62.2 74.3,61.9 72.8,63.3 73.1,63.3 			"/>
			<polygon id="_Path_45" class="st5" points="73.8,63.3 74.3,63.3 74.3,62.9 			"/>
		</g>
	</g>
	<rect x="63.9" y="64.8" class="st9" width="5.6" height="1.5"/>
	<rect x="69.5" y="64.8" class="st10" width="7.3" height="1.5"/>
	<rect x="76.9" y="64.8" class="st11" width="5.6" height="1.5"/>
	<g id="_Group_14">
		<rect id="_Path_46" x="16.4" y="58.3" class="st3" width="3.6" height="6.3"/>
		<g id="_Group_15">
			<rect id="_Path_47" x="16.7" y="58.6" class="st4" width="2.9" height="2.7"/>
			<rect id="_Path_48" x="16.7" y="61.6" class="st4" width="2.9" height="2.7"/>
		</g>
		<g id="_Group_16">
			<polygon id="_Path_49" class="st5" points="17.5,59 17,59 17,59.5 			"/>
			<path id="_Path_50" class="st5" d="M19.4,60.8V60l-1,1h0.8L19.4,60.8z"/>
			<polygon id="_Path_51" class="st5" points="19.2,59 18.3,59 17,60.3 17,61 17.3,61 			"/>
			<path id="_Path_52" class="st5" d="M18.2,62h-0.8L17,62.5v0.8L18.2,62z"/>
			<polygon id="_Path_53" class="st5" points="19.4,62.6 19.4,62.3 17.8,64 18.1,64 			"/>
			<polygon id="_Path_54" class="st5" points="18.9,64 19.4,64 19.4,63.4 			"/>
		</g>
	</g>
	<g id="_Group_17">
		<rect id="_Path_55" x="20.5" y="58.3" class="st3" width="3.6" height="6.3"/>
		<g id="_Group_18">
			<rect id="_Path_56" x="20.8" y="58.6" class="st4" width="2.9" height="2.7"/>
			<rect id="_Path_57" x="20.8" y="61.6" class="st4" width="2.9" height="2.7"/>
		</g>
		<g id="_Group_19">
			<polygon id="_Path_58" class="st5" points="21.7,59 21.1,59 21.1,59.5 			"/>
			<path id="_Path_59" class="st5" d="M23.5,60.8V60l-1,1h0.8L23.5,60.8z"/>
			<polygon id="_Path_60" class="st5" points="23.3,59 22.4,59 21.1,60.3 21.1,61 21.5,61 			"/>
			<path id="_Path_61" class="st5" d="M22.3,62h-0.8l-0.4,0.5v0.8L22.3,62z"/>
			<polygon id="_Path_62" class="st5" points="23.5,62.6 23.5,62.3 21.9,64 22.2,64 			"/>
			<polygon id="_Path_63" class="st5" points="23,64 23.5,64 23.5,63.4 			"/>
		</g>
	</g>
	<g id="_Group_20">
		<rect id="_Rectangle_" x="43.3" y="57.4" class="st6" width="8.6" height="17.1"/>
		<rect id="_Rectangle_2" x="44.1" y="58.1" class="st12" width="7.2" height="16.4"/>
		<path id="_Path_64" class="st4" d="M47.9,59.1c-1.5,0-2.8,1.2-2.8,2.8c0,0,0,0,0,0v5.4h5.6v-5.4C50.7,60.3,49.4,59.1,47.9,59.1
			C47.9,59.1,47.9,59.1,47.9,59.1z"/>
		<path id="_Path_65" class="st13" d="M47.6,58.9c-1.5,0-2.8,1.2-2.8,2.8c0,0,0,0,0,0v5.4h5.6v-5.4C50.4,60.1,49.2,58.9,47.6,58.9
			C47.6,58.9,47.6,58.9,47.6,58.9z"/>
		<g id="_Group_21">
			<path id="_Path_66" class="st4" d="M47.6,60.6c0.5,0,1,0.4,1.1,1h-2.1C46.6,61,47.1,60.6,47.6,60.6z"/>
			<path id="_Path_67" class="st4" d="M48.5,60.6c-0.2-0.2-0.5-0.3-0.7-0.3v-1.2c0.6,0,1.2,0.3,1.6,0.7L48.5,60.6z"/>
			<path id="_Path_68" class="st4" d="M47.5,60.3c-0.3,0-0.5,0.1-0.7,0.3l-0.9-0.9c0.4-0.4,1-0.6,1.6-0.7L47.5,60.3z"/>
			<path id="_Path_69" class="st4" d="M46.6,60.8c-0.2,0.2-0.3,0.4-0.3,0.7h-1.2c0-0.6,0.3-1.2,0.7-1.6L46.6,60.8z"/>
			<rect id="_Path_70" x="45.1" y="61.8" class="st4" width="1.2" height="2.4"/>
			<rect id="_Path_71" x="46.6" y="61.8" class="st4" width="2.1" height="2.4"/>
			<rect id="_Path_72" x="48.9" y="61.8" class="st4" width="1.2" height="2.4"/>
			<path id="_Path_73" class="st4" d="M48.9,61.5c0-0.3-0.1-0.5-0.3-0.7l0.9-0.9c0.4,0.4,0.6,1,0.7,1.6H48.9z"/>
			<rect id="_Path_74" x="45.1" y="64.4" class="st4" width="1.2" height="2.4"/>
			<rect id="_Path_75" x="46.6" y="64.4" class="st4" width="2.1" height="2.4"/>
			<rect id="_Path_76" x="48.9" y="64.4" class="st4" width="1.2" height="2.4"/>
		</g>
		<g id="_Group_22">
			<path id="_Path_77" class="st5" d="M47.7,60.8l-0.5,0.5h1.1C48.3,61,48,60.8,47.7,60.8z"/>
			<path id="_Path_78" class="st5" d="M48.3,60.2l0.2,0.1l0.5-0.5l-0.2-0.1L48.3,60.2z"/>
			<path id="_Path_79" class="st5" d="M47.2,60.2l0.1-0.1v-0.7c-0.4,0.1-0.7,0.2-1,0.4l0.5,0.5C46.9,60.3,47.1,60.2,47.2,60.2z"/>
			<path id="_Path_80" class="st5" d="M46.2,61.2c0-0.1,0.1-0.2,0.2-0.3l-0.5-0.5c-0.2,0.3-0.4,0.6-0.4,1h0.7L46.2,61.2z"/>
			<polygon id="_Path_81" class="st5" points="45.3,63.2 45.3,63.9 46.1,63.9 46.1,62.4 			"/>
			<polygon id="_Path_82" class="st5" points="48.2,62 46.8,62 46.8,63.4 			"/>
			<polygon id="_Path_83" class="st5" points="50,63.5 50,62.4 49.2,63.1 49.2,63.9 49.5,63.9 			"/>
			<path id="_Path_84" class="st5" d="M49.7,60.5c0-0.1-0.1-0.2-0.2-0.3L49,60.8c0.1,0.1,0.1,0.2,0.1,0.3L49.7,60.5z"/>
			<polygon id="_Path_85" class="st5" points="48.5,65 48.5,64.7 47.7,64.7 46.8,65.5 46.8,66.6 46.8,66.6 			"/>
			<polygon id="_Path_86" class="st5" points="49.2,65.4 49.2,66.6 50,66.6 50,64.7 			"/>
		</g>
		<rect id="_Rectangle_3" x="45" y="68" class="st13" width="2.2" height="5.2"/>
		<rect id="_Rectangle_4" x="48.1" y="68" class="st13" width="2.2" height="5.2"/>
	</g>
	<path class="st14" d="M22,55.7H7.1c-0.8,0-1.5-0.9-1.5-2.1c0-2,0.8-3.8,2.1-5.3c3.3-4,31.2-10.8,31.2-10.8h20.9
		c0,0,9.6-11.6,14.4-12.5c0,0,20,12.7,19.5,30.4c-1.1-0.1-2.2-0.1-3.3,0c0,0-1.7-13.5-10.4-21.3H68.2c0,0-9.9,6.8-10.4,21.5H22"/>
	<g id="_Group_23">
		<rect id="_Path_87" x="29" y="58.5" class="st3" width="3.6" height="6.3"/>
		<g id="_Group_24">
			<rect id="_Path_88" x="29.3" y="58.8" class="st4" width="2.9" height="2.7"/>
			<rect id="_Path_89" x="29.3" y="61.8" class="st4" width="2.9" height="2.7"/>
		</g>
		<g id="_Group_25">
			<polygon id="_Path_90" class="st5" points="30.1,59.2 29.6,59.2 29.6,59.7 			"/>
			<path id="_Path_91" class="st5" d="M31.9,60.9v-0.8l-1,1h0.8L31.9,60.9z"/>
			<polygon id="_Path_92" class="st5" points="31.8,59.2 30.9,59.2 29.6,60.5 29.6,61.2 29.9,61.2 			"/>
			<path id="_Path_93" class="st5" d="M30.8,62.2H30l-0.4,0.5v0.8L30.8,62.2z"/>
			<polygon id="_Path_94" class="st5" points="31.9,62.8 31.9,62.5 30.4,64.2 30.7,64.2 			"/>
			<polygon id="_Path_95" class="st5" points="31.4,64.2 31.9,64.2 31.9,63.6 			"/>
		</g>
	</g>
	<g id="_Group_26">
		<rect id="_Path_96" x="33.1" y="58.5" class="st3" width="3.6" height="6.3"/>
		<g id="_Group_27">
			<rect id="_Path_97" x="33.4" y="58.8" class="st4" width="2.9" height="2.7"/>
			<rect id="_Path_98" x="33.4" y="61.8" class="st4" width="2.9" height="2.7"/>
		</g>
		<g id="_Group_28">
			<polygon id="_Path_99" class="st5" points="34.2,59.2 33.7,59.2 33.7,59.7 			"/>
			<path id="_Path_100" class="st5" d="M36.1,60.9v-0.8l-1,1h0.8L36.1,60.9z"/>
			<polygon id="_Path_101" class="st5" points="35.9,59.2 35,59.2 33.7,60.5 33.7,61.2 34,61.2 			"/>
			<path id="_Path_102" class="st5" d="M34.9,62.2h-0.8l-0.4,0.5v0.8L34.9,62.2z"/>
			<polygon id="_Path_103" class="st5" points="36,62.8 36,62.5 34.5,64.2 34.8,64.2 			"/>
			<polygon id="_Path_104" class="st5" points="35.6,64.2 36,64.2 36,63.6 			"/>
		</g>
	</g>
</g>
</svg>
