<svg id="layer1" xmlns="http://www.w3.org/2000/svg" viewBox="0 0 100 100"><defs><style>.cls-1{fill:#f7f3f0;}.cls-2,.cls-5,.cls-6{fill:none;stroke-miterlimit:10;}.cls-2{stroke:#3f4454;stroke-width:1.28px;}.cls-3{font-size:8.18px;fill:#fff;font-family:GaboDrive, Gabo Drive;}.cls-4{letter-spacing:-0.01em;}.cls-5,.cls-6{stroke:#fd7190;}.cls-5{stroke-width:0.29px;}.cls-6{stroke-width:1.17px;}</style></defs><title>icons</title><g id="Fairview"><polygon class="cls-1" points="50 30.43 5.03 53.8 5.03 69.57 94.97 69.57 94.97 53.8 50 30.43"/><polygon class="cls-2" points="50 30.43 5.03 53.8 5.03 69.57 94.97 69.57 94.97 53.8 50 30.43"/><text class="cls-3" transform="translate(20.75 63.81) scale(1.16 1)">PUBLIC MARK<tspan class="cls-4" x="43.34" y="0">E</tspan><tspan x="46.63" y="0">T</tspan></text><path class="cls-5" d="M21.14,57.34h2a5.11,5.11,0,0,1,1.19.1,1.37,1.37,0,0,1,.61.31,1.26,1.26,0,0,1,.32.5,2.7,2.7,0,0,1,.11.9v.56a1.74,1.74,0,0,1-.21.89,1.23,1.23,0,0,1-.53.44,2.45,2.45,0,0,1-1,.16h-.52v2.6h-2Zm2,2.75h.14a.67.67,0,0,0,.42-.12.59.59,0,0,0,.15-.48V59c0-.22-.06-.36-.17-.43a1.07,1.07,0,0,0-.54-.1Z"/><path class="cls-5" d="M30.34,57.34v4.32a6.5,6.5,0,0,1-.06,1,1.36,1.36,0,0,1-.33.61,2.27,2.27,0,0,1-1.77.63A3.38,3.38,0,0,1,27,63.75a1.8,1.8,0,0,1-.77-.5,1.27,1.27,0,0,1-.3-.65,13.18,13.18,0,0,1,0-1.44V57.34h2v4.58a1.3,1.3,0,0,0,0,.54.27.27,0,0,0,.46,0,2,2,0,0,0,.06-.61V57.34Z"/><path class="cls-5" d="M31.09,57.34H33a5.81,5.81,0,0,1,1.39.12,1.39,1.39,0,0,1,.77.5,2,2,0,0,1,.29,1.21,1.15,1.15,0,0,1-.21.79,1.52,1.52,0,0,1-.81.34,1.52,1.52,0,0,1,.92.44,1.49,1.49,0,0,1,.24.93v.6a2.09,2.09,0,0,1-.18,1,.88.88,0,0,1-.55.43,6.66,6.66,0,0,1-1.56.12H31.09Zm2,2.54h.19c.28,0,.45,0,.51-.12a1.79,1.79,0,0,0,.08-.7.55.55,0,0,0-.13-.42.63.63,0,0,0-.24-.16,1.89,1.89,0,0,0-.4,0Zm0,2.81a1.37,1.37,0,0,0,.59-.11c.13-.07.19-.23.19-.49v-.6c0-.28-.06-.44-.17-.5a1.53,1.53,0,0,0-.61-.1Z"/><path class="cls-5" d="M38.28,57.34v5.08h1.19V63.8H36.33V57.34Z"/><path class="cls-5" d="M41.89,57.34V63.8h-2V57.34Z"/><path class="cls-5" d="M47.25,59.75h-1.7c0-.76-.1-1.19-.22-1.29a.59.59,0,0,0-.39-.16.44.44,0,0,0-.39.26,3,3,0,0,0-.15,1.2v1.47a3.65,3.65,0,0,0,.15,1.41.44.44,0,0,0,.38.22.6.6,0,0,0,.4-.17,3,3,0,0,0,.22-1.46h1.71a5.65,5.65,0,0,1-.19,1.68,1.52,1.52,0,0,1-.73.73,2.78,2.78,0,0,1-1.39.32,3.25,3.25,0,0,1-1.41-.27,1.38,1.38,0,0,1-.74-.74,4.23,4.23,0,0,1-.18-1.43V59.62a7.19,7.19,0,0,1,.06-1A1.39,1.39,0,0,1,43,57.9a2.46,2.46,0,0,1,1.89-.69,3.11,3.11,0,0,1,1.42.29,1.42,1.42,0,0,1,.72.68,2.82,2.82,0,0,1,.19,1Z"/><path class="cls-5" d="M55.62,57.34V63.8H53.92v-4l-.69,4H52l-.72-4v4H49.6V57.34H52l.63,2.77.56-2.77Z"/><path class="cls-5" d="M59.55,57.34l1.33,6.46H59l-.1-1.16H58l-.12,1.16H56l1.24-6.46Zm-.82,4.15c-.1-.73-.2-1.64-.3-2.71-.2,1.23-.32,2.14-.37,2.71Z"/><path class="cls-5" d="M61.22,57.34H62.6a10.48,10.48,0,0,1,1.87.11,1.39,1.39,0,0,1,.79.46,1.89,1.89,0,0,1,.31,1.2,1.59,1.59,0,0,1-.22.95,1.22,1.22,0,0,1-.66.41c.38.08.61.19.68.32a1.74,1.74,0,0,1,.15.37,5.06,5.06,0,0,1,.05,1v1.7H63.87V61.66a1,1,0,0,0-.17-.6.81.81,0,0,0-.53-.17V63.8h-2Zm2,2.54a1.38,1.38,0,0,0,.51-.08c.13-.05.19-.22.19-.51v-.36a.41.41,0,0,0-.18-.4,1.13,1.13,0,0,0-.52-.1Z"/><path class="cls-5" d="M71,57.34l-1.12,2.92,1.22,3.55h-2l-.79-2.39V63.8h-2V57.34h2v2.23l.87-2.23Z"/><path class="cls-5" d="M71.42,57.34h3.44v1.3h-1.5v1.23h1.07v1.23H73.37v1.42H74.9V63.8H71.42Z"/><path class="cls-5" d="M79.22,57.34l0,1.31H78V63.8h-2V58.63H74.85V57.34Z"/><line class="cls-6" x1="20.85" y1="65.48" x2="78.67" y2="65.48"/></g></svg>