<svg id="layer1" xmlns="http://www.w3.org/2000/svg" viewBox="0 0 100 100"><defs><style>.cls-1,.cls-2,.cls-3,.cls-4,.cls-5,.cls-6,.cls-7{fill:none;stroke-miterlimit:10;stroke-width:3px;}.cls-1{stroke:#c19a93;}.cls-2{stroke:#ecab80;}.cls-3{stroke:#fccbaa;}.cls-4{stroke:#eed2be;}.cls-5{stroke:#f9e0cf;}.cls-6{stroke:#e8e8e8;}.cls-7{stroke:#f7f3f0;}</style></defs><title>icons</title><path class="cls-1" d="M6.26,71.87a43.74,43.74,0,0,1,87.48,0"/><path class="cls-2" d="M9,71.87a41,41,0,1,1,82.08,0"/><path class="cls-3" d="M11.65,71.87a38.35,38.35,0,0,1,76.69,0"/><path class="cls-4" d="M14.05,71.87a35.95,35.95,0,0,1,71.9,0"/><path class="cls-5" d="M16.45,71.87a33.55,33.55,0,0,1,67.1,0"/><path class="cls-6" d="M19.14,71.87a30.86,30.86,0,0,1,61.71,0"/><path class="cls-7" d="M21.84,71.87a28.16,28.16,0,0,1,56.32,0"/></svg>