<svg id="layer1" xmlns="http://www.w3.org/2000/svg" xmlns:xlink="http://www.w3.org/1999/xlink" viewBox="0 0 100 100"><defs><style>.cls-1{fill:#526388;}.cls-2{fill:#4d5363;}.cls-3{fill:#f7f3f0;}.cls-4{fill:#e8e8e8;}.cls-5{fill:#3f4454;}.cls-6{fill:url(#linear-gradient);}</style><linearGradient id="linear-gradient" x1="28.43" y1="62.94" x2="28.79" y2="62.94" gradientUnits="userSpaceOnUse"><stop offset="0.5" stop-color="#f7f3f0"/><stop offset="0.55" stop-color="#3f4454"/></linearGradient></defs><title>icons</title><g id="Marpole"><path class="cls-1" d="M14.21,31.4h14.4a0,0,0,0,1,0,0V63.93a0,0,0,0,1,0,0H9.91a0,0,0,0,1,0,0V35.69A4.3,4.3,0,0,1,14.21,31.4Z"/><path class="cls-1" d="M28.61,35.35v-4h3.6S29.69,31.75,28.61,35.35Z"/><path class="cls-2" d="M33.33,31.4h52.3a4.09,4.09,0,0,1,4.09,4.09V63.93a0,0,0,0,1,0,0H28.61a0,0,0,0,1,0,0V36.12A4.72,4.72,0,0,1,33.33,31.4Z"/><rect class="cls-3" x="9.91" y="38.59" width="18.69" height="12.94"/><path class="cls-4" d="M33.64,47.57V49.4a2.11,2.11,0,0,1-2.1,2.12H28.61V38.59h5.16A2.39,2.39,0,0,1,36.16,41v4.44Z"/><rect class="cls-3" x="13.15" y="33.91" width="12.58" height="2.52" rx="1.26" ry="1.26"/><rect class="cls-4" x="38.68" y="38.59" width="13.3" height="10.43" rx="2.25" ry="2.25"/><rect class="cls-4" x="55.21" y="38.59" width="13.3" height="10.43" rx="2.25" ry="2.25"/><rect class="cls-4" x="71.75" y="38.59" width="13.3" height="10.43" rx="2.25" ry="2.25"/><rect class="cls-5" x="28.79" y="61.95" width="61.3" height="1.98"/><path class="cls-5" d="M63.84,63.75v-.93A4.82,4.82,0,0,1,68.66,58H79.58a5.12,5.12,0,0,1,5.12,5.12v.63"/><circle class="cls-2" cx="79.3" cy="64.11" r="4.31"/><circle class="cls-1" cx="79.3" cy="64.11" r="2.52"/><circle class="cls-2" cx="69.23" cy="64.11" r="4.31"/><circle class="cls-1" cx="69.23" cy="64.11" r="2.52"/><path class="cls-5" d="M31.66,63.93V63a4.82,4.82,0,0,1,4.82-4.82H47.4a5.12,5.12,0,0,1,5.12,5.12v.63"/><circle class="cls-2" cx="47.12" cy="64.29" r="4.31"/><circle class="cls-1" cx="47.12" cy="64.29" r="2.52"/><circle class="cls-2" cx="37.06" cy="64.29" r="4.31"/><circle class="cls-1" cx="37.06" cy="64.29" r="2.52"/><path class="cls-2" d="M22.16,63.79a4.31,4.31,0,1,1-8.63-.08"/><path class="cls-1" d="M20.36,63.77a2.52,2.52,0,0,1-5,0"/><rect class="cls-3" x="9.91" y="61.95" width="18.51" height="1.98"/><polyline class="cls-6" points="28.79 61.95 28.79 63.93 28.43 63.93 28.43 61.95"/></g></svg>