<svg xmlns="http://www.w3.org/2000/svg" viewBox="0 0 151 75.5"><defs><style>.cls-1,.cls-2,.cls-3,.cls-4,.cls-5,.cls-6,.cls-7{fill:none;stroke-miterlimit:10;stroke-width:5px;}.cls-1{stroke:#fd191b;}.cls-2{stroke:#fd7f21;}.cls-3{stroke:#fffc32;}.cls-4{stroke:#1db846;}.cls-5{stroke:#006cfb;}.cls-6{stroke:#7723e1;}.cls-7{stroke:#d022c4;}</style></defs><title>WestEnd2</title><g id="Layer_2" data-name="Layer 2"><g id="Layer_1-2" data-name="Layer 1"><g id="WestEnd"><path class="cls-1" d="M2.5,75.5a73,73,0,0,1,146,0"/><path class="cls-2" d="M7,75.5a68.5,68.5,0,0,1,137,0"/><path class="cls-3" d="M11.5,75.5a64,64,0,0,1,128,0"/><path class="cls-4" d="M15.5,75.5a60,60,0,0,1,120,0"/><path class="cls-5" d="M19.5,75.5a56,56,0,0,1,112,0"/><path class="cls-6" d="M24,75.5a51.5,51.5,0,0,1,103,0"/><path class="cls-7" d="M28.5,75.5a47,47,0,0,1,94,0"/></g></g></g></svg>