<svg id="layer1" xmlns="http://www.w3.org/2000/svg" viewBox="0 0 100 100"><defs><style>.cls-1{fill:#f9e0cf;}.cls-2{font-size:2.85px;font-family:Poppins-Light, Poppins;}.cls-2,.cls-3{fill:#3f4454;}.cls-3{font-size:5.06px;font-family:Poppins-Regular, Poppins;}.cls-4{fill:none;stroke:#fccbaa;stroke-miterlimit:10;stroke-width:0.95px;}.cls-5{fill:#7a3f48;}.cls-10,.cls-12,.cls-6,.cls-7,.cls-9{font-size:3.11px;fill:#fff;font-family:NotoSerif, Noto Serif;}.cls-13,.cls-7{letter-spacing:-0.02em;}.cls-10,.cls-8{letter-spacing:0em;}.cls-11,.cls-9{letter-spacing:0em;}.cls-12{letter-spacing:0em;}.cls-14{fill:#fccbaa;}</style></defs><title>icons</title><g id="Kerrisdale"><rect class="cls-1" x="24.84" y="46.66" width="50.17" height="16.32"/><path class="cls-1" d="M75,46.66H24.84V30.34A56.46,56.46,0,0,0,36.1,29.11c8.07-1.74,8.51-3.83,13.31-4,6.21-.17,7.8,3.26,17.4,4.7a47.16,47.16,0,0,0,8.19.49Z"/><text class="cls-2" transform="translate(39.8 32.82) scale(1.16 1)">Welcome To</text><text class="cls-3" transform="translate(31.79 38.52) scale(1.33 1)">KERRISDALE</text><line class="cls-4" x1="24.68" y1="46.52" x2="75" y2="46.52"/><rect class="cls-5" x="28.64" y="49.53" width="43.05" height="11.39"/><text class="cls-6" transform="translate(32.7 54.3) scale(1.04 1)">T</text><text class="cls-7" transform="translate(34.68 54.3) scale(0.73 0.7)">W<tspan class="cls-8" x="3.2" y="0">O</tspan></text><text class="cls-9" transform="translate(38.68 54.3) scale(1.04 1)"><tspan xml:space="preserve"> H</tspan></text><text class="cls-6" transform="translate(42.09 54.3) scale(0.73 0.7)">OURS</text><text class="cls-6" transform="translate(48.1 54.3) scale(1.04 1)"><tspan xml:space="preserve"> F</tspan></text><text class="cls-6" transform="translate(50.85 54.3) scale(0.73 0.7)">REE</text><text class="cls-6" transform="translate(55.15 54.3) scale(1.04 1)"><tspan xml:space="preserve"> P</tspan></text><text class="cls-10" transform="translate(57.94 54.3) scale(0.73 0.7)">ARKING</text><text class="cls-6" transform="translate(66.78 54.3) scale(1.04 1)"><tspan class="cls-11" xml:space="preserve"> </tspan><tspan x="-34.38" y="3.73">A</tspan></text><text class="cls-12" transform="translate(33.34 58.03) scale(0.73 0.7)">T</text><text class="cls-6" transform="translate(34.73 58.03) scale(1.04 1)"><tspan xml:space="preserve"> T</tspan></text><text class="cls-6" transform="translate(37.55 58.03) scale(0.73 0.7)">HE</text><text class="cls-9" transform="translate(40.75 58.03) scale(1.04 1)"><tspan xml:space="preserve"> K</tspan></text><text class="cls-6" transform="translate(43.86 58.03) scale(0.73 0.7)">ERRIS<tspan class="cls-13" x="8.85" y="0">D</tspan><tspan x="11.05" y="0">ALE</tspan></text><text class="cls-6" transform="translate(56.31 58.03) scale(1.04 1)"><tspan xml:space="preserve"> P</tspan></text><text class="cls-6" transform="translate(59.1 58.03) scale(0.73 0.7)">ARKADE</text><text class="cls-6" transform="translate(68.41 58.03) scale(1.04 1)"> </text><rect class="cls-14" x="74.69" y="22.54" width="10.44" height="49.38"/><rect class="cls-14" x="14.87" y="22.46" width="10.44" height="49.38"/></g></svg>