<svg id="layer1" xmlns="http://www.w3.org/2000/svg" viewBox="0 0 100 100"><defs><style>.cls-1{font-size:13.08px;fill:#3f4454;font-family:NotoSerif, Noto Serif;}.cls-2{letter-spacing:-0.02em;}.cls-3{fill:#fccbaa;}</style></defs><title>icons</title><g id="Renfrew"><text class="cls-1" transform="translate(17.71 46.12)">RENFR<tspan class="cls-2" x="43.01" y="0">E</tspan><tspan x="50.9" y="0">W</tspan><tspan x="-17.84" y="15.7">COLLIN</tspan><tspan class="cls-2" x="30.99" y="15.7">GW</tspan><tspan x="53.5" y="15.7">OOD</tspan></text><path class="cls-3" d="M95.16,38.05h0a.4.4,0,0,1,.13.16,1.34,1.34,0,0,1,.12.53.8.8,0,0,1-.19.65c-.05-.07,0-.14-.07-.22a.77.77,0,0,0-.19-.25,1.3,1.3,0,0,0-.53-.29.79.79,0,0,0-.32,0,.86.86,0,0,0-.3.11,1,1,0,0,0-.5,1.2,1.67,1.67,0,0,0,.14.4c.06.12.14.25.22.36a4.58,4.58,0,0,1,.74,3.26,2.09,2.09,0,0,1-1.45,1.54,1.65,1.65,0,0,1-1.15,0,1.56,1.56,0,0,1-.84.48,1.83,1.83,0,0,1-.92-.09.23.23,0,0,1-.16.18.74.74,0,0,1-.25,0h-.46c-.58,0-1.16-.05-1.75,0a1.37,1.37,0,0,1-.45,0,.4.4,0,0,0-.26,0s-.17.06-.13.1a.14.14,0,0,1,0-.23h-.2l-.1,0a.12.12,0,0,0-.06.08,0,0,0,0,1,0,0,.22.22,0,0,1,.19-.31.31.31,0,0,1,.13-.16.63.63,0,0,1,.55,0,1.55,1.55,0,0,0,1.16-.14,2.66,2.66,0,0,1-.43-1A1.55,1.55,0,0,1,88,43.32s0,0,0,0a4,4,0,0,0-.64-.4c-.11,0-.16,0-.27.05a.9.9,0,0,1-.34,0A1.79,1.79,0,0,1,86,42.6a1,1,0,0,0-.61-.27l-.05.06h0v0a.31.31,0,0,0,.17.09.38.38,0,0,1-.32,0,.18.18,0,0,0,.14.12.45.45,0,0,1-.48-.12.21.21,0,0,1-.21,0,.64.64,0,0,1-.13-.18.32.32,0,0,1-.05-.17.31.31,0,0,1,.08-.15.93.93,0,0,1,.41-.34,1.12,1.12,0,0,1,.21,0l.56,0a.43.43,0,0,0,.24-.06.42.42,0,0,0,.11-.14,1.62,1.62,0,0,0,.16-.84,6.09,6.09,0,0,1-.73,0A.83.83,0,0,1,85,40.4a.55.55,0,0,0-.19-.13c-.08,0-.16,0-.24-.05a.51.51,0,0,1-.32-.3c-.45,0-.09-.47,0-.63s.19-.42.32-.6a1.4,1.4,0,0,1,.48-.34,3.7,3.7,0,0,1,1.15-.44.79.79,0,0,1,.3-.21.29.29,0,0,1,.32.09s0,.07.05.11a.41.41,0,0,0,.2.14,6.1,6.1,0,0,1,1.27,1,.94.94,0,0,0,.52.27h.57a5.79,5.79,0,0,1,2.14.51,1.78,1.78,0,0,1-.46-.92l.17.09a1.42,1.42,0,0,1,.19-1,.17.17,0,0,0,0,.13,2.18,2.18,0,0,1,1.25-.89l0,.14a2.1,2.1,0,0,1,1.46-.15.35.35,0,0,1-.09.09,2.79,2.79,0,0,1,.63.25,1,1,0,0,1,.44.5S95.19,38.06,95.16,38.05Z"/></g></svg>